M48
;GenerationSoftware,Autodesk,EAGLE,9.6.1*%
;CreationDate,2025-01-06T06:07:19Z*%
FMAT,2
ICI,OFF
METRIC,TZ,000.000
T6C0.250
T5C0.350
T4C1.016
T3C1.020
T2C1.100
T1C2.750
%
G90
M71
T1
X-3000Y-29000
X-3000Y29000
T2
X-1740Y-19050
X-4280Y-19050
X-1740Y-16510
X-4280Y-16510
X-1740Y-13970
X-4280Y-13970
X-1740Y-11430
X-4280Y-11430
X-1740Y11430
X-1740Y-8890
X-4280Y-8890
X-1740Y-6350
X-4280Y-6350
X-1740Y-3810
X-4280Y-3810
X-1740Y-1270
X-4280Y-1270
X-1740Y1270
X-4280Y1270
X-1740Y3810
X-4280Y3810
X-1740Y6350
X-4280Y6350
X-1740Y8890
X-4280Y8890
X-1740Y-21590
X-4280Y-21590
X-4280Y24130
X-1740Y24130
X-4280Y21590
X-1740Y21590
X-4280Y19050
X-1740Y19050
X-4280Y16510
X-1740Y16510
X-4280Y13970
X-1740Y13970
X-4280Y11430
X-4280Y-24130
X-1740Y-24130
T3
X7144Y-318
X4604Y-318
T4
X2381Y7937
X5239Y23812
X2699Y23812
X7779Y26352
X5239Y26352
X2699Y26352
X7461Y7937
X4921Y7937
X7779Y23812
T5
X-9525Y-6667
X5136Y-12382
X1270Y-11645
X-6667Y420
X7937Y5236
X-6985Y23848
X-6985Y21749
X7144Y-36318
X7144Y-38418
X-6667Y37818
X-6667Y35719
X-6191Y10989
X-6191Y9366
X-5715Y-22066
X1270Y-6452
X-8573Y-8449
T6
X-9792Y23029
X-10528Y9663
X10639Y9772
X-9905Y-23283
X9684Y-23283
X-9843Y-36966
X9742Y-36966
X-9801Y-8043
X9616Y37301
X-9751Y37472
X9841Y-8328
M30