G04 EAGLE Gerber RS-274X export*
G75*
%MOMM*%
%FSLAX34Y34*%
%LPD*%
%INBottom Copper*%
%IPPOS*%
%AMOC8*
5,1,8,0,0,1.08239X$1,22.5*%
G01*
%ADD10C,1.000000*%
%ADD11P,1.649562X8X292.500000*%
%ADD12C,1.422400*%
%ADD13C,0.806400*%
%ADD14C,0.406400*%
%ADD15C,1.270000*%

G36*
X762428Y339506D02*
X762428Y339506D01*
X762456Y339504D01*
X762524Y339526D01*
X762595Y339540D01*
X762618Y339556D01*
X762645Y339565D01*
X762700Y339612D01*
X762759Y339653D01*
X762774Y339677D01*
X762796Y339695D01*
X762827Y339760D01*
X762866Y339820D01*
X762871Y339848D01*
X762883Y339874D01*
X762892Y339975D01*
X762899Y340017D01*
X762897Y340027D01*
X762898Y340040D01*
X762655Y343090D01*
X762646Y343122D01*
X762642Y343169D01*
X762550Y343544D01*
X897451Y343551D01*
X897358Y343169D01*
X897356Y343135D01*
X897345Y343090D01*
X897102Y340040D01*
X897106Y340011D01*
X897101Y339983D01*
X897118Y339914D01*
X897126Y339842D01*
X897141Y339818D01*
X897147Y339790D01*
X897190Y339732D01*
X897226Y339670D01*
X897248Y339653D01*
X897265Y339630D01*
X897327Y339593D01*
X897384Y339550D01*
X897412Y339543D01*
X897436Y339528D01*
X897536Y339512D01*
X897577Y339501D01*
X897587Y339503D01*
X897600Y339501D01*
X916600Y339501D01*
X916676Y339516D01*
X916754Y339525D01*
X916773Y339536D01*
X916795Y339540D01*
X916859Y339584D01*
X916927Y339623D01*
X916943Y339642D01*
X916959Y339653D01*
X916983Y339691D01*
X917033Y339751D01*
X926533Y356251D01*
X926542Y356278D01*
X926558Y356302D01*
X926573Y356372D01*
X926596Y356440D01*
X926593Y356468D01*
X926599Y356496D01*
X926586Y356567D01*
X926580Y356638D01*
X926567Y356663D01*
X926561Y356691D01*
X926521Y356751D01*
X926488Y356814D01*
X926466Y356832D01*
X926450Y356856D01*
X926367Y356914D01*
X926335Y356941D01*
X926324Y356944D01*
X926314Y356951D01*
X923548Y358260D01*
X923515Y358268D01*
X923472Y358288D01*
X923119Y358390D01*
X925538Y362580D01*
X946471Y398836D01*
X946497Y398916D01*
X946529Y398995D01*
X946529Y399011D01*
X946534Y399026D01*
X946528Y399111D01*
X946527Y399195D01*
X946521Y399210D01*
X946520Y399226D01*
X946481Y399302D01*
X946448Y399379D01*
X946436Y399391D01*
X946429Y399405D01*
X946386Y399441D01*
X946321Y399507D01*
X945865Y399823D01*
X945835Y399991D01*
X945810Y400053D01*
X945794Y400118D01*
X945772Y400148D01*
X945761Y400177D01*
X945726Y400212D01*
X945689Y400264D01*
X945542Y400408D01*
X945486Y400444D01*
X945435Y400487D01*
X945400Y400499D01*
X945374Y400517D01*
X945325Y400525D01*
X945265Y400546D01*
X945096Y400572D01*
X944426Y401486D01*
X944397Y401511D01*
X944371Y401549D01*
X943558Y402340D01*
X943556Y402511D01*
X943542Y402576D01*
X943537Y402642D01*
X943521Y402676D01*
X943514Y402707D01*
X943486Y402747D01*
X943458Y402804D01*
X943336Y402970D01*
X943287Y403015D01*
X943244Y403066D01*
X943211Y403084D01*
X943188Y403105D01*
X943142Y403121D01*
X943086Y403152D01*
X942923Y403205D01*
X942412Y404217D01*
X942389Y404247D01*
X942368Y404288D01*
X941697Y405202D01*
X941723Y405371D01*
X941721Y405412D01*
X941726Y405438D01*
X941722Y405456D01*
X941726Y405504D01*
X941715Y405540D01*
X941714Y405571D01*
X941693Y405615D01*
X941675Y405677D01*
X941582Y405860D01*
X941541Y405913D01*
X941507Y405970D01*
X941477Y405993D01*
X941458Y406018D01*
X941415Y406042D01*
X941365Y406081D01*
X941214Y406160D01*
X940876Y407243D01*
X940858Y407276D01*
X940844Y407320D01*
X940333Y408332D01*
X940386Y408494D01*
X940394Y408560D01*
X940411Y408625D01*
X940406Y408662D01*
X940410Y408693D01*
X940397Y408740D01*
X940389Y408804D01*
X940327Y409000D01*
X940295Y409059D01*
X940271Y409121D01*
X940246Y409148D01*
X940231Y409176D01*
X940193Y409206D01*
X940149Y409253D01*
X940014Y409356D01*
X939859Y410480D01*
X939846Y410516D01*
X939840Y410561D01*
X939502Y411644D01*
X939582Y411795D01*
X939588Y411818D01*
X939599Y411835D01*
X939606Y411872D01*
X939627Y411920D01*
X939629Y411957D01*
X939638Y411987D01*
X939634Y412024D01*
X939635Y412032D01*
X939633Y412043D01*
X939635Y412100D01*
X939607Y412304D01*
X939585Y412366D01*
X939572Y412432D01*
X939551Y412463D01*
X939541Y412493D01*
X939508Y412529D01*
X939473Y412583D01*
X939356Y412707D01*
X939388Y413840D01*
X939381Y413877D01*
X939383Y413924D01*
X939228Y415047D01*
X939331Y415183D01*
X939360Y415243D01*
X939397Y415298D01*
X939405Y415335D01*
X939418Y415363D01*
X939421Y415412D01*
X939434Y415475D01*
X939440Y415680D01*
X939428Y415746D01*
X939426Y415813D01*
X939411Y415847D01*
X939406Y415878D01*
X939379Y415919D01*
X939354Y415978D01*
X939258Y416119D01*
X939477Y417232D01*
X939476Y417270D01*
X939486Y417315D01*
X939518Y418449D01*
X939642Y418566D01*
X939680Y418620D01*
X939726Y418669D01*
X939739Y418704D01*
X939757Y418730D01*
X939768Y418777D01*
X939791Y418837D01*
X939818Y418973D01*
X939818Y419030D01*
X939827Y419086D01*
X939817Y419129D01*
X939817Y419174D01*
X939795Y419226D01*
X939782Y419281D01*
X939754Y419321D01*
X939738Y419358D01*
X939708Y419387D01*
X939679Y419429D01*
X937109Y421999D01*
X937103Y422003D01*
X937098Y422009D01*
X937020Y422058D01*
X936943Y422110D01*
X936935Y422111D01*
X936928Y422115D01*
X936751Y422147D01*
X911260Y422147D01*
X907806Y423578D01*
X905107Y426277D01*
X905079Y426319D01*
X905074Y426322D01*
X905070Y426327D01*
X904990Y426377D01*
X904912Y426429D01*
X904905Y426430D01*
X904900Y426433D01*
X904722Y426465D01*
X858837Y426465D01*
X858829Y426464D01*
X858822Y426465D01*
X858732Y426444D01*
X858641Y426426D01*
X858634Y426421D01*
X858626Y426419D01*
X858478Y426317D01*
X857705Y425543D01*
X856805Y425171D01*
X855581Y424663D01*
X855102Y424465D01*
X852286Y424465D01*
X849683Y425543D01*
X847691Y427535D01*
X846613Y430138D01*
X846613Y432954D01*
X847691Y435557D01*
X849683Y437549D01*
X850606Y437931D01*
X851831Y438438D01*
X852286Y438627D01*
X855102Y438627D01*
X857705Y437549D01*
X858478Y436775D01*
X858485Y436771D01*
X858490Y436765D01*
X858568Y436716D01*
X858645Y436664D01*
X858653Y436663D01*
X858660Y436659D01*
X858837Y436627D01*
X904722Y436627D01*
X904729Y436628D01*
X904735Y436627D01*
X904827Y436648D01*
X904919Y436666D01*
X904924Y436670D01*
X904931Y436671D01*
X905007Y436726D01*
X905085Y436779D01*
X905088Y436784D01*
X905094Y436788D01*
X905117Y436825D01*
X907806Y439514D01*
X908883Y439960D01*
X910108Y440467D01*
X911260Y440945D01*
X942724Y440945D01*
X946178Y439514D01*
X948893Y436799D01*
X951623Y434068D01*
X951627Y434066D01*
X951630Y434062D01*
X951711Y434010D01*
X951790Y433957D01*
X951795Y433957D01*
X951799Y433954D01*
X951894Y433938D01*
X951987Y433920D01*
X951992Y433921D01*
X951996Y433920D01*
X952173Y433957D01*
X952304Y434010D01*
X952360Y434047D01*
X952420Y434076D01*
X952445Y434103D01*
X952472Y434121D01*
X952499Y434162D01*
X952542Y434209D01*
X952633Y434353D01*
X953740Y434600D01*
X953775Y434615D01*
X953820Y434625D01*
X954871Y435051D01*
X955028Y434984D01*
X955093Y434971D01*
X955156Y434949D01*
X955193Y434950D01*
X955224Y434944D01*
X955272Y434954D01*
X955336Y434956D01*
X955537Y435001D01*
X955598Y435028D01*
X955662Y435047D01*
X955691Y435070D01*
X955720Y435083D01*
X955754Y435118D01*
X955804Y435158D01*
X955918Y435285D01*
X957050Y435346D01*
X957087Y435356D01*
X957133Y435358D01*
X958240Y435605D01*
X958384Y435514D01*
X958446Y435490D01*
X958504Y435458D01*
X958541Y435453D01*
X958571Y435442D01*
X958620Y435443D01*
X958683Y435435D01*
X958889Y435447D01*
X958953Y435463D01*
X959019Y435471D01*
X959052Y435489D01*
X959083Y435497D01*
X959122Y435526D01*
X959178Y435557D01*
X959311Y435663D01*
X960438Y435538D01*
X960476Y435541D01*
X960522Y435536D01*
X961654Y435597D01*
X961781Y435483D01*
X961838Y435450D01*
X961890Y435408D01*
X961921Y435399D01*
X961941Y435387D01*
X961946Y435386D01*
X961953Y435382D01*
X962002Y435375D01*
X962063Y435357D01*
X962268Y435334D01*
X962334Y435340D01*
X962401Y435337D01*
X962436Y435349D01*
X962467Y435352D01*
X962511Y435375D01*
X962571Y435395D01*
X962720Y435479D01*
X963811Y435169D01*
X963849Y435166D01*
X963893Y435153D01*
X965020Y435028D01*
X965127Y434895D01*
X965178Y434852D01*
X965223Y434802D01*
X965256Y434786D01*
X965280Y434766D01*
X965327Y434751D01*
X965384Y434723D01*
X965582Y434667D01*
X965649Y434662D01*
X965714Y434648D01*
X965751Y434654D01*
X965782Y434652D01*
X965829Y434667D01*
X965892Y434678D01*
X966052Y434735D01*
X966528Y434510D01*
X966611Y434490D01*
X966692Y434464D01*
X966708Y434466D01*
X966723Y434462D01*
X966807Y434475D01*
X966891Y434483D01*
X966905Y434490D01*
X966921Y434493D01*
X966993Y434537D01*
X967068Y434577D01*
X967079Y434590D01*
X967092Y434598D01*
X967124Y434644D01*
X967184Y434715D01*
X990537Y475164D01*
X990831Y474882D01*
X990859Y474864D01*
X990893Y474831D01*
X993416Y473089D01*
X993443Y473078D01*
X993465Y473059D01*
X993534Y473039D01*
X993599Y473011D01*
X993628Y473011D01*
X993656Y473003D01*
X993727Y473011D01*
X993798Y473011D01*
X993825Y473022D01*
X993854Y473025D01*
X993916Y473060D01*
X993981Y473088D01*
X994002Y473108D01*
X994027Y473123D01*
X994090Y473200D01*
X994120Y473230D01*
X994124Y473240D01*
X994133Y473251D01*
X1003633Y489751D01*
X1003643Y489783D01*
X1003652Y489796D01*
X1003656Y489820D01*
X1003657Y489824D01*
X1003688Y489894D01*
X1003688Y489918D01*
X1003696Y489940D01*
X1003690Y490016D01*
X1003691Y490093D01*
X1003681Y490117D01*
X1003680Y490138D01*
X1003659Y490177D01*
X1003633Y490249D01*
X994133Y506749D01*
X994114Y506771D01*
X994101Y506797D01*
X994048Y506845D01*
X994001Y506898D01*
X993975Y506911D01*
X993954Y506930D01*
X993886Y506953D01*
X993822Y506984D01*
X993793Y506986D01*
X993766Y506995D01*
X993694Y506990D01*
X993623Y506993D01*
X993596Y506983D01*
X993567Y506981D01*
X993477Y506939D01*
X993437Y506924D01*
X993429Y506917D01*
X993416Y506911D01*
X990893Y505169D01*
X990869Y505145D01*
X990831Y505118D01*
X990531Y504830D01*
X967180Y545283D01*
X967124Y545347D01*
X967072Y545414D01*
X967058Y545422D01*
X967048Y545433D01*
X966972Y545470D01*
X966897Y545512D01*
X966882Y545514D01*
X966867Y545521D01*
X966783Y545525D01*
X966698Y545535D01*
X966682Y545531D01*
X966667Y545531D01*
X966614Y545512D01*
X966524Y545488D01*
X966052Y545265D01*
X965892Y545322D01*
X965826Y545332D01*
X965762Y545350D01*
X965724Y545347D01*
X965693Y545351D01*
X965646Y545339D01*
X965582Y545333D01*
X965384Y545277D01*
X965325Y545246D01*
X965262Y545224D01*
X965234Y545199D01*
X965206Y545185D01*
X965175Y545147D01*
X965127Y545105D01*
X965020Y544972D01*
X963893Y544847D01*
X963857Y544835D01*
X963811Y544831D01*
X962720Y544521D01*
X962571Y544605D01*
X962508Y544625D01*
X962448Y544654D01*
X962410Y544656D01*
X962380Y544666D01*
X962332Y544661D01*
X962268Y544666D01*
X962063Y544643D01*
X962000Y544623D01*
X961934Y544611D01*
X961902Y544592D01*
X961872Y544582D01*
X961835Y544550D01*
X961781Y544517D01*
X961654Y544403D01*
X960522Y544464D01*
X960484Y544459D01*
X960438Y544462D01*
X959311Y544337D01*
X959178Y544443D01*
X959118Y544474D01*
X959064Y544512D01*
X959028Y544520D01*
X959000Y544535D01*
X958951Y544539D01*
X958889Y544553D01*
X958683Y544565D01*
X958617Y544555D01*
X958550Y544554D01*
X958516Y544540D01*
X958485Y544536D01*
X958443Y544510D01*
X958384Y544486D01*
X958240Y544395D01*
X957133Y544642D01*
X957095Y544643D01*
X957050Y544654D01*
X955918Y544715D01*
X955804Y544842D01*
X955751Y544882D01*
X955703Y544929D01*
X955669Y544943D01*
X955643Y544962D01*
X955596Y544974D01*
X955537Y544999D01*
X955336Y545044D01*
X955270Y545045D01*
X955204Y545055D01*
X955167Y545047D01*
X955136Y545048D01*
X955090Y545030D01*
X955028Y545016D01*
X954871Y544949D01*
X953820Y545375D01*
X953782Y545382D01*
X953740Y545400D01*
X952633Y545647D01*
X952542Y545791D01*
X952496Y545840D01*
X952457Y545893D01*
X952425Y545913D01*
X952403Y545936D01*
X952358Y545956D01*
X952304Y545990D01*
X952114Y546067D01*
X952048Y546079D01*
X951985Y546100D01*
X951948Y546098D01*
X951917Y546104D01*
X951869Y546094D01*
X951805Y546090D01*
X951639Y546051D01*
X950673Y546644D01*
X950637Y546657D01*
X950598Y546681D01*
X949547Y547107D01*
X949481Y547264D01*
X949443Y547319D01*
X949413Y547379D01*
X949386Y547404D01*
X949368Y547430D01*
X949327Y547457D01*
X949279Y547499D01*
X949104Y547607D01*
X949041Y547630D01*
X948982Y547661D01*
X948945Y547665D01*
X948915Y547676D01*
X948866Y547674D01*
X948803Y547681D01*
X948633Y547669D01*
X947777Y548413D01*
X947744Y548432D01*
X947710Y548462D01*
X946743Y549055D01*
X946704Y549221D01*
X946676Y549282D01*
X946656Y549346D01*
X946633Y549375D01*
X946619Y549403D01*
X946583Y549436D01*
X946543Y549486D01*
X946388Y549621D01*
X946330Y549654D01*
X946277Y549694D01*
X946241Y549705D01*
X946214Y549720D01*
X946165Y549726D01*
X946104Y549743D01*
X945934Y549760D01*
X945212Y550634D01*
X945183Y550658D01*
X945154Y550694D01*
X944298Y551438D01*
X944296Y551469D01*
X944273Y551554D01*
X944254Y551640D01*
X944246Y551650D01*
X944243Y551663D01*
X944189Y551732D01*
X944138Y551803D01*
X944127Y551810D01*
X944119Y551820D01*
X944042Y551863D01*
X943968Y551909D01*
X943954Y551912D01*
X943944Y551917D01*
X943889Y551923D01*
X943790Y551941D01*
X899830Y551941D01*
X896376Y553372D01*
X893732Y556016D01*
X892301Y559470D01*
X892301Y563210D01*
X893732Y566664D01*
X896376Y569308D01*
X896378Y569309D01*
X897603Y569816D01*
X898827Y570323D01*
X898828Y570323D01*
X899830Y570739D01*
X939873Y570739D01*
X939902Y570745D01*
X939931Y570742D01*
X939999Y570764D01*
X940069Y570778D01*
X940094Y570795D01*
X940122Y570804D01*
X940176Y570851D01*
X940235Y570891D01*
X940251Y570916D01*
X940274Y570935D01*
X940314Y571012D01*
X940344Y571059D01*
X940348Y571077D01*
X940357Y571095D01*
X940389Y571196D01*
X940396Y571263D01*
X940411Y571327D01*
X940406Y571364D01*
X940409Y571396D01*
X940395Y571443D01*
X940386Y571506D01*
X940333Y571668D01*
X940844Y572680D01*
X940854Y572717D01*
X940876Y572757D01*
X941214Y573840D01*
X941365Y573919D01*
X941416Y573961D01*
X941473Y573996D01*
X941496Y574026D01*
X941520Y574045D01*
X941543Y574089D01*
X941582Y574140D01*
X941675Y574323D01*
X941692Y574388D01*
X941719Y574449D01*
X941720Y574486D01*
X941728Y574517D01*
X941722Y574565D01*
X941723Y574629D01*
X941697Y574798D01*
X942368Y575712D01*
X942384Y575746D01*
X942412Y575783D01*
X942923Y576795D01*
X943086Y576848D01*
X943143Y576881D01*
X943205Y576906D01*
X943232Y576932D01*
X943260Y576947D01*
X943290Y576986D01*
X943336Y577030D01*
X943458Y577196D01*
X943486Y577256D01*
X943522Y577313D01*
X943529Y577349D01*
X943542Y577378D01*
X943544Y577427D01*
X943556Y577489D01*
X943558Y577660D01*
X944371Y578451D01*
X944392Y578483D01*
X944426Y578514D01*
X945096Y579428D01*
X945265Y579454D01*
X945328Y579477D01*
X945393Y579491D01*
X945424Y579512D01*
X945453Y579523D01*
X945489Y579557D01*
X945542Y579592D01*
X945689Y579736D01*
X945727Y579791D01*
X945772Y579840D01*
X945785Y579875D01*
X945803Y579901D01*
X945812Y579949D01*
X945835Y580009D01*
X945865Y580177D01*
X946320Y580493D01*
X946378Y580554D01*
X946440Y580611D01*
X946447Y580626D01*
X946458Y580637D01*
X946489Y580716D01*
X946524Y580793D01*
X946524Y580809D01*
X946530Y580824D01*
X946528Y580909D01*
X946530Y580993D01*
X946525Y581010D01*
X946524Y581025D01*
X946501Y581076D01*
X946481Y581132D01*
X946478Y581142D01*
X946476Y581146D01*
X946470Y581163D01*
X939018Y594072D01*
X923119Y621610D01*
X923472Y621712D01*
X923502Y621728D01*
X923548Y621740D01*
X926314Y623049D01*
X926336Y623066D01*
X926363Y623076D01*
X926415Y623125D01*
X926473Y623168D01*
X926487Y623193D01*
X926508Y623212D01*
X926537Y623278D01*
X926573Y623340D01*
X926576Y623368D01*
X926588Y623394D01*
X926589Y623466D01*
X926598Y623537D01*
X926590Y623564D01*
X926591Y623593D01*
X926555Y623688D01*
X926544Y623728D01*
X926537Y623737D01*
X926533Y623749D01*
X917176Y640000D01*
X926533Y656251D01*
X926542Y656278D01*
X926558Y656302D01*
X926573Y656372D01*
X926596Y656440D01*
X926593Y656468D01*
X926599Y656496D01*
X926586Y656567D01*
X926580Y656638D01*
X926567Y656663D01*
X926561Y656691D01*
X926521Y656751D01*
X926488Y656814D01*
X926466Y656832D01*
X926450Y656856D01*
X926367Y656914D01*
X926335Y656941D01*
X926324Y656944D01*
X926314Y656951D01*
X923548Y658260D01*
X923515Y658268D01*
X923472Y658288D01*
X923119Y658390D01*
X946471Y698836D01*
X946497Y698916D01*
X946529Y698995D01*
X946529Y699011D01*
X946534Y699026D01*
X946528Y699111D01*
X946527Y699195D01*
X946521Y699210D01*
X946520Y699226D01*
X946481Y699302D01*
X946448Y699379D01*
X946436Y699391D01*
X946429Y699405D01*
X946386Y699441D01*
X946321Y699507D01*
X945865Y699823D01*
X945835Y699991D01*
X945810Y700053D01*
X945794Y700117D01*
X945772Y700148D01*
X945761Y700177D01*
X945726Y700212D01*
X945689Y700264D01*
X945542Y700408D01*
X945486Y700444D01*
X945435Y700487D01*
X945400Y700499D01*
X945374Y700517D01*
X945325Y700525D01*
X945265Y700546D01*
X945096Y700572D01*
X944426Y701486D01*
X944397Y701511D01*
X944371Y701549D01*
X943558Y702340D01*
X943556Y702511D01*
X943542Y702576D01*
X943537Y702642D01*
X943521Y702676D01*
X943514Y702707D01*
X943486Y702747D01*
X943458Y702804D01*
X943336Y702970D01*
X943287Y703015D01*
X943244Y703066D01*
X943211Y703084D01*
X943188Y703105D01*
X943142Y703121D01*
X943086Y703152D01*
X942923Y703205D01*
X942412Y704217D01*
X942389Y704247D01*
X942368Y704288D01*
X941697Y705202D01*
X941723Y705371D01*
X941720Y705438D01*
X941726Y705504D01*
X941715Y705540D01*
X941714Y705571D01*
X941693Y705615D01*
X941675Y705677D01*
X941582Y705860D01*
X941541Y705913D01*
X941507Y705970D01*
X941477Y705993D01*
X941458Y706018D01*
X941415Y706042D01*
X941365Y706081D01*
X941214Y706160D01*
X940876Y707243D01*
X940858Y707276D01*
X940844Y707320D01*
X940333Y708332D01*
X940367Y708436D01*
X940377Y708520D01*
X940392Y708604D01*
X940389Y708619D01*
X940391Y708635D01*
X940367Y708717D01*
X940349Y708800D01*
X940340Y708813D01*
X940336Y708827D01*
X940282Y708894D01*
X940233Y708963D01*
X940220Y708972D01*
X940210Y708984D01*
X940135Y709024D01*
X940063Y709069D01*
X940046Y709072D01*
X940034Y709079D01*
X939978Y709085D01*
X939885Y709101D01*
X921420Y709101D01*
X917966Y710532D01*
X915267Y713231D01*
X915239Y713273D01*
X915234Y713276D01*
X915230Y713281D01*
X915150Y713331D01*
X915072Y713383D01*
X915065Y713384D01*
X915060Y713387D01*
X914882Y713419D01*
X862235Y713419D01*
X862227Y713418D01*
X862219Y713419D01*
X862129Y713398D01*
X862038Y713380D01*
X862032Y713375D01*
X862024Y713373D01*
X861876Y713271D01*
X831865Y683259D01*
X796153Y683259D01*
X796151Y683259D01*
X796148Y683259D01*
X796053Y683239D01*
X795957Y683220D01*
X795954Y683218D01*
X795952Y683218D01*
X795871Y683162D01*
X795791Y683107D01*
X795789Y683105D01*
X795787Y683103D01*
X795734Y683020D01*
X795682Y682939D01*
X795681Y682936D01*
X795680Y682934D01*
X795663Y682838D01*
X795646Y682742D01*
X795647Y682739D01*
X795646Y682737D01*
X795668Y682642D01*
X795690Y682546D01*
X795691Y682544D01*
X795692Y682541D01*
X795794Y682393D01*
X798069Y680119D01*
X798069Y671281D01*
X791819Y665031D01*
X782981Y665031D01*
X776731Y671281D01*
X776731Y680119D01*
X779006Y682393D01*
X779007Y682396D01*
X779009Y682397D01*
X779062Y682478D01*
X779116Y682560D01*
X779117Y682563D01*
X779118Y682565D01*
X779136Y682661D01*
X779154Y682757D01*
X779154Y682760D01*
X779154Y682762D01*
X779133Y682859D01*
X779112Y682953D01*
X779111Y682955D01*
X779110Y682958D01*
X779054Y683038D01*
X778998Y683118D01*
X778996Y683119D01*
X778994Y683121D01*
X778912Y683173D01*
X778829Y683225D01*
X778826Y683226D01*
X778824Y683227D01*
X778647Y683259D01*
X759523Y683259D01*
X759515Y683258D01*
X759508Y683259D01*
X759418Y683238D01*
X759327Y683220D01*
X759320Y683215D01*
X759312Y683213D01*
X759164Y683111D01*
X758391Y682337D01*
X757188Y681839D01*
X755964Y681332D01*
X755788Y681259D01*
X752972Y681259D01*
X750369Y682337D01*
X748377Y684329D01*
X747299Y686932D01*
X747299Y689748D01*
X748377Y692351D01*
X750369Y694343D01*
X750989Y694600D01*
X752214Y695107D01*
X752972Y695421D01*
X755788Y695421D01*
X758391Y694343D01*
X759164Y693569D01*
X759171Y693565D01*
X759176Y693559D01*
X759254Y693510D01*
X759331Y693458D01*
X759339Y693457D01*
X759346Y693453D01*
X759523Y693421D01*
X778767Y693421D01*
X778769Y693421D01*
X778772Y693421D01*
X778867Y693441D01*
X778963Y693460D01*
X778966Y693462D01*
X778968Y693462D01*
X779049Y693518D01*
X779129Y693573D01*
X779131Y693575D01*
X779133Y693577D01*
X779186Y693660D01*
X779238Y693741D01*
X779239Y693744D01*
X779240Y693746D01*
X779257Y693842D01*
X779274Y693938D01*
X779273Y693941D01*
X779274Y693943D01*
X779252Y694037D01*
X779230Y694134D01*
X779229Y694136D01*
X779228Y694139D01*
X779126Y694287D01*
X776731Y696681D01*
X776731Y705519D01*
X782981Y711769D01*
X791819Y711769D01*
X798069Y705519D01*
X798069Y696681D01*
X795674Y694287D01*
X795673Y694284D01*
X795671Y694283D01*
X795618Y694202D01*
X795564Y694120D01*
X795563Y694117D01*
X795562Y694115D01*
X795544Y694019D01*
X795526Y693923D01*
X795526Y693920D01*
X795526Y693918D01*
X795547Y693821D01*
X795568Y693727D01*
X795569Y693725D01*
X795570Y693722D01*
X795626Y693642D01*
X795682Y693562D01*
X795684Y693561D01*
X795686Y693559D01*
X795768Y693507D01*
X795851Y693455D01*
X795854Y693454D01*
X795856Y693453D01*
X796033Y693421D01*
X804167Y693421D01*
X804169Y693421D01*
X804172Y693421D01*
X804267Y693441D01*
X804363Y693460D01*
X804366Y693462D01*
X804368Y693462D01*
X804449Y693518D01*
X804529Y693573D01*
X804531Y693575D01*
X804533Y693577D01*
X804586Y693660D01*
X804638Y693741D01*
X804639Y693744D01*
X804640Y693746D01*
X804657Y693842D01*
X804674Y693938D01*
X804673Y693941D01*
X804674Y693943D01*
X804652Y694037D01*
X804630Y694134D01*
X804629Y694136D01*
X804628Y694139D01*
X804526Y694287D01*
X802131Y696681D01*
X802131Y705519D01*
X808381Y711769D01*
X817219Y711769D01*
X823469Y705519D01*
X823469Y696681D01*
X821074Y694287D01*
X821073Y694284D01*
X821071Y694283D01*
X821018Y694202D01*
X820964Y694120D01*
X820963Y694117D01*
X820962Y694115D01*
X820944Y694019D01*
X820926Y693923D01*
X820926Y693920D01*
X820926Y693918D01*
X820947Y693821D01*
X820968Y693727D01*
X820969Y693725D01*
X820970Y693722D01*
X821026Y693642D01*
X821082Y693562D01*
X821084Y693561D01*
X821086Y693559D01*
X821168Y693507D01*
X821251Y693455D01*
X821254Y693454D01*
X821256Y693453D01*
X821433Y693421D01*
X827445Y693421D01*
X827453Y693422D01*
X827461Y693421D01*
X827551Y693442D01*
X827642Y693460D01*
X827648Y693465D01*
X827656Y693467D01*
X827804Y693569D01*
X857815Y723581D01*
X914882Y723581D01*
X914889Y723582D01*
X914895Y723581D01*
X914987Y723602D01*
X915079Y723620D01*
X915084Y723624D01*
X915091Y723625D01*
X915167Y723680D01*
X915245Y723733D01*
X915248Y723738D01*
X915254Y723742D01*
X915277Y723779D01*
X917966Y726468D01*
X918179Y726556D01*
X918180Y726556D01*
X919404Y727064D01*
X920629Y727571D01*
X921420Y727899D01*
X943764Y727899D01*
X943795Y727905D01*
X943828Y727903D01*
X943892Y727925D01*
X943960Y727938D01*
X943987Y727957D01*
X944017Y727967D01*
X944080Y728020D01*
X944126Y728051D01*
X944137Y728068D01*
X944155Y728083D01*
X944172Y728104D01*
X944203Y728163D01*
X944242Y728217D01*
X944252Y728253D01*
X944266Y728281D01*
X944271Y728330D01*
X944287Y728391D01*
X944298Y728562D01*
X945154Y729306D01*
X945177Y729336D01*
X945212Y729366D01*
X945934Y730240D01*
X946104Y730257D01*
X946167Y730276D01*
X946233Y730287D01*
X946265Y730306D01*
X946295Y730315D01*
X946333Y730346D01*
X946388Y730379D01*
X946543Y730514D01*
X946584Y730567D01*
X946631Y730614D01*
X946646Y730648D01*
X946665Y730673D01*
X946678Y730720D01*
X946704Y730779D01*
X946743Y730945D01*
X947710Y731538D01*
X947738Y731564D01*
X947777Y731587D01*
X948633Y732331D01*
X948803Y732319D01*
X948869Y732328D01*
X948936Y732328D01*
X948970Y732341D01*
X949002Y732345D01*
X949044Y732370D01*
X949104Y732393D01*
X949279Y732501D01*
X949328Y732546D01*
X949382Y732585D01*
X949403Y732616D01*
X949426Y732637D01*
X949446Y732682D01*
X949481Y732736D01*
X949547Y732893D01*
X950598Y733319D01*
X950630Y733340D01*
X950673Y733356D01*
X951639Y733949D01*
X951805Y733910D01*
X951871Y733907D01*
X951937Y733896D01*
X951974Y733904D01*
X952005Y733903D01*
X952051Y733920D01*
X952114Y733933D01*
X952304Y734010D01*
X952360Y734047D01*
X952420Y734076D01*
X952445Y734103D01*
X952471Y734121D01*
X952499Y734162D01*
X952542Y734209D01*
X952633Y734353D01*
X953740Y734600D01*
X953775Y734615D01*
X953820Y734625D01*
X954871Y735051D01*
X955028Y734984D01*
X955093Y734971D01*
X955156Y734949D01*
X955193Y734950D01*
X955224Y734944D01*
X955272Y734954D01*
X955336Y734956D01*
X955537Y735001D01*
X955598Y735028D01*
X955662Y735047D01*
X955691Y735070D01*
X955720Y735083D01*
X955754Y735118D01*
X955804Y735158D01*
X955918Y735285D01*
X957050Y735346D01*
X957087Y735356D01*
X957133Y735358D01*
X958240Y735605D01*
X958384Y735514D01*
X958446Y735490D01*
X958504Y735458D01*
X958541Y735453D01*
X958571Y735442D01*
X958620Y735443D01*
X958683Y735435D01*
X958889Y735447D01*
X958953Y735463D01*
X959019Y735471D01*
X959052Y735489D01*
X959083Y735497D01*
X959122Y735526D01*
X959178Y735557D01*
X959311Y735663D01*
X960438Y735538D01*
X960476Y735541D01*
X960522Y735536D01*
X961654Y735597D01*
X961781Y735483D01*
X961838Y735450D01*
X961890Y735408D01*
X961926Y735398D01*
X961953Y735382D01*
X962002Y735375D01*
X962063Y735357D01*
X962268Y735334D01*
X962334Y735340D01*
X962401Y735337D01*
X962436Y735349D01*
X962467Y735352D01*
X962511Y735375D01*
X962571Y735395D01*
X962720Y735479D01*
X963811Y735169D01*
X963849Y735166D01*
X963893Y735153D01*
X965020Y735028D01*
X965127Y734895D01*
X965178Y734852D01*
X965222Y734802D01*
X965256Y734786D01*
X965280Y734766D01*
X965327Y734751D01*
X965384Y734723D01*
X965582Y734667D01*
X965649Y734662D01*
X965714Y734648D01*
X965751Y734654D01*
X965782Y734652D01*
X965829Y734667D01*
X965892Y734678D01*
X966052Y734735D01*
X966528Y734510D01*
X966611Y734490D01*
X966692Y734464D01*
X966708Y734466D01*
X966723Y734462D01*
X966807Y734475D01*
X966891Y734483D01*
X966905Y734490D01*
X966921Y734493D01*
X966993Y734537D01*
X967068Y734577D01*
X967079Y734590D01*
X967092Y734598D01*
X967124Y734644D01*
X967184Y734715D01*
X990537Y775164D01*
X990831Y774882D01*
X990859Y774864D01*
X990893Y774831D01*
X993416Y773089D01*
X993443Y773078D01*
X993465Y773059D01*
X993534Y773039D01*
X993599Y773011D01*
X993628Y773011D01*
X993656Y773003D01*
X993727Y773011D01*
X993798Y773011D01*
X993825Y773022D01*
X993854Y773025D01*
X993916Y773060D01*
X993981Y773088D01*
X994002Y773108D01*
X994027Y773123D01*
X994090Y773200D01*
X994120Y773230D01*
X994124Y773240D01*
X994133Y773251D01*
X1003633Y789751D01*
X1003643Y789783D01*
X1003652Y789796D01*
X1003656Y789820D01*
X1003657Y789824D01*
X1003688Y789894D01*
X1003688Y789918D01*
X1003696Y789940D01*
X1003690Y790016D01*
X1003691Y790093D01*
X1003681Y790117D01*
X1003680Y790138D01*
X1003659Y790177D01*
X1003633Y790249D01*
X994133Y806749D01*
X994114Y806771D01*
X994101Y806797D01*
X994048Y806845D01*
X994001Y806898D01*
X993975Y806911D01*
X993954Y806930D01*
X993886Y806953D01*
X993822Y806984D01*
X993793Y806986D01*
X993766Y806995D01*
X993694Y806990D01*
X993623Y806993D01*
X993596Y806983D01*
X993567Y806981D01*
X993477Y806939D01*
X993437Y806924D01*
X993429Y806917D01*
X993416Y806911D01*
X990893Y805169D01*
X990869Y805145D01*
X990831Y805118D01*
X990516Y804816D01*
X967162Y845274D01*
X967106Y845338D01*
X967054Y845405D01*
X967040Y845413D01*
X967030Y845425D01*
X966953Y845462D01*
X966879Y845503D01*
X966863Y845505D01*
X966849Y845512D01*
X966764Y845517D01*
X966680Y845526D01*
X966664Y845522D01*
X966649Y845523D01*
X966596Y845504D01*
X966506Y845479D01*
X966052Y845265D01*
X965892Y845322D01*
X965826Y845332D01*
X965762Y845350D01*
X965724Y845347D01*
X965693Y845351D01*
X965646Y845339D01*
X965582Y845333D01*
X965384Y845277D01*
X965325Y845246D01*
X965262Y845224D01*
X965234Y845200D01*
X965206Y845185D01*
X965175Y845147D01*
X965127Y845105D01*
X965020Y844972D01*
X963893Y844847D01*
X963857Y844835D01*
X963811Y844831D01*
X962720Y844521D01*
X962571Y844605D01*
X962508Y844625D01*
X962447Y844654D01*
X962410Y844656D01*
X962380Y844666D01*
X962331Y844661D01*
X962268Y844666D01*
X962063Y844643D01*
X962000Y844623D01*
X961934Y844611D01*
X961902Y844592D01*
X961872Y844582D01*
X961835Y844550D01*
X961781Y844517D01*
X961654Y844403D01*
X960522Y844464D01*
X960484Y844459D01*
X960438Y844462D01*
X959311Y844337D01*
X959178Y844443D01*
X959118Y844474D01*
X959064Y844512D01*
X959028Y844520D01*
X959000Y844535D01*
X958951Y844539D01*
X958889Y844553D01*
X958683Y844565D01*
X958617Y844555D01*
X958550Y844554D01*
X958516Y844540D01*
X958485Y844536D01*
X958443Y844510D01*
X958384Y844486D01*
X958240Y844395D01*
X957133Y844642D01*
X957095Y844643D01*
X957050Y844654D01*
X955918Y844715D01*
X955804Y844842D01*
X955751Y844882D01*
X955703Y844929D01*
X955669Y844943D01*
X955643Y844962D01*
X955596Y844974D01*
X955537Y844999D01*
X955336Y845044D01*
X955270Y845045D01*
X955204Y845055D01*
X955167Y845047D01*
X955136Y845048D01*
X955090Y845030D01*
X955028Y845016D01*
X954871Y844949D01*
X953820Y845375D01*
X953782Y845382D01*
X953740Y845400D01*
X952633Y845647D01*
X952542Y845791D01*
X952496Y845840D01*
X952457Y845893D01*
X952425Y845913D01*
X952403Y845936D01*
X952358Y845956D01*
X952304Y845990D01*
X952114Y846067D01*
X952048Y846079D01*
X951985Y846100D01*
X951948Y846098D01*
X951917Y846104D01*
X951869Y846094D01*
X951805Y846090D01*
X951639Y846051D01*
X950673Y846644D01*
X950637Y846657D01*
X950598Y846681D01*
X949547Y847107D01*
X949481Y847264D01*
X949443Y847319D01*
X949413Y847379D01*
X949386Y847404D01*
X949368Y847430D01*
X949327Y847457D01*
X949279Y847499D01*
X949104Y847607D01*
X949041Y847630D01*
X948982Y847661D01*
X948945Y847665D01*
X948915Y847676D01*
X948866Y847674D01*
X948803Y847681D01*
X948633Y847669D01*
X947777Y848413D01*
X947744Y848432D01*
X947710Y848462D01*
X946743Y849055D01*
X946704Y849221D01*
X946676Y849282D01*
X946656Y849346D01*
X946633Y849375D01*
X946619Y849403D01*
X946583Y849436D01*
X946543Y849486D01*
X946388Y849621D01*
X946330Y849654D01*
X946277Y849694D01*
X946241Y849705D01*
X946214Y849720D01*
X946165Y849726D01*
X946104Y849743D01*
X945934Y849760D01*
X945212Y850634D01*
X945194Y850649D01*
X945190Y850655D01*
X945181Y850661D01*
X945154Y850694D01*
X944298Y851438D01*
X944287Y851609D01*
X944269Y851673D01*
X944260Y851739D01*
X944242Y851772D01*
X944233Y851802D01*
X944203Y851841D01*
X944172Y851896D01*
X944155Y851917D01*
X944130Y851937D01*
X944111Y851963D01*
X944052Y852000D01*
X943999Y852043D01*
X943968Y852052D01*
X943941Y852069D01*
X943860Y852084D01*
X943806Y852099D01*
X943786Y852097D01*
X943764Y852101D01*
X922513Y852101D01*
X922504Y852099D01*
X922495Y852101D01*
X922319Y852063D01*
X922316Y852062D01*
X921607Y851768D01*
X921350Y851661D01*
X917610Y851661D01*
X914156Y853092D01*
X911457Y855791D01*
X911430Y855832D01*
X911424Y855836D01*
X911420Y855841D01*
X911340Y855891D01*
X911262Y855942D01*
X911256Y855944D01*
X911250Y855947D01*
X911072Y855979D01*
X904303Y855979D01*
X904295Y855978D01*
X904288Y855979D01*
X904198Y855958D01*
X904107Y855940D01*
X904100Y855935D01*
X904092Y855933D01*
X903944Y855831D01*
X903171Y855057D01*
X902577Y854811D01*
X901353Y854304D01*
X900568Y853979D01*
X897752Y853979D01*
X895149Y855057D01*
X893157Y857049D01*
X892079Y859652D01*
X892079Y862468D01*
X893157Y865071D01*
X895149Y867063D01*
X895153Y867065D01*
X896378Y867572D01*
X897603Y868079D01*
X897752Y868141D01*
X900568Y868141D01*
X903171Y867063D01*
X903944Y866289D01*
X903951Y866285D01*
X903956Y866279D01*
X904034Y866230D01*
X904111Y866178D01*
X904119Y866177D01*
X904126Y866173D01*
X904303Y866141D01*
X911072Y866141D01*
X911079Y866142D01*
X911086Y866141D01*
X911177Y866162D01*
X911269Y866180D01*
X911275Y866184D01*
X911281Y866186D01*
X911357Y866240D01*
X911435Y866293D01*
X911439Y866299D01*
X911444Y866303D01*
X911468Y866339D01*
X914596Y869468D01*
X914917Y869601D01*
X916142Y870108D01*
X917366Y870615D01*
X918050Y870899D01*
X939885Y870899D01*
X939969Y870916D01*
X940053Y870927D01*
X940067Y870935D01*
X940082Y870938D01*
X940152Y870986D01*
X940226Y871030D01*
X940235Y871042D01*
X940248Y871051D01*
X940294Y871122D01*
X940345Y871191D01*
X940348Y871206D01*
X940357Y871219D01*
X940372Y871303D01*
X940392Y871386D01*
X940390Y871402D01*
X940392Y871416D01*
X940380Y871471D01*
X940367Y871564D01*
X940333Y871668D01*
X940844Y872680D01*
X940854Y872717D01*
X940876Y872757D01*
X941214Y873840D01*
X941365Y873919D01*
X941416Y873961D01*
X941473Y873996D01*
X941496Y874026D01*
X941520Y874045D01*
X941543Y874089D01*
X941582Y874140D01*
X941675Y874323D01*
X941692Y874388D01*
X941719Y874449D01*
X941720Y874486D01*
X941728Y874517D01*
X941722Y874565D01*
X941723Y874629D01*
X941697Y874798D01*
X942368Y875712D01*
X942384Y875746D01*
X942412Y875783D01*
X942923Y876795D01*
X943086Y876848D01*
X943143Y876881D01*
X943205Y876906D01*
X943232Y876932D01*
X943260Y876947D01*
X943290Y876986D01*
X943336Y877030D01*
X943458Y877196D01*
X943486Y877256D01*
X943522Y877313D01*
X943529Y877349D01*
X943542Y877378D01*
X943544Y877427D01*
X943556Y877489D01*
X943558Y877660D01*
X944371Y878451D01*
X944392Y878483D01*
X944426Y878514D01*
X945096Y879428D01*
X945265Y879454D01*
X945328Y879477D01*
X945393Y879491D01*
X945424Y879512D01*
X945453Y879523D01*
X945489Y879557D01*
X945542Y879592D01*
X945689Y879736D01*
X945727Y879791D01*
X945772Y879840D01*
X945785Y879875D01*
X945803Y879901D01*
X945812Y879949D01*
X945835Y880009D01*
X945865Y880177D01*
X946303Y880481D01*
X946361Y880542D01*
X946424Y880599D01*
X946431Y880614D01*
X946442Y880626D01*
X946472Y880705D01*
X946507Y880781D01*
X946508Y880798D01*
X946514Y880813D01*
X946511Y880898D01*
X946514Y880982D01*
X946508Y880998D01*
X946508Y881013D01*
X946484Y881064D01*
X946453Y881151D01*
X923102Y921605D01*
X923472Y921712D01*
X923502Y921728D01*
X923548Y921740D01*
X926314Y923049D01*
X926336Y923066D01*
X926363Y923076D01*
X926415Y923125D01*
X926473Y923168D01*
X926487Y923193D01*
X926508Y923212D01*
X926537Y923278D01*
X926573Y923340D01*
X926576Y923368D01*
X926588Y923394D01*
X926589Y923466D01*
X926598Y923537D01*
X926590Y923564D01*
X926591Y923593D01*
X926555Y923688D01*
X926544Y923728D01*
X926537Y923737D01*
X926533Y923749D01*
X917176Y940000D01*
X926533Y956251D01*
X926542Y956278D01*
X926558Y956302D01*
X926573Y956372D01*
X926596Y956440D01*
X926593Y956468D01*
X926599Y956496D01*
X926586Y956567D01*
X926580Y956638D01*
X926567Y956663D01*
X926561Y956691D01*
X926521Y956751D01*
X926488Y956814D01*
X926466Y956832D01*
X926450Y956856D01*
X926367Y956914D01*
X926335Y956941D01*
X926324Y956944D01*
X926314Y956951D01*
X923548Y958260D01*
X923515Y958268D01*
X923472Y958288D01*
X923119Y958390D01*
X946471Y998836D01*
X946497Y998916D01*
X946529Y998995D01*
X946529Y999011D01*
X946534Y999026D01*
X946528Y999111D01*
X946527Y999195D01*
X946521Y999210D01*
X946520Y999226D01*
X946481Y999302D01*
X946448Y999379D01*
X946436Y999391D01*
X946429Y999405D01*
X946386Y999441D01*
X946321Y999507D01*
X945865Y999823D01*
X945835Y999991D01*
X945810Y1000053D01*
X945794Y1000117D01*
X945772Y1000148D01*
X945761Y1000177D01*
X945727Y1000212D01*
X945689Y1000264D01*
X945542Y1000408D01*
X945486Y1000444D01*
X945435Y1000487D01*
X945400Y1000499D01*
X945374Y1000516D01*
X945325Y1000525D01*
X945265Y1000546D01*
X945096Y1000572D01*
X944426Y1001486D01*
X944397Y1001511D01*
X944371Y1001549D01*
X943558Y1002340D01*
X943556Y1002511D01*
X943542Y1002576D01*
X943537Y1002642D01*
X943521Y1002676D01*
X943514Y1002707D01*
X943486Y1002747D01*
X943458Y1002804D01*
X943336Y1002970D01*
X943287Y1003015D01*
X943244Y1003066D01*
X943211Y1003084D01*
X943188Y1003105D01*
X943142Y1003121D01*
X943086Y1003152D01*
X942923Y1003205D01*
X942412Y1004217D01*
X942389Y1004247D01*
X942368Y1004288D01*
X941697Y1005202D01*
X941723Y1005371D01*
X941720Y1005438D01*
X941726Y1005504D01*
X941715Y1005540D01*
X941714Y1005571D01*
X941693Y1005616D01*
X941675Y1005677D01*
X941582Y1005860D01*
X941541Y1005913D01*
X941507Y1005970D01*
X941477Y1005993D01*
X941458Y1006018D01*
X941415Y1006042D01*
X941365Y1006081D01*
X941214Y1006160D01*
X940876Y1007243D01*
X940858Y1007276D01*
X940844Y1007320D01*
X940333Y1008332D01*
X940386Y1008494D01*
X940394Y1008560D01*
X940411Y1008625D01*
X940406Y1008662D01*
X940410Y1008693D01*
X940397Y1008740D01*
X940389Y1008804D01*
X940327Y1009000D01*
X940295Y1009059D01*
X940271Y1009121D01*
X940246Y1009148D01*
X940231Y1009176D01*
X940193Y1009206D01*
X940149Y1009253D01*
X940014Y1009356D01*
X939859Y1010480D01*
X939846Y1010516D01*
X939840Y1010561D01*
X939502Y1011644D01*
X939582Y1011795D01*
X939600Y1011859D01*
X939627Y1011920D01*
X939629Y1011957D01*
X939638Y1011987D01*
X939632Y1012036D01*
X939635Y1012100D01*
X939607Y1012304D01*
X939585Y1012366D01*
X939572Y1012432D01*
X939551Y1012463D01*
X939541Y1012493D01*
X939508Y1012529D01*
X939473Y1012583D01*
X939356Y1012707D01*
X939388Y1013840D01*
X939381Y1013877D01*
X939383Y1013924D01*
X939228Y1015047D01*
X939331Y1015183D01*
X939360Y1015243D01*
X939397Y1015298D01*
X939405Y1015335D01*
X939418Y1015363D01*
X939421Y1015412D01*
X939434Y1015475D01*
X939440Y1015680D01*
X939428Y1015746D01*
X939426Y1015813D01*
X939411Y1015847D01*
X939406Y1015878D01*
X939379Y1015919D01*
X939354Y1015978D01*
X939258Y1016119D01*
X939477Y1017232D01*
X939476Y1017270D01*
X939486Y1017315D01*
X939506Y1018018D01*
X939503Y1018033D01*
X939506Y1018048D01*
X939486Y1018131D01*
X939472Y1018215D01*
X939464Y1018228D01*
X939460Y1018243D01*
X939385Y1018351D01*
X939364Y1018384D01*
X939360Y1018387D01*
X939357Y1018391D01*
X916592Y1041156D01*
X915161Y1044610D01*
X915161Y1048350D01*
X916592Y1051804D01*
X919236Y1054448D01*
X919958Y1054747D01*
X921183Y1055254D01*
X922407Y1055762D01*
X922408Y1055762D01*
X922690Y1055879D01*
X926430Y1055879D01*
X929884Y1054448D01*
X950577Y1033754D01*
X950616Y1033729D01*
X950649Y1033695D01*
X950699Y1033674D01*
X950744Y1033643D01*
X950790Y1033635D01*
X950833Y1033616D01*
X950888Y1033616D01*
X950941Y1033606D01*
X950987Y1033616D01*
X951034Y1033615D01*
X951091Y1033638D01*
X951137Y1033647D01*
X951165Y1033666D01*
X951201Y1033681D01*
X951639Y1033949D01*
X951805Y1033910D01*
X951872Y1033907D01*
X951937Y1033896D01*
X951974Y1033904D01*
X952005Y1033903D01*
X952051Y1033920D01*
X952114Y1033933D01*
X952304Y1034010D01*
X952360Y1034047D01*
X952420Y1034076D01*
X952445Y1034103D01*
X952472Y1034121D01*
X952499Y1034162D01*
X952542Y1034209D01*
X952633Y1034353D01*
X953740Y1034600D01*
X953775Y1034615D01*
X953820Y1034625D01*
X954871Y1035051D01*
X955028Y1034984D01*
X955093Y1034971D01*
X955156Y1034949D01*
X955193Y1034950D01*
X955224Y1034944D01*
X955272Y1034954D01*
X955336Y1034956D01*
X955537Y1035001D01*
X955598Y1035028D01*
X955662Y1035047D01*
X955691Y1035070D01*
X955720Y1035083D01*
X955754Y1035118D01*
X955804Y1035158D01*
X955918Y1035285D01*
X957050Y1035346D01*
X957087Y1035356D01*
X957133Y1035358D01*
X958240Y1035605D01*
X958384Y1035514D01*
X958446Y1035490D01*
X958504Y1035458D01*
X958541Y1035453D01*
X958571Y1035442D01*
X958620Y1035443D01*
X958683Y1035435D01*
X958889Y1035447D01*
X958953Y1035463D01*
X959019Y1035471D01*
X959052Y1035489D01*
X959083Y1035497D01*
X959122Y1035526D01*
X959178Y1035557D01*
X959311Y1035663D01*
X960438Y1035538D01*
X960476Y1035541D01*
X960522Y1035536D01*
X961654Y1035597D01*
X961781Y1035483D01*
X961838Y1035450D01*
X961891Y1035408D01*
X961926Y1035398D01*
X961953Y1035382D01*
X962002Y1035375D01*
X962063Y1035357D01*
X962268Y1035334D01*
X962334Y1035340D01*
X962401Y1035337D01*
X962436Y1035349D01*
X962468Y1035352D01*
X962511Y1035375D01*
X962571Y1035395D01*
X962720Y1035479D01*
X963811Y1035169D01*
X963849Y1035166D01*
X963893Y1035153D01*
X965020Y1035028D01*
X965127Y1034895D01*
X965178Y1034852D01*
X965222Y1034802D01*
X965256Y1034786D01*
X965280Y1034766D01*
X965327Y1034751D01*
X965384Y1034723D01*
X965582Y1034667D01*
X965649Y1034662D01*
X965714Y1034648D01*
X965751Y1034654D01*
X965782Y1034652D01*
X965829Y1034667D01*
X965892Y1034678D01*
X966052Y1034735D01*
X966528Y1034510D01*
X966611Y1034490D01*
X966692Y1034464D01*
X966708Y1034466D01*
X966723Y1034462D01*
X966807Y1034475D01*
X966891Y1034483D01*
X966905Y1034490D01*
X966921Y1034493D01*
X966993Y1034537D01*
X967068Y1034577D01*
X967079Y1034590D01*
X967092Y1034598D01*
X967124Y1034644D01*
X967184Y1034715D01*
X990537Y1075164D01*
X990831Y1074882D01*
X990859Y1074864D01*
X990893Y1074831D01*
X993416Y1073089D01*
X993443Y1073078D01*
X993465Y1073059D01*
X993534Y1073039D01*
X993599Y1073011D01*
X993628Y1073011D01*
X993656Y1073003D01*
X993727Y1073011D01*
X993798Y1073011D01*
X993825Y1073022D01*
X993854Y1073025D01*
X993916Y1073060D01*
X993981Y1073088D01*
X994002Y1073108D01*
X994027Y1073123D01*
X994090Y1073200D01*
X994120Y1073230D01*
X994124Y1073240D01*
X994133Y1073251D01*
X1003633Y1089751D01*
X1003643Y1089783D01*
X1003652Y1089796D01*
X1003656Y1089820D01*
X1003657Y1089824D01*
X1003688Y1089894D01*
X1003688Y1089918D01*
X1003696Y1089940D01*
X1003690Y1090016D01*
X1003691Y1090093D01*
X1003681Y1090117D01*
X1003680Y1090138D01*
X1003659Y1090177D01*
X1003633Y1090249D01*
X994133Y1106749D01*
X994114Y1106771D01*
X994101Y1106797D01*
X994048Y1106845D01*
X994001Y1106898D01*
X993975Y1106911D01*
X993954Y1106930D01*
X993886Y1106953D01*
X993822Y1106984D01*
X993793Y1106986D01*
X993766Y1106995D01*
X993694Y1106990D01*
X993623Y1106993D01*
X993596Y1106983D01*
X993567Y1106981D01*
X993477Y1106939D01*
X993437Y1106924D01*
X993429Y1106917D01*
X993416Y1106911D01*
X990893Y1105169D01*
X990869Y1105145D01*
X990831Y1105118D01*
X990517Y1104817D01*
X967161Y1145274D01*
X967105Y1145337D01*
X967087Y1145360D01*
X967082Y1145367D01*
X967081Y1145368D01*
X967053Y1145405D01*
X967039Y1145412D01*
X967028Y1145424D01*
X966952Y1145461D01*
X966878Y1145503D01*
X966862Y1145505D01*
X966848Y1145511D01*
X966763Y1145516D01*
X966679Y1145526D01*
X966662Y1145521D01*
X966648Y1145522D01*
X966595Y1145503D01*
X966505Y1145479D01*
X966052Y1145265D01*
X965892Y1145322D01*
X965826Y1145332D01*
X965762Y1145350D01*
X965724Y1145347D01*
X965693Y1145351D01*
X965646Y1145339D01*
X965582Y1145333D01*
X965384Y1145277D01*
X965325Y1145246D01*
X965262Y1145224D01*
X965234Y1145200D01*
X965206Y1145185D01*
X965175Y1145147D01*
X965127Y1145105D01*
X965020Y1144972D01*
X963893Y1144847D01*
X963857Y1144835D01*
X963811Y1144831D01*
X962720Y1144521D01*
X962571Y1144605D01*
X962508Y1144625D01*
X962448Y1144654D01*
X962410Y1144656D01*
X962380Y1144666D01*
X962331Y1144661D01*
X962268Y1144666D01*
X962063Y1144643D01*
X962000Y1144623D01*
X961934Y1144611D01*
X961902Y1144592D01*
X961872Y1144582D01*
X961835Y1144550D01*
X961781Y1144517D01*
X961654Y1144403D01*
X960522Y1144464D01*
X960484Y1144459D01*
X960438Y1144462D01*
X959311Y1144337D01*
X959178Y1144443D01*
X959118Y1144474D01*
X959064Y1144512D01*
X959028Y1144520D01*
X959000Y1144535D01*
X958951Y1144539D01*
X958889Y1144553D01*
X958683Y1144565D01*
X958617Y1144555D01*
X958550Y1144554D01*
X958516Y1144540D01*
X958485Y1144536D01*
X958443Y1144510D01*
X958384Y1144486D01*
X958240Y1144395D01*
X957133Y1144642D01*
X957095Y1144643D01*
X957050Y1144654D01*
X955918Y1144715D01*
X955804Y1144842D01*
X955792Y1144852D01*
X955786Y1144860D01*
X955753Y1144880D01*
X955751Y1144882D01*
X955703Y1144929D01*
X955669Y1144943D01*
X955643Y1144962D01*
X955596Y1144974D01*
X955537Y1144999D01*
X955336Y1145044D01*
X955270Y1145045D01*
X955204Y1145055D01*
X955167Y1145047D01*
X955136Y1145048D01*
X955090Y1145030D01*
X955028Y1145016D01*
X954892Y1144958D01*
X954871Y1144949D01*
X953820Y1145375D01*
X953782Y1145382D01*
X953740Y1145400D01*
X952633Y1145647D01*
X952542Y1145791D01*
X952496Y1145840D01*
X952477Y1145866D01*
X952470Y1145875D01*
X952457Y1145893D01*
X952425Y1145913D01*
X952403Y1145936D01*
X952358Y1145956D01*
X952304Y1145990D01*
X952114Y1146067D01*
X952048Y1146079D01*
X951985Y1146100D01*
X951948Y1146098D01*
X951917Y1146104D01*
X951869Y1146094D01*
X951805Y1146090D01*
X951639Y1146051D01*
X950673Y1146644D01*
X950637Y1146657D01*
X950598Y1146681D01*
X949547Y1147107D01*
X949481Y1147264D01*
X949443Y1147319D01*
X949413Y1147379D01*
X949386Y1147404D01*
X949368Y1147430D01*
X949327Y1147457D01*
X949279Y1147499D01*
X949104Y1147607D01*
X949041Y1147630D01*
X948982Y1147661D01*
X948945Y1147665D01*
X948915Y1147676D01*
X948866Y1147674D01*
X948803Y1147681D01*
X948633Y1147669D01*
X947777Y1148413D01*
X947744Y1148432D01*
X947710Y1148462D01*
X946743Y1149055D01*
X946704Y1149221D01*
X946686Y1149261D01*
X946685Y1149262D01*
X946684Y1149263D01*
X946676Y1149282D01*
X946656Y1149346D01*
X946633Y1149375D01*
X946619Y1149403D01*
X946583Y1149436D01*
X946543Y1149486D01*
X946388Y1149621D01*
X946330Y1149654D01*
X946277Y1149694D01*
X946241Y1149705D01*
X946214Y1149720D01*
X946165Y1149726D01*
X946104Y1149743D01*
X945934Y1149760D01*
X945212Y1150634D01*
X945183Y1150658D01*
X945154Y1150694D01*
X944298Y1151438D01*
X944287Y1151609D01*
X944269Y1151673D01*
X944260Y1151739D01*
X944242Y1151771D01*
X944233Y1151802D01*
X944203Y1151841D01*
X944172Y1151896D01*
X944041Y1152055D01*
X943989Y1152097D01*
X943944Y1152145D01*
X943910Y1152161D01*
X943885Y1152181D01*
X943838Y1152195D01*
X943781Y1152222D01*
X943616Y1152266D01*
X943048Y1153248D01*
X943023Y1153276D01*
X943000Y1153317D01*
X942279Y1154191D01*
X942295Y1154361D01*
X942289Y1154427D01*
X942291Y1154494D01*
X942278Y1154529D01*
X942275Y1154561D01*
X942251Y1154604D01*
X942230Y1154664D01*
X942127Y1154842D01*
X942082Y1154892D01*
X942045Y1154947D01*
X942015Y1154968D01*
X941994Y1154992D01*
X941950Y1155013D01*
X941897Y1155050D01*
X941742Y1155120D01*
X941344Y1156182D01*
X941324Y1156214D01*
X941308Y1156258D01*
X940740Y1157239D01*
X940784Y1157404D01*
X940789Y1157470D01*
X940802Y1157536D01*
X940795Y1157572D01*
X940797Y1157604D01*
X940781Y1157650D01*
X940769Y1157713D01*
X940697Y1157906D01*
X940662Y1157962D01*
X940634Y1158023D01*
X940608Y1158049D01*
X940591Y1158076D01*
X940551Y1158104D01*
X940505Y1158148D01*
X940363Y1158244D01*
X940145Y1159356D01*
X940131Y1159392D01*
X940123Y1159437D01*
X939724Y1160499D01*
X939795Y1160654D01*
X939810Y1160719D01*
X939834Y1160781D01*
X939833Y1160818D01*
X939840Y1160849D01*
X939832Y1160897D01*
X939831Y1160961D01*
X939791Y1161163D01*
X939766Y1161225D01*
X939749Y1161289D01*
X939727Y1161319D01*
X939715Y1161348D01*
X939680Y1161383D01*
X939642Y1161434D01*
X939518Y1161551D01*
X939493Y1162419D01*
X939493Y1162420D01*
X939471Y1162515D01*
X939448Y1162614D01*
X939448Y1162615D01*
X939345Y1162763D01*
X936905Y1165203D01*
X936899Y1165207D01*
X936894Y1165213D01*
X936816Y1165262D01*
X936739Y1165314D01*
X936731Y1165315D01*
X936724Y1165319D01*
X936547Y1165351D01*
X920150Y1165351D01*
X916696Y1166782D01*
X913997Y1169481D01*
X913970Y1169522D01*
X913964Y1169526D01*
X913960Y1169531D01*
X913880Y1169581D01*
X913802Y1169632D01*
X913796Y1169634D01*
X913790Y1169637D01*
X913612Y1169669D01*
X862939Y1169669D01*
X862936Y1169669D01*
X862934Y1169669D01*
X862839Y1169649D01*
X862742Y1169630D01*
X862740Y1169628D01*
X862738Y1169628D01*
X862657Y1169572D01*
X862576Y1169517D01*
X862575Y1169515D01*
X862573Y1169513D01*
X862520Y1169430D01*
X862467Y1169349D01*
X862467Y1169346D01*
X862465Y1169344D01*
X862449Y1169248D01*
X862432Y1169152D01*
X862432Y1169149D01*
X862432Y1169147D01*
X862454Y1169053D01*
X862475Y1168956D01*
X862477Y1168954D01*
X862477Y1168951D01*
X862580Y1168803D01*
X865356Y1166028D01*
X866903Y1162293D01*
X866903Y1144027D01*
X865356Y1140292D01*
X862498Y1137434D01*
X862294Y1137350D01*
X862293Y1137350D01*
X862136Y1137284D01*
X862130Y1137281D01*
X862124Y1137279D01*
X862047Y1137225D01*
X861969Y1137173D01*
X861966Y1137167D01*
X861961Y1137163D01*
X861911Y1137083D01*
X861859Y1137005D01*
X861858Y1136999D01*
X861855Y1136993D01*
X861823Y1136816D01*
X861823Y1116613D01*
X861824Y1116605D01*
X861823Y1116597D01*
X861844Y1116507D01*
X861862Y1116416D01*
X861867Y1116410D01*
X861869Y1116402D01*
X861971Y1116254D01*
X900386Y1077839D01*
X900393Y1077835D01*
X900397Y1077829D01*
X900476Y1077780D01*
X900553Y1077728D01*
X900561Y1077727D01*
X900567Y1077723D01*
X900745Y1077691D01*
X901838Y1077691D01*
X904441Y1076613D01*
X906433Y1074621D01*
X907511Y1072018D01*
X907511Y1069202D01*
X906433Y1066599D01*
X904441Y1064607D01*
X903713Y1064306D01*
X902488Y1063798D01*
X901838Y1063529D01*
X899022Y1063529D01*
X896419Y1064607D01*
X894427Y1066599D01*
X893349Y1069202D01*
X893349Y1070295D01*
X893348Y1070303D01*
X893349Y1070311D01*
X893328Y1070400D01*
X893310Y1070492D01*
X893305Y1070498D01*
X893303Y1070506D01*
X893201Y1070654D01*
X851661Y1112193D01*
X851661Y1136816D01*
X851660Y1136822D01*
X851661Y1136829D01*
X851640Y1136920D01*
X851622Y1137012D01*
X851618Y1137018D01*
X851617Y1137024D01*
X851562Y1137101D01*
X851509Y1137178D01*
X851504Y1137182D01*
X851500Y1137187D01*
X851348Y1137284D01*
X850986Y1137434D01*
X848128Y1140292D01*
X846581Y1144027D01*
X846581Y1162293D01*
X848128Y1166028D01*
X850904Y1168803D01*
X850905Y1168806D01*
X850908Y1168807D01*
X850960Y1168888D01*
X851015Y1168970D01*
X851015Y1168973D01*
X851017Y1168975D01*
X851034Y1169071D01*
X851052Y1169167D01*
X851052Y1169170D01*
X851052Y1169172D01*
X851031Y1169269D01*
X851011Y1169363D01*
X851009Y1169365D01*
X851009Y1169368D01*
X850952Y1169448D01*
X850897Y1169528D01*
X850894Y1169529D01*
X850893Y1169531D01*
X850810Y1169583D01*
X850727Y1169635D01*
X850725Y1169636D01*
X850723Y1169637D01*
X850545Y1169669D01*
X837539Y1169669D01*
X837536Y1169669D01*
X837534Y1169669D01*
X837439Y1169649D01*
X837342Y1169630D01*
X837340Y1169628D01*
X837338Y1169628D01*
X837257Y1169572D01*
X837176Y1169517D01*
X837175Y1169515D01*
X837173Y1169513D01*
X837120Y1169430D01*
X837067Y1169349D01*
X837067Y1169346D01*
X837065Y1169344D01*
X837049Y1169248D01*
X837032Y1169152D01*
X837032Y1169149D01*
X837032Y1169147D01*
X837054Y1169053D01*
X837075Y1168956D01*
X837077Y1168954D01*
X837077Y1168951D01*
X837180Y1168803D01*
X839956Y1166028D01*
X841503Y1162293D01*
X841503Y1144027D01*
X839956Y1140292D01*
X837098Y1137434D01*
X836894Y1137350D01*
X836893Y1137350D01*
X835669Y1136842D01*
X834444Y1136335D01*
X833363Y1135887D01*
X829321Y1135887D01*
X825586Y1137434D01*
X822728Y1140292D01*
X821181Y1144027D01*
X821181Y1162293D01*
X822728Y1166028D01*
X825504Y1168803D01*
X825505Y1168806D01*
X825508Y1168807D01*
X825560Y1168888D01*
X825615Y1168970D01*
X825615Y1168973D01*
X825617Y1168975D01*
X825634Y1169071D01*
X825652Y1169167D01*
X825652Y1169170D01*
X825652Y1169172D01*
X825631Y1169269D01*
X825611Y1169363D01*
X825609Y1169365D01*
X825609Y1169368D01*
X825552Y1169448D01*
X825497Y1169528D01*
X825494Y1169529D01*
X825493Y1169531D01*
X825410Y1169583D01*
X825327Y1169635D01*
X825325Y1169636D01*
X825323Y1169637D01*
X825145Y1169669D01*
X812139Y1169669D01*
X812136Y1169669D01*
X812134Y1169669D01*
X812039Y1169649D01*
X811942Y1169630D01*
X811940Y1169628D01*
X811938Y1169628D01*
X811857Y1169572D01*
X811776Y1169517D01*
X811775Y1169515D01*
X811773Y1169513D01*
X811720Y1169430D01*
X811667Y1169349D01*
X811667Y1169346D01*
X811665Y1169344D01*
X811649Y1169248D01*
X811632Y1169152D01*
X811632Y1169149D01*
X811632Y1169147D01*
X811654Y1169053D01*
X811675Y1168956D01*
X811677Y1168954D01*
X811677Y1168951D01*
X811780Y1168803D01*
X814556Y1166028D01*
X816103Y1162293D01*
X816103Y1144027D01*
X814556Y1140292D01*
X811698Y1137434D01*
X811494Y1137350D01*
X811493Y1137350D01*
X810269Y1136842D01*
X809044Y1136335D01*
X807963Y1135887D01*
X803921Y1135887D01*
X803380Y1136111D01*
X803373Y1136113D01*
X803368Y1136116D01*
X803275Y1136132D01*
X803183Y1136150D01*
X803176Y1136149D01*
X803170Y1136150D01*
X803079Y1136129D01*
X802987Y1136110D01*
X802981Y1136106D01*
X802975Y1136104D01*
X802827Y1136002D01*
X788279Y1121454D01*
X788275Y1121447D01*
X788269Y1121443D01*
X788220Y1121364D01*
X788168Y1121287D01*
X788167Y1121279D01*
X788163Y1121273D01*
X788131Y1121095D01*
X788131Y1120002D01*
X787053Y1117399D01*
X785061Y1115407D01*
X784152Y1115031D01*
X782927Y1114523D01*
X782458Y1114329D01*
X779642Y1114329D01*
X777039Y1115407D01*
X775047Y1117399D01*
X773969Y1120002D01*
X773969Y1122818D01*
X775047Y1125421D01*
X777039Y1127413D01*
X777952Y1127791D01*
X779177Y1128298D01*
X779642Y1128491D01*
X780735Y1128491D01*
X780743Y1128492D01*
X780751Y1128491D01*
X780841Y1128512D01*
X780932Y1128530D01*
X780938Y1128535D01*
X780946Y1128537D01*
X781094Y1128639D01*
X795747Y1143292D01*
X795750Y1143297D01*
X795756Y1143301D01*
X795806Y1143380D01*
X795858Y1143459D01*
X795859Y1143465D01*
X795862Y1143471D01*
X795878Y1143564D01*
X795895Y1143656D01*
X795894Y1143662D01*
X795895Y1143669D01*
X795857Y1143845D01*
X795781Y1144027D01*
X795781Y1162293D01*
X797328Y1166028D01*
X800104Y1168803D01*
X800105Y1168806D01*
X800108Y1168807D01*
X800160Y1168888D01*
X800215Y1168970D01*
X800215Y1168973D01*
X800217Y1168975D01*
X800234Y1169071D01*
X800252Y1169167D01*
X800252Y1169170D01*
X800252Y1169172D01*
X800231Y1169269D01*
X800211Y1169363D01*
X800209Y1169365D01*
X800209Y1169368D01*
X800152Y1169448D01*
X800097Y1169528D01*
X800094Y1169529D01*
X800093Y1169531D01*
X800010Y1169583D01*
X799927Y1169635D01*
X799925Y1169636D01*
X799923Y1169637D01*
X799745Y1169669D01*
X770953Y1169669D01*
X770945Y1169668D01*
X770938Y1169669D01*
X770848Y1169648D01*
X770757Y1169630D01*
X770750Y1169625D01*
X770742Y1169623D01*
X770594Y1169521D01*
X769821Y1168747D01*
X768722Y1168292D01*
X768721Y1168292D01*
X767497Y1167785D01*
X767218Y1167669D01*
X764402Y1167669D01*
X761799Y1168747D01*
X759807Y1170739D01*
X758729Y1173342D01*
X758729Y1176158D01*
X759807Y1178761D01*
X761799Y1180753D01*
X762522Y1181052D01*
X763747Y1181560D01*
X764402Y1181831D01*
X767218Y1181831D01*
X769821Y1180753D01*
X770594Y1179979D01*
X770601Y1179975D01*
X770605Y1179969D01*
X770684Y1179920D01*
X770761Y1179868D01*
X770769Y1179867D01*
X770776Y1179863D01*
X770953Y1179831D01*
X913612Y1179831D01*
X913619Y1179832D01*
X913626Y1179831D01*
X913717Y1179852D01*
X913809Y1179870D01*
X913815Y1179874D01*
X913821Y1179876D01*
X913897Y1179930D01*
X913975Y1179983D01*
X913979Y1179989D01*
X913984Y1179993D01*
X914008Y1180029D01*
X916696Y1182718D01*
X917573Y1183081D01*
X917574Y1183081D01*
X918798Y1183589D01*
X920023Y1184096D01*
X920150Y1184149D01*
X942520Y1184149D01*
X944029Y1183524D01*
X944064Y1183517D01*
X944097Y1183501D01*
X944162Y1183497D01*
X944226Y1183485D01*
X944261Y1183492D01*
X944297Y1183490D01*
X944358Y1183512D01*
X944422Y1183526D01*
X944451Y1183546D01*
X944485Y1183558D01*
X944534Y1183602D01*
X944587Y1183639D01*
X944607Y1183669D01*
X944633Y1183694D01*
X944660Y1183753D01*
X944695Y1183808D01*
X944702Y1183843D01*
X944717Y1183876D01*
X944719Y1183941D01*
X944730Y1184005D01*
X944722Y1184040D01*
X944723Y1184076D01*
X944698Y1184148D01*
X944685Y1184200D01*
X944672Y1184220D01*
X944662Y1184246D01*
X923096Y1221603D01*
X923472Y1221712D01*
X923502Y1221728D01*
X923548Y1221740D01*
X926314Y1223049D01*
X926336Y1223066D01*
X926363Y1223076D01*
X926415Y1223125D01*
X926473Y1223168D01*
X926487Y1223193D01*
X926508Y1223212D01*
X926537Y1223278D01*
X926573Y1223340D01*
X926576Y1223368D01*
X926588Y1223394D01*
X926589Y1223466D01*
X926598Y1223537D01*
X926590Y1223564D01*
X926591Y1223593D01*
X926555Y1223688D01*
X926544Y1223728D01*
X926537Y1223737D01*
X926533Y1223749D01*
X917033Y1240249D01*
X916981Y1240308D01*
X916935Y1240370D01*
X916916Y1240381D01*
X916901Y1240398D01*
X916831Y1240432D01*
X916764Y1240472D01*
X916740Y1240476D01*
X916722Y1240484D01*
X916677Y1240486D01*
X916600Y1240499D01*
X897600Y1240499D01*
X897572Y1240494D01*
X897544Y1240496D01*
X897476Y1240474D01*
X897405Y1240460D01*
X897382Y1240444D01*
X897355Y1240435D01*
X897300Y1240388D01*
X897241Y1240347D01*
X897226Y1240323D01*
X897205Y1240305D01*
X897173Y1240240D01*
X897134Y1240180D01*
X897129Y1240152D01*
X897117Y1240126D01*
X897108Y1240025D01*
X897101Y1239983D01*
X897103Y1239973D01*
X897102Y1239960D01*
X897345Y1236910D01*
X897354Y1236878D01*
X897358Y1236831D01*
X897440Y1236494D01*
X762560Y1236494D01*
X762642Y1236831D01*
X762644Y1236865D01*
X762655Y1236910D01*
X762898Y1239960D01*
X762894Y1239989D01*
X762899Y1240017D01*
X762882Y1240086D01*
X762874Y1240158D01*
X762860Y1240182D01*
X762853Y1240210D01*
X762810Y1240268D01*
X762775Y1240330D01*
X762752Y1240347D01*
X762735Y1240370D01*
X762673Y1240407D01*
X762616Y1240450D01*
X762588Y1240457D01*
X762564Y1240472D01*
X762464Y1240488D01*
X762423Y1240499D01*
X762413Y1240497D01*
X762400Y1240499D01*
X743400Y1240499D01*
X743324Y1240484D01*
X743246Y1240475D01*
X743227Y1240464D01*
X743205Y1240460D01*
X743141Y1240416D01*
X743073Y1240377D01*
X743057Y1240358D01*
X743041Y1240347D01*
X743017Y1240309D01*
X742967Y1240249D01*
X733467Y1223749D01*
X733458Y1223722D01*
X733442Y1223698D01*
X733427Y1223628D01*
X733404Y1223560D01*
X733407Y1223532D01*
X733401Y1223504D01*
X733415Y1223434D01*
X733420Y1223362D01*
X733433Y1223337D01*
X733439Y1223309D01*
X733479Y1223249D01*
X733512Y1223186D01*
X733534Y1223168D01*
X733550Y1223144D01*
X733633Y1223086D01*
X733665Y1223059D01*
X733676Y1223056D01*
X733687Y1223049D01*
X736453Y1221740D01*
X736486Y1221732D01*
X736528Y1221712D01*
X736881Y1221610D01*
X727306Y1205026D01*
X713534Y1181161D01*
X713507Y1181081D01*
X713475Y1181002D01*
X713475Y1180986D01*
X713470Y1180971D01*
X713476Y1180886D01*
X713477Y1180802D01*
X713483Y1180787D01*
X713484Y1180771D01*
X713523Y1180695D01*
X713556Y1180618D01*
X713568Y1180606D01*
X713575Y1180592D01*
X713618Y1180556D01*
X713684Y1180490D01*
X714135Y1180177D01*
X714165Y1180009D01*
X714190Y1179947D01*
X714206Y1179882D01*
X714228Y1179852D01*
X714239Y1179823D01*
X714273Y1179788D01*
X714311Y1179736D01*
X714458Y1179592D01*
X714514Y1179556D01*
X714565Y1179513D01*
X714600Y1179501D01*
X714626Y1179483D01*
X714675Y1179475D01*
X714735Y1179454D01*
X714904Y1179428D01*
X715574Y1178514D01*
X715603Y1178489D01*
X715629Y1178451D01*
X716442Y1177660D01*
X716444Y1177489D01*
X716458Y1177424D01*
X716463Y1177358D01*
X716479Y1177324D01*
X716486Y1177293D01*
X716514Y1177253D01*
X716542Y1177196D01*
X716664Y1177030D01*
X716713Y1176985D01*
X716756Y1176934D01*
X716789Y1176916D01*
X716812Y1176895D01*
X716858Y1176879D01*
X716914Y1176848D01*
X717077Y1176795D01*
X717588Y1175783D01*
X717611Y1175753D01*
X717632Y1175712D01*
X718303Y1174798D01*
X718277Y1174629D01*
X718280Y1174562D01*
X718274Y1174496D01*
X718285Y1174460D01*
X718286Y1174429D01*
X718307Y1174385D01*
X718325Y1174323D01*
X718418Y1174140D01*
X718459Y1174087D01*
X718493Y1174030D01*
X718523Y1174007D01*
X718542Y1173982D01*
X718585Y1173958D01*
X718635Y1173919D01*
X718786Y1173840D01*
X719124Y1172757D01*
X719142Y1172724D01*
X719146Y1172712D01*
X719151Y1172691D01*
X719154Y1172687D01*
X719156Y1172680D01*
X719667Y1171668D01*
X719633Y1171564D01*
X719623Y1171480D01*
X719608Y1171396D01*
X719611Y1171381D01*
X719609Y1171365D01*
X719633Y1171283D01*
X719651Y1171200D01*
X719660Y1171187D01*
X719664Y1171173D01*
X719718Y1171106D01*
X719767Y1171037D01*
X719780Y1171028D01*
X719790Y1171016D01*
X719865Y1170976D01*
X719937Y1170931D01*
X719954Y1170928D01*
X719966Y1170921D01*
X720022Y1170915D01*
X720115Y1170899D01*
X737112Y1170899D01*
X737121Y1170901D01*
X737130Y1170899D01*
X737306Y1170937D01*
X737308Y1170938D01*
X738458Y1171415D01*
X738540Y1171449D01*
X742280Y1171449D01*
X745734Y1170018D01*
X748378Y1167374D01*
X749809Y1163920D01*
X749809Y1160180D01*
X748378Y1156726D01*
X745184Y1153532D01*
X744079Y1153074D01*
X742854Y1152567D01*
X741730Y1152101D01*
X716236Y1152101D01*
X716205Y1152095D01*
X716173Y1152097D01*
X716108Y1152075D01*
X716040Y1152062D01*
X716013Y1152044D01*
X715983Y1152033D01*
X715920Y1151980D01*
X715874Y1151949D01*
X715873Y1151948D01*
X715873Y1151947D01*
X715862Y1151931D01*
X715845Y1151917D01*
X715828Y1151896D01*
X715797Y1151837D01*
X715758Y1151783D01*
X715749Y1151747D01*
X715734Y1151720D01*
X715729Y1151671D01*
X715713Y1151609D01*
X715702Y1151438D01*
X714846Y1150694D01*
X714823Y1150664D01*
X714788Y1150634D01*
X714066Y1149760D01*
X713896Y1149743D01*
X713833Y1149724D01*
X713767Y1149713D01*
X713735Y1149694D01*
X713705Y1149685D01*
X713667Y1149654D01*
X713612Y1149621D01*
X713457Y1149486D01*
X713416Y1149433D01*
X713369Y1149386D01*
X713354Y1149352D01*
X713335Y1149327D01*
X713322Y1149280D01*
X713296Y1149221D01*
X713257Y1149055D01*
X712290Y1148462D01*
X712262Y1148436D01*
X712223Y1148413D01*
X711367Y1147669D01*
X711197Y1147681D01*
X711131Y1147672D01*
X711064Y1147672D01*
X711030Y1147659D01*
X710998Y1147655D01*
X710956Y1147630D01*
X710896Y1147607D01*
X710721Y1147499D01*
X710672Y1147454D01*
X710618Y1147415D01*
X710597Y1147384D01*
X710574Y1147363D01*
X710554Y1147318D01*
X710519Y1147264D01*
X710453Y1147107D01*
X709402Y1146681D01*
X709370Y1146660D01*
X709327Y1146644D01*
X708361Y1146051D01*
X708195Y1146090D01*
X708129Y1146093D01*
X708063Y1146104D01*
X708026Y1146096D01*
X707995Y1146097D01*
X707949Y1146080D01*
X707886Y1146067D01*
X707696Y1145990D01*
X707640Y1145953D01*
X707580Y1145924D01*
X707555Y1145897D01*
X707529Y1145879D01*
X707517Y1145861D01*
X707515Y1145860D01*
X707499Y1145836D01*
X707458Y1145791D01*
X707367Y1145647D01*
X706260Y1145400D01*
X706225Y1145385D01*
X706180Y1145375D01*
X705129Y1144949D01*
X704972Y1145016D01*
X704907Y1145029D01*
X704844Y1145051D01*
X704807Y1145050D01*
X704776Y1145056D01*
X704728Y1145046D01*
X704664Y1145044D01*
X704463Y1144999D01*
X704402Y1144972D01*
X704338Y1144953D01*
X704309Y1144930D01*
X704280Y1144917D01*
X704246Y1144882D01*
X704204Y1144849D01*
X704200Y1144846D01*
X704199Y1144845D01*
X704196Y1144842D01*
X704082Y1144715D01*
X702950Y1144654D01*
X702913Y1144644D01*
X702867Y1144642D01*
X701760Y1144395D01*
X701616Y1144486D01*
X701554Y1144510D01*
X701496Y1144542D01*
X701459Y1144547D01*
X701429Y1144558D01*
X701380Y1144557D01*
X701317Y1144565D01*
X701111Y1144553D01*
X701047Y1144537D01*
X700981Y1144529D01*
X700948Y1144511D01*
X700917Y1144503D01*
X700878Y1144474D01*
X700822Y1144443D01*
X700689Y1144337D01*
X699562Y1144462D01*
X699524Y1144459D01*
X699478Y1144464D01*
X698346Y1144403D01*
X698219Y1144517D01*
X698162Y1144550D01*
X698110Y1144592D01*
X698074Y1144602D01*
X698047Y1144618D01*
X697998Y1144625D01*
X697937Y1144643D01*
X697732Y1144666D01*
X697666Y1144660D01*
X697599Y1144663D01*
X697564Y1144651D01*
X697533Y1144648D01*
X697489Y1144625D01*
X697429Y1144605D01*
X697280Y1144521D01*
X696189Y1144831D01*
X696151Y1144834D01*
X696107Y1144847D01*
X694980Y1144972D01*
X694873Y1145105D01*
X694822Y1145148D01*
X694778Y1145198D01*
X694744Y1145214D01*
X694720Y1145234D01*
X694673Y1145249D01*
X694616Y1145277D01*
X694418Y1145333D01*
X694351Y1145338D01*
X694286Y1145352D01*
X694249Y1145346D01*
X694218Y1145348D01*
X694171Y1145333D01*
X694108Y1145322D01*
X693948Y1145265D01*
X693483Y1145485D01*
X693401Y1145505D01*
X693320Y1145530D01*
X693304Y1145529D01*
X693288Y1145533D01*
X693204Y1145520D01*
X693120Y1145512D01*
X693106Y1145504D01*
X693090Y1145502D01*
X693018Y1145457D01*
X692943Y1145417D01*
X692932Y1145404D01*
X692920Y1145397D01*
X692890Y1145354D01*
X692888Y1145353D01*
X692884Y1145347D01*
X692827Y1145280D01*
X669479Y1104821D01*
X669169Y1105118D01*
X669141Y1105136D01*
X669107Y1105169D01*
X666584Y1106911D01*
X666557Y1106922D01*
X666535Y1106941D01*
X666466Y1106961D01*
X666401Y1106989D01*
X666372Y1106989D01*
X666344Y1106997D01*
X666273Y1106989D01*
X666202Y1106990D01*
X666175Y1106978D01*
X666146Y1106975D01*
X666084Y1106940D01*
X666019Y1106912D01*
X665998Y1106892D01*
X665973Y1106877D01*
X665910Y1106800D01*
X665880Y1106770D01*
X665876Y1106760D01*
X665867Y1106749D01*
X656367Y1090249D01*
X656343Y1090176D01*
X656312Y1090106D01*
X656312Y1090082D01*
X656304Y1090060D01*
X656311Y1089984D01*
X656310Y1089907D01*
X656319Y1089883D01*
X656320Y1089862D01*
X656341Y1089823D01*
X656360Y1089771D01*
X656361Y1089765D01*
X656363Y1089763D01*
X656367Y1089751D01*
X665867Y1073251D01*
X665886Y1073229D01*
X665899Y1073203D01*
X665952Y1073155D01*
X665999Y1073102D01*
X666025Y1073089D01*
X666047Y1073070D01*
X666114Y1073047D01*
X666178Y1073016D01*
X666207Y1073015D01*
X666234Y1073005D01*
X666306Y1073010D01*
X666377Y1073007D01*
X666404Y1073017D01*
X666433Y1073019D01*
X666523Y1073061D01*
X666563Y1073076D01*
X666571Y1073083D01*
X666584Y1073089D01*
X669107Y1074831D01*
X669131Y1074855D01*
X669169Y1074882D01*
X669467Y1075168D01*
X692826Y1034720D01*
X692882Y1034656D01*
X692935Y1034589D01*
X692948Y1034582D01*
X692959Y1034570D01*
X693035Y1034533D01*
X693109Y1034491D01*
X693125Y1034489D01*
X693139Y1034482D01*
X693224Y1034478D01*
X693308Y1034468D01*
X693325Y1034473D01*
X693340Y1034472D01*
X693392Y1034491D01*
X693482Y1034515D01*
X693948Y1034735D01*
X694108Y1034678D01*
X694174Y1034668D01*
X694238Y1034650D01*
X694276Y1034653D01*
X694307Y1034649D01*
X694354Y1034661D01*
X694418Y1034667D01*
X694616Y1034723D01*
X694675Y1034754D01*
X694738Y1034776D01*
X694766Y1034800D01*
X694794Y1034815D01*
X694825Y1034853D01*
X694873Y1034895D01*
X694980Y1035028D01*
X696107Y1035153D01*
X696143Y1035165D01*
X696189Y1035169D01*
X697280Y1035479D01*
X697429Y1035395D01*
X697492Y1035375D01*
X697553Y1035346D01*
X697590Y1035344D01*
X697620Y1035334D01*
X697669Y1035339D01*
X697732Y1035334D01*
X697937Y1035357D01*
X698000Y1035377D01*
X698066Y1035389D01*
X698098Y1035408D01*
X698128Y1035418D01*
X698165Y1035450D01*
X698219Y1035483D01*
X698346Y1035597D01*
X699478Y1035536D01*
X699516Y1035541D01*
X699562Y1035538D01*
X700689Y1035663D01*
X700822Y1035557D01*
X700882Y1035526D01*
X700936Y1035488D01*
X700972Y1035480D01*
X701000Y1035465D01*
X701049Y1035461D01*
X701111Y1035447D01*
X701317Y1035435D01*
X701383Y1035445D01*
X701450Y1035446D01*
X701484Y1035460D01*
X701515Y1035464D01*
X701557Y1035490D01*
X701616Y1035514D01*
X701760Y1035605D01*
X702867Y1035358D01*
X702905Y1035357D01*
X702950Y1035346D01*
X704082Y1035285D01*
X704196Y1035158D01*
X704249Y1035118D01*
X704297Y1035071D01*
X704331Y1035057D01*
X704357Y1035038D01*
X704404Y1035026D01*
X704463Y1035001D01*
X704664Y1034956D01*
X704730Y1034955D01*
X704796Y1034945D01*
X704833Y1034953D01*
X704864Y1034952D01*
X704910Y1034970D01*
X704972Y1034984D01*
X705129Y1035051D01*
X706180Y1034625D01*
X706218Y1034618D01*
X706260Y1034600D01*
X707367Y1034353D01*
X707458Y1034209D01*
X707504Y1034160D01*
X707543Y1034107D01*
X707575Y1034087D01*
X707597Y1034064D01*
X707642Y1034044D01*
X707696Y1034010D01*
X707827Y1033957D01*
X707832Y1033956D01*
X707836Y1033954D01*
X707930Y1033938D01*
X708024Y1033920D01*
X708029Y1033921D01*
X708033Y1033920D01*
X708126Y1033942D01*
X708220Y1033962D01*
X708224Y1033965D01*
X708229Y1033966D01*
X708377Y1034068D01*
X721171Y1046863D01*
X721213Y1046891D01*
X721216Y1046896D01*
X721221Y1046900D01*
X721271Y1046980D01*
X721323Y1047058D01*
X721324Y1047065D01*
X721327Y1047070D01*
X721359Y1047248D01*
X721359Y1069413D01*
X747151Y1095204D01*
X747155Y1095211D01*
X747161Y1095215D01*
X747210Y1095294D01*
X747262Y1095371D01*
X747263Y1095379D01*
X747267Y1095385D01*
X747299Y1095563D01*
X747299Y1096148D01*
X748377Y1098751D01*
X750369Y1100743D01*
X750765Y1100907D01*
X751990Y1101414D01*
X752972Y1101821D01*
X755788Y1101821D01*
X758391Y1100743D01*
X760383Y1098751D01*
X761461Y1096148D01*
X761461Y1093332D01*
X760383Y1090729D01*
X758391Y1088737D01*
X758189Y1088654D01*
X756965Y1088146D01*
X756964Y1088146D01*
X755788Y1087659D01*
X754187Y1087659D01*
X754179Y1087658D01*
X754171Y1087659D01*
X754081Y1087638D01*
X753990Y1087620D01*
X753984Y1087615D01*
X753976Y1087613D01*
X753828Y1087511D01*
X731669Y1065352D01*
X731665Y1065345D01*
X731659Y1065341D01*
X731610Y1065262D01*
X731558Y1065185D01*
X731557Y1065177D01*
X731553Y1065171D01*
X731521Y1064993D01*
X731521Y1047248D01*
X731522Y1047241D01*
X731521Y1047235D01*
X731542Y1047143D01*
X731560Y1047051D01*
X731564Y1047046D01*
X731565Y1047039D01*
X731620Y1046963D01*
X731673Y1046885D01*
X731678Y1046882D01*
X731682Y1046876D01*
X731719Y1046853D01*
X734408Y1044164D01*
X735839Y1040710D01*
X735839Y1036970D01*
X734408Y1033516D01*
X720321Y1019429D01*
X720290Y1019382D01*
X720250Y1019341D01*
X720235Y1019299D01*
X720210Y1019262D01*
X720200Y1019207D01*
X720179Y1019153D01*
X720180Y1019105D01*
X720173Y1019066D01*
X720181Y1019025D01*
X720182Y1018973D01*
X720209Y1018837D01*
X720234Y1018775D01*
X720251Y1018711D01*
X720273Y1018681D01*
X720285Y1018652D01*
X720320Y1018617D01*
X720358Y1018566D01*
X720482Y1018449D01*
X720514Y1017315D01*
X720523Y1017278D01*
X720523Y1017232D01*
X720742Y1016119D01*
X720646Y1015978D01*
X720621Y1015916D01*
X720587Y1015859D01*
X720582Y1015822D01*
X720570Y1015793D01*
X720570Y1015744D01*
X720560Y1015680D01*
X720566Y1015475D01*
X720581Y1015410D01*
X720587Y1015343D01*
X720604Y1015310D01*
X720611Y1015279D01*
X720640Y1015240D01*
X720669Y1015183D01*
X720772Y1015047D01*
X720617Y1013924D01*
X720619Y1013886D01*
X720612Y1013840D01*
X720644Y1012707D01*
X720527Y1012583D01*
X720492Y1012526D01*
X720449Y1012475D01*
X720438Y1012439D01*
X720421Y1012413D01*
X720413Y1012364D01*
X720393Y1012304D01*
X720365Y1012100D01*
X720369Y1012033D01*
X720364Y1011967D01*
X720375Y1011931D01*
X720377Y1011900D01*
X720399Y1011856D01*
X720418Y1011795D01*
X720498Y1011644D01*
X720160Y1010561D01*
X720156Y1010523D01*
X720141Y1010480D01*
X719986Y1009356D01*
X719851Y1009253D01*
X719806Y1009204D01*
X719756Y1009160D01*
X719739Y1009127D01*
X719718Y1009103D01*
X719702Y1009057D01*
X719673Y1009000D01*
X719611Y1008804D01*
X719604Y1008737D01*
X719589Y1008673D01*
X719594Y1008636D01*
X719591Y1008604D01*
X719605Y1008557D01*
X719614Y1008494D01*
X719667Y1008332D01*
X719156Y1007320D01*
X719146Y1007283D01*
X719124Y1007243D01*
X718786Y1006160D01*
X718635Y1006081D01*
X718584Y1006039D01*
X718527Y1006004D01*
X718504Y1005974D01*
X718480Y1005955D01*
X718457Y1005911D01*
X718418Y1005860D01*
X718325Y1005677D01*
X718308Y1005612D01*
X718281Y1005551D01*
X718280Y1005514D01*
X718272Y1005483D01*
X718278Y1005435D01*
X718277Y1005371D01*
X718303Y1005202D01*
X717632Y1004288D01*
X717616Y1004254D01*
X717588Y1004217D01*
X717077Y1003205D01*
X716914Y1003152D01*
X716857Y1003119D01*
X716795Y1003094D01*
X716768Y1003068D01*
X716740Y1003053D01*
X716710Y1003014D01*
X716664Y1002970D01*
X716542Y1002804D01*
X716514Y1002744D01*
X716478Y1002687D01*
X716471Y1002651D01*
X716458Y1002622D01*
X716456Y1002573D01*
X716444Y1002511D01*
X716442Y1002340D01*
X715629Y1001549D01*
X715608Y1001517D01*
X715574Y1001486D01*
X714904Y1000572D01*
X714735Y1000546D01*
X714672Y1000523D01*
X714607Y1000509D01*
X714576Y1000488D01*
X714547Y1000477D01*
X714511Y1000443D01*
X714458Y1000408D01*
X714311Y1000264D01*
X714273Y1000209D01*
X714228Y1000160D01*
X714215Y1000125D01*
X714197Y1000099D01*
X714188Y1000051D01*
X714165Y999991D01*
X714135Y999823D01*
X713694Y999517D01*
X713635Y999456D01*
X713573Y999398D01*
X713566Y999384D01*
X713555Y999372D01*
X713525Y999293D01*
X713489Y999216D01*
X713489Y999200D01*
X713483Y999185D01*
X713486Y999100D01*
X713483Y999016D01*
X713489Y999000D01*
X713489Y998985D01*
X713513Y998933D01*
X713544Y998846D01*
X736904Y958397D01*
X736528Y958288D01*
X736498Y958272D01*
X736453Y958260D01*
X733687Y956951D01*
X733664Y956934D01*
X733637Y956924D01*
X733585Y956875D01*
X733527Y956832D01*
X733513Y956807D01*
X733492Y956788D01*
X733463Y956722D01*
X733427Y956660D01*
X733424Y956632D01*
X733412Y956606D01*
X733411Y956534D01*
X733402Y956463D01*
X733410Y956436D01*
X733410Y956407D01*
X733445Y956312D01*
X733456Y956272D01*
X733463Y956263D01*
X733467Y956251D01*
X742824Y940000D01*
X733467Y923749D01*
X733458Y923722D01*
X733442Y923698D01*
X733427Y923628D01*
X733404Y923560D01*
X733407Y923532D01*
X733401Y923504D01*
X733415Y923434D01*
X733420Y923362D01*
X733433Y923337D01*
X733439Y923309D01*
X733479Y923249D01*
X733512Y923186D01*
X733534Y923168D01*
X733550Y923144D01*
X733633Y923086D01*
X733665Y923059D01*
X733676Y923056D01*
X733687Y923049D01*
X736453Y921740D01*
X736486Y921732D01*
X736528Y921712D01*
X736881Y921610D01*
X713529Y881164D01*
X713503Y881084D01*
X713471Y881005D01*
X713471Y880989D01*
X713466Y880974D01*
X713472Y880889D01*
X713473Y880805D01*
X713479Y880790D01*
X713480Y880774D01*
X713519Y880698D01*
X713552Y880621D01*
X713564Y880609D01*
X713571Y880595D01*
X713614Y880559D01*
X713679Y880493D01*
X714135Y880177D01*
X714165Y880009D01*
X714190Y879947D01*
X714206Y879882D01*
X714228Y879852D01*
X714239Y879823D01*
X714274Y879788D01*
X714311Y879736D01*
X714458Y879592D01*
X714514Y879556D01*
X714565Y879513D01*
X714600Y879501D01*
X714626Y879483D01*
X714675Y879475D01*
X714735Y879454D01*
X714904Y879428D01*
X715574Y878514D01*
X715603Y878489D01*
X715629Y878451D01*
X716442Y877660D01*
X716444Y877489D01*
X716458Y877424D01*
X716463Y877358D01*
X716479Y877324D01*
X716486Y877293D01*
X716514Y877253D01*
X716542Y877196D01*
X716664Y877030D01*
X716713Y876985D01*
X716756Y876934D01*
X716789Y876916D01*
X716812Y876895D01*
X716858Y876879D01*
X716914Y876848D01*
X717077Y876795D01*
X717588Y875783D01*
X717611Y875753D01*
X717632Y875712D01*
X718303Y874798D01*
X718277Y874629D01*
X718280Y874562D01*
X718274Y874496D01*
X718285Y874460D01*
X718286Y874429D01*
X718307Y874385D01*
X718325Y874323D01*
X718418Y874140D01*
X718459Y874087D01*
X718493Y874030D01*
X718523Y874007D01*
X718542Y873982D01*
X718585Y873958D01*
X718635Y873919D01*
X718786Y873840D01*
X719124Y872757D01*
X719142Y872724D01*
X719156Y872680D01*
X719667Y871668D01*
X719633Y871564D01*
X719623Y871480D01*
X719608Y871396D01*
X719611Y871381D01*
X719609Y871365D01*
X719633Y871283D01*
X719651Y871200D01*
X719660Y871187D01*
X719664Y871173D01*
X719718Y871106D01*
X719767Y871037D01*
X719780Y871028D01*
X719790Y871016D01*
X719865Y870976D01*
X719937Y870931D01*
X719954Y870928D01*
X719966Y870921D01*
X720022Y870915D01*
X720115Y870899D01*
X739740Y870899D01*
X743194Y869468D01*
X745893Y866769D01*
X745921Y866727D01*
X745926Y866724D01*
X745930Y866719D01*
X746010Y866669D01*
X746088Y866617D01*
X746095Y866616D01*
X746100Y866613D01*
X746278Y866581D01*
X769015Y866581D01*
X769023Y866582D01*
X769031Y866581D01*
X769121Y866602D01*
X769212Y866620D01*
X769218Y866625D01*
X769226Y866627D01*
X769374Y866729D01*
X773865Y871221D01*
X778767Y871221D01*
X778769Y871221D01*
X778772Y871221D01*
X778867Y871241D01*
X778963Y871260D01*
X778966Y871262D01*
X778968Y871262D01*
X779049Y871318D01*
X779129Y871373D01*
X779131Y871375D01*
X779133Y871377D01*
X779186Y871460D01*
X779238Y871541D01*
X779239Y871544D01*
X779240Y871546D01*
X779257Y871642D01*
X779274Y871738D01*
X779273Y871741D01*
X779274Y871743D01*
X779252Y871837D01*
X779230Y871934D01*
X779229Y871936D01*
X779228Y871939D01*
X779126Y872087D01*
X776731Y874481D01*
X776731Y883319D01*
X779006Y885593D01*
X779007Y885596D01*
X779009Y885597D01*
X779062Y885678D01*
X779116Y885760D01*
X779117Y885763D01*
X779118Y885765D01*
X779136Y885861D01*
X779154Y885957D01*
X779154Y885960D01*
X779154Y885962D01*
X779133Y886059D01*
X779112Y886153D01*
X779111Y886155D01*
X779110Y886158D01*
X779054Y886238D01*
X778998Y886318D01*
X778996Y886319D01*
X778994Y886321D01*
X778912Y886373D01*
X778829Y886425D01*
X778826Y886426D01*
X778824Y886427D01*
X778647Y886459D01*
X771935Y886459D01*
X771927Y886458D01*
X771919Y886459D01*
X771829Y886438D01*
X771738Y886420D01*
X771732Y886415D01*
X771724Y886413D01*
X771576Y886311D01*
X760339Y875074D01*
X760335Y875067D01*
X760329Y875063D01*
X760280Y874984D01*
X760228Y874907D01*
X760227Y874899D01*
X760223Y874893D01*
X760191Y874715D01*
X760191Y873622D01*
X759113Y871019D01*
X757121Y869027D01*
X757090Y869014D01*
X755865Y868507D01*
X754641Y868000D01*
X754640Y868000D01*
X754518Y867949D01*
X751702Y867949D01*
X749099Y869027D01*
X747107Y871019D01*
X746029Y873622D01*
X746029Y876438D01*
X747107Y879041D01*
X749099Y881033D01*
X749666Y881268D01*
X750890Y881775D01*
X750891Y881775D01*
X751702Y882111D01*
X752795Y882111D01*
X752803Y882112D01*
X752811Y882111D01*
X752901Y882132D01*
X752992Y882150D01*
X752998Y882155D01*
X753006Y882157D01*
X753154Y882259D01*
X767515Y896621D01*
X778767Y896621D01*
X778769Y896621D01*
X778772Y896621D01*
X778867Y896641D01*
X778963Y896660D01*
X778966Y896662D01*
X778968Y896662D01*
X779049Y896718D01*
X779129Y896773D01*
X779131Y896775D01*
X779133Y896777D01*
X779186Y896860D01*
X779238Y896941D01*
X779239Y896944D01*
X779240Y896946D01*
X779257Y897042D01*
X779274Y897138D01*
X779273Y897141D01*
X779274Y897143D01*
X779252Y897237D01*
X779230Y897334D01*
X779229Y897336D01*
X779228Y897339D01*
X779126Y897487D01*
X776731Y899881D01*
X776731Y908719D01*
X782981Y914969D01*
X791819Y914969D01*
X798069Y908719D01*
X798069Y899881D01*
X795674Y897487D01*
X795673Y897484D01*
X795671Y897483D01*
X795618Y897402D01*
X795564Y897320D01*
X795563Y897317D01*
X795562Y897315D01*
X795544Y897219D01*
X795526Y897123D01*
X795526Y897120D01*
X795526Y897118D01*
X795547Y897021D01*
X795568Y896927D01*
X795569Y896925D01*
X795570Y896922D01*
X795626Y896842D01*
X795682Y896762D01*
X795684Y896761D01*
X795686Y896759D01*
X795768Y896707D01*
X795851Y896655D01*
X795854Y896654D01*
X795856Y896653D01*
X796033Y896621D01*
X804167Y896621D01*
X804169Y896621D01*
X804172Y896621D01*
X804267Y896641D01*
X804363Y896660D01*
X804366Y896662D01*
X804368Y896662D01*
X804449Y896718D01*
X804529Y896773D01*
X804531Y896775D01*
X804533Y896777D01*
X804586Y896860D01*
X804638Y896941D01*
X804639Y896944D01*
X804640Y896946D01*
X804657Y897042D01*
X804674Y897138D01*
X804673Y897141D01*
X804674Y897143D01*
X804652Y897237D01*
X804630Y897334D01*
X804629Y897336D01*
X804628Y897339D01*
X804526Y897487D01*
X802131Y899881D01*
X802131Y908719D01*
X808381Y914969D01*
X817219Y914969D01*
X823469Y908719D01*
X823469Y899881D01*
X821074Y897487D01*
X821073Y897484D01*
X821071Y897483D01*
X821018Y897402D01*
X820964Y897320D01*
X820963Y897317D01*
X820962Y897315D01*
X820944Y897219D01*
X820926Y897123D01*
X820926Y897120D01*
X820926Y897118D01*
X820947Y897021D01*
X820968Y896927D01*
X820969Y896925D01*
X820970Y896922D01*
X821026Y896842D01*
X821082Y896762D01*
X821084Y896761D01*
X821086Y896759D01*
X821168Y896707D01*
X821251Y896655D01*
X821254Y896654D01*
X821256Y896653D01*
X821433Y896621D01*
X827605Y896621D01*
X843966Y880259D01*
X843973Y880255D01*
X843977Y880249D01*
X844056Y880200D01*
X844133Y880148D01*
X844141Y880147D01*
X844147Y880143D01*
X844325Y880111D01*
X881523Y880111D01*
X881530Y880112D01*
X881536Y880111D01*
X881628Y880132D01*
X881720Y880150D01*
X881725Y880154D01*
X881732Y880155D01*
X881808Y880210D01*
X881886Y880263D01*
X881889Y880268D01*
X881895Y880272D01*
X881992Y880424D01*
X882997Y882851D01*
X884989Y884843D01*
X886155Y885326D01*
X887379Y885833D01*
X887592Y885921D01*
X890408Y885921D01*
X893011Y884843D01*
X895003Y882851D01*
X896081Y880248D01*
X896081Y877432D01*
X895003Y874829D01*
X893011Y872837D01*
X892354Y872565D01*
X891129Y872058D01*
X890408Y871759D01*
X889315Y871759D01*
X889307Y871758D01*
X889299Y871759D01*
X889209Y871738D01*
X889118Y871720D01*
X889112Y871715D01*
X889104Y871713D01*
X888956Y871611D01*
X887295Y869949D01*
X839905Y869949D01*
X823544Y886311D01*
X823537Y886315D01*
X823533Y886321D01*
X823454Y886370D01*
X823377Y886422D01*
X823369Y886423D01*
X823363Y886427D01*
X823185Y886459D01*
X796153Y886459D01*
X796151Y886459D01*
X796148Y886459D01*
X796053Y886439D01*
X795957Y886420D01*
X795954Y886418D01*
X795952Y886418D01*
X795871Y886362D01*
X795791Y886307D01*
X795789Y886305D01*
X795787Y886303D01*
X795734Y886220D01*
X795682Y886139D01*
X795681Y886136D01*
X795680Y886134D01*
X795663Y886038D01*
X795646Y885942D01*
X795647Y885939D01*
X795646Y885937D01*
X795668Y885842D01*
X795690Y885746D01*
X795691Y885744D01*
X795692Y885741D01*
X795794Y885593D01*
X798069Y883319D01*
X798069Y874481D01*
X795674Y872087D01*
X795673Y872084D01*
X795671Y872083D01*
X795618Y872002D01*
X795564Y871920D01*
X795563Y871917D01*
X795562Y871915D01*
X795544Y871819D01*
X795526Y871723D01*
X795526Y871720D01*
X795526Y871718D01*
X795547Y871621D01*
X795568Y871527D01*
X795569Y871525D01*
X795570Y871522D01*
X795627Y871441D01*
X795682Y871362D01*
X795684Y871361D01*
X795686Y871359D01*
X795768Y871307D01*
X795851Y871255D01*
X795854Y871254D01*
X795856Y871253D01*
X796033Y871221D01*
X828175Y871221D01*
X832666Y866729D01*
X832673Y866725D01*
X832677Y866719D01*
X832756Y866670D01*
X832833Y866618D01*
X832841Y866617D01*
X832847Y866613D01*
X833025Y866581D01*
X861437Y866581D01*
X861445Y866582D01*
X861452Y866581D01*
X861542Y866602D01*
X861633Y866620D01*
X861640Y866625D01*
X861648Y866627D01*
X861796Y866729D01*
X862129Y867063D01*
X862133Y867065D01*
X863358Y867572D01*
X864583Y868079D01*
X864732Y868141D01*
X867548Y868141D01*
X870151Y867063D01*
X872143Y865071D01*
X873221Y862468D01*
X873221Y859652D01*
X872143Y857049D01*
X870151Y855057D01*
X869557Y854811D01*
X868333Y854304D01*
X867548Y853979D01*
X864732Y853979D01*
X862129Y855057D01*
X860916Y856271D01*
X860909Y856275D01*
X860904Y856281D01*
X860826Y856330D01*
X860749Y856382D01*
X860741Y856383D01*
X860734Y856387D01*
X860557Y856419D01*
X828605Y856419D01*
X824114Y860911D01*
X824107Y860915D01*
X824103Y860921D01*
X824024Y860970D01*
X823947Y861022D01*
X823939Y861023D01*
X823933Y861027D01*
X823755Y861059D01*
X821553Y861059D01*
X821551Y861059D01*
X821548Y861059D01*
X821453Y861039D01*
X821357Y861020D01*
X821354Y861018D01*
X821352Y861018D01*
X821271Y860962D01*
X821191Y860907D01*
X821189Y860905D01*
X821187Y860903D01*
X821134Y860820D01*
X821082Y860739D01*
X821081Y860736D01*
X821080Y860734D01*
X821063Y860637D01*
X821046Y860542D01*
X821047Y860539D01*
X821046Y860537D01*
X821068Y860441D01*
X821090Y860346D01*
X821091Y860344D01*
X821092Y860341D01*
X821194Y860193D01*
X823469Y857919D01*
X823469Y849081D01*
X817219Y842831D01*
X808381Y842831D01*
X802131Y849081D01*
X802131Y857919D01*
X804406Y860193D01*
X804407Y860196D01*
X804409Y860197D01*
X804462Y860278D01*
X804516Y860360D01*
X804517Y860363D01*
X804518Y860365D01*
X804536Y860461D01*
X804554Y860557D01*
X804554Y860560D01*
X804554Y860562D01*
X804533Y860659D01*
X804512Y860753D01*
X804511Y860755D01*
X804510Y860758D01*
X804454Y860838D01*
X804398Y860918D01*
X804396Y860919D01*
X804394Y860921D01*
X804312Y860973D01*
X804229Y861025D01*
X804226Y861026D01*
X804224Y861027D01*
X804047Y861059D01*
X796153Y861059D01*
X796151Y861059D01*
X796148Y861059D01*
X796053Y861039D01*
X795957Y861020D01*
X795954Y861018D01*
X795952Y861018D01*
X795871Y860962D01*
X795791Y860907D01*
X795789Y860905D01*
X795787Y860903D01*
X795734Y860820D01*
X795682Y860739D01*
X795681Y860736D01*
X795680Y860734D01*
X795663Y860637D01*
X795646Y860542D01*
X795647Y860539D01*
X795646Y860537D01*
X795668Y860441D01*
X795690Y860346D01*
X795691Y860344D01*
X795692Y860341D01*
X795794Y860193D01*
X798069Y857919D01*
X798069Y849081D01*
X791819Y842831D01*
X782981Y842831D01*
X776731Y849081D01*
X776731Y857919D01*
X779006Y860193D01*
X779007Y860196D01*
X779009Y860197D01*
X779062Y860278D01*
X779116Y860360D01*
X779117Y860363D01*
X779118Y860365D01*
X779136Y860461D01*
X779154Y860557D01*
X779154Y860560D01*
X779154Y860562D01*
X779133Y860659D01*
X779112Y860753D01*
X779111Y860755D01*
X779110Y860758D01*
X779054Y860838D01*
X778998Y860918D01*
X778996Y860919D01*
X778994Y860921D01*
X778912Y860973D01*
X778829Y861025D01*
X778826Y861026D01*
X778824Y861027D01*
X778647Y861059D01*
X778285Y861059D01*
X778277Y861058D01*
X778269Y861059D01*
X778179Y861038D01*
X778088Y861020D01*
X778082Y861015D01*
X778074Y861013D01*
X777926Y860911D01*
X773435Y856419D01*
X746278Y856419D01*
X746271Y856418D01*
X746265Y856419D01*
X746173Y856398D01*
X746081Y856380D01*
X746076Y856376D01*
X746069Y856375D01*
X745993Y856320D01*
X745915Y856267D01*
X745912Y856262D01*
X745906Y856258D01*
X745883Y856221D01*
X743194Y853532D01*
X742609Y853290D01*
X742608Y853290D01*
X741384Y852782D01*
X740159Y852275D01*
X739740Y852101D01*
X716236Y852101D01*
X716205Y852095D01*
X716173Y852097D01*
X716108Y852075D01*
X716040Y852062D01*
X716013Y852044D01*
X715983Y852033D01*
X715920Y851980D01*
X715874Y851949D01*
X715863Y851932D01*
X715845Y851917D01*
X715828Y851896D01*
X715797Y851837D01*
X715758Y851783D01*
X715749Y851747D01*
X715734Y851720D01*
X715729Y851671D01*
X715713Y851609D01*
X715702Y851438D01*
X714846Y850694D01*
X714823Y850664D01*
X714788Y850634D01*
X714066Y849760D01*
X713896Y849743D01*
X713833Y849724D01*
X713767Y849713D01*
X713735Y849694D01*
X713705Y849685D01*
X713667Y849654D01*
X713612Y849621D01*
X713457Y849486D01*
X713416Y849433D01*
X713369Y849386D01*
X713354Y849352D01*
X713335Y849327D01*
X713322Y849280D01*
X713296Y849221D01*
X713257Y849055D01*
X712290Y848462D01*
X712262Y848436D01*
X712223Y848413D01*
X711367Y847669D01*
X711197Y847681D01*
X711131Y847672D01*
X711064Y847672D01*
X711030Y847659D01*
X710998Y847655D01*
X710956Y847630D01*
X710896Y847607D01*
X710721Y847499D01*
X710672Y847454D01*
X710618Y847415D01*
X710597Y847384D01*
X710574Y847363D01*
X710554Y847318D01*
X710519Y847264D01*
X710453Y847107D01*
X709402Y846681D01*
X709370Y846660D01*
X709327Y846644D01*
X708361Y846051D01*
X708195Y846090D01*
X708129Y846093D01*
X708063Y846104D01*
X708026Y846096D01*
X707995Y846097D01*
X707949Y846080D01*
X707886Y846067D01*
X707696Y845990D01*
X707640Y845953D01*
X707580Y845924D01*
X707555Y845897D01*
X707529Y845879D01*
X707501Y845838D01*
X707458Y845791D01*
X707367Y845647D01*
X706260Y845400D01*
X706225Y845385D01*
X706180Y845375D01*
X705129Y844949D01*
X704972Y845016D01*
X704907Y845029D01*
X704844Y845051D01*
X704807Y845050D01*
X704776Y845056D01*
X704728Y845046D01*
X704664Y845044D01*
X704463Y844999D01*
X704402Y844972D01*
X704338Y844953D01*
X704309Y844930D01*
X704280Y844917D01*
X704246Y844882D01*
X704196Y844842D01*
X704082Y844715D01*
X702950Y844654D01*
X702913Y844644D01*
X702867Y844642D01*
X701760Y844395D01*
X701616Y844486D01*
X701554Y844510D01*
X701496Y844542D01*
X701459Y844547D01*
X701429Y844558D01*
X701380Y844557D01*
X701317Y844565D01*
X701111Y844553D01*
X701047Y844537D01*
X700981Y844529D01*
X700948Y844511D01*
X700917Y844503D01*
X700878Y844474D01*
X700822Y844443D01*
X700689Y844337D01*
X699562Y844462D01*
X699524Y844459D01*
X699478Y844464D01*
X698346Y844403D01*
X698219Y844517D01*
X698162Y844550D01*
X698110Y844592D01*
X698074Y844602D01*
X698047Y844618D01*
X697998Y844625D01*
X697937Y844643D01*
X697732Y844666D01*
X697666Y844660D01*
X697599Y844663D01*
X697564Y844651D01*
X697533Y844648D01*
X697489Y844625D01*
X697429Y844605D01*
X697280Y844521D01*
X696189Y844831D01*
X696151Y844834D01*
X696107Y844847D01*
X694980Y844972D01*
X694873Y845105D01*
X694822Y845148D01*
X694777Y845198D01*
X694744Y845214D01*
X694720Y845234D01*
X694673Y845249D01*
X694616Y845277D01*
X694418Y845333D01*
X694351Y845338D01*
X694286Y845352D01*
X694249Y845346D01*
X694218Y845348D01*
X694171Y845333D01*
X694108Y845322D01*
X693948Y845265D01*
X693472Y845490D01*
X693389Y845510D01*
X693308Y845536D01*
X693292Y845534D01*
X693277Y845538D01*
X693193Y845525D01*
X693109Y845517D01*
X693095Y845510D01*
X693079Y845507D01*
X693007Y845463D01*
X692932Y845423D01*
X692921Y845410D01*
X692908Y845402D01*
X692876Y845356D01*
X692816Y845285D01*
X669463Y804836D01*
X669169Y805118D01*
X669141Y805136D01*
X669107Y805169D01*
X666584Y806911D01*
X666557Y806922D01*
X666535Y806941D01*
X666466Y806961D01*
X666401Y806989D01*
X666372Y806989D01*
X666344Y806997D01*
X666273Y806989D01*
X666202Y806990D01*
X666175Y806978D01*
X666146Y806975D01*
X666084Y806940D01*
X666019Y806912D01*
X665998Y806892D01*
X665973Y806877D01*
X665910Y806800D01*
X665880Y806770D01*
X665876Y806760D01*
X665867Y806749D01*
X656367Y790249D01*
X656343Y790176D01*
X656312Y790106D01*
X656312Y790082D01*
X656304Y790060D01*
X656311Y789984D01*
X656310Y789907D01*
X656319Y789883D01*
X656320Y789862D01*
X656341Y789823D01*
X656360Y789771D01*
X656361Y789765D01*
X656363Y789763D01*
X656367Y789751D01*
X665867Y773251D01*
X665886Y773229D01*
X665899Y773203D01*
X665952Y773155D01*
X665999Y773102D01*
X666025Y773089D01*
X666047Y773070D01*
X666114Y773047D01*
X666178Y773016D01*
X666207Y773015D01*
X666234Y773005D01*
X666306Y773010D01*
X666377Y773007D01*
X666404Y773017D01*
X666433Y773019D01*
X666523Y773061D01*
X666563Y773076D01*
X666571Y773083D01*
X666584Y773089D01*
X669107Y774831D01*
X669131Y774855D01*
X669169Y774882D01*
X669476Y775176D01*
X692830Y734722D01*
X692887Y734658D01*
X692939Y734591D01*
X692952Y734584D01*
X692963Y734572D01*
X693039Y734535D01*
X693113Y734493D01*
X693129Y734491D01*
X693143Y734484D01*
X693228Y734480D01*
X693313Y734470D01*
X693329Y734475D01*
X693344Y734474D01*
X693396Y734493D01*
X693486Y734517D01*
X693948Y734735D01*
X694108Y734678D01*
X694174Y734668D01*
X694238Y734650D01*
X694276Y734653D01*
X694307Y734649D01*
X694354Y734661D01*
X694418Y734667D01*
X694616Y734723D01*
X694675Y734754D01*
X694738Y734776D01*
X694766Y734801D01*
X694794Y734815D01*
X694825Y734853D01*
X694873Y734895D01*
X694980Y735028D01*
X696107Y735153D01*
X696143Y735165D01*
X696189Y735169D01*
X697280Y735479D01*
X697429Y735395D01*
X697492Y735375D01*
X697552Y735346D01*
X697590Y735344D01*
X697620Y735334D01*
X697668Y735339D01*
X697732Y735334D01*
X697937Y735357D01*
X698000Y735377D01*
X698066Y735389D01*
X698098Y735408D01*
X698128Y735418D01*
X698165Y735450D01*
X698219Y735483D01*
X698346Y735597D01*
X699478Y735536D01*
X699516Y735541D01*
X699562Y735538D01*
X700689Y735663D01*
X700822Y735557D01*
X700882Y735526D01*
X700936Y735488D01*
X700972Y735480D01*
X701000Y735465D01*
X701049Y735461D01*
X701111Y735447D01*
X701317Y735435D01*
X701383Y735445D01*
X701450Y735446D01*
X701484Y735460D01*
X701515Y735464D01*
X701557Y735490D01*
X701616Y735514D01*
X701760Y735605D01*
X702867Y735358D01*
X702905Y735357D01*
X702950Y735346D01*
X704082Y735285D01*
X704196Y735158D01*
X704249Y735118D01*
X704297Y735071D01*
X704331Y735057D01*
X704357Y735038D01*
X704404Y735026D01*
X704463Y735001D01*
X704664Y734956D01*
X704730Y734955D01*
X704796Y734945D01*
X704833Y734953D01*
X704864Y734952D01*
X704910Y734970D01*
X704972Y734984D01*
X705129Y735051D01*
X706180Y734625D01*
X706218Y734618D01*
X706260Y734600D01*
X707367Y734353D01*
X707458Y734209D01*
X707504Y734160D01*
X707543Y734107D01*
X707575Y734087D01*
X707597Y734064D01*
X707642Y734044D01*
X707696Y734010D01*
X707886Y733933D01*
X707952Y733921D01*
X708015Y733900D01*
X708052Y733902D01*
X708083Y733896D01*
X708131Y733906D01*
X708195Y733910D01*
X708361Y733949D01*
X709327Y733356D01*
X709363Y733343D01*
X709402Y733319D01*
X710453Y732893D01*
X710519Y732735D01*
X710557Y732680D01*
X710587Y732621D01*
X710614Y732596D01*
X710632Y732570D01*
X710673Y732543D01*
X710721Y732501D01*
X710897Y732393D01*
X710959Y732370D01*
X711018Y732339D01*
X711055Y732335D01*
X711085Y732324D01*
X711134Y732326D01*
X711197Y732319D01*
X711367Y732331D01*
X712223Y731587D01*
X712256Y731569D01*
X712290Y731538D01*
X713257Y730945D01*
X713296Y730779D01*
X713324Y730718D01*
X713344Y730654D01*
X713367Y730625D01*
X713381Y730597D01*
X713417Y730564D01*
X713457Y730514D01*
X713612Y730379D01*
X713670Y730346D01*
X713723Y730306D01*
X713759Y730295D01*
X713786Y730280D01*
X713835Y730274D01*
X713896Y730257D01*
X714066Y730240D01*
X714788Y729366D01*
X714817Y729342D01*
X714846Y729306D01*
X715702Y728562D01*
X715713Y728391D01*
X715731Y728327D01*
X715740Y728261D01*
X715758Y728229D01*
X715767Y728198D01*
X715797Y728160D01*
X715828Y728104D01*
X715959Y727945D01*
X716011Y727903D01*
X716056Y727855D01*
X716090Y727839D01*
X716115Y727819D01*
X716162Y727805D01*
X716219Y727778D01*
X716384Y727734D01*
X716952Y726752D01*
X716977Y726724D01*
X717000Y726683D01*
X717721Y725809D01*
X717705Y725639D01*
X717711Y725573D01*
X717709Y725506D01*
X717722Y725471D01*
X717725Y725439D01*
X717749Y725396D01*
X717770Y725336D01*
X717873Y725158D01*
X717918Y725108D01*
X717955Y725053D01*
X717985Y725032D01*
X718006Y725008D01*
X718050Y724987D01*
X718103Y724950D01*
X718258Y724880D01*
X718656Y723818D01*
X718673Y723791D01*
X718677Y723774D01*
X718684Y723764D01*
X718692Y723743D01*
X719260Y722761D01*
X719216Y722596D01*
X719211Y722530D01*
X719198Y722464D01*
X719201Y722449D01*
X719201Y722448D01*
X719203Y722440D01*
X719205Y722428D01*
X719203Y722396D01*
X719219Y722350D01*
X719231Y722287D01*
X719303Y722094D01*
X719338Y722038D01*
X719366Y721977D01*
X719392Y721951D01*
X719409Y721924D01*
X719449Y721896D01*
X719495Y721852D01*
X719637Y721756D01*
X719855Y720644D01*
X719869Y720608D01*
X719877Y720563D01*
X720276Y719501D01*
X720205Y719346D01*
X720190Y719281D01*
X720167Y719219D01*
X720167Y719182D01*
X720160Y719151D01*
X720168Y719103D01*
X720169Y719039D01*
X720209Y718837D01*
X720234Y718775D01*
X720251Y718711D01*
X720273Y718681D01*
X720285Y718652D01*
X720320Y718617D01*
X720358Y718566D01*
X720482Y718449D01*
X720507Y717581D01*
X720507Y717580D01*
X720528Y717487D01*
X720552Y717386D01*
X720552Y717385D01*
X720655Y717237D01*
X731112Y706780D01*
X731120Y706774D01*
X731125Y706767D01*
X731277Y706670D01*
X731764Y706468D01*
X734408Y703824D01*
X735839Y700370D01*
X735839Y696630D01*
X734408Y693176D01*
X731764Y690532D01*
X731596Y690462D01*
X731595Y690462D01*
X730371Y689955D01*
X729146Y689448D01*
X728310Y689101D01*
X724230Y689101D01*
X720776Y690532D01*
X718061Y693247D01*
X717742Y693567D01*
X717713Y693586D01*
X717690Y693612D01*
X717630Y693641D01*
X717575Y693678D01*
X717540Y693684D01*
X717509Y693699D01*
X717443Y693703D01*
X717378Y693715D01*
X717344Y693708D01*
X717309Y693710D01*
X717247Y693687D01*
X717182Y693674D01*
X717153Y693654D01*
X717120Y693642D01*
X717071Y693597D01*
X717017Y693559D01*
X716998Y693530D01*
X716973Y693506D01*
X716945Y693446D01*
X716909Y693390D01*
X716904Y693356D01*
X716889Y693324D01*
X716887Y693258D01*
X716876Y693192D01*
X716884Y693159D01*
X716883Y693124D01*
X716909Y693050D01*
X716921Y692997D01*
X716935Y692977D01*
X716944Y692954D01*
X736896Y658394D01*
X736528Y658288D01*
X736498Y658272D01*
X736453Y658260D01*
X733687Y656951D01*
X733664Y656934D01*
X733637Y656924D01*
X733585Y656875D01*
X733527Y656832D01*
X733513Y656807D01*
X733492Y656788D01*
X733463Y656722D01*
X733427Y656660D01*
X733424Y656632D01*
X733412Y656606D01*
X733411Y656534D01*
X733402Y656463D01*
X733410Y656436D01*
X733410Y656407D01*
X733445Y656312D01*
X733456Y656272D01*
X733463Y656263D01*
X733467Y656251D01*
X742824Y640000D01*
X733467Y623749D01*
X733458Y623722D01*
X733442Y623698D01*
X733427Y623628D01*
X733404Y623560D01*
X733407Y623532D01*
X733401Y623504D01*
X733415Y623434D01*
X733420Y623362D01*
X733433Y623337D01*
X733439Y623309D01*
X733479Y623249D01*
X733512Y623186D01*
X733534Y623168D01*
X733550Y623144D01*
X733633Y623086D01*
X733665Y623059D01*
X733676Y623056D01*
X733687Y623049D01*
X736453Y621740D01*
X736486Y621732D01*
X736528Y621712D01*
X736885Y621609D01*
X713531Y581162D01*
X713522Y581133D01*
X713515Y581123D01*
X713511Y581102D01*
X713504Y581082D01*
X713473Y581004D01*
X713473Y580988D01*
X713468Y580972D01*
X713474Y580888D01*
X713475Y580803D01*
X713481Y580789D01*
X713482Y580772D01*
X713521Y580697D01*
X713554Y580619D01*
X713566Y580607D01*
X713573Y580594D01*
X713616Y580557D01*
X713681Y580492D01*
X714135Y580177D01*
X714165Y580009D01*
X714190Y579947D01*
X714206Y579882D01*
X714228Y579852D01*
X714239Y579823D01*
X714274Y579788D01*
X714311Y579736D01*
X714458Y579592D01*
X714514Y579556D01*
X714565Y579513D01*
X714600Y579501D01*
X714626Y579483D01*
X714675Y579475D01*
X714735Y579454D01*
X714904Y579428D01*
X715574Y578514D01*
X715603Y578489D01*
X715629Y578451D01*
X716442Y577660D01*
X716444Y577489D01*
X716458Y577424D01*
X716463Y577358D01*
X716479Y577324D01*
X716486Y577293D01*
X716514Y577253D01*
X716542Y577196D01*
X716664Y577030D01*
X716713Y576985D01*
X716756Y576934D01*
X716789Y576916D01*
X716812Y576895D01*
X716858Y576879D01*
X716914Y576848D01*
X717077Y576795D01*
X717588Y575783D01*
X717611Y575753D01*
X717632Y575712D01*
X718303Y574798D01*
X718277Y574629D01*
X718280Y574562D01*
X718274Y574496D01*
X718285Y574460D01*
X718286Y574429D01*
X718307Y574385D01*
X718325Y574323D01*
X718418Y574140D01*
X718459Y574087D01*
X718493Y574030D01*
X718523Y574007D01*
X718542Y573982D01*
X718585Y573958D01*
X718635Y573919D01*
X718786Y573840D01*
X719124Y572757D01*
X719142Y572724D01*
X719156Y572680D01*
X719667Y571668D01*
X719614Y571506D01*
X719606Y571440D01*
X719589Y571375D01*
X719594Y571338D01*
X719590Y571307D01*
X719603Y571260D01*
X719611Y571196D01*
X719673Y571000D01*
X719705Y570941D01*
X719729Y570879D01*
X719754Y570852D01*
X719769Y570824D01*
X719807Y570794D01*
X719851Y570747D01*
X719986Y570644D01*
X720141Y569520D01*
X720154Y569484D01*
X720160Y569439D01*
X720498Y568356D01*
X720418Y568205D01*
X720400Y568141D01*
X720373Y568080D01*
X720371Y568043D01*
X720362Y568013D01*
X720368Y567964D01*
X720365Y567900D01*
X720393Y567696D01*
X720415Y567634D01*
X720428Y567568D01*
X720449Y567537D01*
X720459Y567507D01*
X720492Y567471D01*
X720527Y567417D01*
X720644Y567293D01*
X720612Y566160D01*
X720619Y566123D01*
X720617Y566076D01*
X720772Y564953D01*
X720669Y564817D01*
X720640Y564757D01*
X720603Y564702D01*
X720595Y564665D01*
X720582Y564637D01*
X720579Y564588D01*
X720566Y564525D01*
X720560Y564320D01*
X720572Y564254D01*
X720574Y564187D01*
X720589Y564153D01*
X720594Y564122D01*
X720621Y564081D01*
X720646Y564022D01*
X720742Y563881D01*
X720523Y562768D01*
X720524Y562730D01*
X720514Y562685D01*
X720482Y561551D01*
X720358Y561434D01*
X720320Y561380D01*
X720274Y561331D01*
X720261Y561296D01*
X720243Y561270D01*
X720232Y561223D01*
X720209Y561163D01*
X720182Y561027D01*
X720182Y560970D01*
X720173Y560914D01*
X720183Y560871D01*
X720183Y560826D01*
X720205Y560774D01*
X720218Y560719D01*
X720246Y560679D01*
X720262Y560642D01*
X720292Y560613D01*
X720321Y560571D01*
X739683Y541209D01*
X739711Y541167D01*
X739716Y541164D01*
X739720Y541159D01*
X739800Y541109D01*
X739878Y541057D01*
X739885Y541056D01*
X739890Y541053D01*
X740068Y541021D01*
X804167Y541021D01*
X804169Y541021D01*
X804172Y541021D01*
X804267Y541041D01*
X804363Y541060D01*
X804366Y541062D01*
X804368Y541062D01*
X804449Y541118D01*
X804529Y541173D01*
X804531Y541175D01*
X804533Y541177D01*
X804586Y541260D01*
X804638Y541341D01*
X804639Y541344D01*
X804640Y541346D01*
X804657Y541442D01*
X804674Y541538D01*
X804673Y541541D01*
X804674Y541543D01*
X804652Y541637D01*
X804630Y541734D01*
X804629Y541736D01*
X804628Y541739D01*
X804526Y541887D01*
X802131Y544281D01*
X802131Y553119D01*
X808381Y559369D01*
X817219Y559369D01*
X823469Y553119D01*
X823469Y544281D01*
X821074Y541887D01*
X821073Y541884D01*
X821071Y541883D01*
X821018Y541802D01*
X820964Y541720D01*
X820963Y541717D01*
X820962Y541715D01*
X820944Y541619D01*
X820926Y541523D01*
X820926Y541520D01*
X820926Y541518D01*
X820947Y541421D01*
X820968Y541327D01*
X820969Y541325D01*
X820970Y541322D01*
X821026Y541242D01*
X821082Y541162D01*
X821084Y541161D01*
X821086Y541159D01*
X821168Y541107D01*
X821251Y541055D01*
X821254Y541054D01*
X821256Y541053D01*
X821433Y541021D01*
X826995Y541021D01*
X827003Y541022D01*
X827011Y541021D01*
X827101Y541042D01*
X827192Y541060D01*
X827198Y541065D01*
X827206Y541067D01*
X827354Y541169D01*
X847481Y561296D01*
X847485Y561303D01*
X847491Y561307D01*
X847540Y561386D01*
X847592Y561463D01*
X847593Y561471D01*
X847597Y561477D01*
X847629Y561655D01*
X847629Y562748D01*
X848707Y565351D01*
X850699Y567343D01*
X851772Y567787D01*
X852996Y568294D01*
X853302Y568421D01*
X856118Y568421D01*
X858721Y567343D01*
X860713Y565351D01*
X861791Y562748D01*
X861791Y559932D01*
X860713Y557329D01*
X858721Y555337D01*
X857971Y555027D01*
X856746Y554519D01*
X856118Y554259D01*
X855025Y554259D01*
X855017Y554258D01*
X855009Y554259D01*
X854919Y554238D01*
X854828Y554220D01*
X854822Y554215D01*
X854814Y554213D01*
X854666Y554111D01*
X831415Y530859D01*
X740068Y530859D01*
X740061Y530858D01*
X740055Y530859D01*
X739963Y530838D01*
X739871Y530820D01*
X739866Y530816D01*
X739859Y530815D01*
X739783Y530760D01*
X739705Y530707D01*
X739702Y530702D01*
X739696Y530698D01*
X739673Y530661D01*
X736984Y527972D01*
X736170Y527635D01*
X734946Y527128D01*
X733721Y526621D01*
X733530Y526541D01*
X729790Y526541D01*
X726336Y527972D01*
X708377Y545932D01*
X708373Y545934D01*
X708370Y545938D01*
X708289Y545990D01*
X708210Y546043D01*
X708205Y546043D01*
X708201Y546046D01*
X708106Y546062D01*
X708013Y546080D01*
X708008Y546079D01*
X708004Y546080D01*
X707827Y546043D01*
X707696Y545990D01*
X707640Y545953D01*
X707580Y545924D01*
X707555Y545897D01*
X707528Y545879D01*
X707501Y545838D01*
X707458Y545791D01*
X707367Y545647D01*
X706260Y545400D01*
X706225Y545385D01*
X706180Y545375D01*
X705129Y544949D01*
X704972Y545016D01*
X704907Y545029D01*
X704844Y545051D01*
X704807Y545050D01*
X704776Y545056D01*
X704728Y545046D01*
X704664Y545044D01*
X704463Y544999D01*
X704402Y544972D01*
X704338Y544953D01*
X704309Y544930D01*
X704280Y544917D01*
X704246Y544882D01*
X704196Y544842D01*
X704082Y544715D01*
X702950Y544654D01*
X702913Y544644D01*
X702867Y544642D01*
X701760Y544395D01*
X701616Y544486D01*
X701554Y544510D01*
X701496Y544542D01*
X701459Y544547D01*
X701429Y544558D01*
X701380Y544557D01*
X701317Y544565D01*
X701111Y544553D01*
X701047Y544537D01*
X700981Y544529D01*
X700948Y544511D01*
X700917Y544503D01*
X700878Y544474D01*
X700822Y544443D01*
X700689Y544337D01*
X699562Y544462D01*
X699524Y544459D01*
X699478Y544464D01*
X698346Y544403D01*
X698219Y544517D01*
X698162Y544550D01*
X698110Y544592D01*
X698074Y544602D01*
X698047Y544618D01*
X697998Y544625D01*
X697937Y544643D01*
X697732Y544666D01*
X697666Y544660D01*
X697599Y544663D01*
X697564Y544651D01*
X697533Y544648D01*
X697489Y544625D01*
X697429Y544605D01*
X697280Y544521D01*
X696189Y544831D01*
X696151Y544834D01*
X696107Y544847D01*
X694980Y544972D01*
X694873Y545105D01*
X694822Y545148D01*
X694778Y545198D01*
X694744Y545214D01*
X694720Y545234D01*
X694673Y545249D01*
X694616Y545277D01*
X694418Y545333D01*
X694351Y545338D01*
X694286Y545352D01*
X694249Y545346D01*
X694218Y545348D01*
X694171Y545333D01*
X694108Y545322D01*
X693948Y545265D01*
X693472Y545490D01*
X693390Y545510D01*
X693309Y545536D01*
X693293Y545534D01*
X693277Y545538D01*
X693194Y545525D01*
X693109Y545517D01*
X693095Y545509D01*
X693079Y545507D01*
X693007Y545463D01*
X692932Y545422D01*
X692921Y545410D01*
X692909Y545402D01*
X692876Y545356D01*
X692816Y545285D01*
X689004Y538682D01*
X669463Y504836D01*
X669169Y505118D01*
X669141Y505136D01*
X669107Y505169D01*
X666584Y506911D01*
X666557Y506922D01*
X666535Y506941D01*
X666466Y506961D01*
X666401Y506989D01*
X666372Y506989D01*
X666344Y506997D01*
X666273Y506989D01*
X666202Y506990D01*
X666175Y506978D01*
X666146Y506975D01*
X666084Y506940D01*
X666019Y506912D01*
X665998Y506892D01*
X665973Y506877D01*
X665910Y506800D01*
X665880Y506770D01*
X665876Y506760D01*
X665867Y506749D01*
X656367Y490249D01*
X656343Y490176D01*
X656312Y490106D01*
X656312Y490082D01*
X656304Y490060D01*
X656311Y489984D01*
X656310Y489907D01*
X656319Y489883D01*
X656320Y489862D01*
X656341Y489823D01*
X656360Y489771D01*
X656361Y489765D01*
X656363Y489763D01*
X656367Y489751D01*
X665867Y473251D01*
X665886Y473229D01*
X665899Y473203D01*
X665952Y473155D01*
X665999Y473102D01*
X666025Y473089D01*
X666047Y473070D01*
X666114Y473047D01*
X666178Y473016D01*
X666207Y473015D01*
X666234Y473005D01*
X666306Y473010D01*
X666377Y473007D01*
X666404Y473017D01*
X666433Y473019D01*
X666523Y473061D01*
X666563Y473076D01*
X666571Y473083D01*
X666584Y473089D01*
X669107Y474831D01*
X669131Y474855D01*
X669169Y474882D01*
X669473Y475174D01*
X692827Y434721D01*
X692884Y434657D01*
X692936Y434590D01*
X692949Y434582D01*
X692960Y434570D01*
X693036Y434533D01*
X693110Y434492D01*
X693126Y434490D01*
X693140Y434483D01*
X693225Y434478D01*
X693309Y434469D01*
X693326Y434473D01*
X693340Y434472D01*
X693393Y434491D01*
X693483Y434516D01*
X693948Y434735D01*
X694108Y434678D01*
X694174Y434668D01*
X694238Y434650D01*
X694276Y434653D01*
X694307Y434649D01*
X694354Y434661D01*
X694418Y434667D01*
X694616Y434723D01*
X694675Y434754D01*
X694738Y434776D01*
X694766Y434801D01*
X694794Y434815D01*
X694825Y434853D01*
X694873Y434895D01*
X694980Y435028D01*
X696107Y435153D01*
X696143Y435165D01*
X696189Y435169D01*
X697280Y435479D01*
X697429Y435395D01*
X697492Y435375D01*
X697552Y435346D01*
X697590Y435344D01*
X697620Y435334D01*
X697669Y435339D01*
X697732Y435334D01*
X697937Y435357D01*
X698000Y435377D01*
X698066Y435389D01*
X698074Y435394D01*
X698079Y435395D01*
X698100Y435409D01*
X698128Y435418D01*
X698165Y435450D01*
X698219Y435483D01*
X698346Y435597D01*
X699478Y435536D01*
X699516Y435541D01*
X699562Y435538D01*
X700689Y435663D01*
X700822Y435557D01*
X700882Y435526D01*
X700936Y435488D01*
X700972Y435480D01*
X701000Y435465D01*
X701049Y435461D01*
X701111Y435447D01*
X701317Y435435D01*
X701383Y435445D01*
X701450Y435446D01*
X701484Y435460D01*
X701515Y435464D01*
X701557Y435490D01*
X701616Y435514D01*
X701760Y435605D01*
X702867Y435358D01*
X702905Y435357D01*
X702950Y435346D01*
X704082Y435285D01*
X704196Y435158D01*
X704249Y435118D01*
X704297Y435071D01*
X704331Y435057D01*
X704357Y435038D01*
X704404Y435026D01*
X704463Y435001D01*
X704664Y434956D01*
X704730Y434955D01*
X704796Y434945D01*
X704833Y434953D01*
X704864Y434952D01*
X704910Y434970D01*
X704972Y434984D01*
X705129Y435051D01*
X706180Y434625D01*
X706218Y434618D01*
X706260Y434600D01*
X707367Y434353D01*
X707458Y434209D01*
X707504Y434160D01*
X707543Y434107D01*
X707575Y434087D01*
X707597Y434064D01*
X707642Y434044D01*
X707696Y434010D01*
X707827Y433957D01*
X707832Y433956D01*
X707836Y433954D01*
X707930Y433938D01*
X708024Y433920D01*
X708029Y433921D01*
X708033Y433920D01*
X708126Y433942D01*
X708220Y433962D01*
X708224Y433965D01*
X708229Y433966D01*
X708377Y434068D01*
X710853Y436545D01*
X713568Y439260D01*
X714034Y439453D01*
X715258Y439960D01*
X715259Y439960D01*
X716483Y440467D01*
X717022Y440691D01*
X743550Y440691D01*
X747004Y439260D01*
X749703Y436561D01*
X749731Y436519D01*
X749736Y436516D01*
X749740Y436511D01*
X749820Y436461D01*
X749898Y436409D01*
X749905Y436408D01*
X749910Y436405D01*
X750088Y436373D01*
X787845Y436373D01*
X787853Y436374D01*
X787860Y436373D01*
X787950Y436394D01*
X788041Y436412D01*
X788048Y436417D01*
X788056Y436419D01*
X788204Y436521D01*
X788977Y437295D01*
X789288Y437424D01*
X789289Y437424D01*
X790513Y437931D01*
X791580Y438373D01*
X794396Y438373D01*
X796999Y437295D01*
X798991Y435303D01*
X800069Y432700D01*
X800069Y429884D01*
X798991Y427281D01*
X796999Y425289D01*
X796713Y425171D01*
X796712Y425171D01*
X795488Y424663D01*
X794396Y424211D01*
X791580Y424211D01*
X788977Y425289D01*
X788204Y426063D01*
X788197Y426067D01*
X788192Y426073D01*
X788114Y426122D01*
X788037Y426174D01*
X788029Y426175D01*
X788022Y426179D01*
X787845Y426211D01*
X750088Y426211D01*
X750081Y426210D01*
X750075Y426211D01*
X749983Y426190D01*
X749891Y426172D01*
X749886Y426168D01*
X749879Y426167D01*
X749803Y426112D01*
X749725Y426059D01*
X749722Y426054D01*
X749716Y426050D01*
X749693Y426013D01*
X747004Y423324D01*
X746563Y423142D01*
X745339Y422634D01*
X744114Y422127D01*
X743550Y421893D01*
X722995Y421893D01*
X722987Y421892D01*
X722980Y421893D01*
X722890Y421872D01*
X722799Y421854D01*
X722792Y421849D01*
X722785Y421847D01*
X722637Y421745D01*
X720321Y419429D01*
X720290Y419382D01*
X720250Y419341D01*
X720235Y419299D01*
X720210Y419262D01*
X720200Y419207D01*
X720179Y419153D01*
X720180Y419105D01*
X720173Y419066D01*
X720181Y419025D01*
X720182Y418973D01*
X720209Y418837D01*
X720234Y418775D01*
X720251Y418711D01*
X720273Y418681D01*
X720285Y418652D01*
X720320Y418617D01*
X720358Y418566D01*
X720482Y418449D01*
X720514Y417315D01*
X720523Y417278D01*
X720523Y417232D01*
X720742Y416119D01*
X720646Y415978D01*
X720621Y415916D01*
X720587Y415859D01*
X720582Y415822D01*
X720570Y415793D01*
X720570Y415744D01*
X720560Y415680D01*
X720566Y415475D01*
X720581Y415410D01*
X720587Y415343D01*
X720604Y415310D01*
X720611Y415279D01*
X720640Y415240D01*
X720669Y415183D01*
X720772Y415047D01*
X720617Y413924D01*
X720619Y413886D01*
X720612Y413840D01*
X720644Y412707D01*
X720527Y412583D01*
X720492Y412526D01*
X720449Y412475D01*
X720438Y412439D01*
X720421Y412413D01*
X720413Y412364D01*
X720393Y412304D01*
X720365Y412100D01*
X720369Y412034D01*
X720365Y412011D01*
X720367Y412002D01*
X720364Y411967D01*
X720375Y411931D01*
X720377Y411900D01*
X720399Y411856D01*
X720401Y411851D01*
X720409Y411816D01*
X720414Y411808D01*
X720418Y411795D01*
X720498Y411644D01*
X720160Y410561D01*
X720156Y410523D01*
X720141Y410480D01*
X719986Y409356D01*
X719851Y409253D01*
X719806Y409204D01*
X719756Y409160D01*
X719739Y409127D01*
X719718Y409103D01*
X719702Y409057D01*
X719673Y409000D01*
X719611Y408804D01*
X719604Y408737D01*
X719589Y408673D01*
X719594Y408636D01*
X719591Y408604D01*
X719605Y408557D01*
X719614Y408494D01*
X719667Y408332D01*
X719156Y407320D01*
X719146Y407283D01*
X719124Y407243D01*
X718786Y406160D01*
X718635Y406081D01*
X718584Y406039D01*
X718527Y406004D01*
X718504Y405974D01*
X718480Y405955D01*
X718457Y405911D01*
X718418Y405860D01*
X718325Y405677D01*
X718308Y405612D01*
X718281Y405551D01*
X718280Y405514D01*
X718272Y405483D01*
X718278Y405438D01*
X718274Y405417D01*
X718278Y405402D01*
X718277Y405371D01*
X718303Y405202D01*
X717632Y404288D01*
X717616Y404254D01*
X717588Y404217D01*
X717077Y403205D01*
X716914Y403152D01*
X716857Y403119D01*
X716795Y403094D01*
X716768Y403068D01*
X716740Y403053D01*
X716710Y403014D01*
X716664Y402970D01*
X716542Y402804D01*
X716514Y402744D01*
X716478Y402688D01*
X716471Y402651D01*
X716458Y402622D01*
X716456Y402573D01*
X716444Y402511D01*
X716442Y402340D01*
X715629Y401549D01*
X715608Y401517D01*
X715574Y401486D01*
X714904Y400572D01*
X714735Y400546D01*
X714673Y400523D01*
X714607Y400509D01*
X714576Y400488D01*
X714547Y400477D01*
X714511Y400443D01*
X714458Y400408D01*
X714311Y400264D01*
X714273Y400209D01*
X714228Y400160D01*
X714215Y400125D01*
X714197Y400099D01*
X714188Y400051D01*
X714165Y399991D01*
X714135Y399823D01*
X713690Y399514D01*
X713631Y399453D01*
X713569Y399396D01*
X713562Y399381D01*
X713551Y399369D01*
X713521Y399290D01*
X713485Y399213D01*
X713485Y399197D01*
X713479Y399182D01*
X713481Y399098D01*
X713479Y399013D01*
X713485Y398997D01*
X713485Y398982D01*
X713508Y398931D01*
X713540Y398843D01*
X736892Y358393D01*
X736528Y358288D01*
X736498Y358272D01*
X736453Y358260D01*
X733687Y356951D01*
X733664Y356934D01*
X733637Y356924D01*
X733585Y356875D01*
X733527Y356832D01*
X733513Y356807D01*
X733492Y356788D01*
X733463Y356722D01*
X733427Y356660D01*
X733424Y356632D01*
X733412Y356606D01*
X733411Y356534D01*
X733402Y356463D01*
X733410Y356436D01*
X733410Y356407D01*
X733445Y356312D01*
X733456Y356272D01*
X733463Y356263D01*
X733467Y356251D01*
X742967Y339751D01*
X743019Y339693D01*
X743065Y339630D01*
X743084Y339619D01*
X743099Y339602D01*
X743169Y339568D01*
X743236Y339528D01*
X743261Y339524D01*
X743278Y339516D01*
X743323Y339514D01*
X743400Y339501D01*
X762400Y339501D01*
X762428Y339506D01*
G37*
%LPC*%
G36*
X784468Y398557D02*
X784468Y398557D01*
X781865Y399635D01*
X779873Y401627D01*
X778795Y404230D01*
X778795Y407046D01*
X779873Y409649D01*
X781865Y411641D01*
X782880Y412061D01*
X784105Y412569D01*
X784468Y412719D01*
X787284Y412719D01*
X789887Y411641D01*
X790660Y410867D01*
X790667Y410863D01*
X790672Y410857D01*
X790750Y410808D01*
X790827Y410756D01*
X790835Y410755D01*
X790842Y410751D01*
X791019Y410719D01*
X863029Y410719D01*
X863037Y410720D01*
X863044Y410719D01*
X863134Y410740D01*
X863225Y410758D01*
X863232Y410763D01*
X863240Y410765D01*
X863388Y410867D01*
X864415Y411895D01*
X864817Y412061D01*
X866042Y412569D01*
X867018Y412973D01*
X869834Y412973D01*
X872437Y411895D01*
X874429Y409903D01*
X875507Y407300D01*
X875507Y404484D01*
X874429Y401881D01*
X872437Y399889D01*
X872241Y399808D01*
X871017Y399301D01*
X871016Y399301D01*
X869834Y398811D01*
X867018Y398811D01*
X864415Y399889D01*
X863896Y400409D01*
X863889Y400413D01*
X863884Y400419D01*
X863806Y400468D01*
X863729Y400520D01*
X863721Y400521D01*
X863714Y400525D01*
X863537Y400557D01*
X791019Y400557D01*
X791011Y400556D01*
X791004Y400557D01*
X790914Y400536D01*
X790823Y400518D01*
X790816Y400513D01*
X790808Y400511D01*
X790660Y400409D01*
X789887Y399635D01*
X789080Y399301D01*
X787855Y398794D01*
X787284Y398557D01*
X784468Y398557D01*
G37*
%LPD*%
%LPC*%
G36*
X796658Y483201D02*
X796658Y483201D01*
X790484Y485759D01*
X785759Y490484D01*
X783201Y496658D01*
X783201Y503342D01*
X785759Y509516D01*
X790484Y514241D01*
X791171Y514526D01*
X792396Y515033D01*
X793620Y515540D01*
X793621Y515540D01*
X794845Y516048D01*
X796070Y516555D01*
X796658Y516799D01*
X803342Y516799D01*
X809516Y514241D01*
X814241Y509516D01*
X816799Y503342D01*
X816799Y496658D01*
X814241Y490484D01*
X809516Y485759D01*
X808972Y485533D01*
X807747Y485026D01*
X806522Y484519D01*
X805298Y484012D01*
X804073Y483504D01*
X803342Y483201D01*
X796658Y483201D01*
G37*
%LPD*%
%LPC*%
G36*
X796658Y1063201D02*
X796658Y1063201D01*
X790484Y1065759D01*
X785759Y1070484D01*
X783201Y1076658D01*
X783201Y1083342D01*
X785759Y1089516D01*
X790484Y1094241D01*
X790656Y1094313D01*
X791881Y1094820D01*
X793106Y1095327D01*
X794330Y1095834D01*
X795555Y1096342D01*
X796658Y1096799D01*
X803342Y1096799D01*
X809516Y1094241D01*
X814241Y1089516D01*
X816799Y1083342D01*
X816799Y1076658D01*
X814241Y1070484D01*
X809516Y1065759D01*
X808457Y1065320D01*
X807232Y1064813D01*
X806008Y1064306D01*
X804783Y1063798D01*
X803558Y1063291D01*
X803342Y1063201D01*
X796658Y1063201D01*
G37*
%LPD*%
%LPC*%
G36*
X878702Y528859D02*
X878702Y528859D01*
X876099Y529937D01*
X874107Y531929D01*
X873029Y534532D01*
X873029Y537348D01*
X874107Y539951D01*
X876099Y541943D01*
X877262Y542425D01*
X878487Y542932D01*
X878702Y543021D01*
X881518Y543021D01*
X884121Y541943D01*
X884894Y541169D01*
X884901Y541165D01*
X884906Y541159D01*
X884984Y541110D01*
X885061Y541058D01*
X885069Y541057D01*
X885076Y541053D01*
X885253Y541021D01*
X923227Y541021D01*
X923235Y541022D01*
X923242Y541021D01*
X923332Y541042D01*
X923423Y541060D01*
X923430Y541065D01*
X923438Y541067D01*
X923586Y541169D01*
X924359Y541943D01*
X925522Y542425D01*
X926747Y542932D01*
X926962Y543021D01*
X929778Y543021D01*
X932381Y541943D01*
X934373Y539951D01*
X935451Y537348D01*
X935451Y534532D01*
X934373Y531929D01*
X932381Y529937D01*
X931722Y529664D01*
X931721Y529664D01*
X930497Y529157D01*
X929778Y528859D01*
X926962Y528859D01*
X924359Y529937D01*
X923586Y530711D01*
X923579Y530715D01*
X923574Y530721D01*
X923496Y530770D01*
X923419Y530822D01*
X923411Y530823D01*
X923404Y530827D01*
X923227Y530859D01*
X885253Y530859D01*
X885245Y530858D01*
X885238Y530859D01*
X885148Y530838D01*
X885057Y530820D01*
X885050Y530815D01*
X885042Y530813D01*
X884894Y530711D01*
X884121Y529937D01*
X883462Y529664D01*
X883461Y529664D01*
X882237Y529157D01*
X881518Y528859D01*
X878702Y528859D01*
G37*
%LPD*%
%LPC*%
G36*
X874892Y681259D02*
X874892Y681259D01*
X872289Y682337D01*
X870297Y684329D01*
X869219Y686932D01*
X869219Y689748D01*
X870297Y692351D01*
X872289Y694343D01*
X872909Y694600D01*
X874134Y695107D01*
X874892Y695421D01*
X877708Y695421D01*
X880311Y694343D01*
X881084Y693569D01*
X881091Y693565D01*
X881096Y693559D01*
X881174Y693510D01*
X881251Y693458D01*
X881259Y693457D01*
X881266Y693453D01*
X881443Y693421D01*
X919417Y693421D01*
X919425Y693422D01*
X919432Y693421D01*
X919522Y693442D01*
X919613Y693460D01*
X919620Y693465D01*
X919628Y693467D01*
X919776Y693569D01*
X920549Y694343D01*
X921169Y694600D01*
X922394Y695107D01*
X923152Y695421D01*
X925968Y695421D01*
X928571Y694343D01*
X930563Y692351D01*
X931641Y689748D01*
X931641Y686932D01*
X930563Y684329D01*
X928571Y682337D01*
X927368Y681839D01*
X926144Y681332D01*
X925968Y681259D01*
X923152Y681259D01*
X920549Y682337D01*
X919776Y683111D01*
X919769Y683115D01*
X919764Y683121D01*
X919686Y683170D01*
X919609Y683222D01*
X919601Y683223D01*
X919594Y683227D01*
X919417Y683259D01*
X881443Y683259D01*
X881435Y683258D01*
X881428Y683259D01*
X881338Y683238D01*
X881247Y683220D01*
X881240Y683215D01*
X881232Y683213D01*
X881084Y683111D01*
X880311Y682337D01*
X879108Y681839D01*
X877884Y681332D01*
X877708Y681259D01*
X874892Y681259D01*
G37*
%LPD*%
%LPC*%
G36*
X745247Y792479D02*
X745247Y792479D01*
X741512Y794026D01*
X738654Y796884D01*
X737107Y800619D01*
X737107Y804661D01*
X738654Y808396D01*
X741512Y811254D01*
X741544Y811267D01*
X742769Y811774D01*
X743993Y812282D01*
X743994Y812282D01*
X745218Y812789D01*
X745247Y812801D01*
X763513Y812801D01*
X767248Y811254D01*
X770106Y808396D01*
X771653Y804661D01*
X771653Y800619D01*
X770106Y796884D01*
X767248Y794026D01*
X767043Y793941D01*
X765818Y793434D01*
X764594Y792927D01*
X763513Y792479D01*
X745247Y792479D01*
G37*
%LPD*%
%LPC*%
G36*
X919491Y787653D02*
X919491Y787653D01*
X915756Y789200D01*
X912898Y792058D01*
X911351Y795793D01*
X911351Y799835D01*
X912898Y803570D01*
X915756Y806428D01*
X916418Y806702D01*
X917642Y807209D01*
X918867Y807716D01*
X919491Y807975D01*
X937757Y807975D01*
X941492Y806428D01*
X944350Y803570D01*
X945897Y799835D01*
X945897Y795793D01*
X944350Y792058D01*
X941492Y789200D01*
X940692Y788869D01*
X939467Y788362D01*
X938243Y787854D01*
X937757Y787653D01*
X919491Y787653D01*
G37*
%LPD*%
%LPC*%
G36*
X745247Y817879D02*
X745247Y817879D01*
X741512Y819426D01*
X738654Y822284D01*
X737107Y826019D01*
X737107Y830061D01*
X738654Y833796D01*
X741512Y836654D01*
X742678Y837137D01*
X743903Y837644D01*
X745127Y838151D01*
X745128Y838151D01*
X745247Y838201D01*
X763513Y838201D01*
X767248Y836654D01*
X770106Y833796D01*
X771653Y830061D01*
X771653Y826019D01*
X770106Y822284D01*
X767248Y819426D01*
X766952Y819304D01*
X765728Y818797D01*
X764503Y818289D01*
X763513Y817879D01*
X745247Y817879D01*
G37*
%LPD*%
%LPC*%
G36*
X803921Y1181861D02*
X803921Y1181861D01*
X800186Y1183408D01*
X797328Y1186266D01*
X795781Y1190001D01*
X795781Y1208267D01*
X797328Y1212002D01*
X800186Y1214860D01*
X800617Y1215038D01*
X801841Y1215545D01*
X803066Y1216053D01*
X803921Y1216407D01*
X807963Y1216407D01*
X811698Y1214860D01*
X814556Y1212002D01*
X816103Y1208267D01*
X816103Y1190001D01*
X814556Y1186266D01*
X811698Y1183408D01*
X810717Y1183002D01*
X809493Y1182495D01*
X808268Y1181988D01*
X807963Y1181861D01*
X803921Y1181861D01*
G37*
%LPD*%
%LPC*%
G36*
X854721Y1181861D02*
X854721Y1181861D01*
X850986Y1183408D01*
X848128Y1186266D01*
X846581Y1190001D01*
X846581Y1208267D01*
X848128Y1212002D01*
X850986Y1214860D01*
X851417Y1215038D01*
X852641Y1215545D01*
X853866Y1216053D01*
X854721Y1216407D01*
X858763Y1216407D01*
X862498Y1214860D01*
X865356Y1212002D01*
X866903Y1208267D01*
X866903Y1190001D01*
X865356Y1186266D01*
X862498Y1183408D01*
X861517Y1183002D01*
X860293Y1182495D01*
X859068Y1181988D01*
X858763Y1181861D01*
X854721Y1181861D01*
G37*
%LPD*%
%LPC*%
G36*
X829321Y1181861D02*
X829321Y1181861D01*
X825586Y1183408D01*
X822728Y1186266D01*
X821181Y1190001D01*
X821181Y1208267D01*
X822728Y1212002D01*
X825586Y1214860D01*
X826017Y1215038D01*
X827241Y1215545D01*
X828466Y1216053D01*
X829321Y1216407D01*
X833363Y1216407D01*
X837098Y1214860D01*
X839956Y1212002D01*
X841503Y1208267D01*
X841503Y1190001D01*
X839956Y1186266D01*
X837098Y1183408D01*
X836117Y1183002D01*
X834893Y1182495D01*
X833668Y1181988D01*
X833363Y1181861D01*
X829321Y1181861D01*
G37*
%LPD*%
%LPC*%
G36*
X910452Y1099089D02*
X910452Y1099089D01*
X907849Y1100167D01*
X905857Y1102159D01*
X904779Y1104762D01*
X904779Y1107578D01*
X905857Y1110181D01*
X906631Y1110954D01*
X906635Y1110961D01*
X906641Y1110966D01*
X906690Y1111044D01*
X906742Y1111121D01*
X906743Y1111129D01*
X906747Y1111136D01*
X906779Y1111313D01*
X906779Y1139127D01*
X906778Y1139135D01*
X906779Y1139142D01*
X906758Y1139232D01*
X906740Y1139323D01*
X906735Y1139330D01*
X906733Y1139338D01*
X906631Y1139486D01*
X905857Y1140259D01*
X904779Y1142862D01*
X904779Y1145678D01*
X905857Y1148281D01*
X907849Y1150273D01*
X908681Y1150617D01*
X909905Y1151125D01*
X909906Y1151125D01*
X910452Y1151351D01*
X913268Y1151351D01*
X915871Y1150273D01*
X917863Y1148281D01*
X918941Y1145678D01*
X918941Y1142862D01*
X917863Y1140259D01*
X917089Y1139486D01*
X917085Y1139479D01*
X917079Y1139474D01*
X917030Y1139396D01*
X916978Y1139319D01*
X916977Y1139311D01*
X916973Y1139304D01*
X916941Y1139127D01*
X916941Y1111313D01*
X916942Y1111305D01*
X916941Y1111298D01*
X916962Y1111208D01*
X916980Y1111117D01*
X916985Y1111110D01*
X916987Y1111102D01*
X917089Y1110954D01*
X917863Y1110181D01*
X918941Y1107578D01*
X918941Y1104762D01*
X917863Y1102159D01*
X915871Y1100167D01*
X915016Y1099813D01*
X913791Y1099306D01*
X913268Y1099089D01*
X910452Y1099089D01*
G37*
%LPD*%
%LPC*%
G36*
X758052Y1190529D02*
X758052Y1190529D01*
X755449Y1191607D01*
X753457Y1193599D01*
X752379Y1196202D01*
X752379Y1199018D01*
X753457Y1201621D01*
X755449Y1203613D01*
X756091Y1203879D01*
X757315Y1204386D01*
X758052Y1204691D01*
X759145Y1204691D01*
X759153Y1204692D01*
X759161Y1204691D01*
X759251Y1204712D01*
X759342Y1204730D01*
X759348Y1204735D01*
X759356Y1204737D01*
X759504Y1204839D01*
X775091Y1220426D01*
X775095Y1220433D01*
X775101Y1220437D01*
X775150Y1220516D01*
X775202Y1220593D01*
X775203Y1220601D01*
X775207Y1220607D01*
X775239Y1220785D01*
X775239Y1221878D01*
X776317Y1224481D01*
X778309Y1226473D01*
X778869Y1226705D01*
X780094Y1227212D01*
X780912Y1227551D01*
X783728Y1227551D01*
X786331Y1226473D01*
X788323Y1224481D01*
X789401Y1221878D01*
X789401Y1219062D01*
X788323Y1216459D01*
X786331Y1214467D01*
X786293Y1214452D01*
X785069Y1213944D01*
X783844Y1213437D01*
X783728Y1213389D01*
X782635Y1213389D01*
X782627Y1213388D01*
X782619Y1213389D01*
X782529Y1213368D01*
X782438Y1213350D01*
X782432Y1213345D01*
X782424Y1213343D01*
X782276Y1213241D01*
X766689Y1197654D01*
X766685Y1197647D01*
X766679Y1197643D01*
X766630Y1197564D01*
X766578Y1197487D01*
X766577Y1197479D01*
X766573Y1197473D01*
X766541Y1197295D01*
X766541Y1196202D01*
X765463Y1193599D01*
X763471Y1191607D01*
X762290Y1191118D01*
X761066Y1190611D01*
X761065Y1190611D01*
X760868Y1190529D01*
X758052Y1190529D01*
G37*
%LPD*%
G36*
X708607Y999810D02*
X708607Y999810D01*
X708678Y999807D01*
X708705Y999817D01*
X708734Y999819D01*
X708824Y999861D01*
X708864Y999876D01*
X708872Y999884D01*
X708885Y999890D01*
X711188Y1001489D01*
X711212Y1001515D01*
X711252Y1001542D01*
X713261Y1003499D01*
X713280Y1003528D01*
X713315Y1003561D01*
X714974Y1005822D01*
X714989Y1005853D01*
X715018Y1005892D01*
X716282Y1008395D01*
X716291Y1008429D01*
X716313Y1008472D01*
X717149Y1011149D01*
X717152Y1011183D01*
X717167Y1011229D01*
X717550Y1014008D01*
X717548Y1014042D01*
X717554Y1014090D01*
X717475Y1016893D01*
X717467Y1016927D01*
X717466Y1016975D01*
X716927Y1019727D01*
X716913Y1019759D01*
X716904Y1019807D01*
X715919Y1022432D01*
X715904Y1022457D01*
X715899Y1022477D01*
X715891Y1022488D01*
X715884Y1022507D01*
X714480Y1024935D01*
X714457Y1024961D01*
X714433Y1025003D01*
X712649Y1027166D01*
X712622Y1027188D01*
X712591Y1027225D01*
X710475Y1029066D01*
X710445Y1029083D01*
X710409Y1029115D01*
X708018Y1030582D01*
X707986Y1030593D01*
X707945Y1030619D01*
X705346Y1031672D01*
X705312Y1031679D01*
X705267Y1031697D01*
X702530Y1032308D01*
X702495Y1032309D01*
X702448Y1032320D01*
X699648Y1032472D01*
X699614Y1032467D01*
X699566Y1032470D01*
X696778Y1032160D01*
X696745Y1032149D01*
X696697Y1032144D01*
X693999Y1031379D01*
X693969Y1031363D01*
X693922Y1031350D01*
X691387Y1030151D01*
X691363Y1030134D01*
X691336Y1030124D01*
X691284Y1030075D01*
X691227Y1030032D01*
X691213Y1030007D01*
X691192Y1029987D01*
X691163Y1029922D01*
X691127Y1029861D01*
X691124Y1029832D01*
X691112Y1029805D01*
X691111Y1029734D01*
X691102Y1029663D01*
X691110Y1029635D01*
X691110Y1029606D01*
X691144Y1029513D01*
X691156Y1029472D01*
X691163Y1029463D01*
X691168Y1029450D01*
X708168Y1000050D01*
X708187Y1000028D01*
X708200Y1000002D01*
X708253Y999954D01*
X708300Y999901D01*
X708326Y999889D01*
X708348Y999869D01*
X708415Y999846D01*
X708479Y999816D01*
X708508Y999814D01*
X708536Y999805D01*
X708607Y999810D01*
G37*
G36*
X708607Y399810D02*
X708607Y399810D01*
X708678Y399807D01*
X708705Y399817D01*
X708734Y399819D01*
X708824Y399861D01*
X708864Y399876D01*
X708872Y399884D01*
X708885Y399890D01*
X711188Y401489D01*
X711212Y401515D01*
X711252Y401542D01*
X713261Y403499D01*
X713280Y403528D01*
X713315Y403561D01*
X714974Y405822D01*
X714989Y405853D01*
X715018Y405892D01*
X716282Y408395D01*
X716291Y408429D01*
X716313Y408472D01*
X717149Y411149D01*
X717152Y411183D01*
X717167Y411229D01*
X717550Y414008D01*
X717548Y414042D01*
X717554Y414090D01*
X717475Y416893D01*
X717467Y416927D01*
X717466Y416975D01*
X716927Y419727D01*
X716913Y419759D01*
X716904Y419807D01*
X715919Y422432D01*
X715904Y422457D01*
X715899Y422477D01*
X715891Y422488D01*
X715884Y422507D01*
X714480Y424935D01*
X714457Y424961D01*
X714433Y425003D01*
X712649Y427166D01*
X712622Y427188D01*
X712591Y427225D01*
X710475Y429066D01*
X710445Y429083D01*
X710409Y429115D01*
X708018Y430582D01*
X707986Y430593D01*
X707945Y430619D01*
X705346Y431672D01*
X705312Y431679D01*
X705267Y431697D01*
X702530Y432308D01*
X702495Y432309D01*
X702448Y432320D01*
X699648Y432472D01*
X699614Y432467D01*
X699566Y432470D01*
X696778Y432160D01*
X696745Y432149D01*
X696697Y432144D01*
X693999Y431379D01*
X693969Y431363D01*
X693922Y431350D01*
X691387Y430151D01*
X691363Y430134D01*
X691336Y430124D01*
X691284Y430075D01*
X691227Y430032D01*
X691213Y430007D01*
X691192Y429987D01*
X691163Y429922D01*
X691127Y429861D01*
X691124Y429832D01*
X691112Y429805D01*
X691111Y429734D01*
X691102Y429663D01*
X691110Y429635D01*
X691110Y429606D01*
X691144Y429513D01*
X691156Y429472D01*
X691163Y429463D01*
X691168Y429450D01*
X708168Y400050D01*
X708187Y400028D01*
X708200Y400002D01*
X708253Y399954D01*
X708300Y399901D01*
X708326Y399889D01*
X708348Y399869D01*
X708415Y399846D01*
X708479Y399816D01*
X708508Y399814D01*
X708536Y399805D01*
X708607Y399810D01*
G37*
G36*
X708607Y699810D02*
X708607Y699810D01*
X708678Y699807D01*
X708705Y699817D01*
X708734Y699819D01*
X708824Y699861D01*
X708864Y699876D01*
X708872Y699884D01*
X708885Y699890D01*
X711188Y701489D01*
X711212Y701515D01*
X711252Y701542D01*
X713261Y703499D01*
X713280Y703528D01*
X713315Y703561D01*
X714974Y705822D01*
X714989Y705853D01*
X715018Y705892D01*
X716282Y708395D01*
X716291Y708429D01*
X716313Y708472D01*
X717149Y711149D01*
X717152Y711183D01*
X717167Y711229D01*
X717550Y714008D01*
X717548Y714042D01*
X717554Y714090D01*
X717475Y716893D01*
X717467Y716927D01*
X717466Y716975D01*
X716927Y719727D01*
X716913Y719759D01*
X716904Y719807D01*
X715919Y722432D01*
X715904Y722457D01*
X715899Y722477D01*
X715891Y722488D01*
X715884Y722507D01*
X714480Y724935D01*
X714457Y724961D01*
X714433Y725003D01*
X712649Y727166D01*
X712622Y727188D01*
X712591Y727225D01*
X710475Y729066D01*
X710445Y729083D01*
X710409Y729115D01*
X708018Y730582D01*
X707986Y730593D01*
X707945Y730619D01*
X705346Y731672D01*
X705312Y731679D01*
X705267Y731697D01*
X702530Y732308D01*
X702495Y732309D01*
X702448Y732320D01*
X699648Y732472D01*
X699614Y732467D01*
X699566Y732470D01*
X696778Y732160D01*
X696745Y732149D01*
X696697Y732144D01*
X693999Y731379D01*
X693969Y731363D01*
X693922Y731350D01*
X691387Y730151D01*
X691363Y730134D01*
X691336Y730124D01*
X691284Y730075D01*
X691227Y730032D01*
X691213Y730007D01*
X691192Y729987D01*
X691163Y729922D01*
X691127Y729861D01*
X691124Y729832D01*
X691112Y729805D01*
X691111Y729734D01*
X691102Y729663D01*
X691110Y729635D01*
X691110Y729606D01*
X691144Y729513D01*
X691156Y729472D01*
X691163Y729463D01*
X691168Y729450D01*
X708168Y700050D01*
X708187Y700028D01*
X708200Y700002D01*
X708253Y699954D01*
X708300Y699901D01*
X708326Y699889D01*
X708348Y699869D01*
X708415Y699846D01*
X708479Y699816D01*
X708508Y699814D01*
X708536Y699805D01*
X708607Y699810D01*
G37*
G36*
X960386Y1147533D02*
X960386Y1147533D01*
X960434Y1147530D01*
X963222Y1147840D01*
X963255Y1147851D01*
X963303Y1147856D01*
X966001Y1148621D01*
X966031Y1148637D01*
X966078Y1148650D01*
X968613Y1149849D01*
X968637Y1149866D01*
X968664Y1149876D01*
X968716Y1149925D01*
X968773Y1149968D01*
X968787Y1149993D01*
X968809Y1150013D01*
X968837Y1150078D01*
X968873Y1150140D01*
X968876Y1150168D01*
X968888Y1150195D01*
X968889Y1150266D01*
X968898Y1150337D01*
X968890Y1150365D01*
X968890Y1150394D01*
X968856Y1150487D01*
X968844Y1150528D01*
X968837Y1150537D01*
X968832Y1150550D01*
X951832Y1179950D01*
X951813Y1179972D01*
X951800Y1179998D01*
X951747Y1180046D01*
X951700Y1180099D01*
X951674Y1180111D01*
X951652Y1180131D01*
X951585Y1180154D01*
X951521Y1180184D01*
X951492Y1180186D01*
X951464Y1180195D01*
X951393Y1180190D01*
X951322Y1180193D01*
X951295Y1180183D01*
X951266Y1180181D01*
X951176Y1180139D01*
X951136Y1180124D01*
X951128Y1180116D01*
X951115Y1180110D01*
X948812Y1178511D01*
X948788Y1178486D01*
X948748Y1178458D01*
X946739Y1176501D01*
X946720Y1176472D01*
X946685Y1176439D01*
X945026Y1174178D01*
X945011Y1174147D01*
X944982Y1174108D01*
X943718Y1171605D01*
X943709Y1171571D01*
X943687Y1171528D01*
X942851Y1168851D01*
X942848Y1168817D01*
X942833Y1168771D01*
X942450Y1165992D01*
X942452Y1165958D01*
X942446Y1165910D01*
X942525Y1163107D01*
X942533Y1163073D01*
X942534Y1163025D01*
X943073Y1160273D01*
X943087Y1160241D01*
X943096Y1160193D01*
X944081Y1157568D01*
X944099Y1157538D01*
X944116Y1157493D01*
X945520Y1155065D01*
X945543Y1155039D01*
X945567Y1154998D01*
X947351Y1152834D01*
X947378Y1152812D01*
X947409Y1152775D01*
X949525Y1150934D01*
X949555Y1150917D01*
X949591Y1150886D01*
X951982Y1149418D01*
X952014Y1149407D01*
X952055Y1149381D01*
X954654Y1148328D01*
X954688Y1148321D01*
X954733Y1148303D01*
X957470Y1147692D01*
X957505Y1147691D01*
X957552Y1147680D01*
X960352Y1147528D01*
X960386Y1147533D01*
G37*
G36*
X960386Y547533D02*
X960386Y547533D01*
X960434Y547530D01*
X963222Y547840D01*
X963255Y547851D01*
X963303Y547856D01*
X966001Y548621D01*
X966031Y548637D01*
X966078Y548650D01*
X968613Y549849D01*
X968637Y549866D01*
X968664Y549876D01*
X968716Y549925D01*
X968773Y549968D01*
X968787Y549993D01*
X968809Y550013D01*
X968837Y550078D01*
X968873Y550140D01*
X968876Y550168D01*
X968888Y550195D01*
X968889Y550266D01*
X968898Y550337D01*
X968890Y550365D01*
X968890Y550394D01*
X968856Y550487D01*
X968844Y550528D01*
X968837Y550537D01*
X968832Y550550D01*
X951832Y579950D01*
X951813Y579972D01*
X951800Y579998D01*
X951747Y580046D01*
X951700Y580099D01*
X951674Y580111D01*
X951652Y580131D01*
X951585Y580154D01*
X951521Y580184D01*
X951492Y580186D01*
X951464Y580195D01*
X951393Y580190D01*
X951322Y580193D01*
X951295Y580183D01*
X951266Y580181D01*
X951176Y580139D01*
X951136Y580124D01*
X951128Y580116D01*
X951115Y580110D01*
X948812Y578511D01*
X948788Y578486D01*
X948748Y578458D01*
X946739Y576501D01*
X946720Y576472D01*
X946685Y576439D01*
X945026Y574178D01*
X945011Y574147D01*
X944982Y574108D01*
X943718Y571605D01*
X943709Y571571D01*
X943687Y571528D01*
X942851Y568851D01*
X942848Y568817D01*
X942833Y568771D01*
X942450Y565992D01*
X942452Y565958D01*
X942446Y565910D01*
X942525Y563107D01*
X942533Y563073D01*
X942534Y563025D01*
X943073Y560273D01*
X943087Y560241D01*
X943096Y560193D01*
X944081Y557568D01*
X944099Y557538D01*
X944116Y557493D01*
X945520Y555065D01*
X945543Y555039D01*
X945567Y554998D01*
X947351Y552834D01*
X947378Y552812D01*
X947409Y552775D01*
X949525Y550934D01*
X949555Y550917D01*
X949591Y550886D01*
X951982Y549418D01*
X952014Y549407D01*
X952055Y549381D01*
X954654Y548328D01*
X954688Y548321D01*
X954733Y548303D01*
X957470Y547692D01*
X957505Y547691D01*
X957552Y547680D01*
X960352Y547528D01*
X960386Y547533D01*
G37*
G36*
X960386Y847533D02*
X960386Y847533D01*
X960434Y847530D01*
X963222Y847840D01*
X963255Y847851D01*
X963303Y847856D01*
X966001Y848621D01*
X966031Y848637D01*
X966078Y848650D01*
X968613Y849849D01*
X968637Y849866D01*
X968664Y849876D01*
X968716Y849925D01*
X968773Y849968D01*
X968787Y849993D01*
X968809Y850013D01*
X968837Y850078D01*
X968873Y850140D01*
X968876Y850168D01*
X968888Y850195D01*
X968889Y850266D01*
X968898Y850337D01*
X968890Y850365D01*
X968890Y850394D01*
X968856Y850487D01*
X968844Y850528D01*
X968837Y850537D01*
X968832Y850550D01*
X951832Y879950D01*
X951813Y879972D01*
X951800Y879998D01*
X951747Y880046D01*
X951700Y880099D01*
X951674Y880111D01*
X951652Y880131D01*
X951585Y880154D01*
X951521Y880184D01*
X951492Y880186D01*
X951464Y880195D01*
X951393Y880190D01*
X951322Y880193D01*
X951295Y880183D01*
X951266Y880181D01*
X951176Y880139D01*
X951136Y880124D01*
X951128Y880116D01*
X951115Y880110D01*
X948812Y878511D01*
X948788Y878486D01*
X948748Y878458D01*
X946739Y876501D01*
X946720Y876472D01*
X946685Y876439D01*
X945026Y874178D01*
X945011Y874147D01*
X944982Y874108D01*
X943718Y871605D01*
X943709Y871571D01*
X943687Y871528D01*
X942851Y868851D01*
X942848Y868817D01*
X942833Y868771D01*
X942450Y865992D01*
X942452Y865958D01*
X942446Y865910D01*
X942525Y863107D01*
X942533Y863073D01*
X942534Y863025D01*
X943073Y860273D01*
X943087Y860241D01*
X943096Y860193D01*
X944081Y857568D01*
X944099Y857538D01*
X944116Y857493D01*
X945520Y855065D01*
X945543Y855039D01*
X945567Y854998D01*
X947351Y852834D01*
X947378Y852812D01*
X947409Y852775D01*
X949525Y850934D01*
X949555Y850917D01*
X949591Y850886D01*
X951982Y849418D01*
X952014Y849407D01*
X952055Y849381D01*
X954654Y848328D01*
X954688Y848321D01*
X954733Y848303D01*
X957470Y847692D01*
X957505Y847691D01*
X957552Y847680D01*
X960352Y847528D01*
X960386Y847533D01*
G37*
G36*
X951426Y399811D02*
X951426Y399811D01*
X951497Y399810D01*
X951524Y399821D01*
X951553Y399825D01*
X951615Y399859D01*
X951680Y399887D01*
X951701Y399908D01*
X951726Y399922D01*
X951789Y399998D01*
X951819Y400029D01*
X951823Y400039D01*
X951832Y400050D01*
X968832Y429450D01*
X968841Y429478D01*
X968858Y429502D01*
X968873Y429571D01*
X968895Y429639D01*
X968893Y429668D01*
X968899Y429696D01*
X968886Y429766D01*
X968880Y429837D01*
X968867Y429863D01*
X968861Y429891D01*
X968821Y429950D01*
X968789Y430013D01*
X968766Y430032D01*
X968750Y430056D01*
X968668Y430113D01*
X968635Y430140D01*
X968625Y430143D01*
X968613Y430151D01*
X966078Y431350D01*
X966044Y431358D01*
X966001Y431379D01*
X963303Y432144D01*
X963268Y432146D01*
X963222Y432160D01*
X960434Y432470D01*
X960400Y432467D01*
X960352Y432472D01*
X957552Y432320D01*
X957518Y432311D01*
X957470Y432308D01*
X954733Y431697D01*
X954701Y431683D01*
X954654Y431672D01*
X952055Y430619D01*
X952026Y430600D01*
X951982Y430582D01*
X949591Y429115D01*
X949566Y429091D01*
X949525Y429066D01*
X947409Y427225D01*
X947388Y427198D01*
X947351Y427166D01*
X945567Y425003D01*
X945551Y424972D01*
X945520Y424935D01*
X944116Y422507D01*
X944105Y422474D01*
X944098Y422462D01*
X944088Y422447D01*
X944088Y422444D01*
X944081Y422432D01*
X943096Y419807D01*
X943090Y419772D01*
X943073Y419727D01*
X942534Y416975D01*
X942534Y416941D01*
X942525Y416893D01*
X942446Y414090D01*
X942452Y414056D01*
X942450Y414008D01*
X942833Y411229D01*
X942845Y411197D01*
X942851Y411149D01*
X943687Y408472D01*
X943704Y408441D01*
X943718Y408395D01*
X944982Y405892D01*
X945004Y405865D01*
X945026Y405822D01*
X946685Y403561D01*
X946711Y403538D01*
X946739Y403499D01*
X948748Y401542D01*
X948777Y401523D01*
X948812Y401489D01*
X951115Y399890D01*
X951142Y399878D01*
X951165Y399860D01*
X951233Y399839D01*
X951298Y399811D01*
X951327Y399811D01*
X951355Y399803D01*
X951426Y399811D01*
G37*
G36*
X951426Y999811D02*
X951426Y999811D01*
X951497Y999810D01*
X951524Y999821D01*
X951553Y999825D01*
X951615Y999859D01*
X951680Y999887D01*
X951701Y999908D01*
X951726Y999922D01*
X951789Y999998D01*
X951819Y1000029D01*
X951823Y1000039D01*
X951832Y1000050D01*
X968832Y1029450D01*
X968841Y1029478D01*
X968858Y1029502D01*
X968873Y1029571D01*
X968895Y1029639D01*
X968893Y1029668D01*
X968899Y1029696D01*
X968886Y1029766D01*
X968880Y1029837D01*
X968867Y1029863D01*
X968861Y1029891D01*
X968821Y1029950D01*
X968789Y1030013D01*
X968766Y1030032D01*
X968750Y1030056D01*
X968668Y1030113D01*
X968635Y1030140D01*
X968625Y1030143D01*
X968613Y1030151D01*
X966078Y1031350D01*
X966044Y1031358D01*
X966001Y1031379D01*
X963303Y1032144D01*
X963268Y1032146D01*
X963222Y1032160D01*
X960434Y1032470D01*
X960400Y1032467D01*
X960352Y1032472D01*
X957552Y1032320D01*
X957518Y1032311D01*
X957470Y1032308D01*
X954733Y1031697D01*
X954701Y1031683D01*
X954654Y1031672D01*
X952055Y1030619D01*
X952026Y1030600D01*
X951982Y1030582D01*
X949591Y1029115D01*
X949566Y1029091D01*
X949525Y1029066D01*
X947409Y1027225D01*
X947388Y1027198D01*
X947351Y1027166D01*
X945567Y1025003D01*
X945551Y1024972D01*
X945520Y1024935D01*
X944116Y1022507D01*
X944105Y1022474D01*
X944098Y1022462D01*
X944088Y1022447D01*
X944088Y1022444D01*
X944081Y1022432D01*
X943096Y1019807D01*
X943090Y1019772D01*
X943073Y1019727D01*
X942534Y1016975D01*
X942534Y1016941D01*
X942525Y1016893D01*
X942446Y1014090D01*
X942452Y1014056D01*
X942450Y1014008D01*
X942833Y1011229D01*
X942845Y1011197D01*
X942851Y1011149D01*
X943687Y1008472D01*
X943704Y1008441D01*
X943718Y1008395D01*
X944982Y1005892D01*
X945004Y1005865D01*
X945026Y1005822D01*
X946685Y1003561D01*
X946711Y1003538D01*
X946739Y1003499D01*
X948748Y1001542D01*
X948777Y1001523D01*
X948812Y1001489D01*
X951115Y999890D01*
X951142Y999878D01*
X951165Y999860D01*
X951233Y999839D01*
X951298Y999811D01*
X951327Y999811D01*
X951355Y999803D01*
X951426Y999811D01*
G37*
G36*
X951426Y699811D02*
X951426Y699811D01*
X951497Y699810D01*
X951524Y699821D01*
X951553Y699825D01*
X951615Y699859D01*
X951680Y699887D01*
X951701Y699908D01*
X951726Y699922D01*
X951789Y699998D01*
X951819Y700029D01*
X951823Y700039D01*
X951832Y700050D01*
X968832Y729450D01*
X968841Y729478D01*
X968858Y729502D01*
X968873Y729571D01*
X968895Y729639D01*
X968893Y729668D01*
X968899Y729696D01*
X968886Y729766D01*
X968880Y729837D01*
X968867Y729863D01*
X968861Y729891D01*
X968821Y729950D01*
X968789Y730013D01*
X968766Y730032D01*
X968750Y730056D01*
X968668Y730113D01*
X968635Y730140D01*
X968625Y730143D01*
X968613Y730151D01*
X966078Y731350D01*
X966044Y731358D01*
X966001Y731379D01*
X963303Y732144D01*
X963268Y732146D01*
X963222Y732160D01*
X960434Y732470D01*
X960400Y732467D01*
X960352Y732472D01*
X957552Y732320D01*
X957518Y732311D01*
X957470Y732308D01*
X954733Y731697D01*
X954701Y731683D01*
X954654Y731672D01*
X952055Y730619D01*
X952026Y730600D01*
X951982Y730582D01*
X949591Y729115D01*
X949566Y729091D01*
X949525Y729066D01*
X947409Y727225D01*
X947388Y727198D01*
X947351Y727166D01*
X945567Y725003D01*
X945551Y724972D01*
X945520Y724935D01*
X944116Y722507D01*
X944105Y722474D01*
X944098Y722462D01*
X944088Y722447D01*
X944088Y722444D01*
X944081Y722432D01*
X943096Y719807D01*
X943090Y719772D01*
X943073Y719727D01*
X942534Y716975D01*
X942534Y716941D01*
X942525Y716893D01*
X942446Y714090D01*
X942452Y714056D01*
X942450Y714008D01*
X942833Y711229D01*
X942845Y711197D01*
X942851Y711149D01*
X943687Y708472D01*
X943704Y708441D01*
X943718Y708395D01*
X944982Y705892D01*
X945004Y705865D01*
X945026Y705822D01*
X946685Y703561D01*
X946711Y703538D01*
X946739Y703499D01*
X948748Y701542D01*
X948777Y701523D01*
X948812Y701489D01*
X951115Y699890D01*
X951142Y699878D01*
X951165Y699860D01*
X951233Y699839D01*
X951298Y699811D01*
X951327Y699811D01*
X951355Y699803D01*
X951426Y699811D01*
G37*
G36*
X702448Y1147680D02*
X702448Y1147680D01*
X702482Y1147689D01*
X702530Y1147692D01*
X705267Y1148303D01*
X705299Y1148317D01*
X705346Y1148328D01*
X707945Y1149381D01*
X707974Y1149400D01*
X708018Y1149418D01*
X710409Y1150886D01*
X710434Y1150909D01*
X710475Y1150934D01*
X712591Y1152775D01*
X712612Y1152802D01*
X712649Y1152834D01*
X714433Y1154998D01*
X714449Y1155028D01*
X714480Y1155065D01*
X715884Y1157493D01*
X715895Y1157526D01*
X715919Y1157568D01*
X716904Y1160193D01*
X716910Y1160228D01*
X716927Y1160273D01*
X717466Y1163025D01*
X717466Y1163060D01*
X717475Y1163107D01*
X717554Y1165910D01*
X717549Y1165944D01*
X717550Y1165992D01*
X717167Y1168771D01*
X717155Y1168803D01*
X717149Y1168851D01*
X716313Y1171528D01*
X716296Y1171559D01*
X716282Y1171605D01*
X715018Y1174108D01*
X714996Y1174135D01*
X714974Y1174178D01*
X713315Y1176439D01*
X713289Y1176462D01*
X713261Y1176501D01*
X711252Y1178458D01*
X711223Y1178477D01*
X711188Y1178511D01*
X708885Y1180110D01*
X708858Y1180122D01*
X708835Y1180140D01*
X708767Y1180161D01*
X708702Y1180189D01*
X708673Y1180189D01*
X708645Y1180197D01*
X708574Y1180189D01*
X708503Y1180190D01*
X708476Y1180179D01*
X708447Y1180175D01*
X708385Y1180141D01*
X708320Y1180113D01*
X708299Y1180092D01*
X708274Y1180078D01*
X708211Y1180002D01*
X708181Y1179971D01*
X708177Y1179961D01*
X708168Y1179950D01*
X691168Y1150550D01*
X691159Y1150522D01*
X691142Y1150498D01*
X691127Y1150429D01*
X691105Y1150361D01*
X691107Y1150332D01*
X691101Y1150304D01*
X691114Y1150234D01*
X691120Y1150163D01*
X691133Y1150137D01*
X691139Y1150109D01*
X691179Y1150050D01*
X691211Y1149987D01*
X691234Y1149968D01*
X691250Y1149944D01*
X691332Y1149887D01*
X691365Y1149860D01*
X691375Y1149857D01*
X691387Y1149849D01*
X693922Y1148650D01*
X693956Y1148642D01*
X693999Y1148621D01*
X696697Y1147856D01*
X696732Y1147854D01*
X696778Y1147840D01*
X699566Y1147530D01*
X699600Y1147533D01*
X699648Y1147528D01*
X702448Y1147680D01*
G37*
G36*
X702448Y847680D02*
X702448Y847680D01*
X702482Y847689D01*
X702530Y847692D01*
X705267Y848303D01*
X705299Y848317D01*
X705346Y848328D01*
X707945Y849381D01*
X707974Y849400D01*
X708018Y849418D01*
X710409Y850886D01*
X710434Y850909D01*
X710475Y850934D01*
X712591Y852775D01*
X712612Y852802D01*
X712649Y852834D01*
X714433Y854998D01*
X714449Y855028D01*
X714480Y855065D01*
X715884Y857493D01*
X715895Y857526D01*
X715919Y857568D01*
X716904Y860193D01*
X716910Y860228D01*
X716927Y860273D01*
X717466Y863025D01*
X717466Y863060D01*
X717475Y863107D01*
X717554Y865910D01*
X717549Y865944D01*
X717550Y865992D01*
X717167Y868771D01*
X717155Y868803D01*
X717149Y868851D01*
X716313Y871528D01*
X716296Y871559D01*
X716282Y871605D01*
X715018Y874108D01*
X714996Y874135D01*
X714974Y874178D01*
X713315Y876439D01*
X713289Y876462D01*
X713261Y876501D01*
X711252Y878458D01*
X711223Y878477D01*
X711188Y878511D01*
X708885Y880110D01*
X708858Y880122D01*
X708835Y880140D01*
X708767Y880161D01*
X708702Y880189D01*
X708673Y880189D01*
X708645Y880197D01*
X708574Y880189D01*
X708503Y880190D01*
X708476Y880179D01*
X708447Y880175D01*
X708385Y880141D01*
X708320Y880113D01*
X708299Y880092D01*
X708274Y880078D01*
X708211Y880002D01*
X708181Y879971D01*
X708177Y879961D01*
X708168Y879950D01*
X691168Y850550D01*
X691159Y850522D01*
X691142Y850498D01*
X691127Y850429D01*
X691105Y850361D01*
X691107Y850332D01*
X691101Y850304D01*
X691114Y850234D01*
X691120Y850163D01*
X691133Y850137D01*
X691139Y850109D01*
X691179Y850050D01*
X691211Y849987D01*
X691234Y849968D01*
X691250Y849944D01*
X691332Y849887D01*
X691365Y849860D01*
X691375Y849857D01*
X691387Y849849D01*
X693922Y848650D01*
X693956Y848642D01*
X693999Y848621D01*
X696697Y847856D01*
X696732Y847854D01*
X696778Y847840D01*
X699566Y847530D01*
X699600Y847533D01*
X699648Y847528D01*
X702448Y847680D01*
G37*
G36*
X702448Y547680D02*
X702448Y547680D01*
X702482Y547689D01*
X702530Y547692D01*
X705267Y548303D01*
X705299Y548317D01*
X705346Y548328D01*
X707945Y549381D01*
X707974Y549400D01*
X708018Y549418D01*
X710409Y550886D01*
X710434Y550909D01*
X710475Y550934D01*
X712591Y552775D01*
X712612Y552802D01*
X712649Y552834D01*
X714433Y554998D01*
X714449Y555028D01*
X714480Y555065D01*
X715884Y557493D01*
X715895Y557526D01*
X715919Y557568D01*
X716904Y560193D01*
X716910Y560228D01*
X716927Y560273D01*
X717466Y563025D01*
X717466Y563060D01*
X717475Y563107D01*
X717554Y565910D01*
X717549Y565944D01*
X717550Y565992D01*
X717167Y568771D01*
X717155Y568803D01*
X717149Y568851D01*
X716313Y571528D01*
X716296Y571559D01*
X716282Y571605D01*
X715018Y574108D01*
X714996Y574135D01*
X714974Y574178D01*
X713315Y576439D01*
X713289Y576462D01*
X713261Y576501D01*
X711252Y578458D01*
X711223Y578477D01*
X711188Y578511D01*
X708885Y580110D01*
X708858Y580122D01*
X708835Y580140D01*
X708767Y580161D01*
X708702Y580189D01*
X708673Y580189D01*
X708645Y580197D01*
X708574Y580189D01*
X708503Y580190D01*
X708476Y580179D01*
X708447Y580175D01*
X708385Y580141D01*
X708320Y580113D01*
X708299Y580092D01*
X708274Y580078D01*
X708211Y580002D01*
X708181Y579971D01*
X708177Y579961D01*
X708168Y579950D01*
X691168Y550550D01*
X691159Y550522D01*
X691142Y550498D01*
X691127Y550429D01*
X691105Y550361D01*
X691107Y550332D01*
X691101Y550304D01*
X691114Y550234D01*
X691120Y550163D01*
X691133Y550137D01*
X691139Y550109D01*
X691179Y550050D01*
X691211Y549987D01*
X691234Y549968D01*
X691250Y549944D01*
X691332Y549887D01*
X691365Y549860D01*
X691375Y549857D01*
X691387Y549849D01*
X693922Y548650D01*
X693956Y548642D01*
X693999Y548621D01*
X696697Y547856D01*
X696732Y547854D01*
X696778Y547840D01*
X699566Y547530D01*
X699600Y547533D01*
X699648Y547528D01*
X702448Y547680D01*
G37*
%LPC*%
G36*
X704712Y1040669D02*
X704712Y1040669D01*
X702109Y1041747D01*
X700117Y1043739D01*
X699039Y1046342D01*
X699039Y1049158D01*
X700117Y1051761D01*
X700891Y1052534D01*
X700895Y1052541D01*
X700901Y1052545D01*
X700950Y1052624D01*
X701002Y1052701D01*
X701003Y1052709D01*
X701007Y1052716D01*
X701039Y1052893D01*
X701039Y1070547D01*
X701038Y1070555D01*
X701039Y1070562D01*
X701018Y1070652D01*
X701000Y1070743D01*
X700995Y1070750D01*
X700993Y1070758D01*
X700891Y1070906D01*
X700117Y1071679D01*
X699039Y1074282D01*
X699039Y1077098D01*
X700117Y1079701D01*
X702109Y1081693D01*
X703185Y1082139D01*
X704410Y1082646D01*
X704712Y1082771D01*
X707528Y1082771D01*
X710131Y1081693D01*
X712123Y1079701D01*
X713201Y1077098D01*
X713201Y1074282D01*
X712123Y1071679D01*
X711349Y1070906D01*
X711345Y1070899D01*
X711339Y1070895D01*
X711290Y1070816D01*
X711238Y1070739D01*
X711237Y1070731D01*
X711233Y1070724D01*
X711201Y1070547D01*
X711201Y1052893D01*
X711202Y1052885D01*
X711201Y1052878D01*
X711222Y1052788D01*
X711240Y1052697D01*
X711245Y1052690D01*
X711247Y1052682D01*
X711349Y1052534D01*
X712123Y1051761D01*
X713201Y1049158D01*
X713201Y1046342D01*
X712123Y1043739D01*
X710131Y1041747D01*
X709484Y1041479D01*
X708260Y1040972D01*
X707528Y1040669D01*
X704712Y1040669D01*
G37*
%LPD*%
%LPC*%
G36*
X808381Y817431D02*
X808381Y817431D01*
X802131Y823681D01*
X802131Y832519D01*
X808381Y838769D01*
X817219Y838769D01*
X823469Y832519D01*
X823469Y823681D01*
X817219Y817431D01*
X808381Y817431D01*
G37*
%LPD*%
%LPC*%
G36*
X782981Y817431D02*
X782981Y817431D01*
X776731Y823681D01*
X776731Y832519D01*
X782981Y838769D01*
X791819Y838769D01*
X798069Y832519D01*
X798069Y823681D01*
X791819Y817431D01*
X782981Y817431D01*
G37*
%LPD*%
%LPC*%
G36*
X808381Y766631D02*
X808381Y766631D01*
X802131Y772881D01*
X802131Y781719D01*
X808381Y787969D01*
X817219Y787969D01*
X823469Y781719D01*
X823469Y772881D01*
X817219Y766631D01*
X808381Y766631D01*
G37*
%LPD*%
%LPC*%
G36*
X782981Y766631D02*
X782981Y766631D01*
X776731Y772881D01*
X776731Y781719D01*
X782981Y787969D01*
X791819Y787969D01*
X798069Y781719D01*
X798069Y772881D01*
X791819Y766631D01*
X782981Y766631D01*
G37*
%LPD*%
%LPC*%
G36*
X782981Y741231D02*
X782981Y741231D01*
X776731Y747481D01*
X776731Y756319D01*
X782981Y762569D01*
X791819Y762569D01*
X798069Y756319D01*
X798069Y747481D01*
X791819Y741231D01*
X782981Y741231D01*
G37*
%LPD*%
%LPC*%
G36*
X808381Y741231D02*
X808381Y741231D01*
X802131Y747481D01*
X802131Y756319D01*
X808381Y762569D01*
X817219Y762569D01*
X823469Y756319D01*
X823469Y747481D01*
X817219Y741231D01*
X808381Y741231D01*
G37*
%LPD*%
%LPC*%
G36*
X808381Y715831D02*
X808381Y715831D01*
X802131Y722081D01*
X802131Y730919D01*
X808381Y737169D01*
X817219Y737169D01*
X823469Y730919D01*
X823469Y722081D01*
X817219Y715831D01*
X808381Y715831D01*
G37*
%LPD*%
%LPC*%
G36*
X808381Y919031D02*
X808381Y919031D01*
X802131Y925281D01*
X802131Y934119D01*
X808381Y940369D01*
X817219Y940369D01*
X823469Y934119D01*
X823469Y925281D01*
X817219Y919031D01*
X808381Y919031D01*
G37*
%LPD*%
%LPC*%
G36*
X782981Y944431D02*
X782981Y944431D01*
X776731Y950681D01*
X776731Y959519D01*
X782981Y965769D01*
X791819Y965769D01*
X798069Y959519D01*
X798069Y950681D01*
X791819Y944431D01*
X782981Y944431D01*
G37*
%LPD*%
%LPC*%
G36*
X808381Y944431D02*
X808381Y944431D01*
X802131Y950681D01*
X802131Y959519D01*
X808381Y965769D01*
X817219Y965769D01*
X823469Y959519D01*
X823469Y950681D01*
X817219Y944431D01*
X808381Y944431D01*
G37*
%LPD*%
%LPC*%
G36*
X808381Y639631D02*
X808381Y639631D01*
X802131Y645881D01*
X802131Y654719D01*
X808381Y660969D01*
X817219Y660969D01*
X823469Y654719D01*
X823469Y645881D01*
X817219Y639631D01*
X808381Y639631D01*
G37*
%LPD*%
%LPC*%
G36*
X782981Y969831D02*
X782981Y969831D01*
X776731Y976081D01*
X776731Y984919D01*
X782981Y991169D01*
X791819Y991169D01*
X798069Y984919D01*
X798069Y976081D01*
X791819Y969831D01*
X782981Y969831D01*
G37*
%LPD*%
%LPC*%
G36*
X782981Y614231D02*
X782981Y614231D01*
X776731Y620481D01*
X776731Y629319D01*
X782981Y635569D01*
X791819Y635569D01*
X798069Y629319D01*
X798069Y620481D01*
X791819Y614231D01*
X782981Y614231D01*
G37*
%LPD*%
%LPC*%
G36*
X808381Y588831D02*
X808381Y588831D01*
X802131Y595081D01*
X802131Y603919D01*
X808381Y610169D01*
X817219Y610169D01*
X823469Y603919D01*
X823469Y595081D01*
X817219Y588831D01*
X808381Y588831D01*
G37*
%LPD*%
%LPC*%
G36*
X782981Y588831D02*
X782981Y588831D01*
X776731Y595081D01*
X776731Y603919D01*
X782981Y610169D01*
X791819Y610169D01*
X798069Y603919D01*
X798069Y595081D01*
X791819Y588831D01*
X782981Y588831D01*
G37*
%LPD*%
%LPC*%
G36*
X808381Y563431D02*
X808381Y563431D01*
X802131Y569681D01*
X802131Y578519D01*
X808381Y584769D01*
X817219Y584769D01*
X823469Y578519D01*
X823469Y569681D01*
X817219Y563431D01*
X808381Y563431D01*
G37*
%LPD*%
%LPC*%
G36*
X782981Y563431D02*
X782981Y563431D01*
X776731Y569681D01*
X776731Y578519D01*
X782981Y584769D01*
X791819Y584769D01*
X798069Y578519D01*
X798069Y569681D01*
X791819Y563431D01*
X782981Y563431D01*
G37*
%LPD*%
%LPC*%
G36*
X782981Y792031D02*
X782981Y792031D01*
X776731Y798281D01*
X776731Y807119D01*
X782981Y813369D01*
X791819Y813369D01*
X798069Y807119D01*
X798069Y798281D01*
X791819Y792031D01*
X782981Y792031D01*
G37*
%LPD*%
%LPC*%
G36*
X782981Y995231D02*
X782981Y995231D01*
X776731Y1001481D01*
X776731Y1010319D01*
X782981Y1016569D01*
X791819Y1016569D01*
X798069Y1010319D01*
X798069Y1001481D01*
X791819Y995231D01*
X782981Y995231D01*
G37*
%LPD*%
%LPC*%
G36*
X808381Y995231D02*
X808381Y995231D01*
X802131Y1001481D01*
X802131Y1010319D01*
X808381Y1016569D01*
X817219Y1016569D01*
X823469Y1010319D01*
X823469Y1001481D01*
X817219Y995231D01*
X808381Y995231D01*
G37*
%LPD*%
%LPC*%
G36*
X808381Y1020631D02*
X808381Y1020631D01*
X802131Y1026881D01*
X802131Y1035719D01*
X808381Y1041969D01*
X817219Y1041969D01*
X823469Y1035719D01*
X823469Y1026881D01*
X817219Y1020631D01*
X808381Y1020631D01*
G37*
%LPD*%
%LPC*%
G36*
X782981Y1020631D02*
X782981Y1020631D01*
X776731Y1026881D01*
X776731Y1035719D01*
X782981Y1041969D01*
X791819Y1041969D01*
X798069Y1035719D01*
X798069Y1026881D01*
X791819Y1020631D01*
X782981Y1020631D01*
G37*
%LPD*%
%LPC*%
G36*
X782981Y639631D02*
X782981Y639631D01*
X776731Y645881D01*
X776731Y654719D01*
X782981Y660969D01*
X791819Y660969D01*
X798069Y654719D01*
X798069Y645881D01*
X791819Y639631D01*
X782981Y639631D01*
G37*
%LPD*%
D10*
X747400Y946900D03*
X664800Y1090000D03*
X747400Y1233100D03*
X706100Y1018500D03*
X706100Y1161500D03*
X747400Y646900D03*
X664800Y790000D03*
X747400Y933100D03*
X706100Y718500D03*
X706100Y861500D03*
X747400Y346900D03*
X664800Y490000D03*
X747400Y633100D03*
X706100Y418500D03*
X706100Y561500D03*
X912600Y1233100D03*
X995200Y1090000D03*
X912600Y946900D03*
X953900Y1161500D03*
X953900Y1018500D03*
X912600Y933100D03*
X995200Y790000D03*
X912600Y646900D03*
X953900Y861500D03*
X953900Y718500D03*
X912600Y633100D03*
X995200Y490000D03*
X912600Y346900D03*
X953900Y561500D03*
X953900Y418500D03*
D11*
X787400Y1031300D03*
X787400Y1005900D03*
X787400Y980500D03*
X787400Y955100D03*
X787400Y929700D03*
X787400Y904300D03*
X812800Y1031300D03*
X812800Y1005900D03*
X812800Y980500D03*
X812800Y955100D03*
X812800Y929700D03*
X812800Y904300D03*
X787400Y878900D03*
X812800Y878900D03*
X787400Y853500D03*
X787400Y828100D03*
X787400Y802700D03*
X787400Y777300D03*
X787400Y751900D03*
X787400Y726500D03*
X812800Y853500D03*
X812800Y828100D03*
X812800Y802700D03*
X812800Y777300D03*
X812800Y751900D03*
X812800Y726500D03*
X787400Y701100D03*
X812800Y701100D03*
X787400Y675700D03*
X787400Y650300D03*
X787400Y624900D03*
X787400Y599500D03*
X787400Y574100D03*
X787400Y548700D03*
X812800Y675700D03*
X812800Y650300D03*
X812800Y624900D03*
X812800Y599500D03*
X812800Y574100D03*
X812800Y548700D03*
D12*
X805942Y1192022D02*
X805942Y1206246D01*
X831342Y1206246D02*
X831342Y1192022D01*
X856742Y1192022D02*
X856742Y1206246D01*
X805942Y1160272D02*
X805942Y1146048D01*
X831342Y1146048D02*
X831342Y1160272D01*
X856742Y1160272D02*
X856742Y1146048D01*
X921512Y823214D02*
X935736Y823214D01*
X935736Y797814D02*
X921512Y797814D01*
X761492Y828040D02*
X747268Y828040D01*
X747268Y802640D02*
X761492Y802640D01*
D13*
X770890Y1049020D03*
X932180Y748030D03*
X759460Y1197610D03*
X782320Y1220470D03*
D14*
X759460Y1197610D01*
X765810Y1174750D02*
X922020Y1174750D01*
D13*
X765810Y1174750D03*
X740410Y1162050D03*
D15*
X940650Y1174750D02*
X953900Y1161500D01*
X940650Y1174750D02*
X922020Y1174750D01*
X706650Y1162050D02*
X706555Y1161955D01*
X706244Y1161417D01*
X706100Y1161500D02*
X739860Y1161500D01*
X740410Y1162050D01*
D13*
X876300Y688340D03*
X924560Y688340D03*
D14*
X876300Y688340D01*
D13*
X889000Y878840D03*
X753110Y875030D03*
D14*
X885190Y875030D02*
X889000Y878840D01*
X769620Y891540D02*
X753110Y875030D01*
X769620Y891540D02*
X825500Y891540D01*
X842010Y875030D02*
X885190Y875030D01*
X842010Y875030D02*
X825500Y891540D01*
X706440Y718500D02*
X706100Y718500D01*
X859920Y718500D02*
X923290Y718500D01*
X859920Y718500D02*
X829760Y688340D01*
X726440Y698500D02*
X706440Y718500D01*
D13*
X726440Y698500D03*
D14*
X754380Y688340D02*
X829760Y688340D01*
D13*
X754380Y688340D03*
D15*
X726100Y698500D02*
X706100Y718500D01*
X726100Y698500D02*
X726440Y698500D01*
X923290Y718500D02*
X953900Y718500D01*
D14*
X775970Y866140D02*
X771330Y861500D01*
X775970Y866140D02*
X826070Y866140D01*
X830710Y861500D01*
D13*
X899160Y861060D03*
X866140Y861060D03*
D14*
X865700Y861500D02*
X830710Y861500D01*
X865700Y861500D02*
X866140Y861060D01*
X899160Y861060D02*
X919480Y861060D01*
X953460Y861060D01*
X953900Y861500D01*
D15*
X919920Y861500D01*
X919480Y861060D01*
X737870Y861500D02*
X706100Y861500D01*
D14*
X737870Y861500D02*
X771330Y861500D01*
D13*
X785876Y405638D03*
X868426Y405892D03*
D14*
X868172Y405638D02*
X785876Y405638D01*
X868172Y405638D02*
X868426Y405892D01*
D13*
X880110Y535940D03*
X928370Y535940D03*
D14*
X880110Y535940D01*
D13*
X901700Y561340D03*
X854710Y561340D03*
D15*
X731660Y535940D02*
X706100Y561500D01*
D14*
X829310Y535940D02*
X854710Y561340D01*
X829310Y535940D02*
X731660Y535940D01*
D15*
X953740Y561340D02*
X953900Y561500D01*
X953740Y561340D02*
X901700Y561340D01*
D13*
X792988Y431292D03*
X853694Y431546D03*
D14*
X913130Y431546D01*
X792988Y431292D02*
X741680Y431292D01*
D15*
X718892Y431292D02*
X706100Y418500D01*
X718892Y431292D02*
X741680Y431292D01*
X940854Y431546D02*
X953900Y418500D01*
X940854Y431546D02*
X913130Y431546D01*
D14*
X726440Y1038840D02*
X726440Y1067308D01*
D13*
X754380Y1094740D03*
X781050Y1121410D03*
D14*
X753872Y1094740D02*
X726440Y1067308D01*
X753872Y1094740D02*
X754380Y1094740D01*
X781050Y1121410D02*
X805942Y1146302D01*
X805942Y1153160D01*
D15*
X726440Y1038840D02*
X706100Y1018500D01*
D13*
X706120Y1047750D03*
X706120Y1075690D03*
D14*
X706120Y1047750D01*
D13*
X900430Y1070610D03*
X924560Y1046480D03*
D14*
X900430Y1070610D02*
X856742Y1114298D01*
X856742Y1153160D01*
D15*
X952540Y1018500D02*
X953900Y1018500D01*
X952540Y1018500D02*
X924560Y1046480D01*
D13*
X911860Y1106170D03*
X911860Y1144270D03*
D14*
X911860Y1106170D01*
M02*
