G04 EAGLE Gerber RS-274X export*
G75*
%MOMM*%
%FSLAX34Y34*%
%LPD*%
%INTop Copper*%
%IPPOS*%
%AMOC8*
5,1,8,0,0,1.08239X$1,22.5*%
G01*
%ADD10C,1.000000*%
%ADD11P,1.649562X8X292.500000*%
%ADD12R,1.000000X1.100000*%
%ADD13C,1.422400*%
%ADD14R,0.558800X1.981200*%
%ADD15R,1.100000X1.000000*%
%ADD16C,0.806400*%
%ADD17C,0.609600*%
%ADD18C,0.406400*%
%ADD19C,1.270000*%
%ADD20C,0.508000*%
%ADD21C,0.304800*%

G36*
X762428Y339506D02*
X762428Y339506D01*
X762456Y339504D01*
X762524Y339526D01*
X762595Y339540D01*
X762618Y339556D01*
X762645Y339565D01*
X762700Y339612D01*
X762759Y339653D01*
X762774Y339677D01*
X762796Y339695D01*
X762827Y339760D01*
X762866Y339820D01*
X762871Y339848D01*
X762883Y339874D01*
X762892Y339975D01*
X762899Y340017D01*
X762897Y340027D01*
X762898Y340040D01*
X762655Y343090D01*
X762646Y343122D01*
X762642Y343169D01*
X762550Y343544D01*
X897451Y343551D01*
X897358Y343169D01*
X897356Y343135D01*
X897345Y343090D01*
X897102Y340040D01*
X897106Y340011D01*
X897101Y339983D01*
X897118Y339914D01*
X897126Y339842D01*
X897141Y339818D01*
X897147Y339790D01*
X897190Y339732D01*
X897226Y339670D01*
X897248Y339653D01*
X897265Y339630D01*
X897327Y339593D01*
X897384Y339550D01*
X897412Y339543D01*
X897436Y339528D01*
X897536Y339512D01*
X897577Y339501D01*
X897587Y339503D01*
X897600Y339501D01*
X916600Y339501D01*
X916676Y339516D01*
X916754Y339525D01*
X916773Y339536D01*
X916795Y339540D01*
X916859Y339584D01*
X916927Y339623D01*
X916943Y339642D01*
X916959Y339653D01*
X916983Y339691D01*
X917033Y339751D01*
X926533Y356251D01*
X926542Y356278D01*
X926558Y356302D01*
X926573Y356372D01*
X926596Y356440D01*
X926593Y356468D01*
X926599Y356496D01*
X926586Y356567D01*
X926580Y356638D01*
X926567Y356663D01*
X926561Y356691D01*
X926521Y356751D01*
X926488Y356814D01*
X926466Y356832D01*
X926450Y356856D01*
X926367Y356914D01*
X926335Y356941D01*
X926324Y356944D01*
X926314Y356951D01*
X923548Y358260D01*
X923515Y358268D01*
X923472Y358288D01*
X923119Y358390D01*
X925538Y362580D01*
X944985Y396264D01*
X944997Y396298D01*
X945017Y396328D01*
X945029Y396392D01*
X945049Y396454D01*
X945047Y396490D01*
X945053Y396526D01*
X945040Y396589D01*
X945035Y396654D01*
X945018Y396686D01*
X945011Y396721D01*
X944973Y396775D01*
X944944Y396833D01*
X944916Y396856D01*
X944896Y396885D01*
X944841Y396920D01*
X944791Y396962D01*
X944756Y396973D01*
X944726Y396992D01*
X944662Y397003D01*
X944600Y397022D01*
X944564Y397019D01*
X944528Y397025D01*
X944454Y397009D01*
X944400Y397004D01*
X944379Y396992D01*
X944352Y396986D01*
X943817Y396765D01*
X943816Y396765D01*
X943162Y396493D01*
X918880Y396493D01*
X915426Y397924D01*
X912727Y400623D01*
X912700Y400664D01*
X912694Y400668D01*
X912690Y400673D01*
X912610Y400723D01*
X912532Y400774D01*
X912526Y400776D01*
X912520Y400779D01*
X912342Y400811D01*
X873569Y400811D01*
X873561Y400810D01*
X873554Y400811D01*
X873464Y400790D01*
X873373Y400772D01*
X873366Y400767D01*
X873358Y400765D01*
X873210Y400663D01*
X872437Y399889D01*
X872241Y399808D01*
X871017Y399301D01*
X871016Y399301D01*
X869834Y398811D01*
X867018Y398811D01*
X864415Y399889D01*
X862423Y401881D01*
X861345Y404484D01*
X861345Y407300D01*
X862423Y409903D01*
X864415Y411895D01*
X864817Y412061D01*
X866042Y412569D01*
X867018Y412973D01*
X869834Y412973D01*
X872437Y411895D01*
X873210Y411121D01*
X873217Y411117D01*
X873222Y411111D01*
X873300Y411062D01*
X873377Y411010D01*
X873385Y411009D01*
X873392Y411005D01*
X873569Y410973D01*
X912342Y410973D01*
X912349Y410974D01*
X912356Y410973D01*
X912447Y410994D01*
X912539Y411012D01*
X912545Y411016D01*
X912551Y411018D01*
X912627Y411072D01*
X912705Y411125D01*
X912709Y411131D01*
X912714Y411135D01*
X912738Y411171D01*
X915426Y413860D01*
X915982Y414090D01*
X917207Y414598D01*
X918432Y415105D01*
X918880Y415291D01*
X937189Y415291D01*
X937197Y415292D01*
X937204Y415291D01*
X937294Y415312D01*
X937385Y415330D01*
X937392Y415335D01*
X937399Y415337D01*
X937547Y415439D01*
X939345Y417237D01*
X939346Y417238D01*
X939399Y417319D01*
X939456Y417404D01*
X939456Y417405D01*
X939493Y417581D01*
X939518Y418449D01*
X939642Y418566D01*
X939680Y418620D01*
X939726Y418669D01*
X939739Y418704D01*
X939757Y418730D01*
X939768Y418777D01*
X939791Y418837D01*
X939831Y419039D01*
X939831Y419094D01*
X939838Y419134D01*
X939835Y419143D01*
X939839Y419172D01*
X939830Y419208D01*
X939830Y419239D01*
X939811Y419284D01*
X939795Y419346D01*
X939724Y419501D01*
X940123Y420563D01*
X940129Y420601D01*
X940145Y420644D01*
X940363Y421756D01*
X940505Y421852D01*
X940552Y421899D01*
X940605Y421940D01*
X940624Y421972D01*
X940646Y421994D01*
X940664Y422040D01*
X940697Y422094D01*
X940769Y422287D01*
X940780Y422353D01*
X940799Y422417D01*
X940796Y422454D01*
X940801Y422485D01*
X940790Y422533D01*
X940784Y422596D01*
X940740Y422761D01*
X941308Y423743D01*
X941320Y423779D01*
X941344Y423818D01*
X941742Y424880D01*
X941897Y424950D01*
X941951Y424989D01*
X942010Y425021D01*
X942034Y425049D01*
X942060Y425068D01*
X942085Y425110D01*
X942127Y425158D01*
X942230Y425336D01*
X942251Y425400D01*
X942280Y425459D01*
X942284Y425497D01*
X942294Y425526D01*
X942290Y425575D01*
X942295Y425639D01*
X942279Y425809D01*
X943000Y426683D01*
X943018Y426717D01*
X943048Y426752D01*
X943616Y427734D01*
X943781Y427778D01*
X943840Y427807D01*
X943903Y427829D01*
X943932Y427853D01*
X943960Y427867D01*
X943992Y427904D01*
X944041Y427945D01*
X944172Y428104D01*
X944203Y428163D01*
X944242Y428217D01*
X944252Y428253D01*
X944266Y428281D01*
X944271Y428329D01*
X944287Y428391D01*
X944298Y428562D01*
X945154Y429306D01*
X945177Y429336D01*
X945212Y429366D01*
X945934Y430240D01*
X946104Y430257D01*
X946167Y430276D01*
X946233Y430287D01*
X946265Y430306D01*
X946295Y430315D01*
X946333Y430346D01*
X946388Y430379D01*
X946543Y430514D01*
X946584Y430567D01*
X946631Y430614D01*
X946646Y430648D01*
X946665Y430673D01*
X946678Y430720D01*
X946704Y430779D01*
X946743Y430945D01*
X947710Y431538D01*
X947738Y431564D01*
X947777Y431587D01*
X948633Y432331D01*
X948803Y432319D01*
X948869Y432328D01*
X948936Y432328D01*
X948970Y432341D01*
X949002Y432345D01*
X949044Y432370D01*
X949104Y432393D01*
X949279Y432501D01*
X949328Y432546D01*
X949382Y432585D01*
X949403Y432616D01*
X949426Y432637D01*
X949446Y432682D01*
X949481Y432736D01*
X949547Y432893D01*
X950598Y433319D01*
X950630Y433340D01*
X950673Y433356D01*
X951639Y433949D01*
X951805Y433910D01*
X951871Y433907D01*
X951937Y433896D01*
X951974Y433904D01*
X952005Y433903D01*
X952051Y433920D01*
X952114Y433933D01*
X952304Y434010D01*
X952360Y434047D01*
X952420Y434076D01*
X952445Y434103D01*
X952471Y434121D01*
X952499Y434162D01*
X952542Y434209D01*
X952633Y434353D01*
X953740Y434600D01*
X953775Y434615D01*
X953820Y434625D01*
X954871Y435051D01*
X955028Y434984D01*
X955093Y434971D01*
X955156Y434949D01*
X955193Y434950D01*
X955224Y434944D01*
X955272Y434954D01*
X955336Y434956D01*
X955537Y435001D01*
X955598Y435028D01*
X955662Y435047D01*
X955691Y435070D01*
X955720Y435083D01*
X955754Y435118D01*
X955804Y435158D01*
X955918Y435285D01*
X957050Y435346D01*
X957087Y435356D01*
X957133Y435358D01*
X958240Y435605D01*
X958384Y435514D01*
X958446Y435490D01*
X958504Y435458D01*
X958541Y435453D01*
X958571Y435442D01*
X958620Y435443D01*
X958683Y435435D01*
X958889Y435447D01*
X958953Y435463D01*
X959019Y435471D01*
X959052Y435489D01*
X959083Y435497D01*
X959122Y435526D01*
X959178Y435557D01*
X959311Y435663D01*
X960438Y435538D01*
X960476Y435541D01*
X960522Y435536D01*
X961654Y435597D01*
X961781Y435483D01*
X961838Y435450D01*
X961890Y435408D01*
X961921Y435399D01*
X961941Y435387D01*
X961946Y435386D01*
X961953Y435382D01*
X962002Y435375D01*
X962063Y435357D01*
X962268Y435334D01*
X962334Y435340D01*
X962401Y435337D01*
X962436Y435349D01*
X962467Y435352D01*
X962511Y435375D01*
X962571Y435395D01*
X962720Y435479D01*
X963811Y435169D01*
X963849Y435166D01*
X963893Y435153D01*
X965020Y435028D01*
X965127Y434895D01*
X965178Y434852D01*
X965223Y434802D01*
X965256Y434786D01*
X965280Y434766D01*
X965327Y434751D01*
X965384Y434723D01*
X965582Y434667D01*
X965649Y434662D01*
X965714Y434648D01*
X965751Y434654D01*
X965782Y434652D01*
X965829Y434667D01*
X965892Y434678D01*
X966052Y434735D01*
X966528Y434510D01*
X966611Y434490D01*
X966692Y434464D01*
X966708Y434466D01*
X966723Y434462D01*
X966807Y434475D01*
X966891Y434483D01*
X966905Y434490D01*
X966921Y434493D01*
X966993Y434537D01*
X967068Y434577D01*
X967079Y434590D01*
X967092Y434598D01*
X967124Y434644D01*
X967184Y434715D01*
X990537Y475164D01*
X990831Y474882D01*
X990859Y474864D01*
X990893Y474831D01*
X993416Y473089D01*
X993443Y473078D01*
X993465Y473059D01*
X993534Y473039D01*
X993599Y473011D01*
X993628Y473011D01*
X993656Y473003D01*
X993727Y473011D01*
X993798Y473011D01*
X993825Y473022D01*
X993854Y473025D01*
X993916Y473060D01*
X993981Y473088D01*
X994002Y473108D01*
X994027Y473123D01*
X994090Y473200D01*
X994120Y473230D01*
X994124Y473240D01*
X994133Y473251D01*
X1003633Y489751D01*
X1003643Y489783D01*
X1003652Y489796D01*
X1003656Y489820D01*
X1003657Y489824D01*
X1003688Y489894D01*
X1003688Y489918D01*
X1003696Y489940D01*
X1003690Y490016D01*
X1003691Y490093D01*
X1003681Y490117D01*
X1003680Y490138D01*
X1003659Y490177D01*
X1003633Y490249D01*
X994133Y506749D01*
X994114Y506771D01*
X994101Y506797D01*
X994048Y506845D01*
X994001Y506898D01*
X993975Y506911D01*
X993954Y506930D01*
X993886Y506953D01*
X993822Y506984D01*
X993793Y506986D01*
X993766Y506995D01*
X993694Y506990D01*
X993623Y506993D01*
X993596Y506983D01*
X993567Y506981D01*
X993477Y506939D01*
X993437Y506924D01*
X993429Y506917D01*
X993416Y506911D01*
X990893Y505169D01*
X990869Y505145D01*
X990831Y505118D01*
X990531Y504830D01*
X967180Y545283D01*
X967124Y545347D01*
X967072Y545414D01*
X967058Y545422D01*
X967048Y545433D01*
X966972Y545470D01*
X966897Y545512D01*
X966882Y545514D01*
X966867Y545521D01*
X966783Y545525D01*
X966698Y545535D01*
X966682Y545531D01*
X966667Y545531D01*
X966614Y545512D01*
X966524Y545488D01*
X966052Y545265D01*
X965892Y545322D01*
X965826Y545332D01*
X965762Y545350D01*
X965724Y545347D01*
X965693Y545351D01*
X965646Y545339D01*
X965582Y545333D01*
X965384Y545277D01*
X965325Y545246D01*
X965262Y545224D01*
X965234Y545199D01*
X965206Y545185D01*
X965175Y545147D01*
X965127Y545105D01*
X965020Y544972D01*
X963893Y544847D01*
X963857Y544835D01*
X963811Y544831D01*
X962720Y544521D01*
X962571Y544605D01*
X962508Y544625D01*
X962448Y544654D01*
X962410Y544656D01*
X962380Y544666D01*
X962332Y544661D01*
X962268Y544666D01*
X962063Y544643D01*
X962000Y544623D01*
X961934Y544611D01*
X961902Y544592D01*
X961872Y544582D01*
X961835Y544550D01*
X961781Y544517D01*
X961654Y544403D01*
X960522Y544464D01*
X960484Y544459D01*
X960438Y544462D01*
X959311Y544337D01*
X959178Y544443D01*
X959118Y544474D01*
X959064Y544512D01*
X959028Y544520D01*
X959000Y544535D01*
X958951Y544539D01*
X958889Y544553D01*
X958683Y544565D01*
X958617Y544555D01*
X958550Y544554D01*
X958516Y544540D01*
X958485Y544536D01*
X958443Y544510D01*
X958384Y544486D01*
X958240Y544395D01*
X957133Y544642D01*
X957095Y544643D01*
X957050Y544654D01*
X955918Y544715D01*
X955804Y544842D01*
X955751Y544882D01*
X955703Y544929D01*
X955669Y544943D01*
X955643Y544962D01*
X955596Y544974D01*
X955537Y544999D01*
X955336Y545044D01*
X955270Y545045D01*
X955204Y545055D01*
X955167Y545047D01*
X955136Y545048D01*
X955090Y545030D01*
X955028Y545016D01*
X954871Y544949D01*
X953820Y545375D01*
X953782Y545382D01*
X953740Y545400D01*
X952633Y545647D01*
X952542Y545791D01*
X952496Y545840D01*
X952457Y545893D01*
X952425Y545913D01*
X952403Y545936D01*
X952358Y545956D01*
X952304Y545990D01*
X952173Y546043D01*
X952168Y546044D01*
X952164Y546046D01*
X952070Y546062D01*
X951976Y546080D01*
X951971Y546079D01*
X951967Y546080D01*
X951874Y546058D01*
X951780Y546038D01*
X951776Y546035D01*
X951771Y546034D01*
X951623Y545932D01*
X936430Y530739D01*
X936425Y530731D01*
X936418Y530725D01*
X936365Y530643D01*
X933694Y527972D01*
X932880Y527635D01*
X931656Y527128D01*
X930431Y526621D01*
X930240Y526541D01*
X926500Y526541D01*
X923046Y527972D01*
X920402Y530616D01*
X918971Y534070D01*
X918971Y537840D01*
X920402Y541294D01*
X923117Y544009D01*
X939679Y560571D01*
X939710Y560618D01*
X939750Y560659D01*
X939765Y560701D01*
X939790Y560738D01*
X939800Y560793D01*
X939821Y560847D01*
X939820Y560895D01*
X939827Y560934D01*
X939819Y560975D01*
X939818Y561027D01*
X939791Y561163D01*
X939766Y561225D01*
X939749Y561289D01*
X939727Y561319D01*
X939715Y561348D01*
X939680Y561383D01*
X939642Y561434D01*
X939518Y561551D01*
X939486Y562685D01*
X939477Y562722D01*
X939477Y562768D01*
X939258Y563881D01*
X939354Y564022D01*
X939379Y564084D01*
X939413Y564141D01*
X939418Y564178D01*
X939430Y564207D01*
X939430Y564256D01*
X939440Y564320D01*
X939434Y564525D01*
X939419Y564590D01*
X939413Y564657D01*
X939396Y564690D01*
X939389Y564721D01*
X939360Y564760D01*
X939331Y564817D01*
X939228Y564953D01*
X939383Y566076D01*
X939381Y566114D01*
X939388Y566160D01*
X939356Y567293D01*
X939473Y567417D01*
X939508Y567474D01*
X939551Y567525D01*
X939562Y567561D01*
X939579Y567587D01*
X939587Y567636D01*
X939607Y567696D01*
X939635Y567900D01*
X939631Y567967D01*
X939636Y568033D01*
X939625Y568069D01*
X939623Y568100D01*
X939601Y568144D01*
X939582Y568205D01*
X939502Y568356D01*
X939840Y569439D01*
X939844Y569477D01*
X939859Y569520D01*
X940014Y570644D01*
X940149Y570747D01*
X940194Y570796D01*
X940244Y570840D01*
X940261Y570873D01*
X940282Y570897D01*
X940298Y570943D01*
X940327Y571000D01*
X940389Y571196D01*
X940396Y571263D01*
X940411Y571327D01*
X940406Y571364D01*
X940409Y571396D01*
X940395Y571443D01*
X940386Y571506D01*
X940333Y571668D01*
X940844Y572680D01*
X940854Y572717D01*
X940876Y572757D01*
X941214Y573840D01*
X941365Y573919D01*
X941416Y573961D01*
X941473Y573996D01*
X941496Y574026D01*
X941520Y574045D01*
X941543Y574089D01*
X941582Y574140D01*
X941675Y574323D01*
X941692Y574388D01*
X941719Y574449D01*
X941720Y574486D01*
X941728Y574517D01*
X941722Y574565D01*
X941723Y574629D01*
X941697Y574798D01*
X942368Y575712D01*
X942384Y575746D01*
X942412Y575783D01*
X942923Y576795D01*
X943086Y576848D01*
X943143Y576881D01*
X943205Y576906D01*
X943232Y576932D01*
X943260Y576947D01*
X943290Y576986D01*
X943336Y577030D01*
X943458Y577196D01*
X943486Y577256D01*
X943522Y577313D01*
X943529Y577349D01*
X943542Y577378D01*
X943544Y577427D01*
X943556Y577489D01*
X943558Y577660D01*
X944371Y578451D01*
X944392Y578483D01*
X944426Y578514D01*
X945096Y579428D01*
X945265Y579454D01*
X945328Y579477D01*
X945393Y579491D01*
X945424Y579512D01*
X945453Y579523D01*
X945489Y579557D01*
X945542Y579592D01*
X945689Y579736D01*
X945727Y579791D01*
X945772Y579840D01*
X945785Y579875D01*
X945803Y579901D01*
X945812Y579949D01*
X945835Y580009D01*
X945865Y580177D01*
X946320Y580493D01*
X946378Y580554D01*
X946440Y580611D01*
X946447Y580626D01*
X946458Y580637D01*
X946489Y580716D01*
X946524Y580793D01*
X946524Y580809D01*
X946530Y580824D01*
X946528Y580909D01*
X946530Y580993D01*
X946525Y581010D01*
X946524Y581025D01*
X946501Y581076D01*
X946481Y581132D01*
X946478Y581142D01*
X946476Y581146D01*
X946470Y581163D01*
X939018Y594072D01*
X923119Y621610D01*
X923472Y621712D01*
X923502Y621728D01*
X923548Y621740D01*
X926314Y623049D01*
X926336Y623066D01*
X926363Y623076D01*
X926415Y623125D01*
X926473Y623168D01*
X926487Y623193D01*
X926508Y623212D01*
X926537Y623278D01*
X926573Y623340D01*
X926576Y623368D01*
X926588Y623394D01*
X926589Y623466D01*
X926598Y623537D01*
X926590Y623564D01*
X926591Y623593D01*
X926555Y623688D01*
X926544Y623728D01*
X926537Y623737D01*
X926533Y623749D01*
X917176Y640000D01*
X926533Y656251D01*
X926542Y656278D01*
X926558Y656302D01*
X926573Y656372D01*
X926596Y656440D01*
X926593Y656468D01*
X926599Y656496D01*
X926586Y656567D01*
X926580Y656638D01*
X926567Y656663D01*
X926561Y656691D01*
X926521Y656751D01*
X926488Y656814D01*
X926466Y656832D01*
X926450Y656856D01*
X926367Y656914D01*
X926335Y656941D01*
X926324Y656944D01*
X926314Y656951D01*
X923548Y658260D01*
X923515Y658268D01*
X923472Y658288D01*
X923119Y658390D01*
X943099Y692997D01*
X943111Y693030D01*
X943130Y693059D01*
X943142Y693124D01*
X943163Y693187D01*
X943161Y693222D01*
X943167Y693256D01*
X943154Y693321D01*
X943149Y693387D01*
X943133Y693418D01*
X943126Y693452D01*
X943088Y693507D01*
X943058Y693566D01*
X943031Y693588D01*
X943012Y693617D01*
X942955Y693653D01*
X942905Y693695D01*
X942872Y693706D01*
X942842Y693724D01*
X942777Y693736D01*
X942714Y693755D01*
X942679Y693752D01*
X942645Y693758D01*
X942580Y693743D01*
X942514Y693737D01*
X942483Y693720D01*
X942450Y693712D01*
X942385Y693668D01*
X942337Y693642D01*
X942322Y693624D01*
X942302Y693610D01*
X933179Y684487D01*
X933174Y684480D01*
X933166Y684474D01*
X933069Y684323D01*
X932528Y683016D01*
X929884Y680372D01*
X929752Y680317D01*
X928527Y679810D01*
X927303Y679303D01*
X927302Y679303D01*
X926430Y678941D01*
X922690Y678941D01*
X919236Y680372D01*
X916592Y683016D01*
X915161Y686470D01*
X915161Y691030D01*
X916592Y694484D01*
X939345Y717237D01*
X939346Y717238D01*
X939399Y717319D01*
X939456Y717404D01*
X939456Y717405D01*
X939493Y717581D01*
X939518Y718449D01*
X939642Y718566D01*
X939680Y718620D01*
X939726Y718669D01*
X939739Y718704D01*
X939757Y718730D01*
X939768Y718777D01*
X939791Y718837D01*
X939831Y719039D01*
X939830Y719105D01*
X939839Y719172D01*
X939830Y719208D01*
X939830Y719239D01*
X939811Y719284D01*
X939795Y719346D01*
X939724Y719501D01*
X940123Y720563D01*
X940129Y720601D01*
X940145Y720644D01*
X940363Y721756D01*
X940505Y721852D01*
X940552Y721899D01*
X940605Y721940D01*
X940624Y721972D01*
X940646Y721994D01*
X940664Y722040D01*
X940697Y722094D01*
X940769Y722287D01*
X940780Y722353D01*
X940799Y722417D01*
X940796Y722453D01*
X940799Y722469D01*
X940799Y722470D01*
X940801Y722485D01*
X940790Y722533D01*
X940784Y722596D01*
X940740Y722761D01*
X941308Y723742D01*
X941319Y723774D01*
X941331Y723794D01*
X941332Y723799D01*
X941344Y723818D01*
X941742Y724880D01*
X941897Y724950D01*
X941951Y724989D01*
X942010Y725021D01*
X942034Y725049D01*
X942060Y725068D01*
X942085Y725110D01*
X942127Y725158D01*
X942230Y725336D01*
X942251Y725400D01*
X942281Y725459D01*
X942284Y725496D01*
X942294Y725526D01*
X942290Y725575D01*
X942295Y725639D01*
X942279Y725809D01*
X943000Y726683D01*
X943018Y726717D01*
X943048Y726752D01*
X943616Y727734D01*
X943781Y727778D01*
X943840Y727807D01*
X943903Y727829D01*
X943932Y727853D01*
X943960Y727867D01*
X943992Y727904D01*
X944041Y727945D01*
X944172Y728104D01*
X944203Y728163D01*
X944242Y728217D01*
X944252Y728253D01*
X944266Y728281D01*
X944271Y728329D01*
X944287Y728391D01*
X944298Y728562D01*
X945154Y729306D01*
X945177Y729336D01*
X945212Y729366D01*
X945934Y730240D01*
X946104Y730257D01*
X946167Y730276D01*
X946233Y730287D01*
X946265Y730306D01*
X946295Y730315D01*
X946333Y730346D01*
X946388Y730379D01*
X946543Y730514D01*
X946584Y730567D01*
X946631Y730614D01*
X946646Y730648D01*
X946665Y730673D01*
X946678Y730720D01*
X946704Y730779D01*
X946743Y730945D01*
X947710Y731538D01*
X947738Y731564D01*
X947777Y731587D01*
X948633Y732331D01*
X948803Y732319D01*
X948869Y732328D01*
X948936Y732328D01*
X948970Y732341D01*
X949002Y732345D01*
X949044Y732370D01*
X949104Y732393D01*
X949279Y732501D01*
X949328Y732546D01*
X949382Y732585D01*
X949403Y732616D01*
X949426Y732637D01*
X949446Y732682D01*
X949481Y732736D01*
X949547Y732893D01*
X950598Y733319D01*
X950630Y733340D01*
X950673Y733356D01*
X951639Y733949D01*
X951805Y733910D01*
X951871Y733907D01*
X951937Y733896D01*
X951974Y733904D01*
X952005Y733903D01*
X952051Y733920D01*
X952114Y733933D01*
X952304Y734010D01*
X952360Y734047D01*
X952420Y734076D01*
X952445Y734103D01*
X952471Y734121D01*
X952499Y734162D01*
X952542Y734209D01*
X952633Y734353D01*
X953740Y734600D01*
X953775Y734615D01*
X953820Y734625D01*
X954871Y735051D01*
X955028Y734984D01*
X955093Y734971D01*
X955156Y734949D01*
X955193Y734950D01*
X955224Y734944D01*
X955272Y734954D01*
X955336Y734956D01*
X955537Y735001D01*
X955598Y735028D01*
X955662Y735047D01*
X955691Y735070D01*
X955720Y735083D01*
X955754Y735118D01*
X955804Y735158D01*
X955918Y735285D01*
X957050Y735346D01*
X957087Y735356D01*
X957133Y735358D01*
X958240Y735605D01*
X958384Y735514D01*
X958446Y735490D01*
X958504Y735458D01*
X958541Y735453D01*
X958571Y735442D01*
X958620Y735443D01*
X958683Y735435D01*
X958889Y735447D01*
X958953Y735463D01*
X959019Y735471D01*
X959052Y735489D01*
X959083Y735497D01*
X959122Y735526D01*
X959178Y735557D01*
X959311Y735663D01*
X960438Y735538D01*
X960476Y735541D01*
X960522Y735536D01*
X961654Y735597D01*
X961781Y735483D01*
X961838Y735450D01*
X961890Y735408D01*
X961926Y735398D01*
X961953Y735382D01*
X962002Y735375D01*
X962063Y735357D01*
X962268Y735334D01*
X962334Y735340D01*
X962401Y735337D01*
X962436Y735349D01*
X962467Y735352D01*
X962511Y735375D01*
X962571Y735395D01*
X962720Y735479D01*
X963811Y735169D01*
X963849Y735166D01*
X963893Y735153D01*
X965020Y735028D01*
X965127Y734895D01*
X965178Y734852D01*
X965222Y734802D01*
X965256Y734786D01*
X965280Y734766D01*
X965327Y734751D01*
X965384Y734723D01*
X965582Y734667D01*
X965649Y734662D01*
X965714Y734648D01*
X965751Y734654D01*
X965782Y734652D01*
X965829Y734667D01*
X965892Y734678D01*
X966052Y734735D01*
X966528Y734510D01*
X966611Y734490D01*
X966692Y734464D01*
X966708Y734466D01*
X966723Y734462D01*
X966807Y734475D01*
X966891Y734483D01*
X966905Y734490D01*
X966921Y734493D01*
X966993Y734537D01*
X967068Y734577D01*
X967079Y734590D01*
X967092Y734598D01*
X967124Y734644D01*
X967184Y734715D01*
X990537Y775164D01*
X990831Y774882D01*
X990859Y774864D01*
X990893Y774831D01*
X993416Y773089D01*
X993443Y773078D01*
X993465Y773059D01*
X993534Y773039D01*
X993599Y773011D01*
X993628Y773011D01*
X993656Y773003D01*
X993727Y773011D01*
X993798Y773011D01*
X993825Y773022D01*
X993854Y773025D01*
X993916Y773060D01*
X993981Y773088D01*
X994002Y773108D01*
X994027Y773123D01*
X994090Y773200D01*
X994120Y773230D01*
X994124Y773240D01*
X994133Y773251D01*
X1003633Y789751D01*
X1003643Y789783D01*
X1003652Y789796D01*
X1003656Y789820D01*
X1003657Y789824D01*
X1003688Y789894D01*
X1003688Y789918D01*
X1003696Y789940D01*
X1003690Y790016D01*
X1003691Y790093D01*
X1003681Y790117D01*
X1003680Y790138D01*
X1003659Y790177D01*
X1003633Y790249D01*
X994133Y806749D01*
X994114Y806771D01*
X994101Y806797D01*
X994048Y806845D01*
X994001Y806898D01*
X993975Y806911D01*
X993954Y806930D01*
X993886Y806953D01*
X993822Y806984D01*
X993793Y806986D01*
X993766Y806995D01*
X993694Y806990D01*
X993623Y806993D01*
X993596Y806983D01*
X993567Y806981D01*
X993477Y806939D01*
X993437Y806924D01*
X993429Y806917D01*
X993416Y806911D01*
X990893Y805169D01*
X990869Y805145D01*
X990831Y805118D01*
X990516Y804816D01*
X967162Y845274D01*
X967106Y845338D01*
X967054Y845405D01*
X967040Y845413D01*
X967030Y845425D01*
X966953Y845462D01*
X966879Y845503D01*
X966863Y845505D01*
X966849Y845512D01*
X966764Y845517D01*
X966680Y845526D01*
X966664Y845522D01*
X966649Y845523D01*
X966596Y845504D01*
X966506Y845479D01*
X966052Y845265D01*
X965892Y845322D01*
X965826Y845332D01*
X965762Y845350D01*
X965724Y845347D01*
X965693Y845351D01*
X965646Y845339D01*
X965582Y845333D01*
X965384Y845277D01*
X965325Y845246D01*
X965262Y845224D01*
X965234Y845200D01*
X965206Y845185D01*
X965175Y845147D01*
X965127Y845105D01*
X965020Y844972D01*
X963893Y844847D01*
X963857Y844835D01*
X963811Y844831D01*
X962720Y844521D01*
X962571Y844605D01*
X962508Y844625D01*
X962447Y844654D01*
X962410Y844656D01*
X962380Y844666D01*
X962331Y844661D01*
X962268Y844666D01*
X962063Y844643D01*
X962000Y844623D01*
X961934Y844611D01*
X961902Y844592D01*
X961872Y844582D01*
X961835Y844550D01*
X961781Y844517D01*
X961654Y844403D01*
X960522Y844464D01*
X960484Y844459D01*
X960438Y844462D01*
X959311Y844337D01*
X959178Y844443D01*
X959118Y844474D01*
X959064Y844512D01*
X959028Y844520D01*
X959000Y844535D01*
X958951Y844539D01*
X958889Y844553D01*
X958683Y844565D01*
X958617Y844555D01*
X958550Y844554D01*
X958516Y844540D01*
X958485Y844536D01*
X958443Y844510D01*
X958384Y844486D01*
X958240Y844395D01*
X957133Y844642D01*
X957095Y844643D01*
X957050Y844654D01*
X955918Y844715D01*
X955804Y844842D01*
X955751Y844882D01*
X955703Y844929D01*
X955669Y844943D01*
X955643Y844962D01*
X955596Y844974D01*
X955537Y844999D01*
X955336Y845044D01*
X955270Y845045D01*
X955204Y845055D01*
X955167Y845047D01*
X955136Y845048D01*
X955090Y845030D01*
X955028Y845016D01*
X954871Y844949D01*
X953820Y845375D01*
X953782Y845382D01*
X953740Y845400D01*
X952633Y845647D01*
X952542Y845791D01*
X952496Y845840D01*
X952457Y845893D01*
X952425Y845913D01*
X952403Y845936D01*
X952358Y845956D01*
X952304Y845990D01*
X952114Y846067D01*
X952048Y846079D01*
X951985Y846100D01*
X951948Y846098D01*
X951917Y846104D01*
X951869Y846094D01*
X951805Y846090D01*
X951639Y846051D01*
X950673Y846644D01*
X950637Y846657D01*
X950598Y846681D01*
X949547Y847107D01*
X949481Y847264D01*
X949443Y847319D01*
X949413Y847379D01*
X949386Y847404D01*
X949368Y847430D01*
X949327Y847457D01*
X949279Y847499D01*
X949104Y847607D01*
X949041Y847630D01*
X948982Y847661D01*
X948945Y847665D01*
X948915Y847676D01*
X948866Y847674D01*
X948803Y847681D01*
X948633Y847669D01*
X947777Y848413D01*
X947744Y848432D01*
X947710Y848462D01*
X946743Y849055D01*
X946704Y849221D01*
X946676Y849282D01*
X946656Y849346D01*
X946633Y849375D01*
X946619Y849403D01*
X946583Y849436D01*
X946543Y849486D01*
X946388Y849621D01*
X946330Y849654D01*
X946277Y849694D01*
X946241Y849705D01*
X946214Y849720D01*
X946165Y849726D01*
X946104Y849743D01*
X945934Y849760D01*
X945212Y850634D01*
X945194Y850649D01*
X945190Y850655D01*
X945181Y850661D01*
X945154Y850694D01*
X944298Y851438D01*
X944287Y851609D01*
X944269Y851673D01*
X944260Y851739D01*
X944242Y851771D01*
X944233Y851802D01*
X944203Y851841D01*
X944172Y851896D01*
X944041Y852055D01*
X943989Y852097D01*
X943944Y852145D01*
X943910Y852161D01*
X943885Y852181D01*
X943838Y852195D01*
X943781Y852222D01*
X943616Y852266D01*
X943048Y853248D01*
X943023Y853276D01*
X943000Y853317D01*
X942279Y854191D01*
X942295Y854361D01*
X942289Y854427D01*
X942291Y854494D01*
X942278Y854529D01*
X942275Y854561D01*
X942251Y854604D01*
X942230Y854664D01*
X942127Y854842D01*
X942082Y854892D01*
X942045Y854947D01*
X942015Y854968D01*
X941994Y854992D01*
X941950Y855013D01*
X941897Y855050D01*
X941742Y855120D01*
X941344Y856182D01*
X941324Y856214D01*
X941308Y856257D01*
X940740Y857239D01*
X940784Y857404D01*
X940789Y857470D01*
X940802Y857536D01*
X940795Y857572D01*
X940797Y857604D01*
X940781Y857650D01*
X940769Y857713D01*
X940697Y857906D01*
X940662Y857962D01*
X940634Y858023D01*
X940608Y858049D01*
X940591Y858076D01*
X940551Y858104D01*
X940505Y858148D01*
X940363Y858244D01*
X940145Y859356D01*
X940131Y859392D01*
X940123Y859437D01*
X939724Y860499D01*
X939795Y860654D01*
X939810Y860719D01*
X939834Y860781D01*
X939833Y860818D01*
X939840Y860849D01*
X939832Y860897D01*
X939831Y860961D01*
X939791Y861163D01*
X939766Y861225D01*
X939749Y861289D01*
X939727Y861319D01*
X939715Y861348D01*
X939680Y861383D01*
X939642Y861434D01*
X939518Y861551D01*
X939493Y862419D01*
X939493Y862420D01*
X939472Y862513D01*
X939448Y862614D01*
X939448Y862615D01*
X939345Y862763D01*
X932815Y869293D01*
X932809Y869297D01*
X932804Y869303D01*
X932726Y869352D01*
X932649Y869404D01*
X932641Y869405D01*
X932634Y869409D01*
X932457Y869441D01*
X887130Y869441D01*
X883676Y870872D01*
X881032Y873516D01*
X879601Y876970D01*
X879601Y880710D01*
X881032Y884164D01*
X883676Y886808D01*
X883771Y886847D01*
X884996Y887355D01*
X886220Y887862D01*
X886221Y887862D01*
X887130Y888239D01*
X938430Y888239D01*
X941884Y886808D01*
X942245Y886447D01*
X942250Y886443D01*
X942254Y886438D01*
X942277Y886424D01*
X942297Y886402D01*
X942356Y886373D01*
X942412Y886336D01*
X942421Y886334D01*
X942424Y886332D01*
X942449Y886328D01*
X942477Y886314D01*
X942543Y886311D01*
X942609Y886298D01*
X942643Y886306D01*
X942677Y886304D01*
X942740Y886326D01*
X942805Y886340D01*
X942833Y886360D01*
X942866Y886372D01*
X942915Y886417D01*
X942969Y886454D01*
X942988Y886484D01*
X943014Y886507D01*
X943041Y886568D01*
X943077Y886624D01*
X943083Y886658D01*
X943097Y886689D01*
X943099Y886756D01*
X943110Y886821D01*
X943103Y886855D01*
X943104Y886890D01*
X943077Y886963D01*
X943073Y886982D01*
X943066Y887014D01*
X943065Y887014D01*
X943065Y887016D01*
X943051Y887036D01*
X943043Y887059D01*
X923102Y921605D01*
X923472Y921712D01*
X923502Y921728D01*
X923548Y921740D01*
X926314Y923049D01*
X926336Y923066D01*
X926363Y923076D01*
X926415Y923125D01*
X926473Y923168D01*
X926487Y923193D01*
X926508Y923212D01*
X926537Y923278D01*
X926573Y923340D01*
X926576Y923368D01*
X926588Y923394D01*
X926589Y923466D01*
X926598Y923537D01*
X926590Y923564D01*
X926591Y923593D01*
X926555Y923688D01*
X926544Y923728D01*
X926537Y923737D01*
X926533Y923749D01*
X917176Y940000D01*
X926533Y956251D01*
X926542Y956278D01*
X926558Y956302D01*
X926573Y956372D01*
X926596Y956440D01*
X926593Y956468D01*
X926599Y956496D01*
X926586Y956567D01*
X926580Y956638D01*
X926567Y956663D01*
X926561Y956691D01*
X926521Y956751D01*
X926488Y956814D01*
X926466Y956832D01*
X926450Y956856D01*
X926367Y956914D01*
X926335Y956941D01*
X926324Y956944D01*
X926314Y956951D01*
X923548Y958260D01*
X923515Y958268D01*
X923472Y958288D01*
X923119Y958390D01*
X946471Y998836D01*
X946497Y998916D01*
X946529Y998995D01*
X946529Y999011D01*
X946534Y999026D01*
X946528Y999111D01*
X946527Y999195D01*
X946521Y999210D01*
X946520Y999226D01*
X946481Y999302D01*
X946448Y999379D01*
X946436Y999391D01*
X946429Y999405D01*
X946386Y999441D01*
X946321Y999507D01*
X945865Y999823D01*
X945835Y999991D01*
X945810Y1000053D01*
X945794Y1000117D01*
X945772Y1000148D01*
X945761Y1000177D01*
X945727Y1000212D01*
X945689Y1000264D01*
X945542Y1000408D01*
X945486Y1000444D01*
X945435Y1000487D01*
X945400Y1000499D01*
X945374Y1000516D01*
X945325Y1000525D01*
X945265Y1000546D01*
X945096Y1000572D01*
X944426Y1001486D01*
X944397Y1001511D01*
X944371Y1001549D01*
X943558Y1002340D01*
X943556Y1002511D01*
X943542Y1002576D01*
X943537Y1002642D01*
X943521Y1002676D01*
X943514Y1002707D01*
X943486Y1002747D01*
X943458Y1002804D01*
X943336Y1002970D01*
X943287Y1003015D01*
X943244Y1003066D01*
X943211Y1003084D01*
X943188Y1003105D01*
X943142Y1003121D01*
X943086Y1003152D01*
X942923Y1003205D01*
X942412Y1004217D01*
X942389Y1004247D01*
X942368Y1004288D01*
X941697Y1005202D01*
X941723Y1005371D01*
X941720Y1005438D01*
X941726Y1005504D01*
X941715Y1005540D01*
X941714Y1005571D01*
X941693Y1005616D01*
X941675Y1005677D01*
X941582Y1005860D01*
X941541Y1005913D01*
X941507Y1005970D01*
X941477Y1005993D01*
X941458Y1006018D01*
X941415Y1006042D01*
X941365Y1006081D01*
X941214Y1006160D01*
X940876Y1007243D01*
X940858Y1007276D01*
X940844Y1007320D01*
X940333Y1008332D01*
X940386Y1008494D01*
X940394Y1008560D01*
X940411Y1008625D01*
X940406Y1008662D01*
X940410Y1008693D01*
X940397Y1008740D01*
X940389Y1008804D01*
X940327Y1009000D01*
X940295Y1009059D01*
X940271Y1009121D01*
X940246Y1009148D01*
X940231Y1009176D01*
X940193Y1009206D01*
X940149Y1009253D01*
X940014Y1009356D01*
X939859Y1010480D01*
X939846Y1010516D01*
X939840Y1010561D01*
X939502Y1011644D01*
X939582Y1011795D01*
X939600Y1011859D01*
X939627Y1011920D01*
X939629Y1011957D01*
X939638Y1011987D01*
X939632Y1012036D01*
X939635Y1012100D01*
X939607Y1012304D01*
X939585Y1012366D01*
X939572Y1012432D01*
X939551Y1012463D01*
X939541Y1012493D01*
X939508Y1012529D01*
X939473Y1012583D01*
X939356Y1012707D01*
X939388Y1013840D01*
X939381Y1013877D01*
X939383Y1013924D01*
X939228Y1015047D01*
X939331Y1015183D01*
X939360Y1015243D01*
X939397Y1015298D01*
X939405Y1015335D01*
X939418Y1015363D01*
X939421Y1015412D01*
X939434Y1015475D01*
X939440Y1015680D01*
X939428Y1015746D01*
X939426Y1015813D01*
X939411Y1015847D01*
X939406Y1015878D01*
X939379Y1015919D01*
X939354Y1015978D01*
X939258Y1016119D01*
X939477Y1017232D01*
X939476Y1017270D01*
X939486Y1017315D01*
X939518Y1018449D01*
X939642Y1018566D01*
X939680Y1018620D01*
X939726Y1018669D01*
X939739Y1018704D01*
X939757Y1018730D01*
X939768Y1018777D01*
X939791Y1018837D01*
X939831Y1019039D01*
X939830Y1019105D01*
X939839Y1019172D01*
X939830Y1019208D01*
X939830Y1019239D01*
X939810Y1019284D01*
X939795Y1019346D01*
X939724Y1019501D01*
X940123Y1020563D01*
X940129Y1020601D01*
X940145Y1020644D01*
X940363Y1021756D01*
X940505Y1021852D01*
X940552Y1021899D01*
X940605Y1021940D01*
X940624Y1021972D01*
X940646Y1021994D01*
X940664Y1022040D01*
X940697Y1022094D01*
X940769Y1022287D01*
X940780Y1022353D01*
X940799Y1022417D01*
X940796Y1022454D01*
X940801Y1022485D01*
X940790Y1022533D01*
X940784Y1022596D01*
X940740Y1022761D01*
X941308Y1023743D01*
X941320Y1023779D01*
X941344Y1023818D01*
X941742Y1024880D01*
X941897Y1024950D01*
X941951Y1024989D01*
X942010Y1025021D01*
X942034Y1025049D01*
X942060Y1025068D01*
X942085Y1025110D01*
X942127Y1025158D01*
X942230Y1025336D01*
X942251Y1025400D01*
X942281Y1025459D01*
X942284Y1025496D01*
X942294Y1025526D01*
X942290Y1025575D01*
X942295Y1025639D01*
X942279Y1025809D01*
X943000Y1026683D01*
X943018Y1026717D01*
X943048Y1026752D01*
X943616Y1027734D01*
X943781Y1027778D01*
X943840Y1027807D01*
X943904Y1027829D01*
X943932Y1027853D01*
X943960Y1027867D01*
X943992Y1027904D01*
X944041Y1027945D01*
X944172Y1028104D01*
X944203Y1028163D01*
X944242Y1028217D01*
X944252Y1028253D01*
X944266Y1028281D01*
X944271Y1028330D01*
X944287Y1028391D01*
X944298Y1028562D01*
X944327Y1028586D01*
X944343Y1028607D01*
X944363Y1028621D01*
X944403Y1028685D01*
X944449Y1028745D01*
X944456Y1028770D01*
X944469Y1028792D01*
X944486Y1028885D01*
X944500Y1028939D01*
X944498Y1028953D01*
X944501Y1028969D01*
X944501Y1066167D01*
X944511Y1066216D01*
X944510Y1066223D01*
X944511Y1066229D01*
X944489Y1066321D01*
X944470Y1066412D01*
X944467Y1066418D01*
X944465Y1066424D01*
X944362Y1066572D01*
X911994Y1098941D01*
X911987Y1098945D01*
X911983Y1098951D01*
X911904Y1099000D01*
X911827Y1099052D01*
X911819Y1099053D01*
X911813Y1099057D01*
X911635Y1099089D01*
X910452Y1099089D01*
X907849Y1100167D01*
X905857Y1102159D01*
X904779Y1104762D01*
X904779Y1107578D01*
X905857Y1110181D01*
X907849Y1112173D01*
X908817Y1112574D01*
X910041Y1113081D01*
X910452Y1113251D01*
X913268Y1113251D01*
X915871Y1112173D01*
X917863Y1110181D01*
X918941Y1107578D01*
X918941Y1106575D01*
X918942Y1106567D01*
X918941Y1106559D01*
X918962Y1106469D01*
X918980Y1106378D01*
X918985Y1106372D01*
X918987Y1106364D01*
X919089Y1106216D01*
X951548Y1073758D01*
X951553Y1073754D01*
X951557Y1073748D01*
X951636Y1073699D01*
X951715Y1073647D01*
X951721Y1073645D01*
X951727Y1073642D01*
X951819Y1073627D01*
X951911Y1073609D01*
X951918Y1073611D01*
X951925Y1073609D01*
X951967Y1073619D01*
X955770Y1073619D01*
X959224Y1072188D01*
X961868Y1069544D01*
X963299Y1066090D01*
X963299Y1035698D01*
X963306Y1035662D01*
X963304Y1035626D01*
X963325Y1035565D01*
X963338Y1035501D01*
X963359Y1035471D01*
X963371Y1035437D01*
X963415Y1035389D01*
X963451Y1035336D01*
X963481Y1035316D01*
X963506Y1035289D01*
X963574Y1035256D01*
X963619Y1035226D01*
X963643Y1035222D01*
X963668Y1035210D01*
X963811Y1035169D01*
X963849Y1035166D01*
X963893Y1035153D01*
X965020Y1035028D01*
X965127Y1034895D01*
X965178Y1034852D01*
X965222Y1034802D01*
X965256Y1034786D01*
X965280Y1034766D01*
X965327Y1034751D01*
X965384Y1034723D01*
X965582Y1034667D01*
X965649Y1034662D01*
X965714Y1034648D01*
X965751Y1034654D01*
X965782Y1034652D01*
X965829Y1034667D01*
X965892Y1034678D01*
X966052Y1034735D01*
X966528Y1034510D01*
X966611Y1034490D01*
X966692Y1034464D01*
X966708Y1034466D01*
X966723Y1034462D01*
X966807Y1034475D01*
X966891Y1034483D01*
X966905Y1034490D01*
X966921Y1034493D01*
X966993Y1034537D01*
X967068Y1034577D01*
X967079Y1034590D01*
X967092Y1034598D01*
X967124Y1034644D01*
X967184Y1034715D01*
X990537Y1075164D01*
X990831Y1074882D01*
X990859Y1074864D01*
X990893Y1074831D01*
X993416Y1073089D01*
X993443Y1073078D01*
X993465Y1073059D01*
X993534Y1073039D01*
X993599Y1073011D01*
X993628Y1073011D01*
X993656Y1073003D01*
X993727Y1073011D01*
X993798Y1073011D01*
X993825Y1073022D01*
X993854Y1073025D01*
X993916Y1073060D01*
X993981Y1073088D01*
X994002Y1073108D01*
X994027Y1073123D01*
X994090Y1073200D01*
X994120Y1073230D01*
X994124Y1073240D01*
X994133Y1073251D01*
X1003633Y1089751D01*
X1003643Y1089783D01*
X1003652Y1089796D01*
X1003656Y1089820D01*
X1003657Y1089824D01*
X1003688Y1089894D01*
X1003688Y1089918D01*
X1003696Y1089940D01*
X1003690Y1090016D01*
X1003691Y1090093D01*
X1003681Y1090117D01*
X1003680Y1090138D01*
X1003659Y1090177D01*
X1003633Y1090249D01*
X994133Y1106749D01*
X994114Y1106771D01*
X994101Y1106797D01*
X994048Y1106845D01*
X994001Y1106898D01*
X993975Y1106911D01*
X993954Y1106930D01*
X993886Y1106953D01*
X993822Y1106984D01*
X993793Y1106986D01*
X993766Y1106995D01*
X993694Y1106990D01*
X993623Y1106993D01*
X993596Y1106983D01*
X993567Y1106981D01*
X993477Y1106939D01*
X993437Y1106924D01*
X993429Y1106917D01*
X993416Y1106911D01*
X990893Y1105169D01*
X990869Y1105145D01*
X990831Y1105118D01*
X990517Y1104817D01*
X967161Y1145274D01*
X967105Y1145337D01*
X967087Y1145360D01*
X967082Y1145367D01*
X967081Y1145368D01*
X967053Y1145405D01*
X967039Y1145412D01*
X967028Y1145424D01*
X966952Y1145461D01*
X966878Y1145503D01*
X966862Y1145505D01*
X966848Y1145511D01*
X966763Y1145516D01*
X966679Y1145526D01*
X966662Y1145521D01*
X966648Y1145522D01*
X966595Y1145503D01*
X966505Y1145479D01*
X966052Y1145265D01*
X965892Y1145322D01*
X965826Y1145332D01*
X965762Y1145350D01*
X965724Y1145347D01*
X965693Y1145351D01*
X965646Y1145339D01*
X965582Y1145333D01*
X965384Y1145277D01*
X965325Y1145246D01*
X965262Y1145224D01*
X965234Y1145200D01*
X965206Y1145185D01*
X965175Y1145147D01*
X965127Y1145105D01*
X965020Y1144972D01*
X963893Y1144847D01*
X963857Y1144835D01*
X963811Y1144831D01*
X962720Y1144521D01*
X962571Y1144605D01*
X962508Y1144625D01*
X962448Y1144654D01*
X962410Y1144656D01*
X962380Y1144666D01*
X962331Y1144661D01*
X962268Y1144666D01*
X962063Y1144643D01*
X962000Y1144623D01*
X961934Y1144611D01*
X961902Y1144592D01*
X961872Y1144582D01*
X961835Y1144550D01*
X961781Y1144517D01*
X961654Y1144403D01*
X960522Y1144464D01*
X960484Y1144459D01*
X960438Y1144462D01*
X959311Y1144337D01*
X959178Y1144443D01*
X959118Y1144474D01*
X959064Y1144512D01*
X959028Y1144520D01*
X959000Y1144535D01*
X958951Y1144539D01*
X958889Y1144553D01*
X958683Y1144565D01*
X958617Y1144555D01*
X958550Y1144554D01*
X958516Y1144540D01*
X958485Y1144536D01*
X958443Y1144510D01*
X958384Y1144486D01*
X958240Y1144395D01*
X957133Y1144642D01*
X957095Y1144643D01*
X957050Y1144654D01*
X955918Y1144715D01*
X955804Y1144842D01*
X955792Y1144852D01*
X955786Y1144860D01*
X955753Y1144880D01*
X955751Y1144882D01*
X955703Y1144929D01*
X955669Y1144943D01*
X955643Y1144962D01*
X955596Y1144974D01*
X955537Y1144999D01*
X955336Y1145044D01*
X955270Y1145045D01*
X955204Y1145055D01*
X955167Y1145047D01*
X955136Y1145048D01*
X955090Y1145030D01*
X955028Y1145016D01*
X954892Y1144958D01*
X954871Y1144949D01*
X953820Y1145375D01*
X953782Y1145382D01*
X953740Y1145400D01*
X952633Y1145647D01*
X952542Y1145791D01*
X952496Y1145840D01*
X952477Y1145866D01*
X952470Y1145875D01*
X952457Y1145893D01*
X952425Y1145913D01*
X952403Y1145936D01*
X952358Y1145956D01*
X952304Y1145990D01*
X952114Y1146067D01*
X952048Y1146079D01*
X951985Y1146100D01*
X951948Y1146098D01*
X951917Y1146104D01*
X951869Y1146094D01*
X951805Y1146090D01*
X951639Y1146051D01*
X950673Y1146644D01*
X950637Y1146657D01*
X950598Y1146681D01*
X949547Y1147107D01*
X949481Y1147264D01*
X949443Y1147319D01*
X949413Y1147379D01*
X949386Y1147404D01*
X949368Y1147430D01*
X949327Y1147457D01*
X949279Y1147499D01*
X949104Y1147607D01*
X949041Y1147630D01*
X948982Y1147661D01*
X948945Y1147665D01*
X948915Y1147676D01*
X948866Y1147674D01*
X948803Y1147681D01*
X948633Y1147669D01*
X947777Y1148413D01*
X947744Y1148432D01*
X947710Y1148462D01*
X946743Y1149055D01*
X946704Y1149221D01*
X946686Y1149261D01*
X946685Y1149262D01*
X946684Y1149263D01*
X946676Y1149282D01*
X946656Y1149346D01*
X946633Y1149375D01*
X946619Y1149403D01*
X946583Y1149436D01*
X946543Y1149486D01*
X946388Y1149621D01*
X946330Y1149654D01*
X946277Y1149694D01*
X946241Y1149705D01*
X946214Y1149720D01*
X946165Y1149726D01*
X946104Y1149743D01*
X945934Y1149760D01*
X945212Y1150634D01*
X945183Y1150658D01*
X945154Y1150694D01*
X944298Y1151438D01*
X944287Y1151609D01*
X944269Y1151673D01*
X944260Y1151739D01*
X944242Y1151771D01*
X944233Y1151802D01*
X944203Y1151840D01*
X944172Y1151896D01*
X944155Y1151917D01*
X944130Y1151937D01*
X944113Y1151962D01*
X944112Y1151962D01*
X944111Y1151963D01*
X944053Y1152000D01*
X943999Y1152043D01*
X943968Y1152052D01*
X943941Y1152069D01*
X943860Y1152084D01*
X943807Y1152099D01*
X943787Y1152097D01*
X943764Y1152101D01*
X934670Y1152101D01*
X931216Y1153532D01*
X926117Y1158631D01*
X924686Y1162085D01*
X924686Y1165902D01*
X924696Y1165951D01*
X924695Y1165958D01*
X924696Y1165964D01*
X924674Y1166056D01*
X924655Y1166147D01*
X924652Y1166153D01*
X924650Y1166159D01*
X924547Y1166307D01*
X869264Y1221591D01*
X869257Y1221595D01*
X869253Y1221601D01*
X869174Y1221650D01*
X869097Y1221702D01*
X869089Y1221703D01*
X869083Y1221707D01*
X868905Y1221739D01*
X790985Y1221739D01*
X790977Y1221738D01*
X790969Y1221739D01*
X790879Y1221718D01*
X790788Y1221700D01*
X790782Y1221695D01*
X790774Y1221693D01*
X790626Y1221591D01*
X789549Y1220514D01*
X789545Y1220507D01*
X789539Y1220503D01*
X789490Y1220424D01*
X789438Y1220347D01*
X789437Y1220339D01*
X789433Y1220333D01*
X789401Y1220155D01*
X789401Y1219062D01*
X788323Y1216459D01*
X786331Y1214467D01*
X786293Y1214452D01*
X785069Y1213944D01*
X783844Y1213437D01*
X783728Y1213389D01*
X780912Y1213389D01*
X778309Y1214467D01*
X776317Y1216459D01*
X775239Y1219062D01*
X775239Y1221878D01*
X776317Y1224481D01*
X778309Y1226473D01*
X778869Y1226705D01*
X780094Y1227212D01*
X780912Y1227551D01*
X782005Y1227551D01*
X782013Y1227552D01*
X782021Y1227551D01*
X782111Y1227572D01*
X782202Y1227590D01*
X782208Y1227595D01*
X782216Y1227597D01*
X782364Y1227699D01*
X786565Y1231901D01*
X873325Y1231901D01*
X931733Y1173493D01*
X931738Y1173489D01*
X931742Y1173483D01*
X931821Y1173434D01*
X931900Y1173382D01*
X931906Y1173380D01*
X931912Y1173377D01*
X932004Y1173362D01*
X932096Y1173344D01*
X932103Y1173346D01*
X932110Y1173344D01*
X932152Y1173354D01*
X935955Y1173354D01*
X939409Y1171923D01*
X939613Y1171719D01*
X939684Y1171672D01*
X939752Y1171620D01*
X939767Y1171616D01*
X939780Y1171608D01*
X939864Y1171592D01*
X939947Y1171571D01*
X939962Y1171573D01*
X939977Y1171570D01*
X940060Y1171588D01*
X940145Y1171601D01*
X940158Y1171609D01*
X940173Y1171612D01*
X940243Y1171661D01*
X940316Y1171705D01*
X940326Y1171718D01*
X940338Y1171726D01*
X940368Y1171774D01*
X940424Y1171849D01*
X940844Y1172680D01*
X940849Y1172698D01*
X940857Y1172710D01*
X940860Y1172728D01*
X940876Y1172757D01*
X941214Y1173840D01*
X941365Y1173919D01*
X941416Y1173961D01*
X941473Y1173996D01*
X941496Y1174026D01*
X941520Y1174045D01*
X941543Y1174089D01*
X941582Y1174140D01*
X941675Y1174323D01*
X941692Y1174388D01*
X941719Y1174449D01*
X941720Y1174486D01*
X941728Y1174517D01*
X941722Y1174565D01*
X941723Y1174629D01*
X941697Y1174798D01*
X942368Y1175712D01*
X942384Y1175746D01*
X942412Y1175783D01*
X942923Y1176795D01*
X943086Y1176848D01*
X943143Y1176881D01*
X943205Y1176906D01*
X943232Y1176932D01*
X943260Y1176947D01*
X943290Y1176986D01*
X943336Y1177030D01*
X943458Y1177196D01*
X943486Y1177256D01*
X943522Y1177313D01*
X943529Y1177349D01*
X943542Y1177378D01*
X943544Y1177427D01*
X943556Y1177489D01*
X943558Y1177660D01*
X944371Y1178451D01*
X944392Y1178483D01*
X944426Y1178514D01*
X945096Y1179428D01*
X945265Y1179454D01*
X945328Y1179477D01*
X945393Y1179491D01*
X945424Y1179512D01*
X945453Y1179523D01*
X945489Y1179557D01*
X945542Y1179592D01*
X945689Y1179736D01*
X945727Y1179791D01*
X945772Y1179840D01*
X945785Y1179875D01*
X945803Y1179901D01*
X945812Y1179949D01*
X945835Y1180009D01*
X945865Y1180177D01*
X946300Y1180479D01*
X946358Y1180540D01*
X946421Y1180597D01*
X946427Y1180612D01*
X946439Y1180624D01*
X946469Y1180703D01*
X946504Y1180779D01*
X946505Y1180796D01*
X946511Y1180811D01*
X946508Y1180895D01*
X946511Y1180980D01*
X946505Y1180996D01*
X946505Y1181011D01*
X946481Y1181062D01*
X946450Y1181149D01*
X923096Y1221603D01*
X923472Y1221712D01*
X923502Y1221728D01*
X923548Y1221740D01*
X926314Y1223049D01*
X926336Y1223066D01*
X926363Y1223076D01*
X926415Y1223125D01*
X926473Y1223168D01*
X926487Y1223193D01*
X926508Y1223212D01*
X926537Y1223278D01*
X926573Y1223340D01*
X926576Y1223368D01*
X926588Y1223394D01*
X926589Y1223466D01*
X926598Y1223537D01*
X926590Y1223564D01*
X926591Y1223593D01*
X926555Y1223688D01*
X926544Y1223728D01*
X926537Y1223737D01*
X926533Y1223749D01*
X917033Y1240249D01*
X916981Y1240308D01*
X916935Y1240370D01*
X916916Y1240381D01*
X916901Y1240398D01*
X916831Y1240432D01*
X916764Y1240472D01*
X916740Y1240476D01*
X916722Y1240484D01*
X916677Y1240486D01*
X916600Y1240499D01*
X897600Y1240499D01*
X897572Y1240494D01*
X897544Y1240496D01*
X897476Y1240474D01*
X897405Y1240460D01*
X897382Y1240444D01*
X897355Y1240435D01*
X897300Y1240388D01*
X897241Y1240347D01*
X897226Y1240323D01*
X897205Y1240305D01*
X897173Y1240240D01*
X897134Y1240180D01*
X897129Y1240152D01*
X897117Y1240126D01*
X897108Y1240025D01*
X897101Y1239983D01*
X897103Y1239973D01*
X897102Y1239960D01*
X897345Y1236910D01*
X897354Y1236878D01*
X897358Y1236831D01*
X897440Y1236494D01*
X762560Y1236494D01*
X762642Y1236831D01*
X762644Y1236865D01*
X762655Y1236910D01*
X762898Y1239960D01*
X762894Y1239989D01*
X762899Y1240017D01*
X762882Y1240086D01*
X762874Y1240158D01*
X762860Y1240182D01*
X762853Y1240210D01*
X762810Y1240268D01*
X762775Y1240330D01*
X762752Y1240347D01*
X762735Y1240370D01*
X762673Y1240407D01*
X762616Y1240450D01*
X762588Y1240457D01*
X762564Y1240472D01*
X762464Y1240488D01*
X762423Y1240499D01*
X762413Y1240497D01*
X762400Y1240499D01*
X743400Y1240499D01*
X743324Y1240484D01*
X743246Y1240475D01*
X743227Y1240464D01*
X743205Y1240460D01*
X743141Y1240416D01*
X743073Y1240377D01*
X743057Y1240358D01*
X743041Y1240347D01*
X743017Y1240309D01*
X742967Y1240249D01*
X733467Y1223749D01*
X733458Y1223722D01*
X733442Y1223698D01*
X733427Y1223628D01*
X733404Y1223560D01*
X733407Y1223532D01*
X733401Y1223504D01*
X733415Y1223434D01*
X733420Y1223362D01*
X733433Y1223337D01*
X733439Y1223309D01*
X733479Y1223249D01*
X733512Y1223186D01*
X733534Y1223168D01*
X733550Y1223144D01*
X733633Y1223086D01*
X733665Y1223059D01*
X733676Y1223056D01*
X733687Y1223049D01*
X736453Y1221740D01*
X736486Y1221732D01*
X736528Y1221712D01*
X736881Y1221610D01*
X727306Y1205026D01*
X713534Y1181161D01*
X713507Y1181081D01*
X713475Y1181002D01*
X713475Y1180986D01*
X713470Y1180971D01*
X713476Y1180886D01*
X713477Y1180802D01*
X713483Y1180787D01*
X713484Y1180771D01*
X713523Y1180695D01*
X713556Y1180618D01*
X713568Y1180606D01*
X713575Y1180592D01*
X713618Y1180556D01*
X713684Y1180490D01*
X714135Y1180177D01*
X714165Y1180009D01*
X714190Y1179947D01*
X714206Y1179882D01*
X714228Y1179852D01*
X714239Y1179823D01*
X714273Y1179788D01*
X714311Y1179736D01*
X714458Y1179592D01*
X714514Y1179556D01*
X714565Y1179513D01*
X714600Y1179501D01*
X714626Y1179483D01*
X714675Y1179475D01*
X714735Y1179454D01*
X714904Y1179428D01*
X715574Y1178514D01*
X715603Y1178489D01*
X715629Y1178451D01*
X716442Y1177660D01*
X716444Y1177489D01*
X716458Y1177424D01*
X716463Y1177358D01*
X716479Y1177324D01*
X716486Y1177293D01*
X716514Y1177253D01*
X716542Y1177196D01*
X716664Y1177030D01*
X716713Y1176985D01*
X716756Y1176934D01*
X716789Y1176916D01*
X716812Y1176895D01*
X716858Y1176879D01*
X716914Y1176848D01*
X717077Y1176795D01*
X717588Y1175783D01*
X717611Y1175753D01*
X717632Y1175712D01*
X718303Y1174798D01*
X718277Y1174629D01*
X718280Y1174562D01*
X718274Y1174496D01*
X718285Y1174460D01*
X718286Y1174429D01*
X718307Y1174385D01*
X718325Y1174323D01*
X718418Y1174140D01*
X718459Y1174087D01*
X718493Y1174030D01*
X718523Y1174007D01*
X718542Y1173982D01*
X718585Y1173958D01*
X718635Y1173919D01*
X718786Y1173840D01*
X719124Y1172757D01*
X719142Y1172724D01*
X719146Y1172712D01*
X719151Y1172691D01*
X719154Y1172687D01*
X719156Y1172680D01*
X719667Y1171668D01*
X719633Y1171564D01*
X719623Y1171480D01*
X719608Y1171396D01*
X719611Y1171381D01*
X719609Y1171365D01*
X719633Y1171283D01*
X719651Y1171200D01*
X719660Y1171187D01*
X719664Y1171173D01*
X719718Y1171106D01*
X719767Y1171037D01*
X719780Y1171028D01*
X719790Y1171016D01*
X719865Y1170976D01*
X719937Y1170931D01*
X719954Y1170928D01*
X719966Y1170921D01*
X720022Y1170915D01*
X720115Y1170899D01*
X725297Y1170899D01*
X725346Y1170889D01*
X725353Y1170890D01*
X725359Y1170889D01*
X725451Y1170911D01*
X725543Y1170930D01*
X725548Y1170933D01*
X725554Y1170935D01*
X725702Y1171038D01*
X752231Y1197566D01*
X752235Y1197573D01*
X752241Y1197577D01*
X752290Y1197656D01*
X752342Y1197733D01*
X752343Y1197741D01*
X752347Y1197747D01*
X752379Y1197925D01*
X752379Y1199018D01*
X753457Y1201621D01*
X755449Y1203613D01*
X756091Y1203879D01*
X757315Y1204386D01*
X758052Y1204691D01*
X760868Y1204691D01*
X763471Y1203613D01*
X765463Y1201621D01*
X766541Y1199018D01*
X766541Y1196202D01*
X765463Y1193599D01*
X763471Y1191607D01*
X762290Y1191118D01*
X761066Y1190611D01*
X761065Y1190611D01*
X760868Y1190529D01*
X759775Y1190529D01*
X759767Y1190528D01*
X759759Y1190529D01*
X759669Y1190508D01*
X759578Y1190490D01*
X759572Y1190485D01*
X759564Y1190483D01*
X759416Y1190381D01*
X739032Y1169997D01*
X739030Y1169994D01*
X739028Y1169993D01*
X738976Y1169912D01*
X738921Y1169830D01*
X738920Y1169827D01*
X738919Y1169825D01*
X738902Y1169729D01*
X738883Y1169633D01*
X738884Y1169630D01*
X738883Y1169628D01*
X738905Y1169531D01*
X738925Y1169437D01*
X738926Y1169435D01*
X738927Y1169432D01*
X738984Y1169352D01*
X739039Y1169272D01*
X739041Y1169271D01*
X739043Y1169269D01*
X739126Y1169217D01*
X739208Y1169165D01*
X739211Y1169164D01*
X739213Y1169163D01*
X739391Y1169131D01*
X740095Y1169131D01*
X740103Y1169132D01*
X740111Y1169131D01*
X740201Y1169152D01*
X740292Y1169170D01*
X740298Y1169175D01*
X740306Y1169177D01*
X740454Y1169279D01*
X751005Y1179831D01*
X760667Y1179831D01*
X760675Y1179832D01*
X760682Y1179831D01*
X760772Y1179852D01*
X760863Y1179870D01*
X760870Y1179875D01*
X760878Y1179877D01*
X761026Y1179979D01*
X761799Y1180753D01*
X762522Y1181052D01*
X763747Y1181560D01*
X764402Y1181831D01*
X767218Y1181831D01*
X769821Y1180753D01*
X771813Y1178761D01*
X772891Y1176158D01*
X772891Y1173342D01*
X771813Y1170739D01*
X769821Y1168747D01*
X768722Y1168292D01*
X768721Y1168292D01*
X767497Y1167785D01*
X767218Y1167669D01*
X764402Y1167669D01*
X761799Y1168747D01*
X761026Y1169521D01*
X761019Y1169525D01*
X761015Y1169531D01*
X760936Y1169580D01*
X760859Y1169632D01*
X760851Y1169633D01*
X760844Y1169637D01*
X760667Y1169669D01*
X755425Y1169669D01*
X755417Y1169668D01*
X755409Y1169669D01*
X755319Y1169648D01*
X755228Y1169630D01*
X755222Y1169625D01*
X755214Y1169623D01*
X755066Y1169521D01*
X747639Y1162094D01*
X747639Y1162093D01*
X747638Y1162092D01*
X747634Y1162087D01*
X747629Y1162083D01*
X747580Y1162004D01*
X747528Y1161927D01*
X747527Y1161919D01*
X747523Y1161913D01*
X747491Y1161735D01*
X747491Y1160642D01*
X746413Y1158039D01*
X744421Y1156047D01*
X743367Y1155611D01*
X742142Y1155103D01*
X741818Y1154969D01*
X739002Y1154969D01*
X736399Y1156047D01*
X734407Y1158039D01*
X733717Y1159705D01*
X733716Y1159708D01*
X733715Y1159710D01*
X733660Y1159791D01*
X733605Y1159872D01*
X733603Y1159873D01*
X733602Y1159875D01*
X733519Y1159928D01*
X733438Y1159982D01*
X733435Y1159982D01*
X733433Y1159984D01*
X733336Y1160001D01*
X733241Y1160018D01*
X733238Y1160018D01*
X733235Y1160018D01*
X733139Y1159996D01*
X733045Y1159976D01*
X733043Y1159974D01*
X733040Y1159974D01*
X732960Y1159916D01*
X732881Y1159861D01*
X732879Y1159859D01*
X732877Y1159857D01*
X732780Y1159705D01*
X731318Y1156176D01*
X728674Y1153532D01*
X727569Y1153074D01*
X726344Y1152567D01*
X725220Y1152101D01*
X716236Y1152101D01*
X716205Y1152095D01*
X716172Y1152097D01*
X716108Y1152075D01*
X716040Y1152062D01*
X716013Y1152043D01*
X715983Y1152033D01*
X715920Y1151980D01*
X715874Y1151949D01*
X715873Y1151948D01*
X715873Y1151947D01*
X715862Y1151931D01*
X715845Y1151917D01*
X715828Y1151896D01*
X715797Y1151837D01*
X715758Y1151783D01*
X715748Y1151747D01*
X715734Y1151719D01*
X715729Y1151670D01*
X715713Y1151609D01*
X715702Y1151438D01*
X714846Y1150694D01*
X714823Y1150664D01*
X714788Y1150634D01*
X714066Y1149760D01*
X713896Y1149743D01*
X713833Y1149724D01*
X713767Y1149713D01*
X713735Y1149694D01*
X713705Y1149685D01*
X713667Y1149654D01*
X713612Y1149621D01*
X713457Y1149486D01*
X713416Y1149433D01*
X713369Y1149386D01*
X713354Y1149352D01*
X713335Y1149327D01*
X713322Y1149280D01*
X713296Y1149221D01*
X713257Y1149055D01*
X712290Y1148462D01*
X712262Y1148436D01*
X712223Y1148413D01*
X711367Y1147669D01*
X711197Y1147681D01*
X711131Y1147672D01*
X711064Y1147672D01*
X711030Y1147659D01*
X710998Y1147655D01*
X710956Y1147630D01*
X710896Y1147607D01*
X710721Y1147499D01*
X710672Y1147454D01*
X710618Y1147415D01*
X710597Y1147384D01*
X710574Y1147363D01*
X710554Y1147318D01*
X710519Y1147264D01*
X710453Y1147107D01*
X709402Y1146681D01*
X709370Y1146660D01*
X709327Y1146644D01*
X708361Y1146051D01*
X708195Y1146090D01*
X708129Y1146093D01*
X708063Y1146104D01*
X708026Y1146096D01*
X707995Y1146097D01*
X707949Y1146080D01*
X707886Y1146067D01*
X707696Y1145990D01*
X707640Y1145953D01*
X707580Y1145924D01*
X707555Y1145897D01*
X707529Y1145879D01*
X707517Y1145861D01*
X707515Y1145860D01*
X707499Y1145836D01*
X707458Y1145791D01*
X707367Y1145647D01*
X706260Y1145400D01*
X706225Y1145385D01*
X706180Y1145375D01*
X705129Y1144949D01*
X704972Y1145016D01*
X704907Y1145029D01*
X704844Y1145051D01*
X704807Y1145050D01*
X704776Y1145056D01*
X704728Y1145046D01*
X704664Y1145044D01*
X704463Y1144999D01*
X704402Y1144972D01*
X704338Y1144953D01*
X704309Y1144930D01*
X704280Y1144917D01*
X704246Y1144882D01*
X704204Y1144849D01*
X704200Y1144846D01*
X704199Y1144845D01*
X704196Y1144842D01*
X704082Y1144715D01*
X702950Y1144654D01*
X702913Y1144644D01*
X702867Y1144642D01*
X701760Y1144395D01*
X701616Y1144486D01*
X701554Y1144510D01*
X701496Y1144542D01*
X701459Y1144547D01*
X701429Y1144558D01*
X701380Y1144557D01*
X701317Y1144565D01*
X701111Y1144553D01*
X701047Y1144537D01*
X700981Y1144529D01*
X700948Y1144511D01*
X700917Y1144503D01*
X700878Y1144474D01*
X700822Y1144443D01*
X700689Y1144337D01*
X699562Y1144462D01*
X699524Y1144459D01*
X699478Y1144464D01*
X698346Y1144403D01*
X698219Y1144517D01*
X698162Y1144550D01*
X698110Y1144592D01*
X698074Y1144602D01*
X698047Y1144618D01*
X697998Y1144625D01*
X697937Y1144643D01*
X697732Y1144666D01*
X697666Y1144660D01*
X697599Y1144663D01*
X697564Y1144651D01*
X697533Y1144648D01*
X697489Y1144625D01*
X697429Y1144605D01*
X697280Y1144521D01*
X696189Y1144831D01*
X696151Y1144834D01*
X696107Y1144847D01*
X694980Y1144972D01*
X694873Y1145105D01*
X694822Y1145148D01*
X694778Y1145198D01*
X694744Y1145214D01*
X694720Y1145234D01*
X694673Y1145249D01*
X694616Y1145277D01*
X694418Y1145333D01*
X694351Y1145338D01*
X694286Y1145352D01*
X694249Y1145346D01*
X694218Y1145348D01*
X694171Y1145333D01*
X694108Y1145322D01*
X693948Y1145265D01*
X693483Y1145485D01*
X693401Y1145505D01*
X693320Y1145530D01*
X693304Y1145529D01*
X693288Y1145533D01*
X693204Y1145520D01*
X693120Y1145512D01*
X693106Y1145504D01*
X693090Y1145502D01*
X693018Y1145457D01*
X692943Y1145417D01*
X692932Y1145404D01*
X692920Y1145397D01*
X692890Y1145354D01*
X692888Y1145353D01*
X692884Y1145347D01*
X692827Y1145280D01*
X669479Y1104821D01*
X669169Y1105118D01*
X669141Y1105136D01*
X669107Y1105169D01*
X666584Y1106911D01*
X666557Y1106922D01*
X666535Y1106941D01*
X666466Y1106961D01*
X666401Y1106989D01*
X666372Y1106989D01*
X666344Y1106997D01*
X666273Y1106989D01*
X666202Y1106990D01*
X666175Y1106978D01*
X666146Y1106975D01*
X666084Y1106940D01*
X666019Y1106912D01*
X665998Y1106892D01*
X665973Y1106877D01*
X665910Y1106800D01*
X665880Y1106770D01*
X665876Y1106760D01*
X665867Y1106749D01*
X656367Y1090249D01*
X656343Y1090176D01*
X656312Y1090106D01*
X656312Y1090082D01*
X656304Y1090060D01*
X656311Y1089984D01*
X656310Y1089907D01*
X656319Y1089883D01*
X656320Y1089862D01*
X656341Y1089823D01*
X656360Y1089771D01*
X656361Y1089765D01*
X656363Y1089763D01*
X656367Y1089751D01*
X665867Y1073251D01*
X665886Y1073229D01*
X665899Y1073203D01*
X665952Y1073155D01*
X665999Y1073102D01*
X666025Y1073089D01*
X666047Y1073070D01*
X666114Y1073047D01*
X666178Y1073016D01*
X666207Y1073015D01*
X666234Y1073005D01*
X666306Y1073010D01*
X666377Y1073007D01*
X666404Y1073017D01*
X666433Y1073019D01*
X666523Y1073061D01*
X666563Y1073076D01*
X666571Y1073083D01*
X666584Y1073089D01*
X669107Y1074831D01*
X669131Y1074855D01*
X669169Y1074882D01*
X669467Y1075168D01*
X692826Y1034720D01*
X692882Y1034656D01*
X692935Y1034589D01*
X692948Y1034582D01*
X692959Y1034570D01*
X693035Y1034533D01*
X693109Y1034491D01*
X693125Y1034489D01*
X693139Y1034482D01*
X693224Y1034478D01*
X693308Y1034468D01*
X693325Y1034473D01*
X693340Y1034472D01*
X693392Y1034491D01*
X693482Y1034515D01*
X693948Y1034735D01*
X694108Y1034678D01*
X694174Y1034668D01*
X694238Y1034650D01*
X694276Y1034653D01*
X694307Y1034649D01*
X694354Y1034661D01*
X694418Y1034667D01*
X694616Y1034723D01*
X694675Y1034754D01*
X694738Y1034776D01*
X694766Y1034800D01*
X694794Y1034815D01*
X694825Y1034853D01*
X694873Y1034895D01*
X694980Y1035028D01*
X696107Y1035153D01*
X696143Y1035165D01*
X696189Y1035169D01*
X696332Y1035210D01*
X696365Y1035227D01*
X696400Y1035234D01*
X696453Y1035272D01*
X696511Y1035302D01*
X696534Y1035329D01*
X696563Y1035350D01*
X696598Y1035406D01*
X696639Y1035455D01*
X696650Y1035490D01*
X696669Y1035521D01*
X696683Y1035595D01*
X696699Y1035647D01*
X696696Y1035671D01*
X696701Y1035698D01*
X696701Y1049600D01*
X698132Y1053054D01*
X700796Y1055718D01*
X700901Y1055762D01*
X700902Y1055762D01*
X702126Y1056269D01*
X703351Y1056776D01*
X704250Y1057149D01*
X707990Y1057149D01*
X711444Y1055718D01*
X714088Y1053074D01*
X715519Y1049620D01*
X715519Y1045842D01*
X715499Y1045731D01*
X715499Y1028969D01*
X715504Y1028944D01*
X715501Y1028918D01*
X715523Y1028846D01*
X715538Y1028773D01*
X715553Y1028751D01*
X715560Y1028727D01*
X715619Y1028653D01*
X715651Y1028607D01*
X715663Y1028599D01*
X715673Y1028586D01*
X715702Y1028562D01*
X715713Y1028391D01*
X715731Y1028327D01*
X715740Y1028261D01*
X715758Y1028229D01*
X715767Y1028198D01*
X715797Y1028159D01*
X715828Y1028104D01*
X715959Y1027945D01*
X716011Y1027903D01*
X716056Y1027855D01*
X716090Y1027839D01*
X716115Y1027819D01*
X716162Y1027805D01*
X716219Y1027778D01*
X716384Y1027734D01*
X716952Y1026752D01*
X716977Y1026724D01*
X717000Y1026683D01*
X717721Y1025809D01*
X717705Y1025639D01*
X717711Y1025573D01*
X717709Y1025506D01*
X717722Y1025471D01*
X717725Y1025439D01*
X717749Y1025396D01*
X717770Y1025336D01*
X717873Y1025158D01*
X717918Y1025108D01*
X717955Y1025053D01*
X717985Y1025032D01*
X718006Y1025008D01*
X718050Y1024987D01*
X718103Y1024950D01*
X718258Y1024880D01*
X718656Y1023818D01*
X718676Y1023786D01*
X718692Y1023743D01*
X719260Y1022761D01*
X719216Y1022596D01*
X719211Y1022530D01*
X719198Y1022464D01*
X719205Y1022428D01*
X719203Y1022396D01*
X719219Y1022350D01*
X719231Y1022287D01*
X719303Y1022094D01*
X719338Y1022038D01*
X719366Y1021977D01*
X719392Y1021951D01*
X719409Y1021924D01*
X719449Y1021896D01*
X719495Y1021852D01*
X719637Y1021756D01*
X719855Y1020644D01*
X719869Y1020608D01*
X719877Y1020563D01*
X720276Y1019501D01*
X720205Y1019346D01*
X720190Y1019281D01*
X720167Y1019219D01*
X720167Y1019182D01*
X720160Y1019151D01*
X720168Y1019103D01*
X720169Y1019039D01*
X720209Y1018837D01*
X720234Y1018775D01*
X720251Y1018711D01*
X720273Y1018681D01*
X720285Y1018652D01*
X720320Y1018617D01*
X720358Y1018566D01*
X720482Y1018449D01*
X720514Y1017315D01*
X720523Y1017278D01*
X720523Y1017232D01*
X720742Y1016119D01*
X720646Y1015978D01*
X720621Y1015916D01*
X720587Y1015859D01*
X720582Y1015822D01*
X720570Y1015793D01*
X720570Y1015744D01*
X720560Y1015680D01*
X720566Y1015475D01*
X720581Y1015410D01*
X720587Y1015343D01*
X720604Y1015310D01*
X720611Y1015279D01*
X720640Y1015240D01*
X720669Y1015183D01*
X720772Y1015047D01*
X720617Y1013924D01*
X720619Y1013886D01*
X720612Y1013840D01*
X720644Y1012707D01*
X720527Y1012583D01*
X720492Y1012526D01*
X720449Y1012475D01*
X720438Y1012439D01*
X720421Y1012413D01*
X720413Y1012364D01*
X720393Y1012304D01*
X720365Y1012100D01*
X720369Y1012033D01*
X720364Y1011967D01*
X720375Y1011931D01*
X720377Y1011900D01*
X720399Y1011856D01*
X720418Y1011795D01*
X720498Y1011644D01*
X720160Y1010561D01*
X720156Y1010523D01*
X720141Y1010480D01*
X719986Y1009356D01*
X719851Y1009253D01*
X719806Y1009204D01*
X719756Y1009160D01*
X719739Y1009127D01*
X719718Y1009103D01*
X719702Y1009057D01*
X719673Y1009000D01*
X719611Y1008804D01*
X719604Y1008737D01*
X719589Y1008673D01*
X719594Y1008636D01*
X719591Y1008604D01*
X719605Y1008557D01*
X719614Y1008494D01*
X719667Y1008332D01*
X719156Y1007320D01*
X719146Y1007283D01*
X719124Y1007243D01*
X718786Y1006160D01*
X718635Y1006081D01*
X718584Y1006039D01*
X718527Y1006004D01*
X718504Y1005974D01*
X718480Y1005955D01*
X718457Y1005911D01*
X718418Y1005860D01*
X718325Y1005677D01*
X718308Y1005612D01*
X718281Y1005551D01*
X718280Y1005514D01*
X718272Y1005483D01*
X718278Y1005435D01*
X718277Y1005371D01*
X718303Y1005202D01*
X717632Y1004288D01*
X717616Y1004254D01*
X717588Y1004217D01*
X717077Y1003205D01*
X716914Y1003152D01*
X716857Y1003119D01*
X716795Y1003094D01*
X716768Y1003068D01*
X716740Y1003053D01*
X716710Y1003014D01*
X716664Y1002970D01*
X716542Y1002804D01*
X716514Y1002744D01*
X716478Y1002687D01*
X716471Y1002651D01*
X716458Y1002622D01*
X716456Y1002573D01*
X716444Y1002511D01*
X716442Y1002340D01*
X715629Y1001549D01*
X715608Y1001517D01*
X715574Y1001486D01*
X714904Y1000572D01*
X714735Y1000546D01*
X714672Y1000523D01*
X714607Y1000509D01*
X714576Y1000488D01*
X714547Y1000477D01*
X714511Y1000443D01*
X714458Y1000408D01*
X714311Y1000264D01*
X714273Y1000209D01*
X714228Y1000160D01*
X714215Y1000125D01*
X714197Y1000099D01*
X714188Y1000051D01*
X714165Y999991D01*
X714135Y999823D01*
X713694Y999517D01*
X713635Y999456D01*
X713573Y999398D01*
X713566Y999384D01*
X713555Y999372D01*
X713525Y999293D01*
X713489Y999216D01*
X713489Y999200D01*
X713483Y999185D01*
X713486Y999100D01*
X713483Y999016D01*
X713489Y999000D01*
X713489Y998985D01*
X713513Y998933D01*
X713544Y998846D01*
X736904Y958397D01*
X736528Y958288D01*
X736498Y958272D01*
X736453Y958260D01*
X733687Y956951D01*
X733664Y956934D01*
X733637Y956924D01*
X733585Y956875D01*
X733527Y956832D01*
X733513Y956807D01*
X733492Y956788D01*
X733463Y956722D01*
X733427Y956660D01*
X733424Y956632D01*
X733412Y956606D01*
X733411Y956534D01*
X733402Y956463D01*
X733410Y956436D01*
X733410Y956407D01*
X733445Y956312D01*
X733456Y956272D01*
X733463Y956263D01*
X733467Y956251D01*
X742824Y940000D01*
X733467Y923749D01*
X733458Y923722D01*
X733442Y923698D01*
X733427Y923628D01*
X733404Y923560D01*
X733407Y923532D01*
X733401Y923504D01*
X733415Y923434D01*
X733420Y923362D01*
X733433Y923337D01*
X733439Y923309D01*
X733479Y923249D01*
X733512Y923186D01*
X733534Y923168D01*
X733550Y923144D01*
X733633Y923086D01*
X733665Y923059D01*
X733676Y923056D01*
X733687Y923049D01*
X736453Y921740D01*
X736486Y921732D01*
X736528Y921712D01*
X736881Y921610D01*
X713529Y881164D01*
X713503Y881084D01*
X713471Y881005D01*
X713471Y880989D01*
X713466Y880974D01*
X713472Y880889D01*
X713473Y880805D01*
X713479Y880790D01*
X713480Y880774D01*
X713519Y880698D01*
X713552Y880621D01*
X713564Y880609D01*
X713571Y880595D01*
X713614Y880559D01*
X713679Y880493D01*
X714135Y880177D01*
X714165Y880009D01*
X714190Y879947D01*
X714206Y879882D01*
X714228Y879852D01*
X714239Y879823D01*
X714274Y879788D01*
X714311Y879736D01*
X714458Y879592D01*
X714514Y879556D01*
X714565Y879513D01*
X714600Y879501D01*
X714626Y879483D01*
X714675Y879475D01*
X714735Y879454D01*
X714904Y879428D01*
X715574Y878514D01*
X715603Y878489D01*
X715629Y878451D01*
X716442Y877660D01*
X716444Y877489D01*
X716458Y877424D01*
X716463Y877358D01*
X716479Y877324D01*
X716486Y877293D01*
X716514Y877253D01*
X716542Y877196D01*
X716664Y877030D01*
X716713Y876985D01*
X716756Y876934D01*
X716789Y876916D01*
X716812Y876895D01*
X716858Y876879D01*
X716914Y876848D01*
X717077Y876795D01*
X717588Y875783D01*
X717611Y875753D01*
X717632Y875712D01*
X718303Y874798D01*
X718277Y874629D01*
X718280Y874562D01*
X718274Y874496D01*
X718285Y874460D01*
X718286Y874429D01*
X718307Y874385D01*
X718325Y874323D01*
X718418Y874140D01*
X718459Y874087D01*
X718493Y874030D01*
X718523Y874007D01*
X718542Y873982D01*
X718585Y873958D01*
X718635Y873919D01*
X718786Y873840D01*
X719124Y872757D01*
X719142Y872724D01*
X719156Y872680D01*
X719667Y871668D01*
X719633Y871564D01*
X719623Y871480D01*
X719608Y871396D01*
X719611Y871381D01*
X719609Y871365D01*
X719633Y871283D01*
X719651Y871200D01*
X719660Y871187D01*
X719664Y871173D01*
X719718Y871106D01*
X719767Y871037D01*
X719780Y871028D01*
X719790Y871016D01*
X719865Y870976D01*
X719937Y870931D01*
X719954Y870928D01*
X719966Y870921D01*
X720022Y870915D01*
X720115Y870899D01*
X732120Y870899D01*
X735574Y869468D01*
X737610Y867432D01*
X737614Y867429D01*
X737617Y867425D01*
X737697Y867374D01*
X737777Y867321D01*
X737782Y867320D01*
X737786Y867317D01*
X737880Y867302D01*
X737973Y867284D01*
X737979Y867285D01*
X737984Y867284D01*
X738076Y867305D01*
X738170Y867325D01*
X738174Y867328D01*
X738179Y867329D01*
X738327Y867432D01*
X745881Y874986D01*
X745885Y874993D01*
X745891Y874997D01*
X745940Y875076D01*
X745992Y875153D01*
X745993Y875161D01*
X745997Y875167D01*
X746029Y875345D01*
X746029Y876438D01*
X747107Y879041D01*
X749099Y881033D01*
X749666Y881268D01*
X750890Y881775D01*
X750891Y881775D01*
X751702Y882111D01*
X754518Y882111D01*
X757121Y881033D01*
X759113Y879041D01*
X760191Y876438D01*
X760191Y873622D01*
X759113Y871019D01*
X757121Y869027D01*
X757090Y869014D01*
X755865Y868507D01*
X754641Y868000D01*
X754640Y868000D01*
X754518Y867949D01*
X753425Y867949D01*
X753417Y867948D01*
X753409Y867949D01*
X753319Y867928D01*
X753228Y867910D01*
X753222Y867905D01*
X753214Y867903D01*
X753066Y867801D01*
X744897Y859632D01*
X744892Y859624D01*
X744885Y859619D01*
X744787Y859467D01*
X744318Y858334D01*
X742746Y856762D01*
X741710Y856333D01*
X740692Y855911D01*
X738163Y855911D01*
X738155Y855910D01*
X738148Y855911D01*
X738058Y855890D01*
X737967Y855872D01*
X737960Y855867D01*
X737953Y855865D01*
X737805Y855763D01*
X735574Y853532D01*
X734989Y853290D01*
X734988Y853290D01*
X733764Y852782D01*
X732539Y852275D01*
X732120Y852101D01*
X716236Y852101D01*
X716205Y852095D01*
X716173Y852097D01*
X716108Y852075D01*
X716040Y852062D01*
X716013Y852044D01*
X715983Y852033D01*
X715920Y851980D01*
X715874Y851949D01*
X715863Y851932D01*
X715845Y851917D01*
X715828Y851896D01*
X715797Y851837D01*
X715758Y851783D01*
X715749Y851747D01*
X715734Y851720D01*
X715729Y851671D01*
X715713Y851609D01*
X715702Y851438D01*
X714846Y850694D01*
X714823Y850664D01*
X714788Y850634D01*
X714066Y849760D01*
X713896Y849743D01*
X713833Y849724D01*
X713767Y849713D01*
X713735Y849694D01*
X713705Y849685D01*
X713667Y849654D01*
X713612Y849621D01*
X713457Y849486D01*
X713416Y849433D01*
X713369Y849386D01*
X713354Y849352D01*
X713335Y849327D01*
X713322Y849280D01*
X713296Y849221D01*
X713257Y849055D01*
X712290Y848462D01*
X712262Y848436D01*
X712223Y848413D01*
X711367Y847669D01*
X711197Y847681D01*
X711131Y847672D01*
X711064Y847672D01*
X711030Y847659D01*
X710998Y847655D01*
X710956Y847630D01*
X710896Y847607D01*
X710721Y847499D01*
X710672Y847454D01*
X710618Y847415D01*
X710597Y847384D01*
X710574Y847363D01*
X710554Y847318D01*
X710519Y847264D01*
X710453Y847107D01*
X709402Y846681D01*
X709370Y846660D01*
X709327Y846644D01*
X708361Y846051D01*
X708195Y846090D01*
X708129Y846093D01*
X708063Y846104D01*
X708026Y846096D01*
X707995Y846097D01*
X707949Y846080D01*
X707886Y846067D01*
X707696Y845990D01*
X707640Y845953D01*
X707580Y845924D01*
X707555Y845897D01*
X707529Y845879D01*
X707501Y845838D01*
X707458Y845791D01*
X707367Y845647D01*
X706260Y845400D01*
X706225Y845385D01*
X706180Y845375D01*
X705129Y844949D01*
X704972Y845016D01*
X704907Y845029D01*
X704844Y845051D01*
X704807Y845050D01*
X704776Y845056D01*
X704728Y845046D01*
X704664Y845044D01*
X704463Y844999D01*
X704402Y844972D01*
X704338Y844953D01*
X704309Y844930D01*
X704280Y844917D01*
X704246Y844882D01*
X704196Y844842D01*
X704082Y844715D01*
X702950Y844654D01*
X702913Y844644D01*
X702867Y844642D01*
X701760Y844395D01*
X701616Y844486D01*
X701554Y844510D01*
X701496Y844542D01*
X701459Y844547D01*
X701429Y844558D01*
X701380Y844557D01*
X701317Y844565D01*
X701111Y844553D01*
X701047Y844537D01*
X700981Y844529D01*
X700948Y844511D01*
X700917Y844503D01*
X700878Y844474D01*
X700822Y844443D01*
X700689Y844337D01*
X699562Y844462D01*
X699524Y844459D01*
X699478Y844464D01*
X698346Y844403D01*
X698219Y844517D01*
X698162Y844550D01*
X698110Y844592D01*
X698074Y844602D01*
X698047Y844618D01*
X697998Y844625D01*
X697937Y844643D01*
X697732Y844666D01*
X697666Y844660D01*
X697599Y844663D01*
X697564Y844651D01*
X697533Y844648D01*
X697489Y844625D01*
X697429Y844605D01*
X697280Y844521D01*
X696189Y844831D01*
X696151Y844834D01*
X696107Y844847D01*
X694980Y844972D01*
X694873Y845105D01*
X694822Y845148D01*
X694777Y845198D01*
X694744Y845214D01*
X694720Y845234D01*
X694673Y845249D01*
X694616Y845277D01*
X694418Y845333D01*
X694351Y845338D01*
X694286Y845352D01*
X694249Y845346D01*
X694218Y845348D01*
X694171Y845333D01*
X694108Y845322D01*
X693948Y845265D01*
X693472Y845490D01*
X693389Y845510D01*
X693308Y845536D01*
X693292Y845534D01*
X693277Y845538D01*
X693193Y845525D01*
X693109Y845517D01*
X693095Y845510D01*
X693079Y845507D01*
X693007Y845463D01*
X692932Y845423D01*
X692921Y845410D01*
X692908Y845402D01*
X692876Y845356D01*
X692816Y845285D01*
X669463Y804836D01*
X669169Y805118D01*
X669141Y805136D01*
X669107Y805169D01*
X666584Y806911D01*
X666557Y806922D01*
X666535Y806941D01*
X666466Y806961D01*
X666401Y806989D01*
X666372Y806989D01*
X666344Y806997D01*
X666273Y806989D01*
X666202Y806990D01*
X666175Y806978D01*
X666146Y806975D01*
X666084Y806940D01*
X666019Y806912D01*
X665998Y806892D01*
X665973Y806877D01*
X665910Y806800D01*
X665880Y806770D01*
X665876Y806760D01*
X665867Y806749D01*
X656367Y790249D01*
X656343Y790176D01*
X656312Y790106D01*
X656312Y790082D01*
X656304Y790060D01*
X656311Y789984D01*
X656310Y789907D01*
X656319Y789883D01*
X656320Y789862D01*
X656341Y789823D01*
X656360Y789771D01*
X656361Y789765D01*
X656363Y789763D01*
X656367Y789751D01*
X665867Y773251D01*
X665886Y773229D01*
X665899Y773203D01*
X665952Y773155D01*
X665999Y773102D01*
X666025Y773089D01*
X666047Y773070D01*
X666114Y773047D01*
X666178Y773016D01*
X666207Y773015D01*
X666234Y773005D01*
X666306Y773010D01*
X666377Y773007D01*
X666404Y773017D01*
X666433Y773019D01*
X666523Y773061D01*
X666563Y773076D01*
X666571Y773083D01*
X666584Y773089D01*
X669107Y774831D01*
X669131Y774855D01*
X669169Y774882D01*
X669476Y775176D01*
X692830Y734722D01*
X692887Y734658D01*
X692939Y734591D01*
X692952Y734584D01*
X692963Y734572D01*
X693039Y734535D01*
X693113Y734493D01*
X693129Y734491D01*
X693143Y734484D01*
X693228Y734480D01*
X693313Y734470D01*
X693329Y734475D01*
X693344Y734474D01*
X693396Y734493D01*
X693486Y734517D01*
X693948Y734735D01*
X694108Y734678D01*
X694174Y734668D01*
X694238Y734650D01*
X694276Y734653D01*
X694307Y734649D01*
X694354Y734661D01*
X694418Y734667D01*
X694616Y734723D01*
X694675Y734754D01*
X694738Y734776D01*
X694766Y734801D01*
X694794Y734815D01*
X694825Y734853D01*
X694873Y734895D01*
X694980Y735028D01*
X696107Y735153D01*
X696143Y735165D01*
X696189Y735169D01*
X697280Y735479D01*
X697429Y735395D01*
X697492Y735375D01*
X697552Y735346D01*
X697590Y735344D01*
X697620Y735334D01*
X697668Y735339D01*
X697732Y735334D01*
X697937Y735357D01*
X698000Y735377D01*
X698066Y735389D01*
X698098Y735408D01*
X698128Y735418D01*
X698165Y735450D01*
X698219Y735483D01*
X698346Y735597D01*
X699478Y735536D01*
X699516Y735541D01*
X699562Y735538D01*
X700689Y735663D01*
X700822Y735557D01*
X700882Y735526D01*
X700936Y735488D01*
X700972Y735480D01*
X701000Y735465D01*
X701049Y735461D01*
X701111Y735447D01*
X701317Y735435D01*
X701383Y735445D01*
X701450Y735446D01*
X701484Y735460D01*
X701515Y735464D01*
X701557Y735490D01*
X701616Y735514D01*
X701760Y735605D01*
X702867Y735358D01*
X702905Y735357D01*
X702950Y735346D01*
X704082Y735285D01*
X704196Y735158D01*
X704249Y735118D01*
X704297Y735071D01*
X704331Y735057D01*
X704357Y735038D01*
X704404Y735026D01*
X704463Y735001D01*
X704664Y734956D01*
X704730Y734955D01*
X704796Y734945D01*
X704833Y734953D01*
X704864Y734952D01*
X704910Y734970D01*
X704972Y734984D01*
X705129Y735051D01*
X706180Y734625D01*
X706218Y734618D01*
X706260Y734600D01*
X707367Y734353D01*
X707458Y734209D01*
X707504Y734160D01*
X707543Y734107D01*
X707575Y734087D01*
X707597Y734064D01*
X707642Y734044D01*
X707696Y734010D01*
X707886Y733933D01*
X707952Y733921D01*
X708015Y733900D01*
X708052Y733902D01*
X708083Y733896D01*
X708131Y733906D01*
X708195Y733910D01*
X708361Y733949D01*
X709327Y733356D01*
X709363Y733343D01*
X709402Y733319D01*
X710453Y732893D01*
X710519Y732735D01*
X710557Y732680D01*
X710587Y732621D01*
X710614Y732596D01*
X710632Y732570D01*
X710673Y732543D01*
X710721Y732501D01*
X710897Y732393D01*
X710959Y732370D01*
X711018Y732339D01*
X711055Y732335D01*
X711085Y732324D01*
X711134Y732326D01*
X711197Y732319D01*
X711367Y732331D01*
X712223Y731587D01*
X712256Y731569D01*
X712290Y731538D01*
X713257Y730945D01*
X713296Y730779D01*
X713324Y730718D01*
X713344Y730654D01*
X713367Y730625D01*
X713381Y730597D01*
X713417Y730564D01*
X713457Y730514D01*
X713612Y730379D01*
X713670Y730346D01*
X713723Y730306D01*
X713759Y730295D01*
X713786Y730280D01*
X713835Y730274D01*
X713896Y730257D01*
X714066Y730240D01*
X714788Y729366D01*
X714817Y729342D01*
X714846Y729306D01*
X715702Y728562D01*
X715713Y728391D01*
X715731Y728327D01*
X715740Y728261D01*
X715758Y728229D01*
X715767Y728198D01*
X715797Y728160D01*
X715828Y728104D01*
X715845Y728083D01*
X715870Y728063D01*
X715889Y728037D01*
X715947Y728000D01*
X716001Y727957D01*
X716032Y727948D01*
X716059Y727931D01*
X716140Y727916D01*
X716193Y727901D01*
X716213Y727903D01*
X716236Y727899D01*
X742600Y727899D01*
X746054Y726468D01*
X748698Y723824D01*
X750129Y720370D01*
X750129Y716553D01*
X750119Y716504D01*
X750120Y716497D01*
X750119Y716491D01*
X750141Y716399D01*
X750160Y716307D01*
X750163Y716302D01*
X750165Y716296D01*
X750268Y716148D01*
X772846Y693569D01*
X772853Y693565D01*
X772857Y693559D01*
X772936Y693510D01*
X773013Y693458D01*
X773021Y693457D01*
X773027Y693453D01*
X773205Y693421D01*
X778767Y693421D01*
X778769Y693421D01*
X778772Y693421D01*
X778867Y693441D01*
X778963Y693460D01*
X778966Y693462D01*
X778968Y693462D01*
X779049Y693518D01*
X779129Y693573D01*
X779131Y693575D01*
X779133Y693577D01*
X779186Y693660D01*
X779238Y693741D01*
X779239Y693744D01*
X779240Y693746D01*
X779256Y693841D01*
X779274Y693938D01*
X779273Y693941D01*
X779274Y693943D01*
X779252Y694037D01*
X779230Y694134D01*
X779229Y694136D01*
X779228Y694139D01*
X779126Y694287D01*
X776731Y696681D01*
X776731Y705519D01*
X782981Y711769D01*
X785604Y711769D01*
X785656Y711779D01*
X785763Y711794D01*
X791183Y713582D01*
X791208Y713596D01*
X791235Y713603D01*
X791309Y713654D01*
X791358Y713681D01*
X791368Y713695D01*
X791383Y713705D01*
X794871Y717193D01*
X794875Y717199D01*
X794881Y717204D01*
X794930Y717283D01*
X794982Y717360D01*
X794983Y717367D01*
X794987Y717374D01*
X795019Y717551D01*
X795019Y717807D01*
X795019Y717809D01*
X795019Y717812D01*
X794999Y717907D01*
X794980Y718003D01*
X794978Y718006D01*
X794978Y718008D01*
X794922Y718089D01*
X794867Y718169D01*
X794865Y718171D01*
X794863Y718173D01*
X794780Y718226D01*
X794699Y718278D01*
X794696Y718279D01*
X794694Y718280D01*
X794598Y718297D01*
X794502Y718314D01*
X794499Y718313D01*
X794497Y718314D01*
X794403Y718292D01*
X794306Y718270D01*
X794304Y718269D01*
X794301Y718268D01*
X794153Y718166D01*
X791819Y715831D01*
X782981Y715831D01*
X776731Y722081D01*
X776731Y730919D01*
X782981Y737169D01*
X791819Y737169D01*
X795468Y733520D01*
X795472Y733517D01*
X795475Y733513D01*
X795555Y733462D01*
X795635Y733409D01*
X795640Y733408D01*
X795644Y733405D01*
X795738Y733390D01*
X795831Y733372D01*
X795837Y733373D01*
X795842Y733372D01*
X795934Y733393D01*
X796028Y733413D01*
X796032Y733416D01*
X796037Y733417D01*
X796185Y733520D01*
X805031Y742366D01*
X805780Y743115D01*
X805783Y743119D01*
X805787Y743122D01*
X805838Y743202D01*
X805891Y743282D01*
X805892Y743287D01*
X805895Y743292D01*
X805910Y743385D01*
X805928Y743479D01*
X805927Y743484D01*
X805928Y743489D01*
X805907Y743582D01*
X805887Y743675D01*
X805884Y743679D01*
X805883Y743684D01*
X805780Y743832D01*
X802131Y747481D01*
X802131Y756319D01*
X808381Y762569D01*
X817219Y762569D01*
X823469Y756319D01*
X823469Y751869D01*
X823469Y751866D01*
X823469Y751863D01*
X823489Y751769D01*
X823508Y751672D01*
X823510Y751670D01*
X823510Y751667D01*
X823566Y751587D01*
X823621Y751506D01*
X823623Y751505D01*
X823625Y751503D01*
X823708Y751449D01*
X823789Y751397D01*
X823792Y751397D01*
X823794Y751395D01*
X823890Y751379D01*
X823986Y751361D01*
X823989Y751362D01*
X823991Y751362D01*
X824085Y751383D01*
X824182Y751405D01*
X824184Y751407D01*
X824187Y751407D01*
X824335Y751510D01*
X836869Y764044D01*
X836873Y764051D01*
X836879Y764055D01*
X836928Y764134D01*
X836980Y764211D01*
X836981Y764219D01*
X836985Y764225D01*
X837017Y764403D01*
X837017Y775765D01*
X838803Y777551D01*
X852329Y777551D01*
X854115Y775765D01*
X854115Y775090D01*
X854116Y775085D01*
X854115Y775080D01*
X854136Y774987D01*
X854154Y774893D01*
X854157Y774889D01*
X854158Y774884D01*
X854214Y774806D01*
X854267Y774728D01*
X854271Y774725D01*
X854274Y774721D01*
X854356Y774670D01*
X854435Y774618D01*
X854440Y774618D01*
X854445Y774615D01*
X854622Y774583D01*
X857504Y774583D01*
X857509Y774584D01*
X857514Y774583D01*
X857607Y774604D01*
X857701Y774622D01*
X857705Y774625D01*
X857710Y774626D01*
X857788Y774682D01*
X857866Y774735D01*
X857869Y774739D01*
X857873Y774742D01*
X857924Y774824D01*
X857976Y774903D01*
X857976Y774908D01*
X857979Y774913D01*
X858011Y775090D01*
X858011Y780535D01*
X859797Y782321D01*
X867911Y782321D01*
X869697Y780535D01*
X869697Y758197D01*
X867911Y756411D01*
X859797Y756411D01*
X858011Y758197D01*
X858011Y763914D01*
X858010Y763919D01*
X858011Y763924D01*
X857990Y764017D01*
X857972Y764111D01*
X857969Y764115D01*
X857968Y764120D01*
X857912Y764198D01*
X857859Y764276D01*
X857855Y764279D01*
X857852Y764283D01*
X857770Y764334D01*
X857691Y764386D01*
X857686Y764386D01*
X857681Y764389D01*
X857504Y764421D01*
X854622Y764421D01*
X854617Y764420D01*
X854612Y764421D01*
X854519Y764400D01*
X854425Y764382D01*
X854421Y764379D01*
X854416Y764378D01*
X854338Y764322D01*
X854260Y764269D01*
X854257Y764265D01*
X854253Y764262D01*
X854202Y764180D01*
X854150Y764101D01*
X854150Y764096D01*
X854147Y764091D01*
X854115Y763914D01*
X854115Y763239D01*
X852329Y761453D01*
X848859Y761453D01*
X848851Y761452D01*
X848843Y761453D01*
X848753Y761432D01*
X848662Y761414D01*
X848656Y761409D01*
X848648Y761407D01*
X848500Y761305D01*
X822525Y735329D01*
X820283Y735329D01*
X820281Y735329D01*
X820278Y735329D01*
X820183Y735309D01*
X820087Y735290D01*
X820084Y735288D01*
X820082Y735288D01*
X820001Y735232D01*
X819921Y735177D01*
X819919Y735175D01*
X819917Y735173D01*
X819864Y735090D01*
X819812Y735009D01*
X819811Y735006D01*
X819810Y735004D01*
X819793Y734908D01*
X819776Y734812D01*
X819777Y734809D01*
X819776Y734807D01*
X819798Y734713D01*
X819820Y734616D01*
X819821Y734614D01*
X819822Y734611D01*
X819924Y734463D01*
X823469Y730919D01*
X823469Y722081D01*
X817219Y715831D01*
X808381Y715831D01*
X806047Y718166D01*
X806044Y718167D01*
X806043Y718169D01*
X805962Y718222D01*
X805880Y718276D01*
X805877Y718277D01*
X805875Y718278D01*
X805779Y718296D01*
X805683Y718314D01*
X805680Y718314D01*
X805678Y718314D01*
X805581Y718293D01*
X805487Y718272D01*
X805485Y718271D01*
X805482Y718270D01*
X805402Y718214D01*
X805322Y718158D01*
X805321Y718156D01*
X805319Y718154D01*
X805267Y718072D01*
X805215Y717989D01*
X805214Y717986D01*
X805213Y717984D01*
X805181Y717807D01*
X805181Y717551D01*
X805182Y717544D01*
X805181Y717536D01*
X805202Y717446D01*
X805220Y717355D01*
X805225Y717348D01*
X805227Y717341D01*
X805241Y717320D01*
X806197Y715013D01*
X806197Y712587D01*
X805269Y710347D01*
X800005Y705083D01*
X799990Y705060D01*
X799968Y705042D01*
X799926Y704963D01*
X799894Y704916D01*
X799891Y704900D01*
X799886Y704892D01*
X799886Y704889D01*
X799882Y704883D01*
X798094Y699463D01*
X798088Y699411D01*
X798069Y699304D01*
X798069Y696681D01*
X795674Y694287D01*
X795673Y694284D01*
X795671Y694283D01*
X795618Y694202D01*
X795564Y694120D01*
X795563Y694117D01*
X795562Y694115D01*
X795544Y694019D01*
X795526Y693923D01*
X795526Y693920D01*
X795526Y693918D01*
X795547Y693821D01*
X795568Y693727D01*
X795569Y693725D01*
X795570Y693722D01*
X795626Y693642D01*
X795682Y693562D01*
X795684Y693561D01*
X795686Y693559D01*
X795768Y693507D01*
X795851Y693455D01*
X795854Y693454D01*
X795856Y693453D01*
X796033Y693421D01*
X804167Y693421D01*
X804169Y693421D01*
X804172Y693421D01*
X804267Y693441D01*
X804363Y693460D01*
X804366Y693462D01*
X804368Y693462D01*
X804449Y693518D01*
X804529Y693573D01*
X804531Y693575D01*
X804533Y693577D01*
X804586Y693660D01*
X804638Y693741D01*
X804639Y693744D01*
X804640Y693746D01*
X804656Y693841D01*
X804674Y693938D01*
X804673Y693941D01*
X804674Y693943D01*
X804652Y694037D01*
X804630Y694134D01*
X804629Y694136D01*
X804628Y694139D01*
X804526Y694287D01*
X802131Y696681D01*
X802131Y705519D01*
X808381Y711769D01*
X811004Y711769D01*
X811056Y711779D01*
X811163Y711794D01*
X816583Y713582D01*
X816608Y713596D01*
X816635Y713603D01*
X816709Y713654D01*
X816758Y713681D01*
X816768Y713695D01*
X816783Y713705D01*
X846147Y743069D01*
X846694Y743296D01*
X846695Y743296D01*
X847919Y743803D01*
X848387Y743997D01*
X850813Y743997D01*
X851120Y743869D01*
X851129Y743868D01*
X851137Y743863D01*
X851314Y743831D01*
X853274Y743831D01*
X853279Y743832D01*
X853284Y743831D01*
X853377Y743852D01*
X853471Y743870D01*
X853475Y743873D01*
X853480Y743874D01*
X853558Y743930D01*
X853636Y743983D01*
X853639Y743987D01*
X853643Y743990D01*
X853694Y744072D01*
X853746Y744151D01*
X853746Y744156D01*
X853749Y744161D01*
X853781Y744338D01*
X853781Y745013D01*
X855567Y746799D01*
X862983Y746799D01*
X862991Y746800D01*
X862999Y746799D01*
X863089Y746820D01*
X863180Y746838D01*
X863186Y746843D01*
X863194Y746845D01*
X863342Y746947D01*
X871325Y754930D01*
X871329Y754937D01*
X871335Y754941D01*
X871384Y755020D01*
X871436Y755097D01*
X871437Y755105D01*
X871441Y755111D01*
X871473Y755289D01*
X871473Y757225D01*
X871472Y757233D01*
X871473Y757241D01*
X871452Y757330D01*
X871434Y757422D01*
X871429Y757428D01*
X871427Y757436D01*
X871325Y757584D01*
X870711Y758197D01*
X870711Y780535D01*
X872497Y782321D01*
X880611Y782321D01*
X882291Y780640D01*
X882294Y780639D01*
X882295Y780637D01*
X882376Y780584D01*
X882458Y780529D01*
X882461Y780529D01*
X882463Y780527D01*
X882559Y780510D01*
X882655Y780492D01*
X882658Y780492D01*
X882660Y780492D01*
X882757Y780513D01*
X882851Y780533D01*
X882853Y780535D01*
X882856Y780535D01*
X882936Y780592D01*
X883016Y780648D01*
X883017Y780650D01*
X883019Y780651D01*
X883071Y780734D01*
X883123Y780817D01*
X883124Y780819D01*
X883125Y780822D01*
X883157Y780999D01*
X883157Y783787D01*
X884085Y786027D01*
X901041Y802983D01*
X901447Y803151D01*
X902672Y803658D01*
X903281Y803911D01*
X913029Y803911D01*
X913037Y803912D01*
X913045Y803911D01*
X913135Y803932D01*
X913226Y803950D01*
X913232Y803955D01*
X913240Y803957D01*
X913388Y804059D01*
X915756Y806428D01*
X916418Y806702D01*
X917642Y807209D01*
X918867Y807716D01*
X919491Y807975D01*
X937757Y807975D01*
X941492Y806428D01*
X944350Y803570D01*
X945897Y799835D01*
X945897Y795793D01*
X944350Y792058D01*
X941492Y789200D01*
X940692Y788869D01*
X939467Y788362D01*
X938243Y787854D01*
X937757Y787653D01*
X919491Y787653D01*
X915756Y789200D01*
X913388Y791569D01*
X913381Y791573D01*
X913377Y791579D01*
X913298Y791628D01*
X913221Y791680D01*
X913213Y791681D01*
X913207Y791685D01*
X913029Y791717D01*
X907229Y791717D01*
X907222Y791716D01*
X907214Y791717D01*
X907124Y791696D01*
X907033Y791678D01*
X907026Y791673D01*
X907019Y791671D01*
X906871Y791569D01*
X895499Y780197D01*
X895495Y780191D01*
X895489Y780186D01*
X895440Y780107D01*
X895388Y780030D01*
X895387Y780023D01*
X895383Y780016D01*
X895351Y779839D01*
X895351Y768153D01*
X895135Y767633D01*
X895134Y767624D01*
X895129Y767616D01*
X895097Y767439D01*
X895097Y758197D01*
X894483Y757584D01*
X894479Y757577D01*
X894473Y757573D01*
X894424Y757494D01*
X894372Y757417D01*
X894371Y757409D01*
X894367Y757402D01*
X894335Y757225D01*
X894335Y747306D01*
X894335Y747305D01*
X894335Y747304D01*
X894336Y747300D01*
X894335Y747296D01*
X894356Y747203D01*
X894374Y747109D01*
X894377Y747105D01*
X894378Y747100D01*
X894434Y747022D01*
X894487Y746944D01*
X894491Y746941D01*
X894494Y746937D01*
X894576Y746886D01*
X894655Y746834D01*
X894660Y746834D01*
X894665Y746831D01*
X894842Y746799D01*
X900843Y746799D01*
X902629Y745013D01*
X902629Y732487D01*
X900843Y730701D01*
X887317Y730701D01*
X885531Y732487D01*
X885531Y739903D01*
X885530Y739911D01*
X885531Y739919D01*
X885510Y740009D01*
X885492Y740100D01*
X885487Y740106D01*
X885485Y740114D01*
X885383Y740262D01*
X884173Y741471D01*
X884173Y757225D01*
X884172Y757233D01*
X884173Y757241D01*
X884152Y757331D01*
X884134Y757422D01*
X884129Y757428D01*
X884127Y757436D01*
X884025Y757584D01*
X883411Y758197D01*
X883411Y767439D01*
X883401Y767491D01*
X883396Y767562D01*
X883379Y767597D01*
X883376Y767614D01*
X883372Y767636D01*
X883337Y767687D01*
X883310Y767743D01*
X883281Y767769D01*
X883259Y767802D01*
X883207Y767835D01*
X883161Y767877D01*
X883124Y767890D01*
X883091Y767911D01*
X883030Y767922D01*
X882971Y767942D01*
X882932Y767940D01*
X882894Y767946D01*
X882833Y767933D01*
X882771Y767929D01*
X882736Y767911D01*
X882698Y767903D01*
X882647Y767867D01*
X882592Y767839D01*
X882566Y767809D01*
X882535Y767787D01*
X882502Y767734D01*
X882461Y767687D01*
X882449Y767650D01*
X882429Y767617D01*
X882416Y767546D01*
X882400Y767496D01*
X882402Y767467D01*
X882397Y767439D01*
X882397Y758197D01*
X881783Y757584D01*
X881779Y757577D01*
X881773Y757573D01*
X881724Y757494D01*
X881672Y757417D01*
X881671Y757409D01*
X881667Y757402D01*
X881635Y757225D01*
X881635Y750869D01*
X878510Y747745D01*
X871027Y740262D01*
X871023Y740256D01*
X871017Y740251D01*
X870968Y740172D01*
X870916Y740095D01*
X870915Y740087D01*
X870911Y740081D01*
X870879Y739903D01*
X870879Y732487D01*
X869093Y730701D01*
X855567Y730701D01*
X853654Y732615D01*
X853650Y732617D01*
X853647Y732622D01*
X853566Y732673D01*
X853487Y732725D01*
X853482Y732726D01*
X853477Y732729D01*
X853383Y732745D01*
X853290Y732763D01*
X853285Y732762D01*
X853280Y732763D01*
X853187Y732741D01*
X853094Y732721D01*
X853090Y732718D01*
X853085Y732717D01*
X852937Y732615D01*
X825405Y705083D01*
X825390Y705060D01*
X825368Y705042D01*
X825326Y704963D01*
X825294Y704916D01*
X825291Y704900D01*
X825286Y704892D01*
X825286Y704889D01*
X825282Y704883D01*
X823494Y699463D01*
X823488Y699411D01*
X823469Y699304D01*
X823469Y696681D01*
X821074Y694287D01*
X821073Y694284D01*
X821071Y694283D01*
X821018Y694202D01*
X820964Y694120D01*
X820963Y694117D01*
X820962Y694115D01*
X820944Y694019D01*
X820926Y693923D01*
X820926Y693920D01*
X820926Y693918D01*
X820947Y693821D01*
X820968Y693727D01*
X820969Y693725D01*
X820970Y693722D01*
X821026Y693642D01*
X821082Y693562D01*
X821084Y693561D01*
X821086Y693559D01*
X821168Y693507D01*
X821251Y693455D01*
X821254Y693454D01*
X821256Y693453D01*
X821433Y693421D01*
X871157Y693421D01*
X871165Y693422D01*
X871172Y693421D01*
X871262Y693442D01*
X871353Y693460D01*
X871360Y693465D01*
X871368Y693467D01*
X871516Y693569D01*
X872289Y694343D01*
X872909Y694600D01*
X874134Y695107D01*
X874892Y695421D01*
X877708Y695421D01*
X880311Y694343D01*
X882303Y692351D01*
X883381Y689748D01*
X883381Y686932D01*
X882303Y684329D01*
X880311Y682337D01*
X879108Y681839D01*
X877884Y681332D01*
X877708Y681259D01*
X874892Y681259D01*
X872289Y682337D01*
X871516Y683111D01*
X871509Y683115D01*
X871504Y683121D01*
X871426Y683170D01*
X871349Y683222D01*
X871341Y683223D01*
X871334Y683227D01*
X871157Y683259D01*
X821553Y683259D01*
X821551Y683259D01*
X821548Y683259D01*
X821453Y683239D01*
X821357Y683220D01*
X821354Y683218D01*
X821352Y683218D01*
X821271Y683162D01*
X821191Y683107D01*
X821189Y683105D01*
X821187Y683103D01*
X821134Y683020D01*
X821082Y682939D01*
X821081Y682936D01*
X821080Y682934D01*
X821063Y682838D01*
X821046Y682742D01*
X821047Y682739D01*
X821046Y682737D01*
X821068Y682642D01*
X821090Y682546D01*
X821091Y682544D01*
X821092Y682541D01*
X821194Y682393D01*
X823469Y680119D01*
X823469Y671281D01*
X817219Y665031D01*
X808381Y665031D01*
X802131Y671281D01*
X802131Y680119D01*
X804406Y682393D01*
X804407Y682396D01*
X804409Y682397D01*
X804462Y682478D01*
X804516Y682560D01*
X804517Y682563D01*
X804518Y682565D01*
X804536Y682661D01*
X804554Y682757D01*
X804554Y682760D01*
X804554Y682762D01*
X804533Y682859D01*
X804512Y682953D01*
X804511Y682955D01*
X804510Y682958D01*
X804454Y683038D01*
X804398Y683118D01*
X804396Y683119D01*
X804394Y683121D01*
X804312Y683173D01*
X804229Y683225D01*
X804226Y683226D01*
X804224Y683227D01*
X804047Y683259D01*
X796153Y683259D01*
X796151Y683259D01*
X796148Y683259D01*
X796053Y683239D01*
X795957Y683220D01*
X795954Y683218D01*
X795952Y683218D01*
X795871Y683162D01*
X795791Y683107D01*
X795789Y683105D01*
X795787Y683103D01*
X795734Y683020D01*
X795682Y682939D01*
X795681Y682936D01*
X795680Y682934D01*
X795663Y682838D01*
X795646Y682742D01*
X795647Y682739D01*
X795646Y682737D01*
X795668Y682642D01*
X795690Y682546D01*
X795691Y682544D01*
X795692Y682541D01*
X795794Y682393D01*
X798069Y680119D01*
X798069Y671281D01*
X791819Y665031D01*
X782981Y665031D01*
X776731Y671281D01*
X776731Y680119D01*
X779006Y682393D01*
X779007Y682396D01*
X779009Y682397D01*
X779062Y682478D01*
X779116Y682560D01*
X779117Y682563D01*
X779118Y682565D01*
X779136Y682661D01*
X779154Y682757D01*
X779154Y682760D01*
X779154Y682762D01*
X779133Y682859D01*
X779112Y682953D01*
X779111Y682955D01*
X779110Y682958D01*
X779054Y683038D01*
X778998Y683118D01*
X778996Y683119D01*
X778994Y683121D01*
X778912Y683173D01*
X778829Y683225D01*
X778826Y683226D01*
X778824Y683227D01*
X778647Y683259D01*
X768785Y683259D01*
X765661Y686384D01*
X762327Y689718D01*
X762324Y689720D01*
X762323Y689722D01*
X762242Y689774D01*
X762160Y689829D01*
X762157Y689830D01*
X762155Y689831D01*
X762059Y689848D01*
X761963Y689867D01*
X761960Y689866D01*
X761958Y689867D01*
X761861Y689845D01*
X761767Y689825D01*
X761765Y689824D01*
X761762Y689823D01*
X761682Y689766D01*
X761602Y689711D01*
X761601Y689709D01*
X761599Y689707D01*
X761547Y689624D01*
X761495Y689542D01*
X761494Y689539D01*
X761493Y689537D01*
X761461Y689359D01*
X761461Y686932D01*
X760383Y684329D01*
X758391Y682337D01*
X757188Y681839D01*
X755964Y681332D01*
X755788Y681259D01*
X752972Y681259D01*
X750369Y682337D01*
X749596Y683111D01*
X749589Y683115D01*
X749584Y683121D01*
X749506Y683170D01*
X749429Y683222D01*
X749421Y683223D01*
X749414Y683227D01*
X749237Y683259D01*
X734495Y683259D01*
X726484Y691271D01*
X726477Y691275D01*
X726473Y691281D01*
X726394Y691330D01*
X726317Y691382D01*
X726309Y691383D01*
X726303Y691387D01*
X726125Y691419D01*
X725032Y691419D01*
X722429Y692497D01*
X720437Y694489D01*
X719359Y697092D01*
X719359Y699908D01*
X720437Y702511D01*
X722429Y704503D01*
X723013Y704745D01*
X724237Y705252D01*
X725032Y705581D01*
X727848Y705581D01*
X730451Y704503D01*
X732443Y702511D01*
X733521Y699908D01*
X733521Y698815D01*
X733522Y698807D01*
X733521Y698799D01*
X733542Y698709D01*
X733560Y698618D01*
X733565Y698612D01*
X733567Y698604D01*
X733669Y698456D01*
X738556Y693569D01*
X738563Y693565D01*
X738567Y693559D01*
X738646Y693510D01*
X738723Y693458D01*
X738731Y693457D01*
X738737Y693453D01*
X738915Y693421D01*
X749237Y693421D01*
X749245Y693422D01*
X749252Y693421D01*
X749342Y693442D01*
X749433Y693460D01*
X749440Y693465D01*
X749448Y693467D01*
X749596Y693569D01*
X750369Y694343D01*
X750989Y694600D01*
X752214Y695107D01*
X752972Y695421D01*
X755399Y695421D01*
X755402Y695421D01*
X755405Y695421D01*
X755499Y695441D01*
X755596Y695460D01*
X755598Y695462D01*
X755601Y695462D01*
X755681Y695518D01*
X755762Y695573D01*
X755763Y695575D01*
X755765Y695577D01*
X755819Y695660D01*
X755871Y695741D01*
X755871Y695744D01*
X755873Y695746D01*
X755889Y695842D01*
X755907Y695938D01*
X755906Y695941D01*
X755906Y695943D01*
X755885Y696037D01*
X755863Y696134D01*
X755861Y696136D01*
X755861Y696139D01*
X755758Y696287D01*
X743082Y708962D01*
X743077Y708966D01*
X743073Y708971D01*
X742994Y709021D01*
X742915Y709073D01*
X742909Y709075D01*
X742903Y709078D01*
X742811Y709093D01*
X742719Y709111D01*
X742712Y709110D01*
X742706Y709111D01*
X742663Y709101D01*
X720115Y709101D01*
X720031Y709084D01*
X719947Y709073D01*
X719933Y709065D01*
X719918Y709062D01*
X719848Y709014D01*
X719774Y708970D01*
X719765Y708958D01*
X719752Y708949D01*
X719706Y708878D01*
X719655Y708809D01*
X719652Y708794D01*
X719643Y708781D01*
X719628Y708697D01*
X719608Y708614D01*
X719610Y708598D01*
X719608Y708584D01*
X719620Y708529D01*
X719633Y708436D01*
X719667Y708332D01*
X719156Y707320D01*
X719146Y707283D01*
X719124Y707243D01*
X718786Y706160D01*
X718635Y706081D01*
X718584Y706039D01*
X718527Y706004D01*
X718504Y705974D01*
X718480Y705955D01*
X718457Y705911D01*
X718418Y705860D01*
X718325Y705677D01*
X718308Y705612D01*
X718281Y705551D01*
X718280Y705514D01*
X718272Y705483D01*
X718278Y705435D01*
X718277Y705371D01*
X718303Y705202D01*
X717632Y704288D01*
X717616Y704254D01*
X717588Y704217D01*
X717077Y703205D01*
X716914Y703152D01*
X716903Y703145D01*
X716895Y703144D01*
X716868Y703125D01*
X716857Y703119D01*
X716795Y703094D01*
X716768Y703068D01*
X716740Y703053D01*
X716710Y703014D01*
X716664Y702970D01*
X716542Y702804D01*
X716514Y702744D01*
X716478Y702688D01*
X716471Y702651D01*
X716458Y702622D01*
X716456Y702573D01*
X716444Y702511D01*
X716442Y702340D01*
X715629Y701549D01*
X715608Y701517D01*
X715602Y701512D01*
X715598Y701509D01*
X715596Y701506D01*
X715574Y701486D01*
X714904Y700572D01*
X714735Y700546D01*
X714673Y700523D01*
X714607Y700509D01*
X714576Y700488D01*
X714547Y700477D01*
X714511Y700443D01*
X714458Y700408D01*
X714311Y700264D01*
X714273Y700209D01*
X714228Y700160D01*
X714215Y700125D01*
X714197Y700099D01*
X714188Y700051D01*
X714165Y699991D01*
X714135Y699823D01*
X713693Y699516D01*
X713661Y699483D01*
X713657Y699480D01*
X713654Y699476D01*
X713634Y699455D01*
X713572Y699398D01*
X713565Y699383D01*
X713554Y699371D01*
X713523Y699292D01*
X713488Y699215D01*
X713488Y699199D01*
X713482Y699184D01*
X713484Y699100D01*
X713482Y699015D01*
X713487Y698999D01*
X713488Y698984D01*
X713511Y698933D01*
X713543Y698845D01*
X736896Y658394D01*
X736528Y658288D01*
X736498Y658272D01*
X736453Y658260D01*
X733687Y656951D01*
X733664Y656934D01*
X733637Y656924D01*
X733585Y656875D01*
X733527Y656832D01*
X733513Y656807D01*
X733492Y656788D01*
X733463Y656722D01*
X733427Y656660D01*
X733424Y656632D01*
X733412Y656606D01*
X733411Y656534D01*
X733402Y656463D01*
X733410Y656436D01*
X733410Y656407D01*
X733445Y656312D01*
X733456Y656272D01*
X733463Y656263D01*
X733467Y656251D01*
X742824Y640000D01*
X733467Y623749D01*
X733458Y623722D01*
X733442Y623698D01*
X733427Y623628D01*
X733404Y623560D01*
X733407Y623532D01*
X733401Y623504D01*
X733415Y623434D01*
X733420Y623362D01*
X733433Y623337D01*
X733439Y623309D01*
X733479Y623249D01*
X733512Y623186D01*
X733534Y623168D01*
X733550Y623144D01*
X733633Y623086D01*
X733665Y623059D01*
X733676Y623056D01*
X733687Y623049D01*
X736453Y621740D01*
X736486Y621732D01*
X736528Y621712D01*
X736885Y621609D01*
X713531Y581162D01*
X713522Y581133D01*
X713515Y581123D01*
X713511Y581102D01*
X713504Y581082D01*
X713473Y581004D01*
X713473Y580988D01*
X713468Y580972D01*
X713474Y580888D01*
X713475Y580803D01*
X713481Y580789D01*
X713482Y580772D01*
X713521Y580697D01*
X713554Y580619D01*
X713566Y580607D01*
X713573Y580594D01*
X713616Y580557D01*
X713681Y580492D01*
X714135Y580177D01*
X714165Y580009D01*
X714190Y579947D01*
X714206Y579882D01*
X714228Y579852D01*
X714239Y579823D01*
X714274Y579788D01*
X714311Y579736D01*
X714458Y579592D01*
X714514Y579556D01*
X714565Y579513D01*
X714600Y579501D01*
X714626Y579483D01*
X714675Y579475D01*
X714735Y579454D01*
X714904Y579428D01*
X715574Y578514D01*
X715603Y578489D01*
X715629Y578451D01*
X716442Y577660D01*
X716444Y577489D01*
X716458Y577424D01*
X716463Y577358D01*
X716479Y577324D01*
X716486Y577293D01*
X716514Y577253D01*
X716542Y577196D01*
X716664Y577030D01*
X716713Y576985D01*
X716756Y576934D01*
X716789Y576916D01*
X716812Y576895D01*
X716858Y576879D01*
X716914Y576848D01*
X717077Y576795D01*
X717588Y575783D01*
X717611Y575753D01*
X717632Y575712D01*
X718303Y574798D01*
X718277Y574629D01*
X718280Y574562D01*
X718274Y574496D01*
X718285Y574460D01*
X718286Y574429D01*
X718307Y574385D01*
X718325Y574323D01*
X718418Y574140D01*
X718459Y574087D01*
X718493Y574030D01*
X718523Y574007D01*
X718542Y573982D01*
X718585Y573958D01*
X718635Y573919D01*
X718786Y573840D01*
X719124Y572757D01*
X719142Y572724D01*
X719156Y572680D01*
X719667Y571668D01*
X719614Y571506D01*
X719606Y571440D01*
X719589Y571375D01*
X719594Y571338D01*
X719590Y571307D01*
X719603Y571260D01*
X719611Y571196D01*
X719673Y571000D01*
X719705Y570941D01*
X719729Y570879D01*
X719754Y570852D01*
X719769Y570824D01*
X719807Y570794D01*
X719851Y570747D01*
X719986Y570644D01*
X720141Y569520D01*
X720154Y569484D01*
X720160Y569439D01*
X720498Y568356D01*
X720418Y568205D01*
X720400Y568141D01*
X720373Y568080D01*
X720371Y568043D01*
X720362Y568013D01*
X720368Y567964D01*
X720365Y567900D01*
X720393Y567696D01*
X720415Y567634D01*
X720428Y567568D01*
X720449Y567537D01*
X720459Y567507D01*
X720492Y567471D01*
X720527Y567417D01*
X720644Y567293D01*
X720612Y566160D01*
X720619Y566123D01*
X720617Y566076D01*
X720772Y564953D01*
X720669Y564817D01*
X720640Y564757D01*
X720603Y564702D01*
X720595Y564665D01*
X720582Y564637D01*
X720579Y564588D01*
X720566Y564525D01*
X720560Y564320D01*
X720572Y564254D01*
X720574Y564187D01*
X720589Y564153D01*
X720594Y564122D01*
X720621Y564081D01*
X720646Y564022D01*
X720742Y563881D01*
X720523Y562768D01*
X720524Y562730D01*
X720514Y562685D01*
X720482Y561551D01*
X720358Y561434D01*
X720320Y561380D01*
X720274Y561331D01*
X720261Y561296D01*
X720243Y561270D01*
X720232Y561223D01*
X720209Y561163D01*
X720182Y561027D01*
X720182Y560970D01*
X720173Y560914D01*
X720183Y560871D01*
X720183Y560826D01*
X720205Y560774D01*
X720218Y560719D01*
X720246Y560679D01*
X720262Y560642D01*
X720292Y560613D01*
X720321Y560571D01*
X739683Y541209D01*
X739711Y541167D01*
X739716Y541164D01*
X739720Y541159D01*
X739800Y541109D01*
X739878Y541057D01*
X739885Y541056D01*
X739890Y541053D01*
X740068Y541021D01*
X778767Y541021D01*
X778769Y541021D01*
X778772Y541021D01*
X778867Y541041D01*
X778963Y541060D01*
X778966Y541062D01*
X778968Y541062D01*
X779049Y541118D01*
X779129Y541173D01*
X779131Y541175D01*
X779133Y541177D01*
X779186Y541260D01*
X779238Y541341D01*
X779239Y541344D01*
X779240Y541346D01*
X779257Y541442D01*
X779274Y541538D01*
X779273Y541541D01*
X779274Y541543D01*
X779252Y541637D01*
X779230Y541734D01*
X779229Y541736D01*
X779228Y541739D01*
X779126Y541887D01*
X776731Y544281D01*
X776731Y553119D01*
X782981Y559369D01*
X791819Y559369D01*
X798069Y553119D01*
X798069Y544281D01*
X795674Y541887D01*
X795673Y541884D01*
X795671Y541883D01*
X795618Y541802D01*
X795564Y541720D01*
X795563Y541717D01*
X795562Y541715D01*
X795544Y541619D01*
X795526Y541523D01*
X795526Y541520D01*
X795526Y541518D01*
X795547Y541421D01*
X795568Y541327D01*
X795569Y541325D01*
X795570Y541322D01*
X795626Y541242D01*
X795682Y541162D01*
X795684Y541161D01*
X795686Y541159D01*
X795768Y541107D01*
X795851Y541055D01*
X795854Y541054D01*
X795856Y541053D01*
X796033Y541021D01*
X804167Y541021D01*
X804169Y541021D01*
X804172Y541021D01*
X804267Y541041D01*
X804363Y541060D01*
X804366Y541062D01*
X804368Y541062D01*
X804449Y541118D01*
X804529Y541173D01*
X804531Y541175D01*
X804533Y541177D01*
X804586Y541260D01*
X804638Y541341D01*
X804639Y541344D01*
X804640Y541346D01*
X804657Y541442D01*
X804674Y541538D01*
X804673Y541541D01*
X804674Y541543D01*
X804652Y541637D01*
X804630Y541734D01*
X804629Y541736D01*
X804628Y541739D01*
X804526Y541887D01*
X802131Y544281D01*
X802131Y553119D01*
X808381Y559369D01*
X817219Y559369D01*
X823469Y553119D01*
X823469Y544281D01*
X821074Y541887D01*
X821073Y541884D01*
X821071Y541883D01*
X821018Y541802D01*
X820964Y541720D01*
X820963Y541717D01*
X820962Y541715D01*
X820944Y541619D01*
X820926Y541523D01*
X820926Y541520D01*
X820926Y541518D01*
X820947Y541421D01*
X820968Y541327D01*
X820969Y541325D01*
X820970Y541322D01*
X821026Y541242D01*
X821082Y541162D01*
X821084Y541161D01*
X821086Y541159D01*
X821168Y541107D01*
X821251Y541055D01*
X821254Y541054D01*
X821256Y541053D01*
X821433Y541021D01*
X874967Y541021D01*
X874975Y541022D01*
X874982Y541021D01*
X875072Y541042D01*
X875163Y541060D01*
X875170Y541065D01*
X875178Y541067D01*
X875326Y541169D01*
X876099Y541943D01*
X877262Y542425D01*
X878487Y542932D01*
X878702Y543021D01*
X881518Y543021D01*
X884121Y541943D01*
X886113Y539951D01*
X887191Y537348D01*
X887191Y534532D01*
X886113Y531929D01*
X884121Y529937D01*
X883462Y529664D01*
X883461Y529664D01*
X882237Y529157D01*
X881518Y528859D01*
X878702Y528859D01*
X876099Y529937D01*
X875326Y530711D01*
X875319Y530715D01*
X875314Y530721D01*
X875236Y530770D01*
X875159Y530822D01*
X875151Y530823D01*
X875144Y530827D01*
X874967Y530859D01*
X740068Y530859D01*
X740061Y530858D01*
X740055Y530859D01*
X739963Y530838D01*
X739871Y530820D01*
X739866Y530816D01*
X739859Y530815D01*
X739783Y530760D01*
X739705Y530707D01*
X739702Y530702D01*
X739696Y530698D01*
X739673Y530661D01*
X736984Y527972D01*
X736170Y527635D01*
X734946Y527128D01*
X733721Y526621D01*
X733530Y526541D01*
X729790Y526541D01*
X726336Y527972D01*
X708377Y545932D01*
X708373Y545934D01*
X708370Y545938D01*
X708289Y545990D01*
X708210Y546043D01*
X708205Y546043D01*
X708201Y546046D01*
X708106Y546062D01*
X708013Y546080D01*
X708008Y546079D01*
X708004Y546080D01*
X707827Y546043D01*
X707696Y545990D01*
X707640Y545953D01*
X707580Y545924D01*
X707555Y545897D01*
X707528Y545879D01*
X707501Y545838D01*
X707458Y545791D01*
X707367Y545647D01*
X706260Y545400D01*
X706225Y545385D01*
X706180Y545375D01*
X705129Y544949D01*
X704972Y545016D01*
X704907Y545029D01*
X704844Y545051D01*
X704807Y545050D01*
X704776Y545056D01*
X704728Y545046D01*
X704664Y545044D01*
X704463Y544999D01*
X704402Y544972D01*
X704338Y544953D01*
X704309Y544930D01*
X704280Y544917D01*
X704246Y544882D01*
X704196Y544842D01*
X704082Y544715D01*
X702950Y544654D01*
X702913Y544644D01*
X702867Y544642D01*
X701760Y544395D01*
X701616Y544486D01*
X701554Y544510D01*
X701496Y544542D01*
X701459Y544547D01*
X701429Y544558D01*
X701380Y544557D01*
X701317Y544565D01*
X701111Y544553D01*
X701047Y544537D01*
X700981Y544529D01*
X700948Y544511D01*
X700917Y544503D01*
X700878Y544474D01*
X700822Y544443D01*
X700689Y544337D01*
X699562Y544462D01*
X699524Y544459D01*
X699478Y544464D01*
X698346Y544403D01*
X698219Y544517D01*
X698162Y544550D01*
X698110Y544592D01*
X698074Y544602D01*
X698047Y544618D01*
X697998Y544625D01*
X697937Y544643D01*
X697732Y544666D01*
X697666Y544660D01*
X697599Y544663D01*
X697564Y544651D01*
X697533Y544648D01*
X697489Y544625D01*
X697429Y544605D01*
X697280Y544521D01*
X696189Y544831D01*
X696151Y544834D01*
X696107Y544847D01*
X694980Y544972D01*
X694873Y545105D01*
X694822Y545148D01*
X694778Y545198D01*
X694744Y545214D01*
X694720Y545234D01*
X694673Y545249D01*
X694616Y545277D01*
X694418Y545333D01*
X694351Y545338D01*
X694286Y545352D01*
X694249Y545346D01*
X694218Y545348D01*
X694171Y545333D01*
X694108Y545322D01*
X693948Y545265D01*
X693472Y545490D01*
X693390Y545510D01*
X693309Y545536D01*
X693293Y545534D01*
X693277Y545538D01*
X693194Y545525D01*
X693109Y545517D01*
X693095Y545509D01*
X693079Y545507D01*
X693007Y545463D01*
X692932Y545422D01*
X692921Y545410D01*
X692909Y545402D01*
X692876Y545356D01*
X692816Y545285D01*
X689004Y538682D01*
X669463Y504836D01*
X669169Y505118D01*
X669141Y505136D01*
X669107Y505169D01*
X666584Y506911D01*
X666557Y506922D01*
X666535Y506941D01*
X666466Y506961D01*
X666401Y506989D01*
X666372Y506989D01*
X666344Y506997D01*
X666273Y506989D01*
X666202Y506990D01*
X666175Y506978D01*
X666146Y506975D01*
X666084Y506940D01*
X666019Y506912D01*
X665998Y506892D01*
X665973Y506877D01*
X665910Y506800D01*
X665880Y506770D01*
X665876Y506760D01*
X665867Y506749D01*
X656367Y490249D01*
X656343Y490176D01*
X656312Y490106D01*
X656312Y490082D01*
X656304Y490060D01*
X656311Y489984D01*
X656310Y489907D01*
X656319Y489883D01*
X656320Y489862D01*
X656341Y489823D01*
X656360Y489771D01*
X656361Y489765D01*
X656363Y489763D01*
X656367Y489751D01*
X665867Y473251D01*
X665886Y473229D01*
X665899Y473203D01*
X665952Y473155D01*
X665999Y473102D01*
X666025Y473089D01*
X666047Y473070D01*
X666114Y473047D01*
X666178Y473016D01*
X666207Y473015D01*
X666234Y473005D01*
X666306Y473010D01*
X666377Y473007D01*
X666404Y473017D01*
X666433Y473019D01*
X666523Y473061D01*
X666563Y473076D01*
X666571Y473083D01*
X666584Y473089D01*
X669107Y474831D01*
X669131Y474855D01*
X669169Y474882D01*
X669473Y475174D01*
X692827Y434721D01*
X692884Y434657D01*
X692936Y434590D01*
X692949Y434582D01*
X692960Y434570D01*
X693036Y434533D01*
X693110Y434492D01*
X693126Y434490D01*
X693140Y434483D01*
X693225Y434478D01*
X693309Y434469D01*
X693326Y434473D01*
X693340Y434472D01*
X693393Y434491D01*
X693483Y434516D01*
X693948Y434735D01*
X694108Y434678D01*
X694174Y434668D01*
X694238Y434650D01*
X694276Y434653D01*
X694307Y434649D01*
X694354Y434661D01*
X694418Y434667D01*
X694616Y434723D01*
X694675Y434754D01*
X694738Y434776D01*
X694766Y434801D01*
X694794Y434815D01*
X694825Y434853D01*
X694873Y434895D01*
X694980Y435028D01*
X696107Y435153D01*
X696143Y435165D01*
X696189Y435169D01*
X697280Y435479D01*
X697429Y435395D01*
X697492Y435375D01*
X697552Y435346D01*
X697590Y435344D01*
X697620Y435334D01*
X697669Y435339D01*
X697732Y435334D01*
X697937Y435357D01*
X698000Y435377D01*
X698066Y435389D01*
X698074Y435394D01*
X698079Y435395D01*
X698100Y435409D01*
X698128Y435418D01*
X698165Y435450D01*
X698219Y435483D01*
X698346Y435597D01*
X699478Y435536D01*
X699516Y435541D01*
X699562Y435538D01*
X700689Y435663D01*
X700822Y435557D01*
X700882Y435526D01*
X700936Y435488D01*
X700972Y435480D01*
X701000Y435465D01*
X701049Y435461D01*
X701111Y435447D01*
X701317Y435435D01*
X701383Y435445D01*
X701450Y435446D01*
X701484Y435460D01*
X701515Y435464D01*
X701557Y435490D01*
X701616Y435514D01*
X701760Y435605D01*
X702867Y435358D01*
X702905Y435357D01*
X702950Y435346D01*
X704082Y435285D01*
X704196Y435158D01*
X704249Y435118D01*
X704297Y435071D01*
X704331Y435057D01*
X704357Y435038D01*
X704404Y435026D01*
X704463Y435001D01*
X704664Y434956D01*
X704730Y434955D01*
X704796Y434945D01*
X704833Y434953D01*
X704864Y434952D01*
X704910Y434970D01*
X704972Y434984D01*
X705129Y435051D01*
X706180Y434625D01*
X706218Y434618D01*
X706260Y434600D01*
X707367Y434353D01*
X707458Y434209D01*
X707504Y434160D01*
X707543Y434107D01*
X707575Y434087D01*
X707597Y434064D01*
X707642Y434044D01*
X707696Y434010D01*
X707886Y433933D01*
X707952Y433921D01*
X708015Y433900D01*
X708052Y433902D01*
X708083Y433896D01*
X708131Y433906D01*
X708195Y433910D01*
X708361Y433949D01*
X709327Y433356D01*
X709363Y433343D01*
X709402Y433319D01*
X710453Y432893D01*
X710519Y432736D01*
X710557Y432681D01*
X710587Y432621D01*
X710614Y432596D01*
X710632Y432570D01*
X710673Y432543D01*
X710721Y432501D01*
X710896Y432393D01*
X710959Y432370D01*
X711018Y432339D01*
X711055Y432335D01*
X711085Y432324D01*
X711134Y432326D01*
X711197Y432319D01*
X711367Y432331D01*
X712223Y431587D01*
X712256Y431569D01*
X712290Y431538D01*
X713257Y430945D01*
X713296Y430779D01*
X713324Y430718D01*
X713344Y430654D01*
X713367Y430625D01*
X713381Y430597D01*
X713417Y430564D01*
X713457Y430514D01*
X713612Y430379D01*
X713670Y430346D01*
X713723Y430306D01*
X713759Y430295D01*
X713786Y430280D01*
X713835Y430274D01*
X713896Y430257D01*
X714066Y430240D01*
X714788Y429366D01*
X714817Y429342D01*
X714846Y429306D01*
X715702Y428562D01*
X715713Y428391D01*
X715731Y428327D01*
X715740Y428261D01*
X715758Y428229D01*
X715767Y428198D01*
X715797Y428159D01*
X715828Y428104D01*
X715959Y427945D01*
X716011Y427903D01*
X716056Y427855D01*
X716090Y427839D01*
X716115Y427819D01*
X716162Y427805D01*
X716219Y427778D01*
X716384Y427734D01*
X716952Y426752D01*
X716977Y426724D01*
X717000Y426683D01*
X717721Y425809D01*
X717705Y425639D01*
X717711Y425573D01*
X717709Y425506D01*
X717722Y425471D01*
X717725Y425440D01*
X717749Y425396D01*
X717770Y425336D01*
X717873Y425158D01*
X717918Y425108D01*
X717955Y425053D01*
X717985Y425032D01*
X718006Y425008D01*
X718050Y424987D01*
X718103Y424950D01*
X718258Y424880D01*
X718656Y423818D01*
X718676Y423786D01*
X718692Y423742D01*
X719260Y422761D01*
X719216Y422596D01*
X719211Y422530D01*
X719198Y422464D01*
X719205Y422428D01*
X719203Y422396D01*
X719219Y422350D01*
X719231Y422287D01*
X719303Y422094D01*
X719338Y422038D01*
X719366Y421977D01*
X719392Y421951D01*
X719409Y421924D01*
X719449Y421896D01*
X719495Y421852D01*
X719637Y421756D01*
X719855Y420644D01*
X719869Y420608D01*
X719877Y420563D01*
X720276Y419501D01*
X720205Y419346D01*
X720190Y419281D01*
X720166Y419219D01*
X720167Y419182D01*
X720160Y419151D01*
X720165Y419124D01*
X720162Y419113D01*
X720168Y419086D01*
X720169Y419039D01*
X720209Y418837D01*
X720234Y418775D01*
X720251Y418711D01*
X720273Y418681D01*
X720285Y418652D01*
X720320Y418617D01*
X720358Y418566D01*
X720482Y418449D01*
X720507Y417581D01*
X720507Y417580D01*
X720528Y417487D01*
X720552Y417386D01*
X720552Y417385D01*
X720655Y417237D01*
X722707Y415185D01*
X722713Y415181D01*
X722718Y415175D01*
X722796Y415126D01*
X722873Y415074D01*
X722881Y415073D01*
X722888Y415069D01*
X723065Y415037D01*
X737200Y415037D01*
X740654Y413606D01*
X743353Y410907D01*
X743381Y410865D01*
X743386Y410862D01*
X743390Y410857D01*
X743470Y410807D01*
X743548Y410755D01*
X743555Y410754D01*
X743560Y410751D01*
X743738Y410719D01*
X780733Y410719D01*
X780741Y410720D01*
X780748Y410719D01*
X780838Y410740D01*
X780929Y410758D01*
X780936Y410763D01*
X780944Y410765D01*
X781092Y410867D01*
X781865Y411641D01*
X782880Y412061D01*
X784105Y412569D01*
X784468Y412719D01*
X787284Y412719D01*
X789887Y411641D01*
X791879Y409649D01*
X792957Y407046D01*
X792957Y404230D01*
X791879Y401627D01*
X789887Y399635D01*
X789080Y399301D01*
X787855Y398794D01*
X787284Y398557D01*
X784468Y398557D01*
X781865Y399635D01*
X781092Y400409D01*
X781085Y400413D01*
X781080Y400419D01*
X781002Y400468D01*
X780925Y400520D01*
X780917Y400521D01*
X780910Y400525D01*
X780733Y400557D01*
X743738Y400557D01*
X743731Y400556D01*
X743725Y400557D01*
X743633Y400536D01*
X743541Y400518D01*
X743536Y400514D01*
X743529Y400513D01*
X743453Y400458D01*
X743375Y400405D01*
X743372Y400400D01*
X743366Y400396D01*
X743343Y400359D01*
X740654Y397670D01*
X739693Y397272D01*
X739692Y397272D01*
X738468Y396765D01*
X737243Y396257D01*
X737200Y396239D01*
X717092Y396239D01*
X715780Y396783D01*
X715744Y396790D01*
X715712Y396806D01*
X715647Y396809D01*
X715583Y396822D01*
X715548Y396814D01*
X715512Y396816D01*
X715450Y396794D01*
X715387Y396781D01*
X715357Y396761D01*
X715323Y396748D01*
X715275Y396704D01*
X715221Y396668D01*
X715202Y396637D01*
X715175Y396613D01*
X715148Y396554D01*
X715113Y396499D01*
X715107Y396463D01*
X715092Y396431D01*
X715090Y396366D01*
X715078Y396302D01*
X715086Y396266D01*
X715085Y396230D01*
X715111Y396159D01*
X715123Y396106D01*
X715131Y396095D01*
X715132Y396091D01*
X715139Y396082D01*
X715146Y396061D01*
X736892Y358393D01*
X736528Y358288D01*
X736498Y358272D01*
X736453Y358260D01*
X733687Y356951D01*
X733664Y356934D01*
X733637Y356924D01*
X733585Y356875D01*
X733527Y356832D01*
X733513Y356807D01*
X733492Y356788D01*
X733463Y356722D01*
X733427Y356660D01*
X733424Y356632D01*
X733412Y356606D01*
X733411Y356534D01*
X733402Y356463D01*
X733410Y356436D01*
X733410Y356407D01*
X733445Y356312D01*
X733456Y356272D01*
X733463Y356263D01*
X733467Y356251D01*
X742967Y339751D01*
X743019Y339693D01*
X743065Y339630D01*
X743084Y339619D01*
X743099Y339602D01*
X743169Y339568D01*
X743236Y339528D01*
X743261Y339524D01*
X743278Y339516D01*
X743323Y339514D01*
X743400Y339501D01*
X762400Y339501D01*
X762428Y339506D01*
G37*
%LPC*%
G36*
X782981Y817431D02*
X782981Y817431D01*
X778109Y822303D01*
X778103Y822307D01*
X778098Y822313D01*
X778020Y822362D01*
X777943Y822414D01*
X777935Y822415D01*
X777928Y822419D01*
X777751Y822451D01*
X770483Y822451D01*
X770475Y822450D01*
X770467Y822451D01*
X770377Y822430D01*
X770286Y822412D01*
X770280Y822407D01*
X770272Y822405D01*
X770124Y822303D01*
X767248Y819426D01*
X766952Y819304D01*
X765728Y818797D01*
X764503Y818289D01*
X763513Y817879D01*
X745247Y817879D01*
X741512Y819426D01*
X738654Y822284D01*
X737107Y826019D01*
X737107Y830061D01*
X738654Y833796D01*
X741512Y836654D01*
X742678Y837137D01*
X743903Y837644D01*
X745127Y838151D01*
X745128Y838151D01*
X745247Y838201D01*
X757145Y838201D01*
X757153Y838202D01*
X757161Y838201D01*
X757251Y838222D01*
X757342Y838240D01*
X757348Y838245D01*
X757356Y838247D01*
X757504Y838349D01*
X764391Y845236D01*
X764395Y845243D01*
X764401Y845247D01*
X764450Y845326D01*
X764502Y845403D01*
X764503Y845411D01*
X764507Y845417D01*
X764539Y845595D01*
X764539Y998445D01*
X764538Y998453D01*
X764539Y998461D01*
X764518Y998551D01*
X764500Y998642D01*
X764495Y998648D01*
X764493Y998656D01*
X764391Y998804D01*
X752093Y1011101D01*
X752093Y1022066D01*
X752092Y1022071D01*
X752093Y1022076D01*
X752072Y1022169D01*
X752054Y1022263D01*
X752051Y1022267D01*
X752050Y1022272D01*
X751994Y1022350D01*
X751941Y1022428D01*
X751937Y1022431D01*
X751934Y1022435D01*
X751852Y1022486D01*
X751773Y1022538D01*
X751768Y1022538D01*
X751763Y1022541D01*
X751586Y1022573D01*
X750911Y1022573D01*
X749125Y1024359D01*
X749125Y1037885D01*
X750504Y1039263D01*
X750507Y1039268D01*
X750511Y1039271D01*
X750562Y1039351D01*
X750615Y1039430D01*
X750616Y1039435D01*
X750619Y1039440D01*
X750634Y1039534D01*
X750652Y1039627D01*
X750651Y1039632D01*
X750652Y1039637D01*
X750630Y1039730D01*
X750611Y1039823D01*
X750608Y1039828D01*
X750607Y1039833D01*
X750504Y1039981D01*
X749125Y1041359D01*
X749125Y1054885D01*
X750911Y1056671D01*
X763437Y1056671D01*
X764842Y1055265D01*
X764849Y1055261D01*
X764853Y1055255D01*
X764932Y1055206D01*
X765009Y1055154D01*
X765017Y1055153D01*
X765024Y1055149D01*
X765201Y1055117D01*
X767005Y1055117D01*
X767014Y1055119D01*
X767023Y1055117D01*
X767199Y1055155D01*
X767201Y1055156D01*
X767202Y1055156D01*
X767438Y1055254D01*
X768663Y1055762D01*
X769482Y1056101D01*
X772298Y1056101D01*
X774581Y1055155D01*
X774590Y1055154D01*
X774598Y1055149D01*
X774775Y1055117D01*
X817941Y1055117D01*
X820181Y1054189D01*
X842951Y1031419D01*
X842957Y1031415D01*
X842962Y1031409D01*
X843041Y1031360D01*
X843118Y1031308D01*
X843125Y1031307D01*
X843132Y1031303D01*
X843309Y1031271D01*
X849289Y1031271D01*
X851075Y1029485D01*
X851075Y1015959D01*
X849696Y1014581D01*
X849693Y1014576D01*
X849689Y1014573D01*
X849638Y1014493D01*
X849585Y1014414D01*
X849584Y1014409D01*
X849581Y1014404D01*
X849566Y1014310D01*
X849548Y1014217D01*
X849549Y1014212D01*
X849548Y1014206D01*
X849570Y1014114D01*
X849589Y1014021D01*
X849592Y1014016D01*
X849593Y1014011D01*
X849696Y1013863D01*
X851075Y1012485D01*
X851075Y998959D01*
X849289Y997173D01*
X836763Y997173D01*
X834977Y998959D01*
X834977Y999185D01*
X834977Y999188D01*
X834977Y999191D01*
X834957Y999286D01*
X834938Y999381D01*
X834936Y999384D01*
X834935Y999387D01*
X834880Y999467D01*
X834825Y999547D01*
X834822Y999549D01*
X834820Y999551D01*
X834738Y999603D01*
X834657Y999656D01*
X834654Y999657D01*
X834651Y999659D01*
X834474Y999692D01*
X824502Y999770D01*
X824473Y999764D01*
X824444Y999767D01*
X824361Y999742D01*
X824305Y999732D01*
X824291Y999722D01*
X824271Y999716D01*
X819197Y997173D01*
X819156Y997141D01*
X819066Y997078D01*
X817219Y995231D01*
X808381Y995231D01*
X802131Y1001481D01*
X802131Y1010319D01*
X803986Y1012174D01*
X804016Y1012218D01*
X804081Y1012305D01*
X806649Y1017402D01*
X806656Y1017429D01*
X806671Y1017453D01*
X806687Y1017541D01*
X806702Y1017595D01*
X806700Y1017611D01*
X806703Y1017630D01*
X806703Y1019570D01*
X806698Y1019598D01*
X806700Y1019626D01*
X806675Y1019711D01*
X806664Y1019767D01*
X806654Y1019780D01*
X806649Y1019798D01*
X806039Y1021009D01*
X804081Y1024896D01*
X804048Y1024937D01*
X803986Y1025026D01*
X802131Y1026881D01*
X802131Y1035719D01*
X808470Y1042057D01*
X808471Y1042060D01*
X808473Y1042061D01*
X808526Y1042142D01*
X808580Y1042224D01*
X808581Y1042227D01*
X808582Y1042229D01*
X808600Y1042325D01*
X808618Y1042421D01*
X808618Y1042424D01*
X808618Y1042426D01*
X808597Y1042523D01*
X808576Y1042617D01*
X808575Y1042619D01*
X808574Y1042622D01*
X808518Y1042702D01*
X808462Y1042782D01*
X808460Y1042783D01*
X808458Y1042785D01*
X808376Y1042837D01*
X808293Y1042889D01*
X808290Y1042890D01*
X808288Y1042891D01*
X808111Y1042923D01*
X792089Y1042923D01*
X792087Y1042923D01*
X792084Y1042923D01*
X791989Y1042903D01*
X791893Y1042884D01*
X791890Y1042882D01*
X791888Y1042882D01*
X791807Y1042826D01*
X791727Y1042771D01*
X791725Y1042769D01*
X791723Y1042767D01*
X791670Y1042684D01*
X791618Y1042603D01*
X791617Y1042600D01*
X791616Y1042598D01*
X791599Y1042501D01*
X791582Y1042406D01*
X791583Y1042403D01*
X791582Y1042401D01*
X791604Y1042307D01*
X791626Y1042210D01*
X791627Y1042208D01*
X791628Y1042205D01*
X791730Y1042057D01*
X798069Y1035719D01*
X798069Y1026881D01*
X791819Y1020631D01*
X782981Y1020631D01*
X781126Y1022486D01*
X781082Y1022515D01*
X780996Y1022581D01*
X777869Y1024156D01*
X775898Y1025149D01*
X775871Y1025156D01*
X775847Y1025171D01*
X775759Y1025187D01*
X775705Y1025202D01*
X775689Y1025200D01*
X775670Y1025203D01*
X765953Y1025203D01*
X765948Y1025202D01*
X765943Y1025203D01*
X765720Y1025199D01*
X765648Y1025183D01*
X765524Y1025155D01*
X765361Y1025039D01*
X765352Y1025026D01*
X765255Y1024869D01*
X765255Y1024868D01*
X765223Y1024691D01*
X765223Y1024359D01*
X763437Y1022573D01*
X762762Y1022573D01*
X762757Y1022572D01*
X762752Y1022573D01*
X762659Y1022552D01*
X762565Y1022534D01*
X762561Y1022531D01*
X762556Y1022530D01*
X762478Y1022474D01*
X762400Y1022421D01*
X762397Y1022417D01*
X762393Y1022414D01*
X762342Y1022332D01*
X762290Y1022253D01*
X762290Y1022248D01*
X762287Y1022243D01*
X762255Y1022066D01*
X762255Y1015521D01*
X762256Y1015513D01*
X762255Y1015505D01*
X762276Y1015415D01*
X762294Y1015324D01*
X762299Y1015318D01*
X762301Y1015310D01*
X762403Y1015162D01*
X774701Y1002865D01*
X774701Y841175D01*
X771576Y838051D01*
X769072Y835547D01*
X769069Y835542D01*
X769065Y835539D01*
X769014Y835459D01*
X768961Y835380D01*
X768960Y835375D01*
X768957Y835370D01*
X768941Y835276D01*
X768923Y835183D01*
X768925Y835178D01*
X768924Y835173D01*
X768945Y835080D01*
X768965Y834987D01*
X768968Y834983D01*
X768969Y834977D01*
X769072Y834829D01*
X770124Y833777D01*
X770131Y833773D01*
X770135Y833767D01*
X770214Y833718D01*
X770291Y833666D01*
X770299Y833665D01*
X770306Y833661D01*
X770483Y833629D01*
X777631Y833629D01*
X777639Y833630D01*
X777646Y833629D01*
X777736Y833650D01*
X777827Y833668D01*
X777834Y833673D01*
X777841Y833675D01*
X777989Y833777D01*
X782981Y838769D01*
X791819Y838769D01*
X798069Y832519D01*
X798069Y823681D01*
X791819Y817431D01*
X782981Y817431D01*
G37*
%LPD*%
%LPC*%
G36*
X808381Y919031D02*
X808381Y919031D01*
X802131Y925281D01*
X802131Y934119D01*
X808381Y940369D01*
X817219Y940369D01*
X819074Y938514D01*
X819118Y938484D01*
X819205Y938419D01*
X824302Y935851D01*
X824329Y935844D01*
X824353Y935829D01*
X824441Y935813D01*
X824495Y935798D01*
X824511Y935800D01*
X824530Y935797D01*
X857281Y935797D01*
X857289Y935798D01*
X857297Y935797D01*
X857387Y935818D01*
X857478Y935836D01*
X857484Y935841D01*
X857492Y935843D01*
X857640Y935945D01*
X876151Y954456D01*
X876155Y954463D01*
X876161Y954467D01*
X876210Y954546D01*
X876262Y954623D01*
X876263Y954631D01*
X876267Y954637D01*
X876299Y954815D01*
X876299Y1153385D01*
X876298Y1153393D01*
X876299Y1153401D01*
X876278Y1153491D01*
X876260Y1153582D01*
X876255Y1153588D01*
X876253Y1153596D01*
X876151Y1153744D01*
X867769Y1162126D01*
X867766Y1162128D01*
X867765Y1162130D01*
X867684Y1162182D01*
X867602Y1162237D01*
X867599Y1162238D01*
X867597Y1162239D01*
X867501Y1162256D01*
X867405Y1162275D01*
X867402Y1162274D01*
X867400Y1162275D01*
X867303Y1162253D01*
X867209Y1162233D01*
X867207Y1162232D01*
X867204Y1162231D01*
X867124Y1162174D01*
X867044Y1162119D01*
X867043Y1162117D01*
X867041Y1162115D01*
X866989Y1162032D01*
X866937Y1161950D01*
X866936Y1161947D01*
X866935Y1161945D01*
X866903Y1161767D01*
X866903Y1144027D01*
X865356Y1140292D01*
X862498Y1137434D01*
X862294Y1137350D01*
X862293Y1137350D01*
X861069Y1136842D01*
X859844Y1136335D01*
X858763Y1135887D01*
X854721Y1135887D01*
X850986Y1137434D01*
X848128Y1140292D01*
X846581Y1144027D01*
X846581Y1162293D01*
X848128Y1166028D01*
X849634Y1167533D01*
X849635Y1167536D01*
X849638Y1167537D01*
X849690Y1167618D01*
X849745Y1167700D01*
X849745Y1167703D01*
X849747Y1167705D01*
X849764Y1167801D01*
X849782Y1167897D01*
X849782Y1167900D01*
X849782Y1167902D01*
X849761Y1167999D01*
X849741Y1168093D01*
X849739Y1168095D01*
X849739Y1168098D01*
X849682Y1168178D01*
X849627Y1168258D01*
X849624Y1168259D01*
X849623Y1168261D01*
X849539Y1168314D01*
X849457Y1168365D01*
X849455Y1168366D01*
X849453Y1168367D01*
X849275Y1168399D01*
X847525Y1168399D01*
X834098Y1181827D01*
X834093Y1181830D01*
X834089Y1181836D01*
X834010Y1181886D01*
X833931Y1181938D01*
X833925Y1181939D01*
X833919Y1181942D01*
X833826Y1181958D01*
X833734Y1181975D01*
X833728Y1181974D01*
X833721Y1181975D01*
X833545Y1181937D01*
X833363Y1181861D01*
X829321Y1181861D01*
X825586Y1183408D01*
X822728Y1186266D01*
X821181Y1190001D01*
X821181Y1208267D01*
X822728Y1212002D01*
X825586Y1214860D01*
X826017Y1215038D01*
X827241Y1215545D01*
X828466Y1216053D01*
X829321Y1216407D01*
X833363Y1216407D01*
X837098Y1214860D01*
X839956Y1212002D01*
X841503Y1208267D01*
X841503Y1190001D01*
X841279Y1189460D01*
X841277Y1189453D01*
X841274Y1189448D01*
X841258Y1189355D01*
X841240Y1189263D01*
X841241Y1189256D01*
X841240Y1189250D01*
X841261Y1189159D01*
X841280Y1189067D01*
X841284Y1189061D01*
X841286Y1189055D01*
X841388Y1188907D01*
X851586Y1178709D01*
X851593Y1178705D01*
X851597Y1178699D01*
X851676Y1178650D01*
X851753Y1178598D01*
X851761Y1178597D01*
X851767Y1178593D01*
X851945Y1178561D01*
X865705Y1178561D01*
X886461Y1157805D01*
X886461Y950395D01*
X883336Y947271D01*
X864825Y928760D01*
X864824Y928758D01*
X864822Y928757D01*
X864819Y928752D01*
X864815Y928749D01*
X864766Y928670D01*
X864714Y928593D01*
X864714Y928590D01*
X864713Y928589D01*
X864712Y928585D01*
X864709Y928579D01*
X864704Y928554D01*
X863749Y926247D01*
X862033Y924531D01*
X861486Y924305D01*
X860261Y923797D01*
X859793Y923603D01*
X824530Y923603D01*
X824502Y923598D01*
X824474Y923600D01*
X824389Y923575D01*
X824333Y923564D01*
X824320Y923554D01*
X824302Y923549D01*
X819590Y921175D01*
X819204Y920981D01*
X819163Y920948D01*
X819074Y920886D01*
X817219Y919031D01*
X808381Y919031D01*
G37*
%LPD*%
%LPC*%
G36*
X808381Y944431D02*
X808381Y944431D01*
X802131Y950681D01*
X802131Y959519D01*
X808381Y965769D01*
X817219Y965769D01*
X818997Y963991D01*
X819031Y963968D01*
X819136Y963893D01*
X824242Y961441D01*
X824264Y961435D01*
X824284Y961423D01*
X824383Y961405D01*
X824436Y961391D01*
X824448Y961393D01*
X824462Y961391D01*
X835114Y961391D01*
X835119Y961392D01*
X835124Y961391D01*
X835217Y961412D01*
X835311Y961430D01*
X835315Y961433D01*
X835320Y961434D01*
X835398Y961490D01*
X835476Y961543D01*
X835479Y961547D01*
X835483Y961550D01*
X835534Y961632D01*
X835586Y961711D01*
X835586Y961716D01*
X835589Y961721D01*
X835621Y961898D01*
X835621Y962057D01*
X837407Y963843D01*
X849933Y963843D01*
X851811Y961964D01*
X851816Y961961D01*
X851819Y961957D01*
X851899Y961906D01*
X851978Y961853D01*
X851983Y961852D01*
X851988Y961849D01*
X852082Y961834D01*
X852175Y961816D01*
X852180Y961817D01*
X852185Y961816D01*
X852278Y961838D01*
X852371Y961857D01*
X852376Y961860D01*
X852381Y961861D01*
X852529Y961964D01*
X854407Y963843D01*
X855082Y963843D01*
X855087Y963844D01*
X855092Y963843D01*
X855185Y963864D01*
X855279Y963882D01*
X855283Y963885D01*
X855288Y963886D01*
X855366Y963942D01*
X855444Y963995D01*
X855447Y963999D01*
X855451Y964002D01*
X855502Y964084D01*
X855554Y964163D01*
X855554Y964168D01*
X855557Y964173D01*
X855589Y964350D01*
X855589Y1085195D01*
X855588Y1085203D01*
X855589Y1085211D01*
X855568Y1085301D01*
X855550Y1085392D01*
X855545Y1085398D01*
X855543Y1085406D01*
X855441Y1085554D01*
X825499Y1115495D01*
X825499Y1137311D01*
X825498Y1137319D01*
X825499Y1137327D01*
X825478Y1137417D01*
X825460Y1137508D01*
X825455Y1137514D01*
X825453Y1137522D01*
X825351Y1137670D01*
X822728Y1140292D01*
X821181Y1144027D01*
X821181Y1162293D01*
X822728Y1166028D01*
X825586Y1168886D01*
X826793Y1169386D01*
X828017Y1169893D01*
X829242Y1170400D01*
X829321Y1170433D01*
X833363Y1170433D01*
X837098Y1168886D01*
X839956Y1166028D01*
X841503Y1162293D01*
X841503Y1144027D01*
X839956Y1140292D01*
X837098Y1137434D01*
X836894Y1137350D01*
X836893Y1137350D01*
X835974Y1136969D01*
X835968Y1136965D01*
X835962Y1136964D01*
X835885Y1136909D01*
X835807Y1136857D01*
X835804Y1136851D01*
X835799Y1136848D01*
X835749Y1136768D01*
X835697Y1136689D01*
X835696Y1136683D01*
X835693Y1136677D01*
X835661Y1136500D01*
X835661Y1119915D01*
X835662Y1119907D01*
X835661Y1119899D01*
X835682Y1119809D01*
X835700Y1119718D01*
X835705Y1119712D01*
X835707Y1119704D01*
X835809Y1119556D01*
X865751Y1089615D01*
X865751Y964350D01*
X865752Y964345D01*
X865751Y964340D01*
X865772Y964247D01*
X865790Y964153D01*
X865793Y964149D01*
X865794Y964144D01*
X865850Y964066D01*
X865903Y963988D01*
X865907Y963985D01*
X865910Y963981D01*
X865992Y963930D01*
X866071Y963878D01*
X866076Y963878D01*
X866081Y963875D01*
X866258Y963843D01*
X866933Y963843D01*
X868719Y962057D01*
X868719Y948531D01*
X866933Y946745D01*
X854407Y946745D01*
X852529Y948624D01*
X852524Y948627D01*
X852521Y948631D01*
X852441Y948682D01*
X852362Y948735D01*
X852357Y948736D01*
X852352Y948739D01*
X852258Y948754D01*
X852165Y948772D01*
X852160Y948771D01*
X852154Y948772D01*
X852062Y948750D01*
X851969Y948731D01*
X851964Y948728D01*
X851959Y948727D01*
X851811Y948624D01*
X849933Y946745D01*
X837407Y946745D01*
X835621Y948531D01*
X835621Y948690D01*
X835620Y948695D01*
X835621Y948700D01*
X835600Y948793D01*
X835582Y948887D01*
X835579Y948891D01*
X835578Y948896D01*
X835522Y948974D01*
X835469Y949052D01*
X835465Y949055D01*
X835462Y949059D01*
X835380Y949110D01*
X835301Y949162D01*
X835296Y949162D01*
X835291Y949165D01*
X835114Y949197D01*
X824595Y949197D01*
X824563Y949191D01*
X824530Y949193D01*
X824453Y949169D01*
X824398Y949158D01*
X824381Y949146D01*
X824358Y949139D01*
X819273Y946453D01*
X819230Y946418D01*
X819151Y946364D01*
X817219Y944431D01*
X808381Y944431D01*
G37*
%LPD*%
%LPC*%
G36*
X704712Y1068609D02*
X704712Y1068609D01*
X702109Y1069687D01*
X700117Y1071679D01*
X699039Y1074282D01*
X699039Y1077098D01*
X700117Y1079701D01*
X702109Y1081693D01*
X703185Y1082139D01*
X704410Y1082646D01*
X704712Y1082771D01*
X705805Y1082771D01*
X705813Y1082772D01*
X705821Y1082771D01*
X705911Y1082792D01*
X706002Y1082810D01*
X706008Y1082815D01*
X706016Y1082817D01*
X706164Y1082919D01*
X782933Y1159688D01*
X782937Y1159695D01*
X782943Y1159699D01*
X782992Y1159778D01*
X783044Y1159855D01*
X783045Y1159863D01*
X783049Y1159869D01*
X783081Y1160047D01*
X783081Y1183459D01*
X786206Y1186583D01*
X795633Y1196010D01*
X795637Y1196016D01*
X795643Y1196021D01*
X795692Y1196100D01*
X795744Y1196177D01*
X795745Y1196185D01*
X795749Y1196191D01*
X795781Y1196369D01*
X795781Y1208267D01*
X797328Y1212002D01*
X800186Y1214860D01*
X800617Y1215038D01*
X801841Y1215545D01*
X803066Y1216053D01*
X803921Y1216407D01*
X807963Y1216407D01*
X811698Y1214860D01*
X814556Y1212002D01*
X816103Y1208267D01*
X816103Y1190001D01*
X814556Y1186266D01*
X811698Y1183408D01*
X810717Y1183002D01*
X809493Y1182495D01*
X808268Y1181988D01*
X807963Y1181861D01*
X803921Y1181861D01*
X800186Y1183408D01*
X799153Y1184442D01*
X799148Y1184445D01*
X799145Y1184449D01*
X799065Y1184500D01*
X798986Y1184553D01*
X798980Y1184554D01*
X798976Y1184557D01*
X798882Y1184573D01*
X798789Y1184591D01*
X798784Y1184589D01*
X798778Y1184590D01*
X798686Y1184569D01*
X798593Y1184549D01*
X798588Y1184546D01*
X798583Y1184545D01*
X798435Y1184442D01*
X793391Y1179398D01*
X793387Y1179392D01*
X793381Y1179387D01*
X793332Y1179308D01*
X793280Y1179231D01*
X793279Y1179223D01*
X793275Y1179217D01*
X793243Y1179039D01*
X793243Y1155627D01*
X713349Y1075734D01*
X713345Y1075727D01*
X713339Y1075723D01*
X713290Y1075644D01*
X713238Y1075567D01*
X713237Y1075559D01*
X713233Y1075553D01*
X713201Y1075375D01*
X713201Y1074282D01*
X712123Y1071679D01*
X710131Y1069687D01*
X709385Y1069378D01*
X708160Y1068871D01*
X707528Y1068609D01*
X704712Y1068609D01*
G37*
%LPD*%
%LPC*%
G36*
X859797Y805687D02*
X859797Y805687D01*
X858011Y807473D01*
X858011Y816715D01*
X858009Y816724D01*
X858011Y816733D01*
X857973Y816909D01*
X857757Y817429D01*
X857757Y819855D01*
X857973Y820375D01*
X857974Y820384D01*
X857979Y820392D01*
X858011Y820569D01*
X858011Y829811D01*
X859797Y831597D01*
X867911Y831597D01*
X869697Y829811D01*
X869697Y825246D01*
X869698Y825241D01*
X869697Y825236D01*
X869718Y825143D01*
X869736Y825049D01*
X869739Y825045D01*
X869740Y825040D01*
X869796Y824962D01*
X869849Y824884D01*
X869853Y824881D01*
X869856Y824877D01*
X869938Y824826D01*
X870017Y824774D01*
X870022Y824774D01*
X870027Y824771D01*
X870204Y824739D01*
X870209Y824740D01*
X870214Y824739D01*
X870307Y824760D01*
X870401Y824778D01*
X870405Y824781D01*
X870410Y824782D01*
X870488Y824838D01*
X870566Y824891D01*
X870569Y824895D01*
X870573Y824898D01*
X870624Y824980D01*
X870676Y825059D01*
X870676Y825064D01*
X870679Y825069D01*
X870711Y825246D01*
X870711Y829811D01*
X872497Y831597D01*
X880611Y831597D01*
X882397Y829811D01*
X882397Y825246D01*
X882398Y825241D01*
X882397Y825236D01*
X882418Y825143D01*
X882436Y825049D01*
X882439Y825045D01*
X882440Y825040D01*
X882496Y824962D01*
X882549Y824884D01*
X882553Y824881D01*
X882556Y824877D01*
X882638Y824826D01*
X882717Y824774D01*
X882722Y824774D01*
X882727Y824771D01*
X882904Y824739D01*
X882909Y824740D01*
X882914Y824739D01*
X883007Y824760D01*
X883101Y824778D01*
X883105Y824781D01*
X883110Y824782D01*
X883188Y824838D01*
X883266Y824891D01*
X883269Y824895D01*
X883273Y824898D01*
X883324Y824980D01*
X883376Y825059D01*
X883376Y825064D01*
X883379Y825069D01*
X883411Y825246D01*
X883411Y829811D01*
X885197Y831597D01*
X893311Y831597D01*
X895097Y829811D01*
X895097Y825246D01*
X895098Y825241D01*
X895097Y825236D01*
X895118Y825143D01*
X895136Y825049D01*
X895139Y825045D01*
X895140Y825040D01*
X895196Y824962D01*
X895249Y824884D01*
X895253Y824881D01*
X895256Y824877D01*
X895338Y824826D01*
X895417Y824774D01*
X895422Y824774D01*
X895427Y824771D01*
X895604Y824739D01*
X895609Y824740D01*
X895614Y824739D01*
X895707Y824760D01*
X895801Y824778D01*
X895805Y824781D01*
X895810Y824782D01*
X895888Y824838D01*
X895966Y824891D01*
X895969Y824895D01*
X895973Y824898D01*
X896024Y824980D01*
X896076Y825059D01*
X896076Y825064D01*
X896079Y825069D01*
X896111Y825246D01*
X896111Y829811D01*
X897897Y831597D01*
X906011Y831597D01*
X907797Y829810D01*
X907797Y829808D01*
X907818Y829715D01*
X907836Y829621D01*
X907839Y829617D01*
X907840Y829612D01*
X907896Y829534D01*
X907949Y829456D01*
X907953Y829453D01*
X907956Y829449D01*
X908038Y829398D01*
X908117Y829346D01*
X908122Y829346D01*
X908127Y829343D01*
X908304Y829311D01*
X913029Y829311D01*
X913037Y829312D01*
X913045Y829311D01*
X913135Y829332D01*
X913226Y829350D01*
X913232Y829355D01*
X913240Y829357D01*
X913388Y829459D01*
X915756Y831828D01*
X916327Y832064D01*
X917552Y832572D01*
X918776Y833079D01*
X918777Y833079D01*
X919491Y833375D01*
X937757Y833375D01*
X941492Y831828D01*
X944350Y828970D01*
X945897Y825235D01*
X945897Y821193D01*
X944350Y817458D01*
X941492Y814600D01*
X940601Y814231D01*
X939377Y813724D01*
X938152Y813217D01*
X937757Y813053D01*
X919491Y813053D01*
X915756Y814600D01*
X913388Y816969D01*
X913381Y816973D01*
X913377Y816979D01*
X913298Y817028D01*
X913221Y817080D01*
X913213Y817081D01*
X913207Y817085D01*
X913029Y817117D01*
X908304Y817117D01*
X908299Y817116D01*
X908294Y817117D01*
X908201Y817096D01*
X908107Y817078D01*
X908103Y817075D01*
X908098Y817074D01*
X908020Y817018D01*
X907942Y816965D01*
X907939Y816961D01*
X907935Y816958D01*
X907884Y816876D01*
X907832Y816797D01*
X907832Y816792D01*
X907829Y816787D01*
X907797Y816610D01*
X907797Y807473D01*
X906011Y805687D01*
X897897Y805687D01*
X896111Y807473D01*
X896111Y812038D01*
X896110Y812043D01*
X896111Y812048D01*
X896090Y812141D01*
X896072Y812235D01*
X896069Y812239D01*
X896068Y812244D01*
X896012Y812322D01*
X895959Y812400D01*
X895955Y812403D01*
X895952Y812407D01*
X895870Y812458D01*
X895791Y812510D01*
X895786Y812510D01*
X895781Y812513D01*
X895604Y812545D01*
X895599Y812544D01*
X895594Y812545D01*
X895501Y812524D01*
X895407Y812506D01*
X895403Y812503D01*
X895398Y812502D01*
X895320Y812446D01*
X895242Y812393D01*
X895239Y812389D01*
X895235Y812386D01*
X895184Y812304D01*
X895132Y812225D01*
X895132Y812220D01*
X895129Y812215D01*
X895097Y812038D01*
X895097Y807473D01*
X893311Y805687D01*
X885197Y805687D01*
X883411Y807473D01*
X883411Y812038D01*
X883410Y812043D01*
X883411Y812048D01*
X883390Y812141D01*
X883372Y812235D01*
X883369Y812239D01*
X883368Y812244D01*
X883312Y812322D01*
X883259Y812400D01*
X883255Y812403D01*
X883252Y812407D01*
X883170Y812458D01*
X883091Y812510D01*
X883086Y812510D01*
X883081Y812513D01*
X882904Y812545D01*
X882899Y812544D01*
X882894Y812545D01*
X882801Y812524D01*
X882707Y812506D01*
X882703Y812503D01*
X882698Y812502D01*
X882620Y812446D01*
X882542Y812393D01*
X882539Y812389D01*
X882535Y812386D01*
X882484Y812304D01*
X882432Y812225D01*
X882432Y812220D01*
X882429Y812215D01*
X882397Y812038D01*
X882397Y807473D01*
X880611Y805687D01*
X872497Y805687D01*
X870711Y807473D01*
X870711Y812038D01*
X870710Y812043D01*
X870711Y812048D01*
X870690Y812141D01*
X870672Y812235D01*
X870669Y812239D01*
X870668Y812244D01*
X870612Y812322D01*
X870559Y812400D01*
X870555Y812403D01*
X870552Y812407D01*
X870470Y812458D01*
X870391Y812510D01*
X870386Y812510D01*
X870381Y812513D01*
X870204Y812545D01*
X870199Y812544D01*
X870194Y812545D01*
X870101Y812524D01*
X870007Y812506D01*
X870003Y812503D01*
X869998Y812502D01*
X869920Y812446D01*
X869842Y812393D01*
X869839Y812389D01*
X869835Y812386D01*
X869784Y812304D01*
X869732Y812225D01*
X869732Y812220D01*
X869729Y812215D01*
X869697Y812038D01*
X869697Y807473D01*
X867911Y805687D01*
X859797Y805687D01*
G37*
%LPD*%
%LPC*%
G36*
X910452Y1137189D02*
X910452Y1137189D01*
X907849Y1138267D01*
X905857Y1140259D01*
X904779Y1142862D01*
X904779Y1143701D01*
X904778Y1143709D01*
X904779Y1143717D01*
X904758Y1143807D01*
X904740Y1143898D01*
X904735Y1143904D01*
X904733Y1143912D01*
X904631Y1144060D01*
X864249Y1184442D01*
X864244Y1184445D01*
X864241Y1184449D01*
X864161Y1184500D01*
X864082Y1184553D01*
X864077Y1184554D01*
X864072Y1184557D01*
X863978Y1184573D01*
X863885Y1184591D01*
X863880Y1184589D01*
X863875Y1184590D01*
X863782Y1184569D01*
X863689Y1184549D01*
X863685Y1184546D01*
X863679Y1184545D01*
X863531Y1184442D01*
X862498Y1183408D01*
X861517Y1183002D01*
X860293Y1182495D01*
X859068Y1181988D01*
X858763Y1181861D01*
X854721Y1181861D01*
X850986Y1183408D01*
X848128Y1186266D01*
X846581Y1190001D01*
X846581Y1208267D01*
X848128Y1212002D01*
X850986Y1214860D01*
X851417Y1215038D01*
X852641Y1215545D01*
X853866Y1216053D01*
X854721Y1216407D01*
X858763Y1216407D01*
X862498Y1214860D01*
X865356Y1212002D01*
X866903Y1208267D01*
X866903Y1196369D01*
X866904Y1196361D01*
X866903Y1196353D01*
X866924Y1196263D01*
X866942Y1196172D01*
X866947Y1196166D01*
X866949Y1196158D01*
X867051Y1196010D01*
X911562Y1151499D01*
X911569Y1151495D01*
X911573Y1151489D01*
X911652Y1151440D01*
X911729Y1151388D01*
X911737Y1151387D01*
X911743Y1151383D01*
X911921Y1151351D01*
X913268Y1151351D01*
X915871Y1150273D01*
X917863Y1148281D01*
X918941Y1145678D01*
X918941Y1142862D01*
X917863Y1140259D01*
X915871Y1138267D01*
X914880Y1137857D01*
X913656Y1137350D01*
X913655Y1137350D01*
X913268Y1137189D01*
X910452Y1137189D01*
G37*
%LPD*%
%LPC*%
G36*
X796658Y483201D02*
X796658Y483201D01*
X790484Y485759D01*
X785759Y490484D01*
X783201Y496658D01*
X783201Y503342D01*
X785759Y509516D01*
X790484Y514241D01*
X791171Y514526D01*
X792396Y515033D01*
X793620Y515540D01*
X793621Y515540D01*
X794845Y516048D01*
X796070Y516555D01*
X796658Y516799D01*
X803342Y516799D01*
X809516Y514241D01*
X814241Y509516D01*
X816799Y503342D01*
X816799Y496658D01*
X814241Y490484D01*
X809516Y485759D01*
X808972Y485533D01*
X807747Y485026D01*
X806522Y484519D01*
X805298Y484012D01*
X804073Y483504D01*
X803342Y483201D01*
X796658Y483201D01*
G37*
%LPD*%
%LPC*%
G36*
X796658Y1063201D02*
X796658Y1063201D01*
X790484Y1065759D01*
X785759Y1070484D01*
X783201Y1076658D01*
X783201Y1083342D01*
X785759Y1089516D01*
X790484Y1094241D01*
X790656Y1094313D01*
X791881Y1094820D01*
X793106Y1095327D01*
X794330Y1095834D01*
X795555Y1096342D01*
X796658Y1096799D01*
X803342Y1096799D01*
X809516Y1094241D01*
X814241Y1089516D01*
X816799Y1083342D01*
X816799Y1076658D01*
X814241Y1070484D01*
X809516Y1065759D01*
X808457Y1065320D01*
X807232Y1064813D01*
X806008Y1064306D01*
X804783Y1063798D01*
X803558Y1063291D01*
X803342Y1063201D01*
X796658Y1063201D01*
G37*
%LPD*%
%LPC*%
G36*
X791580Y424211D02*
X791580Y424211D01*
X788977Y425289D01*
X786985Y427281D01*
X785907Y429884D01*
X785907Y432700D01*
X786985Y435303D01*
X788977Y437295D01*
X789288Y437424D01*
X789289Y437424D01*
X790513Y437931D01*
X791580Y438373D01*
X794396Y438373D01*
X796999Y437295D01*
X797772Y436521D01*
X797779Y436517D01*
X797784Y436511D01*
X797862Y436462D01*
X797939Y436410D01*
X797947Y436409D01*
X797954Y436405D01*
X798131Y436373D01*
X848297Y436373D01*
X848305Y436374D01*
X848312Y436373D01*
X848402Y436394D01*
X848493Y436412D01*
X848500Y436417D01*
X848508Y436419D01*
X848656Y436521D01*
X849683Y437549D01*
X850606Y437931D01*
X851831Y438438D01*
X852286Y438627D01*
X855102Y438627D01*
X857705Y437549D01*
X859697Y435557D01*
X860775Y432954D01*
X860775Y430138D01*
X859697Y427535D01*
X857705Y425543D01*
X856805Y425171D01*
X855581Y424663D01*
X855102Y424465D01*
X852286Y424465D01*
X849683Y425543D01*
X849164Y426063D01*
X849157Y426067D01*
X849152Y426073D01*
X849074Y426122D01*
X848997Y426174D01*
X848989Y426175D01*
X848982Y426179D01*
X848805Y426211D01*
X798131Y426211D01*
X798123Y426210D01*
X798116Y426211D01*
X798026Y426190D01*
X797935Y426172D01*
X797928Y426167D01*
X797920Y426165D01*
X797772Y426063D01*
X796999Y425289D01*
X796713Y425171D01*
X796712Y425171D01*
X795488Y424663D01*
X794396Y424211D01*
X791580Y424211D01*
G37*
%LPD*%
%LPC*%
G36*
X853302Y554259D02*
X853302Y554259D01*
X850699Y555337D01*
X848707Y557329D01*
X847629Y559932D01*
X847629Y562748D01*
X848707Y565351D01*
X850699Y567343D01*
X851772Y567787D01*
X852996Y568294D01*
X853302Y568421D01*
X856118Y568421D01*
X858721Y567343D01*
X859494Y566569D01*
X859501Y566565D01*
X859506Y566559D01*
X859584Y566510D01*
X859661Y566458D01*
X859669Y566457D01*
X859676Y566453D01*
X859853Y566421D01*
X896557Y566421D01*
X896565Y566422D01*
X896572Y566421D01*
X896662Y566442D01*
X896753Y566460D01*
X896760Y566465D01*
X896768Y566467D01*
X896916Y566569D01*
X897689Y567343D01*
X898762Y567787D01*
X899986Y568294D01*
X900292Y568421D01*
X903108Y568421D01*
X905711Y567343D01*
X907703Y565351D01*
X908781Y562748D01*
X908781Y559932D01*
X907703Y557329D01*
X905711Y555337D01*
X904961Y555027D01*
X903736Y554519D01*
X903108Y554259D01*
X900292Y554259D01*
X897689Y555337D01*
X896916Y556111D01*
X896909Y556115D01*
X896904Y556121D01*
X896826Y556170D01*
X896749Y556222D01*
X896741Y556223D01*
X896734Y556227D01*
X896557Y556259D01*
X859853Y556259D01*
X859845Y556258D01*
X859838Y556259D01*
X859748Y556238D01*
X859657Y556220D01*
X859650Y556215D01*
X859642Y556213D01*
X859494Y556111D01*
X858721Y555337D01*
X857971Y555027D01*
X856746Y554519D01*
X856118Y554259D01*
X853302Y554259D01*
G37*
%LPD*%
%LPC*%
G36*
X803921Y1135887D02*
X803921Y1135887D01*
X800186Y1137434D01*
X797328Y1140292D01*
X795781Y1144027D01*
X795781Y1162293D01*
X797328Y1166028D01*
X800186Y1168886D01*
X801393Y1169386D01*
X802617Y1169893D01*
X803842Y1170400D01*
X803921Y1170433D01*
X807963Y1170433D01*
X811698Y1168886D01*
X814556Y1166028D01*
X816103Y1162293D01*
X816103Y1144027D01*
X814556Y1140292D01*
X811698Y1137434D01*
X811494Y1137350D01*
X811493Y1137350D01*
X810269Y1136842D01*
X809044Y1136335D01*
X807963Y1135887D01*
X803921Y1135887D01*
G37*
%LPD*%
%LPC*%
G36*
X752972Y1087659D02*
X752972Y1087659D01*
X750369Y1088737D01*
X748377Y1090729D01*
X747299Y1093332D01*
X747299Y1096148D01*
X748377Y1098751D01*
X750369Y1100743D01*
X750765Y1100907D01*
X751990Y1101414D01*
X752972Y1101821D01*
X754065Y1101821D01*
X754073Y1101822D01*
X754081Y1101821D01*
X754171Y1101842D01*
X754262Y1101860D01*
X754268Y1101865D01*
X754276Y1101867D01*
X754424Y1101969D01*
X773821Y1121366D01*
X773825Y1121373D01*
X773831Y1121377D01*
X773880Y1121456D01*
X773932Y1121533D01*
X773933Y1121541D01*
X773937Y1121547D01*
X773969Y1121725D01*
X773969Y1122818D01*
X775047Y1125421D01*
X777039Y1127413D01*
X777952Y1127791D01*
X779177Y1128298D01*
X779642Y1128491D01*
X782458Y1128491D01*
X785061Y1127413D01*
X787053Y1125421D01*
X788131Y1122818D01*
X788131Y1120002D01*
X787053Y1117399D01*
X785061Y1115407D01*
X784152Y1115031D01*
X782927Y1114523D01*
X782458Y1114329D01*
X781365Y1114329D01*
X781357Y1114328D01*
X781349Y1114329D01*
X781259Y1114308D01*
X781168Y1114290D01*
X781162Y1114285D01*
X781154Y1114283D01*
X781006Y1114181D01*
X761609Y1094784D01*
X761605Y1094777D01*
X761599Y1094773D01*
X761550Y1094694D01*
X761498Y1094617D01*
X761497Y1094609D01*
X761493Y1094603D01*
X761461Y1094425D01*
X761461Y1093332D01*
X760383Y1090729D01*
X758391Y1088737D01*
X758189Y1088654D01*
X756965Y1088146D01*
X756964Y1088146D01*
X755788Y1087659D01*
X752972Y1087659D01*
G37*
%LPD*%
%LPC*%
G36*
X923152Y1039399D02*
X923152Y1039399D01*
X920549Y1040477D01*
X918557Y1042469D01*
X917479Y1045072D01*
X917479Y1046165D01*
X917478Y1046173D01*
X917479Y1046181D01*
X917458Y1046271D01*
X917440Y1046362D01*
X917435Y1046368D01*
X917433Y1046376D01*
X917331Y1046524D01*
X900474Y1063381D01*
X900467Y1063385D01*
X900463Y1063391D01*
X900384Y1063440D01*
X900307Y1063492D01*
X900299Y1063493D01*
X900293Y1063497D01*
X900115Y1063529D01*
X899022Y1063529D01*
X896419Y1064607D01*
X894427Y1066599D01*
X893349Y1069202D01*
X893349Y1072018D01*
X894427Y1074621D01*
X896419Y1076613D01*
X897513Y1077066D01*
X897514Y1077066D01*
X898738Y1077573D01*
X899022Y1077691D01*
X901838Y1077691D01*
X904441Y1076613D01*
X906433Y1074621D01*
X907511Y1072018D01*
X907511Y1070925D01*
X907512Y1070917D01*
X907511Y1070909D01*
X907532Y1070819D01*
X907550Y1070728D01*
X907555Y1070722D01*
X907557Y1070714D01*
X907659Y1070566D01*
X924516Y1053709D01*
X924523Y1053705D01*
X924527Y1053699D01*
X924606Y1053650D01*
X924683Y1053598D01*
X924691Y1053597D01*
X924697Y1053593D01*
X924875Y1053561D01*
X925968Y1053561D01*
X928571Y1052483D01*
X930563Y1050491D01*
X931641Y1047888D01*
X931641Y1045072D01*
X930563Y1042469D01*
X928571Y1040477D01*
X928541Y1040465D01*
X927317Y1039958D01*
X927316Y1039958D01*
X926092Y1039450D01*
X925968Y1039399D01*
X923152Y1039399D01*
G37*
%LPD*%
%LPC*%
G36*
X864732Y853979D02*
X864732Y853979D01*
X862129Y855057D01*
X860137Y857049D01*
X859059Y859652D01*
X859059Y862468D01*
X860137Y865071D01*
X862129Y867063D01*
X862133Y867065D01*
X863358Y867572D01*
X864583Y868079D01*
X864732Y868141D01*
X867548Y868141D01*
X870151Y867063D01*
X870924Y866289D01*
X870931Y866285D01*
X870936Y866279D01*
X871014Y866230D01*
X871091Y866178D01*
X871099Y866177D01*
X871106Y866173D01*
X871283Y866141D01*
X894017Y866141D01*
X894025Y866142D01*
X894032Y866141D01*
X894122Y866162D01*
X894213Y866180D01*
X894220Y866185D01*
X894228Y866187D01*
X894376Y866289D01*
X895149Y867063D01*
X895153Y867065D01*
X896378Y867572D01*
X897603Y868079D01*
X897752Y868141D01*
X900568Y868141D01*
X903171Y867063D01*
X905163Y865071D01*
X906241Y862468D01*
X906241Y859652D01*
X905163Y857049D01*
X903171Y855057D01*
X902577Y854811D01*
X901353Y854304D01*
X900568Y853979D01*
X897752Y853979D01*
X895149Y855057D01*
X894376Y855831D01*
X894369Y855835D01*
X894364Y855841D01*
X894286Y855890D01*
X894209Y855942D01*
X894201Y855943D01*
X894194Y855947D01*
X894017Y855979D01*
X871283Y855979D01*
X871275Y855978D01*
X871268Y855979D01*
X871178Y855958D01*
X871087Y855940D01*
X871080Y855935D01*
X871072Y855933D01*
X870924Y855831D01*
X870151Y855057D01*
X869557Y854811D01*
X868333Y854304D01*
X867548Y853979D01*
X864732Y853979D01*
G37*
%LPD*%
G36*
X708607Y999810D02*
X708607Y999810D01*
X708678Y999807D01*
X708705Y999817D01*
X708734Y999819D01*
X708824Y999861D01*
X708864Y999876D01*
X708872Y999884D01*
X708885Y999890D01*
X711188Y1001489D01*
X711212Y1001515D01*
X711252Y1001542D01*
X713261Y1003499D01*
X713280Y1003528D01*
X713315Y1003561D01*
X714974Y1005822D01*
X714989Y1005853D01*
X715018Y1005892D01*
X716282Y1008395D01*
X716291Y1008429D01*
X716313Y1008472D01*
X717149Y1011149D01*
X717152Y1011183D01*
X717167Y1011229D01*
X717550Y1014008D01*
X717548Y1014042D01*
X717554Y1014090D01*
X717475Y1016893D01*
X717467Y1016927D01*
X717466Y1016975D01*
X716927Y1019727D01*
X716913Y1019759D01*
X716904Y1019807D01*
X715919Y1022432D01*
X715904Y1022457D01*
X715899Y1022477D01*
X715891Y1022488D01*
X715884Y1022507D01*
X714480Y1024935D01*
X714457Y1024961D01*
X714433Y1025003D01*
X712649Y1027166D01*
X712622Y1027188D01*
X712591Y1027225D01*
X710475Y1029066D01*
X710445Y1029083D01*
X710409Y1029115D01*
X708018Y1030582D01*
X707986Y1030593D01*
X707945Y1030619D01*
X705346Y1031672D01*
X705312Y1031679D01*
X705267Y1031697D01*
X702530Y1032308D01*
X702495Y1032309D01*
X702448Y1032320D01*
X699648Y1032472D01*
X699614Y1032467D01*
X699566Y1032470D01*
X696778Y1032160D01*
X696745Y1032149D01*
X696697Y1032144D01*
X693999Y1031379D01*
X693969Y1031363D01*
X693922Y1031350D01*
X691387Y1030151D01*
X691363Y1030134D01*
X691336Y1030124D01*
X691284Y1030075D01*
X691227Y1030032D01*
X691213Y1030007D01*
X691192Y1029987D01*
X691163Y1029922D01*
X691127Y1029861D01*
X691124Y1029832D01*
X691112Y1029805D01*
X691111Y1029734D01*
X691102Y1029663D01*
X691110Y1029635D01*
X691110Y1029606D01*
X691144Y1029513D01*
X691156Y1029472D01*
X691163Y1029463D01*
X691168Y1029450D01*
X708168Y1000050D01*
X708187Y1000028D01*
X708200Y1000002D01*
X708253Y999954D01*
X708300Y999901D01*
X708326Y999889D01*
X708348Y999869D01*
X708415Y999846D01*
X708479Y999816D01*
X708508Y999814D01*
X708536Y999805D01*
X708607Y999810D01*
G37*
G36*
X708607Y399810D02*
X708607Y399810D01*
X708678Y399807D01*
X708705Y399817D01*
X708734Y399819D01*
X708824Y399861D01*
X708864Y399876D01*
X708872Y399884D01*
X708885Y399890D01*
X711188Y401489D01*
X711212Y401515D01*
X711252Y401542D01*
X713261Y403499D01*
X713280Y403528D01*
X713315Y403561D01*
X714974Y405822D01*
X714989Y405853D01*
X715018Y405892D01*
X716282Y408395D01*
X716291Y408429D01*
X716313Y408472D01*
X717149Y411149D01*
X717152Y411183D01*
X717167Y411229D01*
X717550Y414008D01*
X717548Y414042D01*
X717554Y414090D01*
X717475Y416893D01*
X717467Y416927D01*
X717466Y416975D01*
X716927Y419727D01*
X716913Y419759D01*
X716904Y419807D01*
X715919Y422432D01*
X715904Y422457D01*
X715899Y422477D01*
X715891Y422488D01*
X715884Y422507D01*
X714480Y424935D01*
X714457Y424961D01*
X714433Y425003D01*
X712649Y427166D01*
X712622Y427188D01*
X712591Y427225D01*
X710475Y429066D01*
X710445Y429083D01*
X710409Y429115D01*
X708018Y430582D01*
X707986Y430593D01*
X707945Y430619D01*
X705346Y431672D01*
X705312Y431679D01*
X705267Y431697D01*
X702530Y432308D01*
X702495Y432309D01*
X702448Y432320D01*
X699648Y432472D01*
X699614Y432467D01*
X699566Y432470D01*
X696778Y432160D01*
X696745Y432149D01*
X696697Y432144D01*
X693999Y431379D01*
X693969Y431363D01*
X693922Y431350D01*
X691387Y430151D01*
X691363Y430134D01*
X691336Y430124D01*
X691284Y430075D01*
X691227Y430032D01*
X691213Y430007D01*
X691192Y429987D01*
X691163Y429922D01*
X691127Y429861D01*
X691124Y429832D01*
X691112Y429805D01*
X691111Y429734D01*
X691102Y429663D01*
X691110Y429635D01*
X691110Y429606D01*
X691144Y429513D01*
X691156Y429472D01*
X691163Y429463D01*
X691168Y429450D01*
X708168Y400050D01*
X708187Y400028D01*
X708200Y400002D01*
X708253Y399954D01*
X708300Y399901D01*
X708326Y399889D01*
X708348Y399869D01*
X708415Y399846D01*
X708479Y399816D01*
X708508Y399814D01*
X708536Y399805D01*
X708607Y399810D01*
G37*
G36*
X708607Y699810D02*
X708607Y699810D01*
X708678Y699807D01*
X708705Y699817D01*
X708734Y699819D01*
X708824Y699861D01*
X708864Y699876D01*
X708872Y699884D01*
X708885Y699890D01*
X711188Y701489D01*
X711212Y701515D01*
X711252Y701542D01*
X713261Y703499D01*
X713280Y703528D01*
X713315Y703561D01*
X714974Y705822D01*
X714989Y705853D01*
X715018Y705892D01*
X716282Y708395D01*
X716291Y708429D01*
X716313Y708472D01*
X717149Y711149D01*
X717152Y711183D01*
X717167Y711229D01*
X717550Y714008D01*
X717548Y714042D01*
X717554Y714090D01*
X717475Y716893D01*
X717467Y716927D01*
X717466Y716975D01*
X716927Y719727D01*
X716913Y719759D01*
X716904Y719807D01*
X715919Y722432D01*
X715904Y722457D01*
X715899Y722477D01*
X715891Y722488D01*
X715884Y722507D01*
X714480Y724935D01*
X714457Y724961D01*
X714433Y725003D01*
X712649Y727166D01*
X712622Y727188D01*
X712591Y727225D01*
X710475Y729066D01*
X710445Y729083D01*
X710409Y729115D01*
X708018Y730582D01*
X707986Y730593D01*
X707945Y730619D01*
X705346Y731672D01*
X705312Y731679D01*
X705267Y731697D01*
X702530Y732308D01*
X702495Y732309D01*
X702448Y732320D01*
X699648Y732472D01*
X699614Y732467D01*
X699566Y732470D01*
X696778Y732160D01*
X696745Y732149D01*
X696697Y732144D01*
X693999Y731379D01*
X693969Y731363D01*
X693922Y731350D01*
X691387Y730151D01*
X691363Y730134D01*
X691336Y730124D01*
X691284Y730075D01*
X691227Y730032D01*
X691213Y730007D01*
X691192Y729987D01*
X691163Y729922D01*
X691127Y729861D01*
X691124Y729832D01*
X691112Y729805D01*
X691111Y729734D01*
X691102Y729663D01*
X691110Y729635D01*
X691110Y729606D01*
X691144Y729513D01*
X691156Y729472D01*
X691163Y729463D01*
X691168Y729450D01*
X708168Y700050D01*
X708187Y700028D01*
X708200Y700002D01*
X708253Y699954D01*
X708300Y699901D01*
X708326Y699889D01*
X708348Y699869D01*
X708415Y699846D01*
X708479Y699816D01*
X708508Y699814D01*
X708536Y699805D01*
X708607Y699810D01*
G37*
G36*
X960386Y847533D02*
X960386Y847533D01*
X960434Y847530D01*
X963222Y847840D01*
X963255Y847851D01*
X963303Y847856D01*
X966001Y848621D01*
X966031Y848637D01*
X966078Y848650D01*
X968613Y849849D01*
X968637Y849866D01*
X968664Y849876D01*
X968716Y849925D01*
X968773Y849968D01*
X968787Y849993D01*
X968809Y850013D01*
X968837Y850078D01*
X968873Y850140D01*
X968876Y850168D01*
X968888Y850195D01*
X968889Y850266D01*
X968898Y850337D01*
X968890Y850365D01*
X968890Y850394D01*
X968856Y850487D01*
X968844Y850528D01*
X968837Y850537D01*
X968832Y850550D01*
X951832Y879950D01*
X951813Y879972D01*
X951800Y879998D01*
X951747Y880046D01*
X951700Y880099D01*
X951674Y880111D01*
X951652Y880131D01*
X951585Y880154D01*
X951521Y880184D01*
X951492Y880186D01*
X951464Y880195D01*
X951393Y880190D01*
X951322Y880193D01*
X951295Y880183D01*
X951266Y880181D01*
X951176Y880139D01*
X951136Y880124D01*
X951128Y880116D01*
X951115Y880110D01*
X948812Y878511D01*
X948788Y878486D01*
X948748Y878458D01*
X946739Y876501D01*
X946720Y876472D01*
X946685Y876439D01*
X945026Y874178D01*
X945011Y874147D01*
X944982Y874108D01*
X943718Y871605D01*
X943709Y871571D01*
X943687Y871528D01*
X942851Y868851D01*
X942848Y868817D01*
X942833Y868771D01*
X942450Y865992D01*
X942452Y865958D01*
X942446Y865910D01*
X942525Y863107D01*
X942533Y863073D01*
X942534Y863025D01*
X943073Y860273D01*
X943087Y860241D01*
X943096Y860193D01*
X944081Y857568D01*
X944099Y857538D01*
X944116Y857493D01*
X945520Y855065D01*
X945543Y855039D01*
X945567Y854998D01*
X947351Y852834D01*
X947378Y852812D01*
X947409Y852775D01*
X949525Y850934D01*
X949555Y850917D01*
X949591Y850886D01*
X951982Y849418D01*
X952014Y849407D01*
X952055Y849381D01*
X954654Y848328D01*
X954688Y848321D01*
X954733Y848303D01*
X957470Y847692D01*
X957505Y847691D01*
X957552Y847680D01*
X960352Y847528D01*
X960386Y847533D01*
G37*
G36*
X960386Y1147533D02*
X960386Y1147533D01*
X960434Y1147530D01*
X963222Y1147840D01*
X963255Y1147851D01*
X963303Y1147856D01*
X966001Y1148621D01*
X966031Y1148637D01*
X966078Y1148650D01*
X968613Y1149849D01*
X968637Y1149866D01*
X968664Y1149876D01*
X968716Y1149925D01*
X968773Y1149968D01*
X968787Y1149993D01*
X968809Y1150013D01*
X968837Y1150078D01*
X968873Y1150140D01*
X968876Y1150168D01*
X968888Y1150195D01*
X968889Y1150266D01*
X968898Y1150337D01*
X968890Y1150365D01*
X968890Y1150394D01*
X968856Y1150487D01*
X968844Y1150528D01*
X968837Y1150537D01*
X968832Y1150550D01*
X951832Y1179950D01*
X951813Y1179972D01*
X951800Y1179998D01*
X951747Y1180046D01*
X951700Y1180099D01*
X951674Y1180111D01*
X951652Y1180131D01*
X951585Y1180154D01*
X951521Y1180184D01*
X951492Y1180186D01*
X951464Y1180195D01*
X951393Y1180190D01*
X951322Y1180193D01*
X951295Y1180183D01*
X951266Y1180181D01*
X951176Y1180139D01*
X951136Y1180124D01*
X951128Y1180116D01*
X951115Y1180110D01*
X948812Y1178511D01*
X948788Y1178486D01*
X948748Y1178458D01*
X946739Y1176501D01*
X946720Y1176472D01*
X946685Y1176439D01*
X945026Y1174178D01*
X945011Y1174147D01*
X944982Y1174108D01*
X943718Y1171605D01*
X943709Y1171571D01*
X943687Y1171528D01*
X942851Y1168851D01*
X942848Y1168817D01*
X942833Y1168771D01*
X942450Y1165992D01*
X942452Y1165958D01*
X942446Y1165910D01*
X942525Y1163107D01*
X942533Y1163073D01*
X942534Y1163025D01*
X943073Y1160273D01*
X943087Y1160241D01*
X943096Y1160193D01*
X944081Y1157568D01*
X944099Y1157538D01*
X944116Y1157493D01*
X945520Y1155065D01*
X945543Y1155039D01*
X945567Y1154998D01*
X947351Y1152834D01*
X947378Y1152812D01*
X947409Y1152775D01*
X949525Y1150934D01*
X949555Y1150917D01*
X949591Y1150886D01*
X951982Y1149418D01*
X952014Y1149407D01*
X952055Y1149381D01*
X954654Y1148328D01*
X954688Y1148321D01*
X954733Y1148303D01*
X957470Y1147692D01*
X957505Y1147691D01*
X957552Y1147680D01*
X960352Y1147528D01*
X960386Y1147533D01*
G37*
G36*
X960386Y547533D02*
X960386Y547533D01*
X960434Y547530D01*
X963222Y547840D01*
X963255Y547851D01*
X963303Y547856D01*
X966001Y548621D01*
X966031Y548637D01*
X966078Y548650D01*
X968613Y549849D01*
X968637Y549866D01*
X968664Y549876D01*
X968716Y549925D01*
X968773Y549968D01*
X968787Y549993D01*
X968809Y550013D01*
X968837Y550078D01*
X968873Y550140D01*
X968876Y550168D01*
X968888Y550195D01*
X968889Y550266D01*
X968898Y550337D01*
X968890Y550365D01*
X968890Y550394D01*
X968856Y550487D01*
X968844Y550528D01*
X968837Y550537D01*
X968832Y550550D01*
X951832Y579950D01*
X951813Y579972D01*
X951800Y579998D01*
X951747Y580046D01*
X951700Y580099D01*
X951674Y580111D01*
X951652Y580131D01*
X951585Y580154D01*
X951521Y580184D01*
X951492Y580186D01*
X951464Y580195D01*
X951393Y580190D01*
X951322Y580193D01*
X951295Y580183D01*
X951266Y580181D01*
X951176Y580139D01*
X951136Y580124D01*
X951128Y580116D01*
X951115Y580110D01*
X948812Y578511D01*
X948788Y578486D01*
X948748Y578458D01*
X946739Y576501D01*
X946720Y576472D01*
X946685Y576439D01*
X945026Y574178D01*
X945011Y574147D01*
X944982Y574108D01*
X943718Y571605D01*
X943709Y571571D01*
X943687Y571528D01*
X942851Y568851D01*
X942848Y568817D01*
X942833Y568771D01*
X942450Y565992D01*
X942452Y565958D01*
X942446Y565910D01*
X942525Y563107D01*
X942533Y563073D01*
X942534Y563025D01*
X943073Y560273D01*
X943087Y560241D01*
X943096Y560193D01*
X944081Y557568D01*
X944099Y557538D01*
X944116Y557493D01*
X945520Y555065D01*
X945543Y555039D01*
X945567Y554998D01*
X947351Y552834D01*
X947378Y552812D01*
X947409Y552775D01*
X949525Y550934D01*
X949555Y550917D01*
X949591Y550886D01*
X951982Y549418D01*
X952014Y549407D01*
X952055Y549381D01*
X954654Y548328D01*
X954688Y548321D01*
X954733Y548303D01*
X957470Y547692D01*
X957505Y547691D01*
X957552Y547680D01*
X960352Y547528D01*
X960386Y547533D01*
G37*
G36*
X951426Y999811D02*
X951426Y999811D01*
X951497Y999810D01*
X951524Y999821D01*
X951553Y999825D01*
X951615Y999859D01*
X951680Y999887D01*
X951701Y999908D01*
X951726Y999922D01*
X951789Y999998D01*
X951819Y1000029D01*
X951823Y1000039D01*
X951832Y1000050D01*
X968832Y1029450D01*
X968841Y1029478D01*
X968858Y1029502D01*
X968873Y1029571D01*
X968895Y1029639D01*
X968893Y1029668D01*
X968899Y1029696D01*
X968886Y1029766D01*
X968880Y1029837D01*
X968867Y1029863D01*
X968861Y1029891D01*
X968821Y1029950D01*
X968789Y1030013D01*
X968766Y1030032D01*
X968750Y1030056D01*
X968668Y1030113D01*
X968635Y1030140D01*
X968625Y1030143D01*
X968613Y1030151D01*
X966078Y1031350D01*
X966044Y1031358D01*
X966001Y1031379D01*
X963303Y1032144D01*
X963268Y1032146D01*
X963222Y1032160D01*
X960434Y1032470D01*
X960400Y1032467D01*
X960352Y1032472D01*
X957552Y1032320D01*
X957518Y1032311D01*
X957470Y1032308D01*
X954733Y1031697D01*
X954701Y1031683D01*
X954654Y1031672D01*
X952055Y1030619D01*
X952026Y1030600D01*
X951982Y1030582D01*
X949591Y1029115D01*
X949566Y1029091D01*
X949525Y1029066D01*
X947409Y1027225D01*
X947388Y1027198D01*
X947351Y1027166D01*
X945567Y1025003D01*
X945551Y1024972D01*
X945520Y1024935D01*
X944116Y1022507D01*
X944105Y1022474D01*
X944098Y1022462D01*
X944088Y1022447D01*
X944088Y1022444D01*
X944081Y1022432D01*
X943096Y1019807D01*
X943090Y1019772D01*
X943073Y1019727D01*
X942534Y1016975D01*
X942534Y1016941D01*
X942525Y1016893D01*
X942446Y1014090D01*
X942452Y1014056D01*
X942450Y1014008D01*
X942833Y1011229D01*
X942845Y1011197D01*
X942851Y1011149D01*
X943687Y1008472D01*
X943704Y1008441D01*
X943718Y1008395D01*
X944982Y1005892D01*
X945004Y1005865D01*
X945026Y1005822D01*
X946685Y1003561D01*
X946711Y1003538D01*
X946739Y1003499D01*
X948748Y1001542D01*
X948777Y1001523D01*
X948812Y1001489D01*
X951115Y999890D01*
X951142Y999878D01*
X951165Y999860D01*
X951233Y999839D01*
X951298Y999811D01*
X951327Y999811D01*
X951355Y999803D01*
X951426Y999811D01*
G37*
G36*
X951426Y399811D02*
X951426Y399811D01*
X951497Y399810D01*
X951524Y399821D01*
X951553Y399825D01*
X951615Y399859D01*
X951680Y399887D01*
X951701Y399908D01*
X951726Y399922D01*
X951789Y399998D01*
X951819Y400029D01*
X951823Y400039D01*
X951832Y400050D01*
X968832Y429450D01*
X968841Y429478D01*
X968858Y429502D01*
X968873Y429571D01*
X968895Y429639D01*
X968893Y429668D01*
X968899Y429696D01*
X968886Y429766D01*
X968880Y429837D01*
X968867Y429863D01*
X968861Y429891D01*
X968821Y429950D01*
X968789Y430013D01*
X968766Y430032D01*
X968750Y430056D01*
X968668Y430113D01*
X968635Y430140D01*
X968625Y430143D01*
X968613Y430151D01*
X966078Y431350D01*
X966044Y431358D01*
X966001Y431379D01*
X963303Y432144D01*
X963268Y432146D01*
X963222Y432160D01*
X960434Y432470D01*
X960400Y432467D01*
X960352Y432472D01*
X957552Y432320D01*
X957518Y432311D01*
X957470Y432308D01*
X954733Y431697D01*
X954701Y431683D01*
X954654Y431672D01*
X952055Y430619D01*
X952026Y430600D01*
X951982Y430582D01*
X949591Y429115D01*
X949566Y429091D01*
X949525Y429066D01*
X947409Y427225D01*
X947388Y427198D01*
X947351Y427166D01*
X945567Y425003D01*
X945551Y424972D01*
X945520Y424935D01*
X944116Y422507D01*
X944105Y422474D01*
X944098Y422462D01*
X944088Y422447D01*
X944088Y422444D01*
X944081Y422432D01*
X943096Y419807D01*
X943090Y419772D01*
X943073Y419727D01*
X942534Y416975D01*
X942534Y416941D01*
X942525Y416893D01*
X942446Y414090D01*
X942452Y414056D01*
X942450Y414008D01*
X942833Y411229D01*
X942845Y411197D01*
X942851Y411149D01*
X943687Y408472D01*
X943704Y408441D01*
X943718Y408395D01*
X944982Y405892D01*
X945004Y405865D01*
X945026Y405822D01*
X946685Y403561D01*
X946711Y403538D01*
X946739Y403499D01*
X948748Y401542D01*
X948777Y401523D01*
X948812Y401489D01*
X951115Y399890D01*
X951142Y399878D01*
X951165Y399860D01*
X951233Y399839D01*
X951298Y399811D01*
X951327Y399811D01*
X951355Y399803D01*
X951426Y399811D01*
G37*
G36*
X951426Y699811D02*
X951426Y699811D01*
X951497Y699810D01*
X951524Y699821D01*
X951553Y699825D01*
X951615Y699859D01*
X951680Y699887D01*
X951701Y699908D01*
X951726Y699922D01*
X951789Y699998D01*
X951819Y700029D01*
X951823Y700039D01*
X951832Y700050D01*
X968832Y729450D01*
X968841Y729478D01*
X968858Y729502D01*
X968873Y729571D01*
X968895Y729639D01*
X968893Y729668D01*
X968899Y729696D01*
X968886Y729766D01*
X968880Y729837D01*
X968867Y729863D01*
X968861Y729891D01*
X968821Y729950D01*
X968789Y730013D01*
X968766Y730032D01*
X968750Y730056D01*
X968668Y730113D01*
X968635Y730140D01*
X968625Y730143D01*
X968613Y730151D01*
X966078Y731350D01*
X966044Y731358D01*
X966001Y731379D01*
X963303Y732144D01*
X963268Y732146D01*
X963222Y732160D01*
X960434Y732470D01*
X960400Y732467D01*
X960352Y732472D01*
X957552Y732320D01*
X957518Y732311D01*
X957470Y732308D01*
X954733Y731697D01*
X954701Y731683D01*
X954654Y731672D01*
X952055Y730619D01*
X952026Y730600D01*
X951982Y730582D01*
X949591Y729115D01*
X949566Y729091D01*
X949525Y729066D01*
X947409Y727225D01*
X947388Y727198D01*
X947351Y727166D01*
X945567Y725003D01*
X945551Y724972D01*
X945520Y724935D01*
X944116Y722507D01*
X944105Y722474D01*
X944098Y722462D01*
X944088Y722447D01*
X944088Y722444D01*
X944081Y722432D01*
X943096Y719807D01*
X943090Y719772D01*
X943073Y719727D01*
X942534Y716975D01*
X942534Y716941D01*
X942525Y716893D01*
X942446Y714090D01*
X942452Y714056D01*
X942450Y714008D01*
X942833Y711229D01*
X942845Y711197D01*
X942851Y711149D01*
X943687Y708472D01*
X943704Y708441D01*
X943718Y708395D01*
X944982Y705892D01*
X945004Y705865D01*
X945026Y705822D01*
X946685Y703561D01*
X946711Y703538D01*
X946739Y703499D01*
X948748Y701542D01*
X948777Y701523D01*
X948812Y701489D01*
X951115Y699890D01*
X951142Y699878D01*
X951165Y699860D01*
X951233Y699839D01*
X951298Y699811D01*
X951327Y699811D01*
X951355Y699803D01*
X951426Y699811D01*
G37*
G36*
X702448Y1147680D02*
X702448Y1147680D01*
X702482Y1147689D01*
X702530Y1147692D01*
X705267Y1148303D01*
X705299Y1148317D01*
X705346Y1148328D01*
X707945Y1149381D01*
X707974Y1149400D01*
X708018Y1149418D01*
X710409Y1150886D01*
X710434Y1150909D01*
X710475Y1150934D01*
X712591Y1152775D01*
X712612Y1152802D01*
X712649Y1152834D01*
X714433Y1154998D01*
X714449Y1155028D01*
X714480Y1155065D01*
X715884Y1157493D01*
X715895Y1157526D01*
X715919Y1157568D01*
X716904Y1160193D01*
X716910Y1160228D01*
X716927Y1160273D01*
X717466Y1163025D01*
X717466Y1163060D01*
X717475Y1163107D01*
X717554Y1165910D01*
X717549Y1165944D01*
X717550Y1165992D01*
X717167Y1168771D01*
X717155Y1168803D01*
X717149Y1168851D01*
X716313Y1171528D01*
X716296Y1171559D01*
X716282Y1171605D01*
X715018Y1174108D01*
X714996Y1174135D01*
X714974Y1174178D01*
X713315Y1176439D01*
X713289Y1176462D01*
X713261Y1176501D01*
X711252Y1178458D01*
X711223Y1178477D01*
X711188Y1178511D01*
X708885Y1180110D01*
X708858Y1180122D01*
X708835Y1180140D01*
X708767Y1180161D01*
X708702Y1180189D01*
X708673Y1180189D01*
X708645Y1180197D01*
X708574Y1180189D01*
X708503Y1180190D01*
X708476Y1180179D01*
X708447Y1180175D01*
X708385Y1180141D01*
X708320Y1180113D01*
X708299Y1180092D01*
X708274Y1180078D01*
X708211Y1180002D01*
X708181Y1179971D01*
X708177Y1179961D01*
X708168Y1179950D01*
X691168Y1150550D01*
X691159Y1150522D01*
X691142Y1150498D01*
X691127Y1150429D01*
X691105Y1150361D01*
X691107Y1150332D01*
X691101Y1150304D01*
X691114Y1150234D01*
X691120Y1150163D01*
X691133Y1150137D01*
X691139Y1150109D01*
X691179Y1150050D01*
X691211Y1149987D01*
X691234Y1149968D01*
X691250Y1149944D01*
X691332Y1149887D01*
X691365Y1149860D01*
X691375Y1149857D01*
X691387Y1149849D01*
X693922Y1148650D01*
X693956Y1148642D01*
X693999Y1148621D01*
X696697Y1147856D01*
X696732Y1147854D01*
X696778Y1147840D01*
X699566Y1147530D01*
X699600Y1147533D01*
X699648Y1147528D01*
X702448Y1147680D01*
G37*
G36*
X702448Y847680D02*
X702448Y847680D01*
X702482Y847689D01*
X702530Y847692D01*
X705267Y848303D01*
X705299Y848317D01*
X705346Y848328D01*
X707945Y849381D01*
X707974Y849400D01*
X708018Y849418D01*
X710409Y850886D01*
X710434Y850909D01*
X710475Y850934D01*
X712591Y852775D01*
X712612Y852802D01*
X712649Y852834D01*
X714433Y854998D01*
X714449Y855028D01*
X714480Y855065D01*
X715884Y857493D01*
X715895Y857526D01*
X715919Y857568D01*
X716904Y860193D01*
X716910Y860228D01*
X716927Y860273D01*
X717466Y863025D01*
X717466Y863060D01*
X717475Y863107D01*
X717554Y865910D01*
X717549Y865944D01*
X717550Y865992D01*
X717167Y868771D01*
X717155Y868803D01*
X717149Y868851D01*
X716313Y871528D01*
X716296Y871559D01*
X716282Y871605D01*
X715018Y874108D01*
X714996Y874135D01*
X714974Y874178D01*
X713315Y876439D01*
X713289Y876462D01*
X713261Y876501D01*
X711252Y878458D01*
X711223Y878477D01*
X711188Y878511D01*
X708885Y880110D01*
X708858Y880122D01*
X708835Y880140D01*
X708767Y880161D01*
X708702Y880189D01*
X708673Y880189D01*
X708645Y880197D01*
X708574Y880189D01*
X708503Y880190D01*
X708476Y880179D01*
X708447Y880175D01*
X708385Y880141D01*
X708320Y880113D01*
X708299Y880092D01*
X708274Y880078D01*
X708211Y880002D01*
X708181Y879971D01*
X708177Y879961D01*
X708168Y879950D01*
X691168Y850550D01*
X691159Y850522D01*
X691142Y850498D01*
X691127Y850429D01*
X691105Y850361D01*
X691107Y850332D01*
X691101Y850304D01*
X691114Y850234D01*
X691120Y850163D01*
X691133Y850137D01*
X691139Y850109D01*
X691179Y850050D01*
X691211Y849987D01*
X691234Y849968D01*
X691250Y849944D01*
X691332Y849887D01*
X691365Y849860D01*
X691375Y849857D01*
X691387Y849849D01*
X693922Y848650D01*
X693956Y848642D01*
X693999Y848621D01*
X696697Y847856D01*
X696732Y847854D01*
X696778Y847840D01*
X699566Y847530D01*
X699600Y847533D01*
X699648Y847528D01*
X702448Y847680D01*
G37*
G36*
X702448Y547680D02*
X702448Y547680D01*
X702482Y547689D01*
X702530Y547692D01*
X705267Y548303D01*
X705299Y548317D01*
X705346Y548328D01*
X707945Y549381D01*
X707974Y549400D01*
X708018Y549418D01*
X710409Y550886D01*
X710434Y550909D01*
X710475Y550934D01*
X712591Y552775D01*
X712612Y552802D01*
X712649Y552834D01*
X714433Y554998D01*
X714449Y555028D01*
X714480Y555065D01*
X715884Y557493D01*
X715895Y557526D01*
X715919Y557568D01*
X716904Y560193D01*
X716910Y560228D01*
X716927Y560273D01*
X717466Y563025D01*
X717466Y563060D01*
X717475Y563107D01*
X717554Y565910D01*
X717549Y565944D01*
X717550Y565992D01*
X717167Y568771D01*
X717155Y568803D01*
X717149Y568851D01*
X716313Y571528D01*
X716296Y571559D01*
X716282Y571605D01*
X715018Y574108D01*
X714996Y574135D01*
X714974Y574178D01*
X713315Y576439D01*
X713289Y576462D01*
X713261Y576501D01*
X711252Y578458D01*
X711223Y578477D01*
X711188Y578511D01*
X708885Y580110D01*
X708858Y580122D01*
X708835Y580140D01*
X708767Y580161D01*
X708702Y580189D01*
X708673Y580189D01*
X708645Y580197D01*
X708574Y580189D01*
X708503Y580190D01*
X708476Y580179D01*
X708447Y580175D01*
X708385Y580141D01*
X708320Y580113D01*
X708299Y580092D01*
X708274Y580078D01*
X708211Y580002D01*
X708181Y579971D01*
X708177Y579961D01*
X708168Y579950D01*
X691168Y550550D01*
X691159Y550522D01*
X691142Y550498D01*
X691127Y550429D01*
X691105Y550361D01*
X691107Y550332D01*
X691101Y550304D01*
X691114Y550234D01*
X691120Y550163D01*
X691133Y550137D01*
X691139Y550109D01*
X691179Y550050D01*
X691211Y549987D01*
X691234Y549968D01*
X691250Y549944D01*
X691332Y549887D01*
X691365Y549860D01*
X691375Y549857D01*
X691387Y549849D01*
X693922Y548650D01*
X693956Y548642D01*
X693999Y548621D01*
X696697Y547856D01*
X696732Y547854D01*
X696778Y547840D01*
X699566Y547530D01*
X699600Y547533D01*
X699648Y547528D01*
X702448Y547680D01*
G37*
%LPC*%
G36*
X913217Y738855D02*
X913217Y738855D01*
X911431Y740641D01*
X911431Y754167D01*
X913217Y755953D01*
X925743Y755953D01*
X927420Y754275D01*
X927427Y754271D01*
X927431Y754265D01*
X927510Y754216D01*
X927587Y754164D01*
X927595Y754163D01*
X927602Y754159D01*
X927779Y754127D01*
X928295Y754127D01*
X928304Y754129D01*
X928313Y754127D01*
X928489Y754165D01*
X928491Y754166D01*
X928492Y754166D01*
X929189Y754455D01*
X930413Y754962D01*
X930772Y755111D01*
X933588Y755111D01*
X936191Y754033D01*
X938183Y752041D01*
X939261Y749438D01*
X939261Y746622D01*
X938183Y744019D01*
X936191Y742027D01*
X935388Y741695D01*
X934163Y741187D01*
X933588Y740949D01*
X930772Y740949D01*
X928489Y741895D01*
X928480Y741896D01*
X928472Y741901D01*
X928295Y741933D01*
X928036Y741933D01*
X928031Y741932D01*
X928026Y741933D01*
X927933Y741912D01*
X927839Y741894D01*
X927835Y741891D01*
X927830Y741890D01*
X927752Y741834D01*
X927674Y741781D01*
X927671Y741777D01*
X927667Y741774D01*
X927616Y741692D01*
X927564Y741613D01*
X927564Y741608D01*
X927561Y741603D01*
X927529Y741426D01*
X927529Y740641D01*
X925743Y738855D01*
X913217Y738855D01*
G37*
%LPD*%
%LPC*%
G36*
X782981Y842831D02*
X782981Y842831D01*
X776731Y849081D01*
X776731Y857919D01*
X782981Y864169D01*
X791819Y864169D01*
X798069Y857919D01*
X798069Y849081D01*
X791819Y842831D01*
X782981Y842831D01*
G37*
%LPD*%
%LPC*%
G36*
X808381Y817431D02*
X808381Y817431D01*
X802131Y823681D01*
X802131Y832519D01*
X808381Y838769D01*
X817219Y838769D01*
X823469Y832519D01*
X823469Y823681D01*
X817219Y817431D01*
X808381Y817431D01*
G37*
%LPD*%
%LPC*%
G36*
X808381Y868231D02*
X808381Y868231D01*
X802131Y874481D01*
X802131Y883319D01*
X808381Y889569D01*
X817219Y889569D01*
X823469Y883319D01*
X823469Y874481D01*
X817219Y868231D01*
X808381Y868231D01*
G37*
%LPD*%
%LPC*%
G36*
X808381Y792031D02*
X808381Y792031D01*
X802131Y798281D01*
X802131Y807119D01*
X808381Y813369D01*
X817219Y813369D01*
X823469Y807119D01*
X823469Y798281D01*
X817219Y792031D01*
X808381Y792031D01*
G37*
%LPD*%
%LPC*%
G36*
X782981Y792031D02*
X782981Y792031D01*
X776731Y798281D01*
X776731Y807119D01*
X782981Y813369D01*
X791819Y813369D01*
X798069Y807119D01*
X798069Y798281D01*
X791819Y792031D01*
X782981Y792031D01*
G37*
%LPD*%
%LPC*%
G36*
X782981Y766631D02*
X782981Y766631D01*
X776731Y772881D01*
X776731Y781719D01*
X782981Y787969D01*
X791819Y787969D01*
X798069Y781719D01*
X798069Y772881D01*
X791819Y766631D01*
X782981Y766631D01*
G37*
%LPD*%
%LPC*%
G36*
X808381Y766631D02*
X808381Y766631D01*
X802131Y772881D01*
X802131Y781719D01*
X808381Y787969D01*
X817219Y787969D01*
X823469Y781719D01*
X823469Y772881D01*
X817219Y766631D01*
X808381Y766631D01*
G37*
%LPD*%
%LPC*%
G36*
X782981Y741231D02*
X782981Y741231D01*
X776731Y747481D01*
X776731Y756319D01*
X782981Y762569D01*
X791819Y762569D01*
X798069Y756319D01*
X798069Y747481D01*
X791819Y741231D01*
X782981Y741231D01*
G37*
%LPD*%
%LPC*%
G36*
X782981Y868231D02*
X782981Y868231D01*
X776731Y874481D01*
X776731Y883319D01*
X782981Y889569D01*
X791819Y889569D01*
X798069Y883319D01*
X798069Y874481D01*
X791819Y868231D01*
X782981Y868231D01*
G37*
%LPD*%
%LPC*%
G36*
X782981Y893631D02*
X782981Y893631D01*
X776731Y899881D01*
X776731Y908719D01*
X782981Y914969D01*
X791819Y914969D01*
X798069Y908719D01*
X798069Y899881D01*
X791819Y893631D01*
X782981Y893631D01*
G37*
%LPD*%
%LPC*%
G36*
X782981Y639631D02*
X782981Y639631D01*
X776731Y645881D01*
X776731Y654719D01*
X782981Y660969D01*
X791819Y660969D01*
X798069Y654719D01*
X798069Y645881D01*
X791819Y639631D01*
X782981Y639631D01*
G37*
%LPD*%
%LPC*%
G36*
X808381Y639631D02*
X808381Y639631D01*
X802131Y645881D01*
X802131Y654719D01*
X808381Y660969D01*
X817219Y660969D01*
X823469Y654719D01*
X823469Y645881D01*
X817219Y639631D01*
X808381Y639631D01*
G37*
%LPD*%
%LPC*%
G36*
X808381Y893631D02*
X808381Y893631D01*
X802131Y899881D01*
X802131Y908719D01*
X808381Y914969D01*
X817219Y914969D01*
X823469Y908719D01*
X823469Y899881D01*
X817219Y893631D01*
X808381Y893631D01*
G37*
%LPD*%
%LPC*%
G36*
X782981Y614231D02*
X782981Y614231D01*
X776731Y620481D01*
X776731Y629319D01*
X782981Y635569D01*
X791819Y635569D01*
X798069Y629319D01*
X798069Y620481D01*
X791819Y614231D01*
X782981Y614231D01*
G37*
%LPD*%
%LPC*%
G36*
X808381Y588831D02*
X808381Y588831D01*
X802131Y595081D01*
X802131Y603919D01*
X808381Y610169D01*
X817219Y610169D01*
X823469Y603919D01*
X823469Y595081D01*
X817219Y588831D01*
X808381Y588831D01*
G37*
%LPD*%
%LPC*%
G36*
X782981Y588831D02*
X782981Y588831D01*
X776731Y595081D01*
X776731Y603919D01*
X782981Y610169D01*
X791819Y610169D01*
X798069Y603919D01*
X798069Y595081D01*
X791819Y588831D01*
X782981Y588831D01*
G37*
%LPD*%
%LPC*%
G36*
X782981Y563431D02*
X782981Y563431D01*
X776731Y569681D01*
X776731Y578519D01*
X782981Y584769D01*
X791819Y584769D01*
X798069Y578519D01*
X798069Y569681D01*
X791819Y563431D01*
X782981Y563431D01*
G37*
%LPD*%
%LPC*%
G36*
X808381Y563431D02*
X808381Y563431D01*
X802131Y569681D01*
X802131Y578519D01*
X808381Y584769D01*
X817219Y584769D01*
X823469Y578519D01*
X823469Y569681D01*
X817219Y563431D01*
X808381Y563431D01*
G37*
%LPD*%
%LPC*%
G36*
X808381Y842831D02*
X808381Y842831D01*
X802131Y849081D01*
X802131Y857919D01*
X808381Y864169D01*
X817219Y864169D01*
X823469Y857919D01*
X823469Y849081D01*
X817219Y842831D01*
X808381Y842831D01*
G37*
%LPD*%
%LPC*%
G36*
X782981Y919031D02*
X782981Y919031D01*
X776731Y925281D01*
X776731Y934119D01*
X782981Y940369D01*
X791819Y940369D01*
X798069Y934119D01*
X798069Y925281D01*
X791819Y919031D01*
X782981Y919031D01*
G37*
%LPD*%
%LPC*%
G36*
X782981Y944431D02*
X782981Y944431D01*
X776731Y950681D01*
X776731Y959519D01*
X782981Y965769D01*
X791819Y965769D01*
X798069Y959519D01*
X798069Y950681D01*
X791819Y944431D01*
X782981Y944431D01*
G37*
%LPD*%
%LPC*%
G36*
X808381Y969831D02*
X808381Y969831D01*
X802131Y976081D01*
X802131Y984919D01*
X808381Y991169D01*
X817219Y991169D01*
X823469Y984919D01*
X823469Y976081D01*
X817219Y969831D01*
X808381Y969831D01*
G37*
%LPD*%
%LPC*%
G36*
X782981Y969831D02*
X782981Y969831D01*
X776731Y976081D01*
X776731Y984919D01*
X782981Y991169D01*
X791819Y991169D01*
X798069Y984919D01*
X798069Y976081D01*
X791819Y969831D01*
X782981Y969831D01*
G37*
%LPD*%
%LPC*%
G36*
X782981Y995231D02*
X782981Y995231D01*
X776731Y1001481D01*
X776731Y1010319D01*
X782981Y1016569D01*
X791819Y1016569D01*
X798069Y1010319D01*
X798069Y1001481D01*
X791819Y995231D01*
X782981Y995231D01*
G37*
%LPD*%
%LPC*%
G36*
X808381Y614231D02*
X808381Y614231D01*
X802131Y620481D01*
X802131Y629319D01*
X808381Y635569D01*
X817219Y635569D01*
X823469Y629319D01*
X823469Y620481D01*
X817219Y614231D01*
X808381Y614231D01*
G37*
%LPD*%
D10*
X747400Y946900D03*
X664800Y1090000D03*
X747400Y1233100D03*
X706100Y1018500D03*
X706100Y1161500D03*
X747400Y646900D03*
X664800Y790000D03*
X747400Y933100D03*
X706100Y718500D03*
X706100Y861500D03*
X747400Y346900D03*
X664800Y490000D03*
X747400Y633100D03*
X706100Y418500D03*
X706100Y561500D03*
X912600Y1233100D03*
X995200Y1090000D03*
X912600Y946900D03*
X953900Y1161500D03*
X953900Y1018500D03*
X912600Y933100D03*
X995200Y790000D03*
X912600Y646900D03*
X953900Y861500D03*
X953900Y718500D03*
X912600Y633100D03*
X995200Y490000D03*
X912600Y346900D03*
X953900Y561500D03*
X953900Y418500D03*
D11*
X787400Y1031300D03*
X787400Y1005900D03*
X787400Y980500D03*
X787400Y955100D03*
X787400Y929700D03*
X787400Y904300D03*
X812800Y1031300D03*
X812800Y1005900D03*
X812800Y980500D03*
X812800Y955100D03*
X812800Y929700D03*
X812800Y904300D03*
X787400Y878900D03*
X812800Y878900D03*
X787400Y853500D03*
X787400Y828100D03*
X787400Y802700D03*
X787400Y777300D03*
X787400Y751900D03*
X787400Y726500D03*
X812800Y853500D03*
X812800Y828100D03*
X812800Y802700D03*
X812800Y777300D03*
X812800Y751900D03*
X812800Y726500D03*
X787400Y701100D03*
X812800Y701100D03*
X787400Y675700D03*
X787400Y650300D03*
X787400Y624900D03*
X787400Y599500D03*
X787400Y574100D03*
X787400Y548700D03*
X812800Y675700D03*
X812800Y650300D03*
X812800Y624900D03*
X812800Y599500D03*
X812800Y574100D03*
X812800Y548700D03*
D12*
X843026Y1005722D03*
X843026Y1022722D03*
D13*
X805942Y1192022D02*
X805942Y1206246D01*
X831342Y1206246D02*
X831342Y1192022D01*
X856742Y1192022D02*
X856742Y1206246D01*
X805942Y1160272D02*
X805942Y1146048D01*
X831342Y1146048D02*
X831342Y1160272D01*
X856742Y1160272D02*
X856742Y1146048D01*
D12*
X757174Y1031122D03*
X757174Y1048122D03*
X843670Y955294D03*
X860670Y955294D03*
D14*
X901954Y818642D03*
X889254Y818642D03*
X876554Y818642D03*
X863854Y818642D03*
X863854Y769366D03*
X876554Y769366D03*
X889254Y769366D03*
X901954Y769366D03*
D12*
X919480Y764404D03*
X919480Y747404D03*
D15*
X862330Y738750D03*
X862330Y721750D03*
X845566Y769502D03*
X845566Y786502D03*
X894080Y738750D03*
X894080Y721750D03*
D13*
X921512Y823214D02*
X935736Y823214D01*
X935736Y797814D02*
X921512Y797814D01*
X761492Y828040D02*
X747268Y828040D01*
X747268Y802640D02*
X761492Y802640D01*
D16*
X770890Y1049020D03*
D17*
X863854Y818642D02*
X876554Y818642D01*
X889254Y818642D01*
X901954Y818642D01*
X901956Y818775D01*
X901962Y818908D01*
X901971Y819040D01*
X901985Y819173D01*
X902002Y819305D01*
X902023Y819436D01*
X902048Y819567D01*
X902077Y819696D01*
X902110Y819825D01*
X902146Y819953D01*
X902186Y820080D01*
X902230Y820206D01*
X902277Y820330D01*
X902328Y820453D01*
X902382Y820574D01*
X902440Y820694D01*
X902502Y820812D01*
X902567Y820928D01*
X902635Y821042D01*
X902706Y821154D01*
X902781Y821264D01*
X902859Y821372D01*
X902940Y821478D01*
X903024Y821581D01*
X903111Y821681D01*
X903200Y821779D01*
X903293Y821875D01*
X903389Y821968D01*
X903487Y822057D01*
X903587Y822144D01*
X903690Y822228D01*
X903796Y822309D01*
X903904Y822387D01*
X904014Y822462D01*
X904126Y822533D01*
X904240Y822601D01*
X904356Y822666D01*
X904474Y822728D01*
X904594Y822786D01*
X904715Y822840D01*
X904838Y822891D01*
X904962Y822938D01*
X905088Y822982D01*
X905215Y823022D01*
X905343Y823058D01*
X905472Y823091D01*
X905601Y823120D01*
X905732Y823145D01*
X905863Y823166D01*
X905995Y823183D01*
X906128Y823197D01*
X906260Y823206D01*
X906393Y823212D01*
X906526Y823214D01*
X928624Y823214D01*
X920106Y748030D02*
X920057Y748028D01*
X920008Y748022D01*
X919960Y748013D01*
X919913Y747999D01*
X919866Y747982D01*
X919822Y747962D01*
X919779Y747938D01*
X919738Y747910D01*
X919699Y747880D01*
X919663Y747847D01*
X919630Y747811D01*
X919600Y747772D01*
X919572Y747731D01*
X919548Y747688D01*
X919528Y747644D01*
X919511Y747597D01*
X919497Y747550D01*
X919488Y747502D01*
X919482Y747453D01*
X919480Y747404D01*
X920106Y748030D02*
X932180Y748030D01*
D16*
X932180Y748030D03*
D17*
X816728Y1049020D02*
X770890Y1049020D01*
X816728Y1049020D02*
X843026Y1022722D01*
X770890Y1049020D02*
X758072Y1049020D01*
X757174Y1048122D01*
X822958Y955294D02*
X843670Y955294D01*
X822958Y955294D02*
X812994Y955294D01*
X812800Y955100D01*
X814779Y959221D02*
X822958Y955294D01*
X814779Y959221D02*
X812800Y955100D01*
X814935Y951057D02*
X822958Y955294D01*
X814935Y951057D02*
X812800Y955100D01*
D18*
X858580Y929700D02*
X881380Y952500D01*
X881380Y1155700D01*
X863600Y1173480D01*
X849630Y1173480D01*
X831342Y1191768D02*
X831342Y1199134D01*
X831342Y1191768D02*
X849630Y1173480D01*
D17*
X822960Y929700D02*
X812800Y929700D01*
X822960Y929700D02*
X858580Y929700D01*
X822960Y929700D02*
X814857Y933783D01*
X814857Y933783D01*
X812800Y929700D01*
X814857Y925617D02*
X822960Y929700D01*
X814857Y925617D02*
X812800Y929700D01*
X814857Y933783D02*
X822960Y929700D01*
X814857Y933783D02*
X812800Y929700D01*
X814857Y925617D02*
X822960Y929700D01*
X814857Y925617D02*
X812800Y929700D01*
X822960Y1005879D02*
X843026Y1005722D01*
X822960Y1005879D02*
X812860Y1005840D01*
X812800Y1005900D01*
X812800Y1016060D01*
X812800Y1021140D01*
X812800Y1031300D01*
X812800Y1016060D02*
X812800Y1016060D01*
X812800Y1016060D01*
X816883Y1007957D01*
X814866Y1009979D02*
X822960Y1005879D01*
X814866Y1009979D02*
X812800Y1005900D01*
X814849Y1001813D02*
X822960Y1005879D01*
X814849Y1001813D02*
X812800Y1005900D01*
X808717Y1007957D02*
X812800Y1016060D01*
X808717Y1007957D02*
X808717Y1007957D01*
X812800Y1005900D01*
X816883Y1007957D02*
X812800Y1016060D01*
X816883Y1007957D02*
X812800Y1005900D01*
X808717Y1007957D02*
X812800Y1016060D01*
X808717Y1007957D02*
X812800Y1005900D01*
X816883Y1007957D02*
X812800Y1016060D01*
X816883Y1007957D02*
X812800Y1005900D01*
X812800Y1021140D02*
X816883Y1029243D01*
X816883Y1029243D01*
X812800Y1031300D01*
X808717Y1029243D02*
X812800Y1021140D01*
X808717Y1029243D02*
X812800Y1031300D01*
X816883Y1029243D02*
X812800Y1021140D01*
X816883Y1029243D02*
X812800Y1031300D01*
X808717Y1029243D02*
X812800Y1021140D01*
X808717Y1029243D02*
X812800Y1031300D01*
X901954Y769366D02*
X914518Y769366D01*
X919480Y764404D01*
X894080Y721750D02*
X862330Y721750D01*
D18*
X723350Y1161500D02*
X759460Y1197610D01*
X788670Y1226820D02*
X871220Y1226820D01*
X788670Y1226820D02*
X782320Y1220470D01*
X871220Y1226820D02*
X934085Y1163955D01*
D16*
X759460Y1197610D03*
X782320Y1220470D03*
D19*
X936540Y1161500D02*
X953900Y1161500D01*
X936540Y1161500D02*
X934085Y1163955D01*
X723350Y1161500D02*
X706100Y1161500D01*
D16*
X765810Y1174750D03*
X740410Y1162050D03*
D18*
X753110Y1174750D02*
X765810Y1174750D01*
X753110Y1174750D02*
X740410Y1162050D01*
X740730Y718500D02*
X770890Y688340D01*
X876300Y688340D01*
D16*
X876300Y688340D03*
X924560Y688340D03*
D19*
X740730Y718500D02*
X706100Y718500D01*
X952349Y716129D02*
X953763Y718579D01*
X953900Y718500D02*
X924560Y689160D01*
X924560Y688340D01*
D16*
X889000Y878840D03*
X753110Y875030D03*
D19*
X730250Y861500D02*
X706100Y861500D01*
X936560Y878840D02*
X953900Y861500D01*
X936560Y878840D02*
X889000Y878840D01*
D18*
X753110Y875030D02*
X739580Y861500D01*
D20*
X730250Y861500D01*
D16*
X726440Y698500D03*
X754380Y688340D03*
D18*
X736600Y688340D01*
X726440Y698500D01*
D16*
X899160Y861060D03*
X866140Y861060D03*
D18*
X899160Y861060D01*
X953900Y418500D02*
X941200Y405800D01*
D16*
X785876Y405638D03*
X868426Y405892D03*
D18*
X920750Y405892D01*
X941108Y405892D01*
X941200Y405800D01*
X785876Y405638D02*
X735330Y405638D01*
D19*
X718962Y405638D02*
X706100Y418500D01*
X718962Y405638D02*
X735330Y405638D01*
X941292Y405892D02*
X953900Y418500D01*
X941292Y405892D02*
X920750Y405892D01*
D18*
X880110Y535940D02*
X731660Y535940D01*
D16*
X880110Y535940D03*
X928370Y535940D03*
D19*
X731660Y535940D02*
X706100Y561500D01*
X928370Y535970D02*
X953900Y561500D01*
X928370Y535970D02*
X928370Y535940D01*
D16*
X901700Y561340D03*
X854710Y561340D03*
D18*
X901700Y561340D01*
D16*
X792988Y431292D03*
X853694Y431546D03*
D18*
X853440Y431292D02*
X792988Y431292D01*
X853440Y431292D02*
X853694Y431546D01*
D16*
X754380Y1094740D03*
X781050Y1121410D03*
D18*
X754380Y1094740D01*
X788162Y1181354D02*
X805942Y1199134D01*
X706120Y1018520D02*
X706100Y1018500D01*
X706120Y1018520D02*
X706120Y1047750D01*
D16*
X706120Y1047750D03*
X706120Y1075690D03*
D19*
X706100Y1047730D02*
X706100Y1018500D01*
X706100Y1047730D02*
X706120Y1047750D01*
D18*
X706120Y1075690D02*
X788162Y1157732D01*
X788162Y1181354D01*
D16*
X900430Y1070610D03*
X924560Y1046480D03*
D18*
X900430Y1070610D01*
X911950Y1106170D02*
X953900Y1064220D01*
X911950Y1106170D02*
X911860Y1106170D01*
D16*
X911860Y1106170D03*
X911860Y1144270D03*
D19*
X953900Y1064220D02*
X953900Y1018500D01*
D18*
X911860Y1144270D02*
X911606Y1144270D01*
X856742Y1199134D01*
X850450Y738750D02*
X849600Y737900D01*
X850450Y738750D02*
X862330Y738750D01*
X876554Y752974D01*
X876554Y769366D01*
D17*
X819984Y708284D02*
X812800Y701100D01*
X819984Y708284D02*
X849600Y737900D01*
X819984Y708284D02*
X811368Y705442D01*
X812800Y701100D01*
X817142Y699668D02*
X819984Y708284D01*
X817142Y699668D02*
X812800Y701100D01*
D18*
X845566Y769502D02*
X863718Y769502D01*
X863854Y769366D01*
X800100Y730250D02*
X800100Y713800D01*
X800100Y730250D02*
X810260Y740410D01*
X820420Y740410D01*
X845566Y765556D01*
X845566Y769502D01*
D17*
X794584Y708284D02*
X787400Y701100D01*
X794584Y708284D02*
X800100Y713800D01*
X794584Y708284D02*
X785968Y705442D01*
X787400Y701100D01*
X791742Y699668D02*
X794584Y708284D01*
X791742Y699668D02*
X787400Y701100D01*
D18*
X860670Y955294D02*
X860670Y1087510D01*
X830580Y1117600D01*
X830580Y1152398D01*
X831342Y1153160D01*
X889254Y743576D02*
X894080Y738750D01*
X889254Y743576D02*
X889254Y769366D01*
D17*
X904494Y797814D02*
X928624Y797814D01*
X904494Y797814D02*
X889254Y782574D01*
X889254Y769366D01*
X765886Y1031300D02*
X757174Y1031122D01*
X765886Y1031300D02*
X777240Y1031300D01*
X787400Y1031300D01*
X777240Y1031300D02*
X777240Y1031300D01*
X777240Y1031300D01*
X785343Y1035383D01*
X785343Y1027217D02*
X777240Y1031300D01*
X785343Y1027217D02*
X785343Y1027217D01*
X787400Y1031300D01*
X785343Y1035383D02*
X777240Y1031300D01*
X785343Y1035383D02*
X787400Y1031300D01*
X785343Y1027217D02*
X777240Y1031300D01*
X785343Y1027217D02*
X787400Y1031300D01*
X785343Y1035383D02*
X777240Y1031300D01*
X785343Y1035383D02*
X787400Y1031300D01*
D21*
X787400Y828100D02*
X787340Y828040D01*
D20*
X754380Y828040D01*
D18*
X769620Y843280D01*
X757174Y1013206D02*
X757174Y1031122D01*
X769620Y1000760D02*
X769620Y843280D01*
X769620Y1000760D02*
X757174Y1013206D01*
M02*
