G04 EAGLE Gerber RS-274X export*
G75*
%MOMM*%
%FSLAX34Y34*%
%LPD*%
%IN*%
%IPPOS*%
%AMOC8*
5,1,8,0,0,1.08239X$1,22.5*%
G01*
%ADD10C,0.254000*%


D10*
X656788Y790040D02*
X743403Y640009D01*
X656797Y490017D01*
X743412Y339986D01*
X916605Y339996D01*
X1003210Y489979D01*
X916614Y640000D01*
X1003201Y789955D01*
X916605Y939976D01*
X1003201Y1089959D01*
X916553Y1240051D01*
X743412Y1240051D01*
X656807Y1089978D01*
X743403Y940033D01*
X656788Y790040D01*
X813750Y499509D02*
X813680Y498529D01*
X813540Y497557D01*
X813331Y496597D01*
X813055Y495655D01*
X812711Y494735D01*
X812303Y493841D01*
X811833Y492979D01*
X811302Y492153D01*
X810713Y491367D01*
X810070Y490625D01*
X809375Y489930D01*
X808633Y489287D01*
X807847Y488698D01*
X807021Y488167D01*
X806159Y487697D01*
X805265Y487289D01*
X804345Y486945D01*
X803403Y486669D01*
X802443Y486460D01*
X801471Y486320D01*
X800491Y486250D01*
X799509Y486250D01*
X798529Y486320D01*
X797557Y486460D01*
X796597Y486669D01*
X795655Y486945D01*
X794735Y487289D01*
X793841Y487697D01*
X792979Y488167D01*
X792153Y488698D01*
X791367Y489287D01*
X790625Y489930D01*
X789930Y490625D01*
X789287Y491367D01*
X788698Y492153D01*
X788167Y492979D01*
X787697Y493841D01*
X787289Y494735D01*
X786945Y495655D01*
X786669Y496597D01*
X786460Y497557D01*
X786320Y498529D01*
X786250Y499509D01*
X786250Y500491D01*
X786320Y501471D01*
X786460Y502443D01*
X786669Y503403D01*
X786945Y504345D01*
X787289Y505265D01*
X787697Y506159D01*
X788167Y507021D01*
X788698Y507847D01*
X789287Y508633D01*
X789930Y509375D01*
X790625Y510070D01*
X791367Y510713D01*
X792153Y511302D01*
X792979Y511833D01*
X793841Y512303D01*
X794735Y512711D01*
X795655Y513055D01*
X796597Y513331D01*
X797557Y513540D01*
X798529Y513680D01*
X799509Y513750D01*
X800491Y513750D01*
X801471Y513680D01*
X802443Y513540D01*
X803403Y513331D01*
X804345Y513055D01*
X805265Y512711D01*
X806159Y512303D01*
X807021Y511833D01*
X807847Y511302D01*
X808633Y510713D01*
X809375Y510070D01*
X810070Y509375D01*
X810713Y508633D01*
X811302Y507847D01*
X811833Y507021D01*
X812303Y506159D01*
X812711Y505265D01*
X813055Y504345D01*
X813331Y503403D01*
X813540Y502443D01*
X813680Y501471D01*
X813750Y500491D01*
X813750Y499509D01*
X813750Y1079509D02*
X813680Y1078529D01*
X813540Y1077557D01*
X813331Y1076597D01*
X813055Y1075655D01*
X812711Y1074735D01*
X812303Y1073841D01*
X811833Y1072979D01*
X811302Y1072153D01*
X810713Y1071367D01*
X810070Y1070625D01*
X809375Y1069930D01*
X808633Y1069287D01*
X807847Y1068698D01*
X807021Y1068167D01*
X806159Y1067697D01*
X805265Y1067289D01*
X804345Y1066945D01*
X803403Y1066669D01*
X802443Y1066460D01*
X801471Y1066320D01*
X800491Y1066250D01*
X799509Y1066250D01*
X798529Y1066320D01*
X797557Y1066460D01*
X796597Y1066669D01*
X795655Y1066945D01*
X794735Y1067289D01*
X793841Y1067697D01*
X792979Y1068167D01*
X792153Y1068698D01*
X791367Y1069287D01*
X790625Y1069930D01*
X789930Y1070625D01*
X789287Y1071367D01*
X788698Y1072153D01*
X788167Y1072979D01*
X787697Y1073841D01*
X787289Y1074735D01*
X786945Y1075655D01*
X786669Y1076597D01*
X786460Y1077557D01*
X786320Y1078529D01*
X786250Y1079509D01*
X786250Y1080491D01*
X786320Y1081471D01*
X786460Y1082443D01*
X786669Y1083403D01*
X786945Y1084345D01*
X787289Y1085265D01*
X787697Y1086159D01*
X788167Y1087021D01*
X788698Y1087847D01*
X789287Y1088633D01*
X789930Y1089375D01*
X790625Y1090070D01*
X791367Y1090713D01*
X792153Y1091302D01*
X792979Y1091833D01*
X793841Y1092303D01*
X794735Y1092711D01*
X795655Y1093055D01*
X796597Y1093331D01*
X797557Y1093540D01*
X798529Y1093680D01*
X799509Y1093750D01*
X800491Y1093750D01*
X801471Y1093680D01*
X802443Y1093540D01*
X803403Y1093331D01*
X804345Y1093055D01*
X805265Y1092711D01*
X806159Y1092303D01*
X807021Y1091833D01*
X807847Y1091302D01*
X808633Y1090713D01*
X809375Y1090070D01*
X810070Y1089375D01*
X810713Y1088633D01*
X811302Y1087847D01*
X811833Y1087021D01*
X812303Y1086159D01*
X812711Y1085265D01*
X813055Y1084345D01*
X813331Y1083403D01*
X813540Y1082443D01*
X813680Y1081471D01*
X813750Y1080491D01*
X813750Y1079509D01*
M02*
