G04 EAGLE Gerber RS-274X export*
G75*
%MOMM*%
%FSLAX34Y34*%
%LPD*%
%INSoldermask Bottom*%
%IPPOS*%
%AMOC8*
5,1,8,0,0,1.08239X$1,22.5*%
G01*
%ADD10C,2.851600*%
%ADD11C,1.101600*%
%ADD12P,1.759533X8X292.500000*%
%ADD13C,1.524000*%
%ADD14C,0.908000*%

G36*
X917369Y920485D02*
X917369Y920485D01*
X917416Y920483D01*
X920454Y920848D01*
X920486Y920859D01*
X920532Y920864D01*
X923472Y921712D01*
X923502Y921728D01*
X923548Y921740D01*
X926314Y923049D01*
X926336Y923066D01*
X926363Y923076D01*
X926415Y923125D01*
X926473Y923168D01*
X926487Y923193D01*
X926508Y923212D01*
X926537Y923278D01*
X926573Y923340D01*
X926576Y923368D01*
X926588Y923394D01*
X926589Y923466D01*
X926598Y923537D01*
X926590Y923564D01*
X926591Y923593D01*
X926555Y923688D01*
X926544Y923728D01*
X926537Y923737D01*
X926533Y923749D01*
X917176Y940000D01*
X926533Y956251D01*
X926542Y956278D01*
X926558Y956302D01*
X926573Y956372D01*
X926596Y956440D01*
X926593Y956468D01*
X926599Y956496D01*
X926586Y956567D01*
X926580Y956638D01*
X926567Y956663D01*
X926561Y956691D01*
X926521Y956751D01*
X926488Y956814D01*
X926466Y956832D01*
X926450Y956856D01*
X926367Y956914D01*
X926335Y956941D01*
X926324Y956944D01*
X926314Y956951D01*
X923548Y958260D01*
X923515Y958268D01*
X923472Y958288D01*
X920532Y959136D01*
X920498Y959139D01*
X920454Y959152D01*
X917416Y959517D01*
X917382Y959514D01*
X917335Y959520D01*
X914278Y959393D01*
X914245Y959385D01*
X914198Y959384D01*
X911201Y958768D01*
X911170Y958755D01*
X911124Y958746D01*
X908264Y957657D01*
X908236Y957639D01*
X908192Y957623D01*
X905544Y956089D01*
X905518Y956067D01*
X905478Y956044D01*
X903110Y954106D01*
X903088Y954079D01*
X903052Y954050D01*
X901025Y951757D01*
X901009Y951728D01*
X900977Y951693D01*
X899345Y949105D01*
X899333Y949073D01*
X899308Y949034D01*
X898112Y946217D01*
X898105Y946184D01*
X898102Y946177D01*
X898098Y946171D01*
X898097Y946165D01*
X898086Y946141D01*
X897358Y943169D01*
X897356Y943135D01*
X897345Y943090D01*
X897102Y940040D01*
X897106Y940011D01*
X897101Y939983D01*
X897103Y939973D01*
X897102Y939960D01*
X897345Y936910D01*
X897354Y936878D01*
X897358Y936831D01*
X898086Y933859D01*
X898101Y933828D01*
X898112Y933783D01*
X899308Y930966D01*
X899327Y930938D01*
X899345Y930895D01*
X900977Y928307D01*
X901001Y928283D01*
X901025Y928243D01*
X903052Y925950D01*
X903079Y925930D01*
X903110Y925894D01*
X905478Y923956D01*
X905508Y923940D01*
X905544Y923911D01*
X908192Y922378D01*
X908224Y922367D01*
X908264Y922343D01*
X911124Y921255D01*
X911157Y921249D01*
X911201Y921232D01*
X914198Y920616D01*
X914232Y920616D01*
X914278Y920607D01*
X917335Y920480D01*
X917369Y920485D01*
G37*
G36*
X917369Y620485D02*
X917369Y620485D01*
X917416Y620483D01*
X920454Y620848D01*
X920486Y620859D01*
X920532Y620864D01*
X923472Y621712D01*
X923502Y621728D01*
X923548Y621740D01*
X926314Y623049D01*
X926336Y623066D01*
X926363Y623076D01*
X926415Y623125D01*
X926473Y623168D01*
X926487Y623193D01*
X926508Y623212D01*
X926537Y623278D01*
X926573Y623340D01*
X926576Y623368D01*
X926588Y623394D01*
X926589Y623466D01*
X926598Y623537D01*
X926590Y623564D01*
X926591Y623593D01*
X926555Y623688D01*
X926544Y623728D01*
X926537Y623737D01*
X926533Y623749D01*
X917176Y640000D01*
X926533Y656251D01*
X926542Y656278D01*
X926558Y656302D01*
X926573Y656372D01*
X926596Y656440D01*
X926593Y656468D01*
X926599Y656496D01*
X926586Y656567D01*
X926580Y656638D01*
X926567Y656663D01*
X926561Y656691D01*
X926521Y656751D01*
X926488Y656814D01*
X926466Y656832D01*
X926450Y656856D01*
X926367Y656914D01*
X926335Y656941D01*
X926324Y656944D01*
X926314Y656951D01*
X923548Y658260D01*
X923515Y658268D01*
X923472Y658288D01*
X920532Y659136D01*
X920498Y659139D01*
X920454Y659152D01*
X917416Y659517D01*
X917382Y659514D01*
X917335Y659520D01*
X914278Y659393D01*
X914245Y659385D01*
X914198Y659384D01*
X911201Y658768D01*
X911170Y658755D01*
X911124Y658746D01*
X908264Y657657D01*
X908236Y657639D01*
X908192Y657623D01*
X905544Y656089D01*
X905518Y656067D01*
X905478Y656044D01*
X903110Y654106D01*
X903088Y654079D01*
X903052Y654050D01*
X901025Y651757D01*
X901009Y651728D01*
X900977Y651693D01*
X899345Y649105D01*
X899333Y649073D01*
X899308Y649034D01*
X898112Y646217D01*
X898105Y646184D01*
X898102Y646177D01*
X898098Y646171D01*
X898097Y646165D01*
X898086Y646141D01*
X897358Y643169D01*
X897356Y643135D01*
X897345Y643090D01*
X897102Y640040D01*
X897106Y640011D01*
X897101Y639983D01*
X897103Y639973D01*
X897102Y639960D01*
X897345Y636910D01*
X897354Y636878D01*
X897358Y636831D01*
X898086Y633859D01*
X898101Y633828D01*
X898112Y633783D01*
X899308Y630966D01*
X899327Y630938D01*
X899345Y630895D01*
X900977Y628307D01*
X901001Y628283D01*
X901025Y628243D01*
X903052Y625950D01*
X903079Y625930D01*
X903110Y625894D01*
X905478Y623956D01*
X905508Y623940D01*
X905544Y623911D01*
X908192Y622378D01*
X908224Y622367D01*
X908264Y622343D01*
X911124Y621255D01*
X911157Y621249D01*
X911201Y621232D01*
X914198Y620616D01*
X914232Y620616D01*
X914278Y620607D01*
X917335Y620480D01*
X917369Y620485D01*
G37*
G36*
X745722Y920607D02*
X745722Y920607D01*
X745755Y920615D01*
X745802Y920616D01*
X748799Y921232D01*
X748830Y921245D01*
X748876Y921255D01*
X751736Y922343D01*
X751765Y922361D01*
X751808Y922378D01*
X754456Y923911D01*
X754482Y923933D01*
X754523Y923956D01*
X756890Y925894D01*
X756912Y925921D01*
X756948Y925950D01*
X758975Y928243D01*
X758992Y928272D01*
X759023Y928307D01*
X760655Y930895D01*
X760667Y930927D01*
X760692Y930966D01*
X761888Y933783D01*
X761895Y933816D01*
X761914Y933859D01*
X762642Y936831D01*
X762644Y936865D01*
X762655Y936910D01*
X762898Y939960D01*
X762894Y939989D01*
X762899Y940017D01*
X762897Y940027D01*
X762898Y940040D01*
X762655Y943090D01*
X762646Y943122D01*
X762642Y943169D01*
X761914Y946141D01*
X761899Y946172D01*
X761888Y946217D01*
X760692Y949034D01*
X760673Y949062D01*
X760655Y949105D01*
X759023Y951693D01*
X758999Y951717D01*
X758975Y951757D01*
X756948Y954050D01*
X756921Y954070D01*
X756890Y954106D01*
X754523Y956044D01*
X754492Y956060D01*
X754456Y956089D01*
X751808Y957623D01*
X751776Y957633D01*
X751736Y957657D01*
X748876Y958746D01*
X748843Y958751D01*
X748799Y958768D01*
X745802Y959384D01*
X745768Y959384D01*
X745722Y959393D01*
X742665Y959520D01*
X742631Y959515D01*
X742584Y959517D01*
X739546Y959152D01*
X739514Y959141D01*
X739468Y959136D01*
X736528Y958288D01*
X736498Y958272D01*
X736453Y958260D01*
X733687Y956951D01*
X733664Y956934D01*
X733637Y956924D01*
X733585Y956875D01*
X733527Y956832D01*
X733513Y956807D01*
X733492Y956788D01*
X733463Y956722D01*
X733427Y956660D01*
X733424Y956632D01*
X733412Y956606D01*
X733411Y956534D01*
X733402Y956463D01*
X733410Y956436D01*
X733410Y956407D01*
X733445Y956312D01*
X733456Y956272D01*
X733463Y956263D01*
X733467Y956251D01*
X742824Y940000D01*
X733467Y923749D01*
X733458Y923722D01*
X733442Y923698D01*
X733427Y923628D01*
X733404Y923560D01*
X733407Y923532D01*
X733401Y923504D01*
X733415Y923434D01*
X733420Y923362D01*
X733433Y923337D01*
X733439Y923309D01*
X733479Y923249D01*
X733512Y923186D01*
X733534Y923168D01*
X733550Y923144D01*
X733633Y923086D01*
X733665Y923059D01*
X733676Y923056D01*
X733687Y923049D01*
X736453Y921740D01*
X736486Y921732D01*
X736528Y921712D01*
X739468Y920864D01*
X739502Y920861D01*
X739546Y920848D01*
X742584Y920483D01*
X742618Y920486D01*
X742665Y920480D01*
X745722Y920607D01*
G37*
G36*
X745722Y620607D02*
X745722Y620607D01*
X745755Y620615D01*
X745802Y620616D01*
X748799Y621232D01*
X748830Y621245D01*
X748876Y621255D01*
X751736Y622343D01*
X751765Y622361D01*
X751808Y622378D01*
X754456Y623911D01*
X754482Y623933D01*
X754523Y623956D01*
X756890Y625894D01*
X756912Y625921D01*
X756948Y625950D01*
X758975Y628243D01*
X758992Y628272D01*
X759023Y628307D01*
X760655Y630895D01*
X760667Y630927D01*
X760692Y630966D01*
X761888Y633783D01*
X761895Y633816D01*
X761914Y633859D01*
X762642Y636831D01*
X762644Y636865D01*
X762655Y636910D01*
X762898Y639960D01*
X762894Y639989D01*
X762899Y640017D01*
X762897Y640027D01*
X762898Y640040D01*
X762655Y643090D01*
X762646Y643122D01*
X762642Y643169D01*
X761914Y646141D01*
X761899Y646172D01*
X761888Y646217D01*
X760692Y649034D01*
X760673Y649062D01*
X760655Y649105D01*
X759023Y651693D01*
X758999Y651717D01*
X758975Y651757D01*
X756948Y654050D01*
X756921Y654070D01*
X756890Y654106D01*
X754523Y656044D01*
X754492Y656060D01*
X754456Y656089D01*
X751808Y657623D01*
X751776Y657633D01*
X751736Y657657D01*
X748876Y658746D01*
X748843Y658751D01*
X748799Y658768D01*
X745802Y659384D01*
X745768Y659384D01*
X745722Y659393D01*
X742665Y659520D01*
X742631Y659515D01*
X742584Y659517D01*
X739546Y659152D01*
X739514Y659141D01*
X739468Y659136D01*
X736528Y658288D01*
X736498Y658272D01*
X736453Y658260D01*
X733687Y656951D01*
X733664Y656934D01*
X733637Y656924D01*
X733585Y656875D01*
X733527Y656832D01*
X733513Y656807D01*
X733492Y656788D01*
X733463Y656722D01*
X733427Y656660D01*
X733424Y656632D01*
X733412Y656606D01*
X733411Y656534D01*
X733402Y656463D01*
X733410Y656436D01*
X733410Y656407D01*
X733445Y656312D01*
X733456Y656272D01*
X733463Y656263D01*
X733467Y656251D01*
X742824Y640000D01*
X733467Y623749D01*
X733458Y623722D01*
X733442Y623698D01*
X733427Y623628D01*
X733404Y623560D01*
X733407Y623532D01*
X733401Y623504D01*
X733415Y623434D01*
X733420Y623362D01*
X733433Y623337D01*
X733439Y623309D01*
X733479Y623249D01*
X733512Y623186D01*
X733534Y623168D01*
X733550Y623144D01*
X733633Y623086D01*
X733665Y623059D01*
X733676Y623056D01*
X733687Y623049D01*
X736453Y621740D01*
X736486Y621732D01*
X736528Y621712D01*
X739468Y620864D01*
X739502Y620861D01*
X739546Y620848D01*
X742584Y620483D01*
X742618Y620486D01*
X742665Y620480D01*
X745722Y620607D01*
G37*
G36*
X708607Y999810D02*
X708607Y999810D01*
X708678Y999807D01*
X708705Y999817D01*
X708734Y999819D01*
X708824Y999861D01*
X708864Y999876D01*
X708872Y999884D01*
X708885Y999890D01*
X711188Y1001489D01*
X711212Y1001515D01*
X711252Y1001542D01*
X713261Y1003499D01*
X713280Y1003528D01*
X713315Y1003561D01*
X714974Y1005822D01*
X714989Y1005853D01*
X715018Y1005892D01*
X716282Y1008395D01*
X716291Y1008429D01*
X716313Y1008472D01*
X717149Y1011149D01*
X717152Y1011183D01*
X717167Y1011229D01*
X717550Y1014008D01*
X717548Y1014042D01*
X717554Y1014090D01*
X717475Y1016893D01*
X717467Y1016927D01*
X717466Y1016975D01*
X716927Y1019727D01*
X716913Y1019759D01*
X716904Y1019807D01*
X715919Y1022432D01*
X715904Y1022457D01*
X715899Y1022477D01*
X715891Y1022488D01*
X715884Y1022507D01*
X714480Y1024935D01*
X714457Y1024961D01*
X714433Y1025003D01*
X712649Y1027166D01*
X712622Y1027188D01*
X712591Y1027225D01*
X710475Y1029066D01*
X710445Y1029083D01*
X710409Y1029115D01*
X708018Y1030582D01*
X707986Y1030593D01*
X707945Y1030619D01*
X705346Y1031672D01*
X705312Y1031679D01*
X705267Y1031697D01*
X702530Y1032308D01*
X702495Y1032309D01*
X702448Y1032320D01*
X699648Y1032472D01*
X699614Y1032467D01*
X699566Y1032470D01*
X696778Y1032160D01*
X696745Y1032149D01*
X696697Y1032144D01*
X693999Y1031379D01*
X693969Y1031363D01*
X693922Y1031350D01*
X691387Y1030151D01*
X691363Y1030134D01*
X691336Y1030124D01*
X691284Y1030075D01*
X691227Y1030032D01*
X691213Y1030007D01*
X691192Y1029987D01*
X691163Y1029922D01*
X691127Y1029861D01*
X691124Y1029832D01*
X691112Y1029805D01*
X691111Y1029734D01*
X691102Y1029663D01*
X691110Y1029635D01*
X691110Y1029606D01*
X691144Y1029513D01*
X691156Y1029472D01*
X691163Y1029463D01*
X691168Y1029450D01*
X708168Y1000050D01*
X708187Y1000028D01*
X708200Y1000002D01*
X708253Y999954D01*
X708300Y999901D01*
X708326Y999889D01*
X708348Y999869D01*
X708415Y999846D01*
X708479Y999816D01*
X708508Y999814D01*
X708536Y999805D01*
X708607Y999810D01*
G37*
G36*
X708607Y699810D02*
X708607Y699810D01*
X708678Y699807D01*
X708705Y699817D01*
X708734Y699819D01*
X708824Y699861D01*
X708864Y699876D01*
X708872Y699884D01*
X708885Y699890D01*
X711188Y701489D01*
X711212Y701515D01*
X711252Y701542D01*
X713261Y703499D01*
X713280Y703528D01*
X713315Y703561D01*
X714974Y705822D01*
X714989Y705853D01*
X715018Y705892D01*
X716282Y708395D01*
X716291Y708429D01*
X716313Y708472D01*
X717149Y711149D01*
X717152Y711183D01*
X717167Y711229D01*
X717550Y714008D01*
X717548Y714042D01*
X717554Y714090D01*
X717475Y716893D01*
X717467Y716927D01*
X717466Y716975D01*
X716927Y719727D01*
X716913Y719759D01*
X716904Y719807D01*
X715919Y722432D01*
X715904Y722457D01*
X715899Y722477D01*
X715891Y722488D01*
X715884Y722507D01*
X714480Y724935D01*
X714457Y724961D01*
X714433Y725003D01*
X712649Y727166D01*
X712622Y727188D01*
X712591Y727225D01*
X710475Y729066D01*
X710445Y729083D01*
X710409Y729115D01*
X708018Y730582D01*
X707986Y730593D01*
X707945Y730619D01*
X705346Y731672D01*
X705312Y731679D01*
X705267Y731697D01*
X702530Y732308D01*
X702495Y732309D01*
X702448Y732320D01*
X699648Y732472D01*
X699614Y732467D01*
X699566Y732470D01*
X696778Y732160D01*
X696745Y732149D01*
X696697Y732144D01*
X693999Y731379D01*
X693969Y731363D01*
X693922Y731350D01*
X691387Y730151D01*
X691363Y730134D01*
X691336Y730124D01*
X691284Y730075D01*
X691227Y730032D01*
X691213Y730007D01*
X691192Y729987D01*
X691163Y729922D01*
X691127Y729861D01*
X691124Y729832D01*
X691112Y729805D01*
X691111Y729734D01*
X691102Y729663D01*
X691110Y729635D01*
X691110Y729606D01*
X691144Y729513D01*
X691156Y729472D01*
X691163Y729463D01*
X691168Y729450D01*
X708168Y700050D01*
X708187Y700028D01*
X708200Y700002D01*
X708253Y699954D01*
X708300Y699901D01*
X708326Y699889D01*
X708348Y699869D01*
X708415Y699846D01*
X708479Y699816D01*
X708508Y699814D01*
X708536Y699805D01*
X708607Y699810D01*
G37*
G36*
X708607Y399810D02*
X708607Y399810D01*
X708678Y399807D01*
X708705Y399817D01*
X708734Y399819D01*
X708824Y399861D01*
X708864Y399876D01*
X708872Y399884D01*
X708885Y399890D01*
X711188Y401489D01*
X711212Y401515D01*
X711252Y401542D01*
X713261Y403499D01*
X713280Y403528D01*
X713315Y403561D01*
X714974Y405822D01*
X714989Y405853D01*
X715018Y405892D01*
X716282Y408395D01*
X716291Y408429D01*
X716313Y408472D01*
X717149Y411149D01*
X717152Y411183D01*
X717167Y411229D01*
X717550Y414008D01*
X717548Y414042D01*
X717554Y414090D01*
X717475Y416893D01*
X717467Y416927D01*
X717466Y416975D01*
X716927Y419727D01*
X716913Y419759D01*
X716904Y419807D01*
X715919Y422432D01*
X715904Y422457D01*
X715899Y422477D01*
X715891Y422488D01*
X715884Y422507D01*
X714480Y424935D01*
X714457Y424961D01*
X714433Y425003D01*
X712649Y427166D01*
X712622Y427188D01*
X712591Y427225D01*
X710475Y429066D01*
X710445Y429083D01*
X710409Y429115D01*
X708018Y430582D01*
X707986Y430593D01*
X707945Y430619D01*
X705346Y431672D01*
X705312Y431679D01*
X705267Y431697D01*
X702530Y432308D01*
X702495Y432309D01*
X702448Y432320D01*
X699648Y432472D01*
X699614Y432467D01*
X699566Y432470D01*
X696778Y432160D01*
X696745Y432149D01*
X696697Y432144D01*
X693999Y431379D01*
X693969Y431363D01*
X693922Y431350D01*
X691387Y430151D01*
X691363Y430134D01*
X691336Y430124D01*
X691284Y430075D01*
X691227Y430032D01*
X691213Y430007D01*
X691192Y429987D01*
X691163Y429922D01*
X691127Y429861D01*
X691124Y429832D01*
X691112Y429805D01*
X691111Y429734D01*
X691102Y429663D01*
X691110Y429635D01*
X691110Y429606D01*
X691144Y429513D01*
X691156Y429472D01*
X691163Y429463D01*
X691168Y429450D01*
X708168Y400050D01*
X708187Y400028D01*
X708200Y400002D01*
X708253Y399954D01*
X708300Y399901D01*
X708326Y399889D01*
X708348Y399869D01*
X708415Y399846D01*
X708479Y399816D01*
X708508Y399814D01*
X708536Y399805D01*
X708607Y399810D01*
G37*
G36*
X960386Y1147533D02*
X960386Y1147533D01*
X960434Y1147530D01*
X963222Y1147840D01*
X963255Y1147851D01*
X963303Y1147856D01*
X966001Y1148621D01*
X966031Y1148637D01*
X966078Y1148650D01*
X968613Y1149849D01*
X968637Y1149866D01*
X968664Y1149876D01*
X968716Y1149925D01*
X968773Y1149968D01*
X968787Y1149993D01*
X968809Y1150013D01*
X968837Y1150078D01*
X968873Y1150140D01*
X968876Y1150168D01*
X968888Y1150195D01*
X968889Y1150266D01*
X968898Y1150337D01*
X968890Y1150365D01*
X968890Y1150394D01*
X968856Y1150487D01*
X968844Y1150528D01*
X968837Y1150537D01*
X968832Y1150550D01*
X951832Y1179950D01*
X951813Y1179972D01*
X951800Y1179998D01*
X951747Y1180046D01*
X951700Y1180099D01*
X951674Y1180111D01*
X951652Y1180131D01*
X951585Y1180154D01*
X951521Y1180184D01*
X951492Y1180186D01*
X951464Y1180195D01*
X951393Y1180190D01*
X951322Y1180193D01*
X951295Y1180183D01*
X951266Y1180181D01*
X951176Y1180139D01*
X951136Y1180124D01*
X951128Y1180116D01*
X951115Y1180110D01*
X948812Y1178511D01*
X948788Y1178486D01*
X948748Y1178458D01*
X946739Y1176501D01*
X946720Y1176472D01*
X946685Y1176439D01*
X945026Y1174178D01*
X945011Y1174147D01*
X944982Y1174108D01*
X943718Y1171605D01*
X943709Y1171571D01*
X943687Y1171528D01*
X942851Y1168851D01*
X942848Y1168817D01*
X942833Y1168771D01*
X942450Y1165992D01*
X942452Y1165958D01*
X942446Y1165910D01*
X942525Y1163107D01*
X942533Y1163073D01*
X942534Y1163025D01*
X943073Y1160273D01*
X943087Y1160241D01*
X943096Y1160193D01*
X944081Y1157568D01*
X944099Y1157538D01*
X944116Y1157493D01*
X945520Y1155065D01*
X945543Y1155039D01*
X945567Y1154998D01*
X947351Y1152834D01*
X947378Y1152812D01*
X947409Y1152775D01*
X949525Y1150934D01*
X949555Y1150917D01*
X949591Y1150886D01*
X951982Y1149418D01*
X952014Y1149407D01*
X952055Y1149381D01*
X954654Y1148328D01*
X954688Y1148321D01*
X954733Y1148303D01*
X957470Y1147692D01*
X957505Y1147691D01*
X957552Y1147680D01*
X960352Y1147528D01*
X960386Y1147533D01*
G37*
G36*
X960386Y847533D02*
X960386Y847533D01*
X960434Y847530D01*
X963222Y847840D01*
X963255Y847851D01*
X963303Y847856D01*
X966001Y848621D01*
X966031Y848637D01*
X966078Y848650D01*
X968613Y849849D01*
X968637Y849866D01*
X968664Y849876D01*
X968716Y849925D01*
X968773Y849968D01*
X968787Y849993D01*
X968809Y850013D01*
X968837Y850078D01*
X968873Y850140D01*
X968876Y850168D01*
X968888Y850195D01*
X968889Y850266D01*
X968898Y850337D01*
X968890Y850365D01*
X968890Y850394D01*
X968856Y850487D01*
X968844Y850528D01*
X968837Y850537D01*
X968832Y850550D01*
X951832Y879950D01*
X951813Y879972D01*
X951800Y879998D01*
X951747Y880046D01*
X951700Y880099D01*
X951674Y880111D01*
X951652Y880131D01*
X951585Y880154D01*
X951521Y880184D01*
X951492Y880186D01*
X951464Y880195D01*
X951393Y880190D01*
X951322Y880193D01*
X951295Y880183D01*
X951266Y880181D01*
X951176Y880139D01*
X951136Y880124D01*
X951128Y880116D01*
X951115Y880110D01*
X948812Y878511D01*
X948788Y878486D01*
X948748Y878458D01*
X946739Y876501D01*
X946720Y876472D01*
X946685Y876439D01*
X945026Y874178D01*
X945011Y874147D01*
X944982Y874108D01*
X943718Y871605D01*
X943709Y871571D01*
X943687Y871528D01*
X942851Y868851D01*
X942848Y868817D01*
X942833Y868771D01*
X942450Y865992D01*
X942452Y865958D01*
X942446Y865910D01*
X942525Y863107D01*
X942533Y863073D01*
X942534Y863025D01*
X943073Y860273D01*
X943087Y860241D01*
X943096Y860193D01*
X944081Y857568D01*
X944099Y857538D01*
X944116Y857493D01*
X945520Y855065D01*
X945543Y855039D01*
X945567Y854998D01*
X947351Y852834D01*
X947378Y852812D01*
X947409Y852775D01*
X949525Y850934D01*
X949555Y850917D01*
X949591Y850886D01*
X951982Y849418D01*
X952014Y849407D01*
X952055Y849381D01*
X954654Y848328D01*
X954688Y848321D01*
X954733Y848303D01*
X957470Y847692D01*
X957505Y847691D01*
X957552Y847680D01*
X960352Y847528D01*
X960386Y847533D01*
G37*
G36*
X960386Y547533D02*
X960386Y547533D01*
X960434Y547530D01*
X963222Y547840D01*
X963255Y547851D01*
X963303Y547856D01*
X966001Y548621D01*
X966031Y548637D01*
X966078Y548650D01*
X968613Y549849D01*
X968637Y549866D01*
X968664Y549876D01*
X968716Y549925D01*
X968773Y549968D01*
X968787Y549993D01*
X968809Y550013D01*
X968837Y550078D01*
X968873Y550140D01*
X968876Y550168D01*
X968888Y550195D01*
X968889Y550266D01*
X968898Y550337D01*
X968890Y550365D01*
X968890Y550394D01*
X968856Y550487D01*
X968844Y550528D01*
X968837Y550537D01*
X968832Y550550D01*
X951832Y579950D01*
X951813Y579972D01*
X951800Y579998D01*
X951747Y580046D01*
X951700Y580099D01*
X951674Y580111D01*
X951652Y580131D01*
X951585Y580154D01*
X951521Y580184D01*
X951492Y580186D01*
X951464Y580195D01*
X951393Y580190D01*
X951322Y580193D01*
X951295Y580183D01*
X951266Y580181D01*
X951176Y580139D01*
X951136Y580124D01*
X951128Y580116D01*
X951115Y580110D01*
X948812Y578511D01*
X948788Y578486D01*
X948748Y578458D01*
X946739Y576501D01*
X946720Y576472D01*
X946685Y576439D01*
X945026Y574178D01*
X945011Y574147D01*
X944982Y574108D01*
X943718Y571605D01*
X943709Y571571D01*
X943687Y571528D01*
X942851Y568851D01*
X942848Y568817D01*
X942833Y568771D01*
X942450Y565992D01*
X942452Y565958D01*
X942446Y565910D01*
X942525Y563107D01*
X942533Y563073D01*
X942534Y563025D01*
X943073Y560273D01*
X943087Y560241D01*
X943096Y560193D01*
X944081Y557568D01*
X944099Y557538D01*
X944116Y557493D01*
X945520Y555065D01*
X945543Y555039D01*
X945567Y554998D01*
X947351Y552834D01*
X947378Y552812D01*
X947409Y552775D01*
X949525Y550934D01*
X949555Y550917D01*
X949591Y550886D01*
X951982Y549418D01*
X952014Y549407D01*
X952055Y549381D01*
X954654Y548328D01*
X954688Y548321D01*
X954733Y548303D01*
X957470Y547692D01*
X957505Y547691D01*
X957552Y547680D01*
X960352Y547528D01*
X960386Y547533D01*
G37*
G36*
X951426Y999811D02*
X951426Y999811D01*
X951497Y999810D01*
X951524Y999821D01*
X951553Y999825D01*
X951615Y999859D01*
X951680Y999887D01*
X951701Y999908D01*
X951726Y999922D01*
X951789Y999998D01*
X951819Y1000029D01*
X951823Y1000039D01*
X951832Y1000050D01*
X968832Y1029450D01*
X968841Y1029478D01*
X968858Y1029502D01*
X968873Y1029571D01*
X968895Y1029639D01*
X968893Y1029668D01*
X968899Y1029696D01*
X968886Y1029766D01*
X968880Y1029837D01*
X968867Y1029863D01*
X968861Y1029891D01*
X968821Y1029950D01*
X968789Y1030013D01*
X968766Y1030032D01*
X968750Y1030056D01*
X968668Y1030113D01*
X968635Y1030140D01*
X968625Y1030143D01*
X968613Y1030151D01*
X966078Y1031350D01*
X966044Y1031358D01*
X966001Y1031379D01*
X963303Y1032144D01*
X963268Y1032146D01*
X963222Y1032160D01*
X960434Y1032470D01*
X960400Y1032467D01*
X960352Y1032472D01*
X957552Y1032320D01*
X957518Y1032311D01*
X957470Y1032308D01*
X954733Y1031697D01*
X954701Y1031683D01*
X954654Y1031672D01*
X952055Y1030619D01*
X952026Y1030600D01*
X951982Y1030582D01*
X949591Y1029115D01*
X949566Y1029091D01*
X949525Y1029066D01*
X947409Y1027225D01*
X947388Y1027198D01*
X947351Y1027166D01*
X945567Y1025003D01*
X945551Y1024972D01*
X945520Y1024935D01*
X944116Y1022507D01*
X944105Y1022474D01*
X944098Y1022462D01*
X944088Y1022447D01*
X944088Y1022444D01*
X944081Y1022432D01*
X943096Y1019807D01*
X943090Y1019772D01*
X943073Y1019727D01*
X942534Y1016975D01*
X942534Y1016941D01*
X942525Y1016893D01*
X942446Y1014090D01*
X942452Y1014056D01*
X942450Y1014008D01*
X942833Y1011229D01*
X942845Y1011197D01*
X942851Y1011149D01*
X943687Y1008472D01*
X943704Y1008441D01*
X943718Y1008395D01*
X944982Y1005892D01*
X945004Y1005865D01*
X945026Y1005822D01*
X946685Y1003561D01*
X946711Y1003538D01*
X946739Y1003499D01*
X948748Y1001542D01*
X948777Y1001523D01*
X948812Y1001489D01*
X951115Y999890D01*
X951142Y999878D01*
X951165Y999860D01*
X951233Y999839D01*
X951298Y999811D01*
X951327Y999811D01*
X951355Y999803D01*
X951426Y999811D01*
G37*
G36*
X951426Y699811D02*
X951426Y699811D01*
X951497Y699810D01*
X951524Y699821D01*
X951553Y699825D01*
X951615Y699859D01*
X951680Y699887D01*
X951701Y699908D01*
X951726Y699922D01*
X951789Y699998D01*
X951819Y700029D01*
X951823Y700039D01*
X951832Y700050D01*
X968832Y729450D01*
X968841Y729478D01*
X968858Y729502D01*
X968873Y729571D01*
X968895Y729639D01*
X968893Y729668D01*
X968899Y729696D01*
X968886Y729766D01*
X968880Y729837D01*
X968867Y729863D01*
X968861Y729891D01*
X968821Y729950D01*
X968789Y730013D01*
X968766Y730032D01*
X968750Y730056D01*
X968668Y730113D01*
X968635Y730140D01*
X968625Y730143D01*
X968613Y730151D01*
X966078Y731350D01*
X966044Y731358D01*
X966001Y731379D01*
X963303Y732144D01*
X963268Y732146D01*
X963222Y732160D01*
X960434Y732470D01*
X960400Y732467D01*
X960352Y732472D01*
X957552Y732320D01*
X957518Y732311D01*
X957470Y732308D01*
X954733Y731697D01*
X954701Y731683D01*
X954654Y731672D01*
X952055Y730619D01*
X952026Y730600D01*
X951982Y730582D01*
X949591Y729115D01*
X949566Y729091D01*
X949525Y729066D01*
X947409Y727225D01*
X947388Y727198D01*
X947351Y727166D01*
X945567Y725003D01*
X945551Y724972D01*
X945520Y724935D01*
X944116Y722507D01*
X944105Y722474D01*
X944098Y722462D01*
X944088Y722447D01*
X944088Y722444D01*
X944081Y722432D01*
X943096Y719807D01*
X943090Y719772D01*
X943073Y719727D01*
X942534Y716975D01*
X942534Y716941D01*
X942525Y716893D01*
X942446Y714090D01*
X942452Y714056D01*
X942450Y714008D01*
X942833Y711229D01*
X942845Y711197D01*
X942851Y711149D01*
X943687Y708472D01*
X943704Y708441D01*
X943718Y708395D01*
X944982Y705892D01*
X945004Y705865D01*
X945026Y705822D01*
X946685Y703561D01*
X946711Y703538D01*
X946739Y703499D01*
X948748Y701542D01*
X948777Y701523D01*
X948812Y701489D01*
X951115Y699890D01*
X951142Y699878D01*
X951165Y699860D01*
X951233Y699839D01*
X951298Y699811D01*
X951327Y699811D01*
X951355Y699803D01*
X951426Y699811D01*
G37*
G36*
X951426Y399811D02*
X951426Y399811D01*
X951497Y399810D01*
X951524Y399821D01*
X951553Y399825D01*
X951615Y399859D01*
X951680Y399887D01*
X951701Y399908D01*
X951726Y399922D01*
X951789Y399998D01*
X951819Y400029D01*
X951823Y400039D01*
X951832Y400050D01*
X968832Y429450D01*
X968841Y429478D01*
X968858Y429502D01*
X968873Y429571D01*
X968895Y429639D01*
X968893Y429668D01*
X968899Y429696D01*
X968886Y429766D01*
X968880Y429837D01*
X968867Y429863D01*
X968861Y429891D01*
X968821Y429950D01*
X968789Y430013D01*
X968766Y430032D01*
X968750Y430056D01*
X968668Y430113D01*
X968635Y430140D01*
X968625Y430143D01*
X968613Y430151D01*
X966078Y431350D01*
X966044Y431358D01*
X966001Y431379D01*
X963303Y432144D01*
X963268Y432146D01*
X963222Y432160D01*
X960434Y432470D01*
X960400Y432467D01*
X960352Y432472D01*
X957552Y432320D01*
X957518Y432311D01*
X957470Y432308D01*
X954733Y431697D01*
X954701Y431683D01*
X954654Y431672D01*
X952055Y430619D01*
X952026Y430600D01*
X951982Y430582D01*
X949591Y429115D01*
X949566Y429091D01*
X949525Y429066D01*
X947409Y427225D01*
X947388Y427198D01*
X947351Y427166D01*
X945567Y425003D01*
X945551Y424972D01*
X945520Y424935D01*
X944116Y422507D01*
X944105Y422474D01*
X944098Y422462D01*
X944088Y422447D01*
X944088Y422444D01*
X944081Y422432D01*
X943096Y419807D01*
X943090Y419772D01*
X943073Y419727D01*
X942534Y416975D01*
X942534Y416941D01*
X942525Y416893D01*
X942446Y414090D01*
X942452Y414056D01*
X942450Y414008D01*
X942833Y411229D01*
X942845Y411197D01*
X942851Y411149D01*
X943687Y408472D01*
X943704Y408441D01*
X943718Y408395D01*
X944982Y405892D01*
X945004Y405865D01*
X945026Y405822D01*
X946685Y403561D01*
X946711Y403538D01*
X946739Y403499D01*
X948748Y401542D01*
X948777Y401523D01*
X948812Y401489D01*
X951115Y399890D01*
X951142Y399878D01*
X951165Y399860D01*
X951233Y399839D01*
X951298Y399811D01*
X951327Y399811D01*
X951355Y399803D01*
X951426Y399811D01*
G37*
G36*
X702448Y1147680D02*
X702448Y1147680D01*
X702482Y1147689D01*
X702530Y1147692D01*
X705267Y1148303D01*
X705299Y1148317D01*
X705346Y1148328D01*
X707945Y1149381D01*
X707974Y1149400D01*
X708018Y1149418D01*
X710409Y1150886D01*
X710434Y1150909D01*
X710475Y1150934D01*
X712591Y1152775D01*
X712612Y1152802D01*
X712649Y1152834D01*
X714433Y1154998D01*
X714449Y1155028D01*
X714480Y1155065D01*
X715884Y1157493D01*
X715895Y1157526D01*
X715919Y1157568D01*
X716904Y1160193D01*
X716910Y1160228D01*
X716927Y1160273D01*
X717466Y1163025D01*
X717466Y1163060D01*
X717475Y1163107D01*
X717554Y1165910D01*
X717549Y1165944D01*
X717550Y1165992D01*
X717167Y1168771D01*
X717155Y1168803D01*
X717149Y1168851D01*
X716313Y1171528D01*
X716296Y1171559D01*
X716282Y1171605D01*
X715018Y1174108D01*
X714996Y1174135D01*
X714974Y1174178D01*
X713315Y1176439D01*
X713289Y1176462D01*
X713261Y1176501D01*
X711252Y1178458D01*
X711223Y1178477D01*
X711188Y1178511D01*
X708885Y1180110D01*
X708858Y1180122D01*
X708835Y1180140D01*
X708767Y1180161D01*
X708702Y1180189D01*
X708673Y1180189D01*
X708645Y1180197D01*
X708574Y1180189D01*
X708503Y1180190D01*
X708476Y1180179D01*
X708447Y1180175D01*
X708385Y1180141D01*
X708320Y1180113D01*
X708299Y1180092D01*
X708274Y1180078D01*
X708211Y1180002D01*
X708181Y1179971D01*
X708177Y1179961D01*
X708168Y1179950D01*
X691168Y1150550D01*
X691159Y1150522D01*
X691142Y1150498D01*
X691127Y1150429D01*
X691105Y1150361D01*
X691107Y1150332D01*
X691101Y1150304D01*
X691114Y1150234D01*
X691120Y1150163D01*
X691133Y1150137D01*
X691139Y1150109D01*
X691179Y1150050D01*
X691211Y1149987D01*
X691234Y1149968D01*
X691250Y1149944D01*
X691332Y1149887D01*
X691365Y1149860D01*
X691375Y1149857D01*
X691387Y1149849D01*
X693922Y1148650D01*
X693956Y1148642D01*
X693999Y1148621D01*
X696697Y1147856D01*
X696732Y1147854D01*
X696778Y1147840D01*
X699566Y1147530D01*
X699600Y1147533D01*
X699648Y1147528D01*
X702448Y1147680D01*
G37*
G36*
X702448Y847680D02*
X702448Y847680D01*
X702482Y847689D01*
X702530Y847692D01*
X705267Y848303D01*
X705299Y848317D01*
X705346Y848328D01*
X707945Y849381D01*
X707974Y849400D01*
X708018Y849418D01*
X710409Y850886D01*
X710434Y850909D01*
X710475Y850934D01*
X712591Y852775D01*
X712612Y852802D01*
X712649Y852834D01*
X714433Y854998D01*
X714449Y855028D01*
X714480Y855065D01*
X715884Y857493D01*
X715895Y857526D01*
X715919Y857568D01*
X716904Y860193D01*
X716910Y860228D01*
X716927Y860273D01*
X717466Y863025D01*
X717466Y863060D01*
X717475Y863107D01*
X717554Y865910D01*
X717549Y865944D01*
X717550Y865992D01*
X717167Y868771D01*
X717155Y868803D01*
X717149Y868851D01*
X716313Y871528D01*
X716296Y871559D01*
X716282Y871605D01*
X715018Y874108D01*
X714996Y874135D01*
X714974Y874178D01*
X713315Y876439D01*
X713289Y876462D01*
X713261Y876501D01*
X711252Y878458D01*
X711223Y878477D01*
X711188Y878511D01*
X708885Y880110D01*
X708858Y880122D01*
X708835Y880140D01*
X708767Y880161D01*
X708702Y880189D01*
X708673Y880189D01*
X708645Y880197D01*
X708574Y880189D01*
X708503Y880190D01*
X708476Y880179D01*
X708447Y880175D01*
X708385Y880141D01*
X708320Y880113D01*
X708299Y880092D01*
X708274Y880078D01*
X708211Y880002D01*
X708181Y879971D01*
X708177Y879961D01*
X708168Y879950D01*
X691168Y850550D01*
X691159Y850522D01*
X691142Y850498D01*
X691127Y850429D01*
X691105Y850361D01*
X691107Y850332D01*
X691101Y850304D01*
X691114Y850234D01*
X691120Y850163D01*
X691133Y850137D01*
X691139Y850109D01*
X691179Y850050D01*
X691211Y849987D01*
X691234Y849968D01*
X691250Y849944D01*
X691332Y849887D01*
X691365Y849860D01*
X691375Y849857D01*
X691387Y849849D01*
X693922Y848650D01*
X693956Y848642D01*
X693999Y848621D01*
X696697Y847856D01*
X696732Y847854D01*
X696778Y847840D01*
X699566Y847530D01*
X699600Y847533D01*
X699648Y847528D01*
X702448Y847680D01*
G37*
G36*
X702448Y547680D02*
X702448Y547680D01*
X702482Y547689D01*
X702530Y547692D01*
X705267Y548303D01*
X705299Y548317D01*
X705346Y548328D01*
X707945Y549381D01*
X707974Y549400D01*
X708018Y549418D01*
X710409Y550886D01*
X710434Y550909D01*
X710475Y550934D01*
X712591Y552775D01*
X712612Y552802D01*
X712649Y552834D01*
X714433Y554998D01*
X714449Y555028D01*
X714480Y555065D01*
X715884Y557493D01*
X715895Y557526D01*
X715919Y557568D01*
X716904Y560193D01*
X716910Y560228D01*
X716927Y560273D01*
X717466Y563025D01*
X717466Y563060D01*
X717475Y563107D01*
X717554Y565910D01*
X717549Y565944D01*
X717550Y565992D01*
X717167Y568771D01*
X717155Y568803D01*
X717149Y568851D01*
X716313Y571528D01*
X716296Y571559D01*
X716282Y571605D01*
X715018Y574108D01*
X714996Y574135D01*
X714974Y574178D01*
X713315Y576439D01*
X713289Y576462D01*
X713261Y576501D01*
X711252Y578458D01*
X711223Y578477D01*
X711188Y578511D01*
X708885Y580110D01*
X708858Y580122D01*
X708835Y580140D01*
X708767Y580161D01*
X708702Y580189D01*
X708673Y580189D01*
X708645Y580197D01*
X708574Y580189D01*
X708503Y580190D01*
X708476Y580179D01*
X708447Y580175D01*
X708385Y580141D01*
X708320Y580113D01*
X708299Y580092D01*
X708274Y580078D01*
X708211Y580002D01*
X708181Y579971D01*
X708177Y579961D01*
X708168Y579950D01*
X691168Y550550D01*
X691159Y550522D01*
X691142Y550498D01*
X691127Y550429D01*
X691105Y550361D01*
X691107Y550332D01*
X691101Y550304D01*
X691114Y550234D01*
X691120Y550163D01*
X691133Y550137D01*
X691139Y550109D01*
X691179Y550050D01*
X691211Y549987D01*
X691234Y549968D01*
X691250Y549944D01*
X691332Y549887D01*
X691365Y549860D01*
X691375Y549857D01*
X691387Y549849D01*
X693922Y548650D01*
X693956Y548642D01*
X693999Y548621D01*
X696697Y547856D01*
X696732Y547854D01*
X696778Y547840D01*
X699566Y547530D01*
X699600Y547533D01*
X699648Y547528D01*
X702448Y547680D01*
G37*
G36*
X993727Y1073011D02*
X993727Y1073011D01*
X993798Y1073011D01*
X993825Y1073022D01*
X993854Y1073025D01*
X993916Y1073060D01*
X993981Y1073088D01*
X994002Y1073108D01*
X994027Y1073123D01*
X994090Y1073200D01*
X994120Y1073230D01*
X994124Y1073240D01*
X994133Y1073251D01*
X1003633Y1089751D01*
X1003643Y1089783D01*
X1003652Y1089796D01*
X1003656Y1089820D01*
X1003657Y1089824D01*
X1003688Y1089894D01*
X1003688Y1089918D01*
X1003696Y1089940D01*
X1003690Y1090016D01*
X1003691Y1090093D01*
X1003681Y1090117D01*
X1003680Y1090138D01*
X1003659Y1090177D01*
X1003633Y1090249D01*
X994133Y1106749D01*
X994114Y1106771D01*
X994101Y1106797D01*
X994048Y1106845D01*
X994001Y1106898D01*
X993975Y1106911D01*
X993954Y1106930D01*
X993886Y1106953D01*
X993822Y1106984D01*
X993793Y1106986D01*
X993766Y1106995D01*
X993694Y1106990D01*
X993623Y1106993D01*
X993596Y1106983D01*
X993567Y1106981D01*
X993477Y1106939D01*
X993437Y1106924D01*
X993429Y1106917D01*
X993416Y1106911D01*
X990893Y1105169D01*
X990869Y1105145D01*
X990831Y1105118D01*
X988619Y1102994D01*
X988600Y1102966D01*
X988566Y1102934D01*
X986724Y1100483D01*
X986710Y1100452D01*
X986681Y1100415D01*
X985256Y1097700D01*
X985247Y1097669D01*
X985231Y1097644D01*
X985230Y1097635D01*
X985225Y1097626D01*
X984254Y1094718D01*
X984250Y1094684D01*
X984235Y1094640D01*
X983743Y1091613D01*
X983744Y1091579D01*
X983736Y1091533D01*
X983736Y1088467D01*
X983737Y1088463D01*
X983737Y1088461D01*
X983743Y1088434D01*
X983743Y1088387D01*
X984235Y1085360D01*
X984247Y1085329D01*
X984254Y1085282D01*
X985225Y1082374D01*
X985242Y1082345D01*
X985256Y1082300D01*
X986681Y1079585D01*
X986703Y1079559D01*
X986724Y1079517D01*
X988566Y1077066D01*
X988591Y1077043D01*
X988619Y1077006D01*
X990831Y1074882D01*
X990859Y1074864D01*
X990893Y1074831D01*
X993416Y1073089D01*
X993443Y1073078D01*
X993465Y1073059D01*
X993534Y1073039D01*
X993599Y1073011D01*
X993628Y1073011D01*
X993656Y1073003D01*
X993727Y1073011D01*
G37*
G36*
X993727Y773011D02*
X993727Y773011D01*
X993798Y773011D01*
X993825Y773022D01*
X993854Y773025D01*
X993916Y773060D01*
X993981Y773088D01*
X994002Y773108D01*
X994027Y773123D01*
X994090Y773200D01*
X994120Y773230D01*
X994124Y773240D01*
X994133Y773251D01*
X1003633Y789751D01*
X1003643Y789783D01*
X1003652Y789796D01*
X1003656Y789820D01*
X1003657Y789824D01*
X1003688Y789894D01*
X1003688Y789918D01*
X1003696Y789940D01*
X1003690Y790016D01*
X1003691Y790093D01*
X1003681Y790117D01*
X1003680Y790138D01*
X1003659Y790177D01*
X1003633Y790249D01*
X994133Y806749D01*
X994114Y806771D01*
X994101Y806797D01*
X994048Y806845D01*
X994001Y806898D01*
X993975Y806911D01*
X993954Y806930D01*
X993886Y806953D01*
X993822Y806984D01*
X993793Y806986D01*
X993766Y806995D01*
X993694Y806990D01*
X993623Y806993D01*
X993596Y806983D01*
X993567Y806981D01*
X993477Y806939D01*
X993437Y806924D01*
X993429Y806917D01*
X993416Y806911D01*
X990893Y805169D01*
X990869Y805145D01*
X990831Y805118D01*
X988619Y802994D01*
X988600Y802966D01*
X988566Y802934D01*
X986724Y800483D01*
X986710Y800452D01*
X986681Y800415D01*
X985256Y797700D01*
X985247Y797669D01*
X985231Y797644D01*
X985230Y797635D01*
X985225Y797626D01*
X984254Y794718D01*
X984250Y794684D01*
X984235Y794640D01*
X983743Y791613D01*
X983744Y791579D01*
X983736Y791533D01*
X983736Y788467D01*
X983737Y788463D01*
X983737Y788461D01*
X983743Y788434D01*
X983743Y788387D01*
X984235Y785360D01*
X984247Y785329D01*
X984254Y785282D01*
X985225Y782374D01*
X985242Y782345D01*
X985256Y782300D01*
X986681Y779585D01*
X986703Y779559D01*
X986724Y779517D01*
X988566Y777066D01*
X988591Y777043D01*
X988619Y777006D01*
X990831Y774882D01*
X990859Y774864D01*
X990893Y774831D01*
X993416Y773089D01*
X993443Y773078D01*
X993465Y773059D01*
X993534Y773039D01*
X993599Y773011D01*
X993628Y773011D01*
X993656Y773003D01*
X993727Y773011D01*
G37*
G36*
X993727Y473011D02*
X993727Y473011D01*
X993798Y473011D01*
X993825Y473022D01*
X993854Y473025D01*
X993916Y473060D01*
X993981Y473088D01*
X994002Y473108D01*
X994027Y473123D01*
X994090Y473200D01*
X994120Y473230D01*
X994124Y473240D01*
X994133Y473251D01*
X1003633Y489751D01*
X1003643Y489783D01*
X1003652Y489796D01*
X1003656Y489820D01*
X1003657Y489824D01*
X1003688Y489894D01*
X1003688Y489918D01*
X1003696Y489940D01*
X1003690Y490016D01*
X1003691Y490093D01*
X1003681Y490117D01*
X1003680Y490138D01*
X1003659Y490177D01*
X1003633Y490249D01*
X994133Y506749D01*
X994114Y506771D01*
X994101Y506797D01*
X994048Y506845D01*
X994001Y506898D01*
X993975Y506911D01*
X993954Y506930D01*
X993886Y506953D01*
X993822Y506984D01*
X993793Y506986D01*
X993766Y506995D01*
X993694Y506990D01*
X993623Y506993D01*
X993596Y506983D01*
X993567Y506981D01*
X993477Y506939D01*
X993437Y506924D01*
X993429Y506917D01*
X993416Y506911D01*
X990893Y505169D01*
X990869Y505145D01*
X990831Y505118D01*
X988619Y502994D01*
X988600Y502966D01*
X988566Y502934D01*
X986724Y500483D01*
X986710Y500452D01*
X986681Y500415D01*
X985256Y497700D01*
X985247Y497669D01*
X985231Y497644D01*
X985230Y497635D01*
X985225Y497626D01*
X984254Y494718D01*
X984250Y494684D01*
X984235Y494640D01*
X983743Y491613D01*
X983744Y491579D01*
X983736Y491533D01*
X983736Y488467D01*
X983737Y488463D01*
X983737Y488461D01*
X983743Y488434D01*
X983743Y488387D01*
X984235Y485360D01*
X984247Y485329D01*
X984254Y485282D01*
X985225Y482374D01*
X985242Y482345D01*
X985256Y482300D01*
X986681Y479585D01*
X986703Y479559D01*
X986724Y479517D01*
X988566Y477066D01*
X988591Y477043D01*
X988619Y477006D01*
X990831Y474882D01*
X990859Y474864D01*
X990893Y474831D01*
X993416Y473089D01*
X993443Y473078D01*
X993465Y473059D01*
X993534Y473039D01*
X993599Y473011D01*
X993628Y473011D01*
X993656Y473003D01*
X993727Y473011D01*
G37*
G36*
X666306Y1073010D02*
X666306Y1073010D01*
X666377Y1073007D01*
X666404Y1073017D01*
X666433Y1073019D01*
X666523Y1073061D01*
X666563Y1073076D01*
X666571Y1073083D01*
X666584Y1073089D01*
X669107Y1074831D01*
X669131Y1074855D01*
X669169Y1074882D01*
X671381Y1077006D01*
X671400Y1077034D01*
X671434Y1077066D01*
X673276Y1079517D01*
X673290Y1079548D01*
X673319Y1079585D01*
X674744Y1082300D01*
X674753Y1082333D01*
X674775Y1082374D01*
X675746Y1085282D01*
X675750Y1085316D01*
X675765Y1085360D01*
X676257Y1088387D01*
X676256Y1088421D01*
X676264Y1088467D01*
X676264Y1091533D01*
X676257Y1091566D01*
X676257Y1091613D01*
X675765Y1094640D01*
X675753Y1094671D01*
X675746Y1094718D01*
X674775Y1097626D01*
X674762Y1097649D01*
X674756Y1097674D01*
X674749Y1097683D01*
X674744Y1097700D01*
X673319Y1100415D01*
X673297Y1100441D01*
X673276Y1100483D01*
X671434Y1102934D01*
X671409Y1102957D01*
X671381Y1102994D01*
X669169Y1105118D01*
X669141Y1105136D01*
X669107Y1105169D01*
X666584Y1106911D01*
X666557Y1106922D01*
X666535Y1106941D01*
X666466Y1106961D01*
X666401Y1106989D01*
X666372Y1106989D01*
X666344Y1106997D01*
X666273Y1106989D01*
X666202Y1106990D01*
X666175Y1106978D01*
X666146Y1106975D01*
X666084Y1106940D01*
X666019Y1106912D01*
X665998Y1106892D01*
X665973Y1106877D01*
X665910Y1106800D01*
X665880Y1106770D01*
X665876Y1106760D01*
X665867Y1106749D01*
X656367Y1090249D01*
X656343Y1090176D01*
X656312Y1090106D01*
X656312Y1090082D01*
X656304Y1090060D01*
X656311Y1089984D01*
X656310Y1089907D01*
X656319Y1089883D01*
X656320Y1089862D01*
X656341Y1089823D01*
X656360Y1089771D01*
X656361Y1089765D01*
X656363Y1089763D01*
X656367Y1089751D01*
X665867Y1073251D01*
X665886Y1073229D01*
X665899Y1073203D01*
X665952Y1073155D01*
X665999Y1073102D01*
X666025Y1073089D01*
X666047Y1073070D01*
X666114Y1073047D01*
X666178Y1073016D01*
X666207Y1073015D01*
X666234Y1073005D01*
X666306Y1073010D01*
G37*
G36*
X666306Y773010D02*
X666306Y773010D01*
X666377Y773007D01*
X666404Y773017D01*
X666433Y773019D01*
X666523Y773061D01*
X666563Y773076D01*
X666571Y773083D01*
X666584Y773089D01*
X669107Y774831D01*
X669131Y774855D01*
X669169Y774882D01*
X671381Y777006D01*
X671400Y777034D01*
X671434Y777066D01*
X673276Y779517D01*
X673290Y779548D01*
X673319Y779585D01*
X674744Y782300D01*
X674753Y782333D01*
X674775Y782374D01*
X675746Y785282D01*
X675750Y785316D01*
X675765Y785360D01*
X676257Y788387D01*
X676256Y788421D01*
X676264Y788467D01*
X676264Y791533D01*
X676257Y791566D01*
X676257Y791613D01*
X675765Y794640D01*
X675753Y794671D01*
X675746Y794718D01*
X674775Y797626D01*
X674762Y797649D01*
X674756Y797674D01*
X674749Y797683D01*
X674744Y797700D01*
X673319Y800415D01*
X673297Y800441D01*
X673276Y800483D01*
X671434Y802934D01*
X671409Y802957D01*
X671381Y802994D01*
X669169Y805118D01*
X669141Y805136D01*
X669107Y805169D01*
X666584Y806911D01*
X666557Y806922D01*
X666535Y806941D01*
X666466Y806961D01*
X666401Y806989D01*
X666372Y806989D01*
X666344Y806997D01*
X666273Y806989D01*
X666202Y806990D01*
X666175Y806978D01*
X666146Y806975D01*
X666084Y806940D01*
X666019Y806912D01*
X665998Y806892D01*
X665973Y806877D01*
X665910Y806800D01*
X665880Y806770D01*
X665876Y806760D01*
X665867Y806749D01*
X656367Y790249D01*
X656343Y790176D01*
X656312Y790106D01*
X656312Y790082D01*
X656304Y790060D01*
X656311Y789984D01*
X656310Y789907D01*
X656319Y789883D01*
X656320Y789862D01*
X656341Y789823D01*
X656360Y789771D01*
X656361Y789765D01*
X656363Y789763D01*
X656367Y789751D01*
X665867Y773251D01*
X665886Y773229D01*
X665899Y773203D01*
X665952Y773155D01*
X665999Y773102D01*
X666025Y773089D01*
X666047Y773070D01*
X666114Y773047D01*
X666178Y773016D01*
X666207Y773015D01*
X666234Y773005D01*
X666306Y773010D01*
G37*
G36*
X666306Y473010D02*
X666306Y473010D01*
X666377Y473007D01*
X666404Y473017D01*
X666433Y473019D01*
X666523Y473061D01*
X666563Y473076D01*
X666571Y473083D01*
X666584Y473089D01*
X669107Y474831D01*
X669131Y474855D01*
X669169Y474882D01*
X671381Y477006D01*
X671400Y477034D01*
X671434Y477066D01*
X673276Y479517D01*
X673290Y479548D01*
X673319Y479585D01*
X674744Y482300D01*
X674753Y482333D01*
X674775Y482374D01*
X675746Y485282D01*
X675750Y485316D01*
X675765Y485360D01*
X676257Y488387D01*
X676256Y488421D01*
X676264Y488467D01*
X676264Y491533D01*
X676257Y491566D01*
X676257Y491613D01*
X675765Y494640D01*
X675753Y494671D01*
X675746Y494718D01*
X674775Y497626D01*
X674762Y497649D01*
X674756Y497674D01*
X674749Y497683D01*
X674744Y497700D01*
X673319Y500415D01*
X673297Y500441D01*
X673276Y500483D01*
X671434Y502934D01*
X671409Y502957D01*
X671381Y502994D01*
X669169Y505118D01*
X669141Y505136D01*
X669107Y505169D01*
X666584Y506911D01*
X666557Y506922D01*
X666535Y506941D01*
X666466Y506961D01*
X666401Y506989D01*
X666372Y506989D01*
X666344Y506997D01*
X666273Y506989D01*
X666202Y506990D01*
X666175Y506978D01*
X666146Y506975D01*
X666084Y506940D01*
X666019Y506912D01*
X665998Y506892D01*
X665973Y506877D01*
X665910Y506800D01*
X665880Y506770D01*
X665876Y506760D01*
X665867Y506749D01*
X656367Y490249D01*
X656343Y490176D01*
X656312Y490106D01*
X656312Y490082D01*
X656304Y490060D01*
X656311Y489984D01*
X656310Y489907D01*
X656319Y489883D01*
X656320Y489862D01*
X656341Y489823D01*
X656360Y489771D01*
X656361Y489765D01*
X656363Y489763D01*
X656367Y489751D01*
X665867Y473251D01*
X665886Y473229D01*
X665899Y473203D01*
X665952Y473155D01*
X665999Y473102D01*
X666025Y473089D01*
X666047Y473070D01*
X666114Y473047D01*
X666178Y473016D01*
X666207Y473015D01*
X666234Y473005D01*
X666306Y473010D01*
G37*
G36*
X916676Y339516D02*
X916676Y339516D01*
X916754Y339525D01*
X916773Y339536D01*
X916795Y339540D01*
X916859Y339584D01*
X916927Y339623D01*
X916943Y339642D01*
X916959Y339653D01*
X916983Y339691D01*
X917033Y339751D01*
X926533Y356251D01*
X926542Y356278D01*
X926558Y356302D01*
X926573Y356372D01*
X926596Y356440D01*
X926593Y356468D01*
X926599Y356496D01*
X926586Y356567D01*
X926580Y356638D01*
X926567Y356663D01*
X926561Y356691D01*
X926521Y356751D01*
X926488Y356814D01*
X926466Y356832D01*
X926450Y356856D01*
X926367Y356914D01*
X926335Y356941D01*
X926324Y356944D01*
X926314Y356951D01*
X923548Y358260D01*
X923515Y358268D01*
X923472Y358288D01*
X920532Y359136D01*
X920498Y359139D01*
X920454Y359152D01*
X917416Y359517D01*
X917382Y359514D01*
X917335Y359520D01*
X914278Y359393D01*
X914245Y359385D01*
X914198Y359384D01*
X911201Y358768D01*
X911170Y358755D01*
X911124Y358746D01*
X908264Y357657D01*
X908236Y357639D01*
X908192Y357623D01*
X905544Y356089D01*
X905518Y356067D01*
X905478Y356044D01*
X903110Y354106D01*
X903088Y354079D01*
X903052Y354050D01*
X901025Y351757D01*
X901009Y351728D01*
X900977Y351693D01*
X899345Y349105D01*
X899333Y349073D01*
X899308Y349034D01*
X898112Y346217D01*
X898105Y346184D01*
X898102Y346177D01*
X898098Y346171D01*
X898097Y346165D01*
X898086Y346141D01*
X897358Y343169D01*
X897356Y343135D01*
X897345Y343090D01*
X897102Y340040D01*
X897106Y340011D01*
X897101Y339983D01*
X897118Y339914D01*
X897126Y339842D01*
X897141Y339818D01*
X897147Y339790D01*
X897190Y339732D01*
X897226Y339670D01*
X897248Y339653D01*
X897265Y339630D01*
X897327Y339593D01*
X897384Y339550D01*
X897412Y339543D01*
X897436Y339528D01*
X897536Y339512D01*
X897577Y339501D01*
X897587Y339503D01*
X897600Y339501D01*
X916600Y339501D01*
X916676Y339516D01*
G37*
G36*
X917369Y1220485D02*
X917369Y1220485D01*
X917416Y1220483D01*
X920454Y1220848D01*
X920486Y1220859D01*
X920532Y1220864D01*
X923472Y1221712D01*
X923502Y1221728D01*
X923548Y1221740D01*
X926314Y1223049D01*
X926336Y1223066D01*
X926363Y1223076D01*
X926415Y1223125D01*
X926473Y1223168D01*
X926487Y1223193D01*
X926508Y1223212D01*
X926537Y1223278D01*
X926573Y1223340D01*
X926576Y1223368D01*
X926588Y1223394D01*
X926589Y1223466D01*
X926598Y1223537D01*
X926590Y1223564D01*
X926591Y1223593D01*
X926555Y1223688D01*
X926544Y1223728D01*
X926537Y1223737D01*
X926533Y1223749D01*
X917033Y1240249D01*
X916981Y1240308D01*
X916935Y1240370D01*
X916916Y1240381D01*
X916901Y1240398D01*
X916831Y1240432D01*
X916764Y1240472D01*
X916740Y1240476D01*
X916722Y1240484D01*
X916677Y1240486D01*
X916600Y1240499D01*
X897600Y1240499D01*
X897572Y1240494D01*
X897544Y1240496D01*
X897476Y1240474D01*
X897405Y1240460D01*
X897382Y1240444D01*
X897355Y1240435D01*
X897300Y1240388D01*
X897241Y1240347D01*
X897226Y1240323D01*
X897205Y1240305D01*
X897173Y1240240D01*
X897134Y1240180D01*
X897129Y1240152D01*
X897117Y1240126D01*
X897108Y1240025D01*
X897101Y1239983D01*
X897103Y1239973D01*
X897102Y1239960D01*
X897345Y1236910D01*
X897354Y1236878D01*
X897358Y1236831D01*
X898086Y1233859D01*
X898101Y1233828D01*
X898112Y1233783D01*
X899308Y1230966D01*
X899327Y1230938D01*
X899345Y1230895D01*
X900977Y1228307D01*
X901001Y1228283D01*
X901025Y1228243D01*
X903052Y1225950D01*
X903079Y1225930D01*
X903110Y1225894D01*
X905478Y1223956D01*
X905508Y1223940D01*
X905544Y1223911D01*
X908192Y1222378D01*
X908224Y1222367D01*
X908264Y1222343D01*
X911124Y1221255D01*
X911157Y1221249D01*
X911201Y1221232D01*
X914198Y1220616D01*
X914232Y1220616D01*
X914278Y1220607D01*
X917335Y1220480D01*
X917369Y1220485D01*
G37*
G36*
X762428Y339506D02*
X762428Y339506D01*
X762456Y339504D01*
X762524Y339526D01*
X762595Y339540D01*
X762618Y339556D01*
X762645Y339565D01*
X762700Y339612D01*
X762759Y339653D01*
X762774Y339677D01*
X762796Y339695D01*
X762827Y339760D01*
X762866Y339820D01*
X762871Y339848D01*
X762883Y339874D01*
X762892Y339975D01*
X762899Y340017D01*
X762897Y340027D01*
X762898Y340040D01*
X762655Y343090D01*
X762646Y343122D01*
X762642Y343169D01*
X761914Y346141D01*
X761899Y346172D01*
X761888Y346217D01*
X760692Y349034D01*
X760673Y349062D01*
X760655Y349105D01*
X759023Y351693D01*
X758999Y351717D01*
X758975Y351757D01*
X756948Y354050D01*
X756921Y354070D01*
X756890Y354106D01*
X754523Y356044D01*
X754492Y356060D01*
X754456Y356089D01*
X751808Y357623D01*
X751776Y357633D01*
X751736Y357657D01*
X748876Y358746D01*
X748843Y358751D01*
X748799Y358768D01*
X745802Y359384D01*
X745768Y359384D01*
X745722Y359393D01*
X742665Y359520D01*
X742631Y359515D01*
X742584Y359517D01*
X739546Y359152D01*
X739514Y359141D01*
X739468Y359136D01*
X736528Y358288D01*
X736498Y358272D01*
X736453Y358260D01*
X733687Y356951D01*
X733664Y356934D01*
X733637Y356924D01*
X733585Y356875D01*
X733527Y356832D01*
X733513Y356807D01*
X733492Y356788D01*
X733463Y356722D01*
X733427Y356660D01*
X733424Y356632D01*
X733412Y356606D01*
X733411Y356534D01*
X733402Y356463D01*
X733410Y356436D01*
X733410Y356407D01*
X733445Y356312D01*
X733456Y356272D01*
X733463Y356263D01*
X733467Y356251D01*
X742967Y339751D01*
X743019Y339693D01*
X743065Y339630D01*
X743084Y339619D01*
X743099Y339602D01*
X743169Y339568D01*
X743236Y339528D01*
X743261Y339524D01*
X743278Y339516D01*
X743323Y339514D01*
X743400Y339501D01*
X762400Y339501D01*
X762428Y339506D01*
G37*
G36*
X745722Y1220607D02*
X745722Y1220607D01*
X745755Y1220615D01*
X745802Y1220616D01*
X748799Y1221232D01*
X748830Y1221245D01*
X748876Y1221255D01*
X751736Y1222343D01*
X751765Y1222361D01*
X751808Y1222378D01*
X754456Y1223911D01*
X754482Y1223933D01*
X754523Y1223956D01*
X756890Y1225894D01*
X756912Y1225921D01*
X756948Y1225950D01*
X758975Y1228243D01*
X758992Y1228272D01*
X759023Y1228307D01*
X760655Y1230895D01*
X760667Y1230927D01*
X760692Y1230966D01*
X761888Y1233783D01*
X761895Y1233816D01*
X761914Y1233859D01*
X762642Y1236831D01*
X762644Y1236865D01*
X762655Y1236910D01*
X762898Y1239960D01*
X762894Y1239989D01*
X762899Y1240017D01*
X762882Y1240086D01*
X762874Y1240158D01*
X762860Y1240182D01*
X762853Y1240210D01*
X762810Y1240268D01*
X762775Y1240330D01*
X762752Y1240347D01*
X762735Y1240370D01*
X762673Y1240407D01*
X762616Y1240450D01*
X762588Y1240457D01*
X762564Y1240472D01*
X762464Y1240488D01*
X762423Y1240499D01*
X762413Y1240497D01*
X762400Y1240499D01*
X743400Y1240499D01*
X743324Y1240484D01*
X743246Y1240475D01*
X743227Y1240464D01*
X743205Y1240460D01*
X743141Y1240416D01*
X743073Y1240377D01*
X743057Y1240358D01*
X743041Y1240347D01*
X743017Y1240309D01*
X742967Y1240249D01*
X733467Y1223749D01*
X733458Y1223722D01*
X733442Y1223698D01*
X733427Y1223628D01*
X733404Y1223560D01*
X733407Y1223532D01*
X733401Y1223504D01*
X733415Y1223434D01*
X733420Y1223362D01*
X733433Y1223337D01*
X733439Y1223309D01*
X733479Y1223249D01*
X733512Y1223186D01*
X733534Y1223168D01*
X733550Y1223144D01*
X733633Y1223086D01*
X733665Y1223059D01*
X733676Y1223056D01*
X733687Y1223049D01*
X736453Y1221740D01*
X736486Y1221732D01*
X736528Y1221712D01*
X739468Y1220864D01*
X739502Y1220861D01*
X739546Y1220848D01*
X742584Y1220483D01*
X742618Y1220486D01*
X742665Y1220480D01*
X745722Y1220607D01*
G37*
D10*
X800000Y500000D03*
X800000Y1080000D03*
D11*
X747400Y946900D03*
X664800Y1090000D03*
X747400Y1233100D03*
X706100Y1018500D03*
X706100Y1161500D03*
X747400Y646900D03*
X664800Y790000D03*
X747400Y933100D03*
X706100Y718500D03*
X706100Y861500D03*
X747400Y346900D03*
X664800Y490000D03*
X747400Y633100D03*
X706100Y418500D03*
X706100Y561500D03*
X912600Y1233100D03*
X995200Y1090000D03*
X912600Y946900D03*
X953900Y1161500D03*
X953900Y1018500D03*
X912600Y933100D03*
X995200Y790000D03*
X912600Y646900D03*
X953900Y861500D03*
X953900Y718500D03*
X912600Y633100D03*
X995200Y490000D03*
X912600Y346900D03*
X953900Y561500D03*
X953900Y418500D03*
D12*
X787400Y1031300D03*
X787400Y1005900D03*
X787400Y980500D03*
X787400Y955100D03*
X787400Y929700D03*
X787400Y904300D03*
X812800Y1031300D03*
X812800Y1005900D03*
X812800Y980500D03*
X812800Y955100D03*
X812800Y929700D03*
X812800Y904300D03*
X787400Y878900D03*
X812800Y878900D03*
X787400Y853500D03*
X787400Y828100D03*
X787400Y802700D03*
X787400Y777300D03*
X787400Y751900D03*
X787400Y726500D03*
X812800Y853500D03*
X812800Y828100D03*
X812800Y802700D03*
X812800Y777300D03*
X812800Y751900D03*
X812800Y726500D03*
X787400Y701100D03*
X812800Y701100D03*
X787400Y675700D03*
X787400Y650300D03*
X787400Y624900D03*
X787400Y599500D03*
X787400Y574100D03*
X787400Y548700D03*
X812800Y675700D03*
X812800Y650300D03*
X812800Y624900D03*
X812800Y599500D03*
X812800Y574100D03*
X812800Y548700D03*
D13*
X805942Y1192022D02*
X805942Y1206246D01*
X831342Y1206246D02*
X831342Y1192022D01*
X856742Y1192022D02*
X856742Y1206246D01*
X805942Y1160272D02*
X805942Y1146048D01*
X831342Y1146048D02*
X831342Y1160272D01*
X856742Y1160272D02*
X856742Y1146048D01*
X921512Y823214D02*
X935736Y823214D01*
X935736Y797814D02*
X921512Y797814D01*
D14*
X770890Y1049020D03*
X932180Y748030D03*
X759460Y1197610D03*
X782320Y1220470D03*
X765810Y1174750D03*
X740410Y1162050D03*
X876300Y688340D03*
X924560Y688340D03*
X889000Y878840D03*
X847090Y878840D03*
X726440Y698500D03*
X754380Y688340D03*
X899160Y861060D03*
X866140Y861060D03*
X785876Y405638D03*
X868426Y405892D03*
X880110Y535940D03*
X928370Y535940D03*
X901700Y561340D03*
X854710Y561340D03*
X792988Y431292D03*
X853694Y431546D03*
X754380Y1094740D03*
X781050Y1121410D03*
X706120Y1047750D03*
X706120Y1075690D03*
X900430Y1070610D03*
X924560Y1046480D03*
X911860Y1106170D03*
X911860Y1144270D03*
M02*
