M48
;GenerationSoftware,Autodesk,EAGLE,9.3.0*%
;CreationDate,2019-05-10T12:16:40Z*%
FMAT,2
ICI,OFF
METRIC,TZ,000.000
T4C0.400
T3C0.914
T2C1.016
T1C2.750
%
G90
M71
T1
X80000Y50000
X80000Y108000
T2
X81280Y92970
X81280Y90430
X78740Y87890
X81280Y87890
X78740Y85350
X78740Y82810
X78740Y80270
X78740Y77730
X78740Y75190
X78740Y72650
X81280Y98050
X81280Y85350
X81280Y82810
X81280Y80270
X81280Y77730
X81280Y75190
X81280Y72650
X78740Y70110
X81280Y70110
X78740Y67570
X78740Y65030
X78740Y62490
X78740Y59950
X78740Y57410
X78740Y54870
X81280Y67570
X81280Y65030
X81280Y62490
X81280Y57410
X81280Y54870
X78740Y103130
X78740Y100590
X78740Y98050
X78740Y95510
X78740Y92970
X78740Y90430
X81280Y103130
X81280Y100590
X81280Y59950
X81280Y95510
T3
X92862Y79781
X80594Y119913
X83134Y119913
X85674Y119913
X80594Y115316
X83134Y115316
X85674Y115316
X92862Y82321
T4
X88900Y87884
X84709Y87884
X75438Y68834
X89916Y86106
X86614Y86106
X78588Y40564
X86843Y40589
X88011Y53594
X92837Y53594
X90170Y56134
X85471Y56134
X77089Y104902
X85369Y43155
X75438Y109474
X78105Y112141
X70612Y104775
X70612Y107569
X90043Y107061
X92456Y104648
X91186Y110617
X91186Y114427
X72644Y69850
X93218Y74803
X75946Y119761
X78232Y122047
X76581Y117475
X74041Y116205
X87630Y68834
X92456Y68834
X79299Y43129
M30